%TF.GenerationSoftware,KiCad,Pcbnew,9.0.1*%
%TF.CreationDate,2025-10-25T16:54:00-04:00*%
%TF.ProjectId,Design V4.0,44657369-676e-4205-9634-2e302e6b6963,rev?*%
%TF.SameCoordinates,Original*%
%TF.FileFunction,Legend,Top*%
%TF.FilePolarity,Positive*%
%FSLAX46Y46*%
G04 Gerber Fmt 4.6, Leading zero omitted, Abs format (unit mm)*
G04 Created by KiCad (PCBNEW 9.0.1) date 2025-10-25 16:54:00*
%MOMM*%
%LPD*%
G01*
G04 APERTURE LIST*
%ADD10C,0.125000*%
%ADD11C,0.150000*%
%ADD12C,0.120000*%
%ADD13C,0.127000*%
%ADD14C,0.200000*%
G04 APERTURE END LIST*
D10*
X244343976Y-129893954D02*
X244248738Y-130084430D01*
X244248738Y-130084430D02*
X244248738Y-130370144D01*
X244248738Y-130370144D02*
X244343976Y-130655859D01*
X244343976Y-130655859D02*
X244534452Y-130846335D01*
X244534452Y-130846335D02*
X244724928Y-130941573D01*
X244724928Y-130941573D02*
X245105880Y-131036811D01*
X245105880Y-131036811D02*
X245391595Y-131036811D01*
X245391595Y-131036811D02*
X245772547Y-130941573D01*
X245772547Y-130941573D02*
X245963023Y-130846335D01*
X245963023Y-130846335D02*
X246153500Y-130655859D01*
X246153500Y-130655859D02*
X246248738Y-130370144D01*
X246248738Y-130370144D02*
X246248738Y-130179668D01*
X246248738Y-130179668D02*
X246153500Y-129893954D01*
X246153500Y-129893954D02*
X246058261Y-129798716D01*
X246058261Y-129798716D02*
X245391595Y-129798716D01*
X245391595Y-129798716D02*
X245391595Y-130179668D01*
X246248738Y-128084430D02*
X245201119Y-128084430D01*
X245201119Y-128084430D02*
X245010642Y-128179668D01*
X245010642Y-128179668D02*
X244915404Y-128370144D01*
X244915404Y-128370144D02*
X244915404Y-128751097D01*
X244915404Y-128751097D02*
X245010642Y-128941573D01*
X246153500Y-128084430D02*
X246248738Y-128274906D01*
X246248738Y-128274906D02*
X246248738Y-128751097D01*
X246248738Y-128751097D02*
X246153500Y-128941573D01*
X246153500Y-128941573D02*
X245963023Y-129036811D01*
X245963023Y-129036811D02*
X245772547Y-129036811D01*
X245772547Y-129036811D02*
X245582071Y-128941573D01*
X245582071Y-128941573D02*
X245486833Y-128751097D01*
X245486833Y-128751097D02*
X245486833Y-128274906D01*
X245486833Y-128274906D02*
X245391595Y-128084430D01*
X244915404Y-127417763D02*
X244915404Y-126655859D01*
X244248738Y-127132049D02*
X245963023Y-127132049D01*
X245963023Y-127132049D02*
X246153500Y-127036811D01*
X246153500Y-127036811D02*
X246248738Y-126846335D01*
X246248738Y-126846335D02*
X246248738Y-126655859D01*
X246248738Y-125703478D02*
X246153500Y-125893954D01*
X246153500Y-125893954D02*
X246058261Y-125989192D01*
X246058261Y-125989192D02*
X245867785Y-126084430D01*
X245867785Y-126084430D02*
X245296357Y-126084430D01*
X245296357Y-126084430D02*
X245105880Y-125989192D01*
X245105880Y-125989192D02*
X245010642Y-125893954D01*
X245010642Y-125893954D02*
X244915404Y-125703478D01*
X244915404Y-125703478D02*
X244915404Y-125417763D01*
X244915404Y-125417763D02*
X245010642Y-125227287D01*
X245010642Y-125227287D02*
X245105880Y-125132049D01*
X245105880Y-125132049D02*
X245296357Y-125036811D01*
X245296357Y-125036811D02*
X245867785Y-125036811D01*
X245867785Y-125036811D02*
X246058261Y-125132049D01*
X246058261Y-125132049D02*
X246153500Y-125227287D01*
X246153500Y-125227287D02*
X246248738Y-125417763D01*
X246248738Y-125417763D02*
X246248738Y-125703478D01*
X246248738Y-124179668D02*
X244915404Y-124179668D01*
X245296357Y-124179668D02*
X245105880Y-124084430D01*
X245105880Y-124084430D02*
X245010642Y-123989192D01*
X245010642Y-123989192D02*
X244915404Y-123798716D01*
X244915404Y-123798716D02*
X244915404Y-123608239D01*
X244343976Y-121893954D02*
X244248738Y-122084430D01*
X244248738Y-122084430D02*
X244248738Y-122370144D01*
X244248738Y-122370144D02*
X244343976Y-122655859D01*
X244343976Y-122655859D02*
X244534452Y-122846335D01*
X244534452Y-122846335D02*
X244724928Y-122941573D01*
X244724928Y-122941573D02*
X245105880Y-123036811D01*
X245105880Y-123036811D02*
X245391595Y-123036811D01*
X245391595Y-123036811D02*
X245772547Y-122941573D01*
X245772547Y-122941573D02*
X245963023Y-122846335D01*
X245963023Y-122846335D02*
X246153500Y-122655859D01*
X246153500Y-122655859D02*
X246248738Y-122370144D01*
X246248738Y-122370144D02*
X246248738Y-122179668D01*
X246248738Y-122179668D02*
X246153500Y-121893954D01*
X246153500Y-121893954D02*
X246058261Y-121798716D01*
X246058261Y-121798716D02*
X245391595Y-121798716D01*
X245391595Y-121798716D02*
X245391595Y-122179668D01*
X246248738Y-120941573D02*
X244915404Y-120941573D01*
X245296357Y-120941573D02*
X245105880Y-120846335D01*
X245105880Y-120846335D02*
X245010642Y-120751097D01*
X245010642Y-120751097D02*
X244915404Y-120560621D01*
X244915404Y-120560621D02*
X244915404Y-120370144D01*
X246248738Y-119703478D02*
X244915404Y-119703478D01*
X244248738Y-119703478D02*
X244343976Y-119798716D01*
X244343976Y-119798716D02*
X244439214Y-119703478D01*
X244439214Y-119703478D02*
X244343976Y-119608240D01*
X244343976Y-119608240D02*
X244248738Y-119703478D01*
X244248738Y-119703478D02*
X244439214Y-119703478D01*
X246248738Y-117893954D02*
X244248738Y-117893954D01*
X246153500Y-117893954D02*
X246248738Y-118084430D01*
X246248738Y-118084430D02*
X246248738Y-118465383D01*
X246248738Y-118465383D02*
X246153500Y-118655859D01*
X246153500Y-118655859D02*
X246058261Y-118751097D01*
X246058261Y-118751097D02*
X245867785Y-118846335D01*
X245867785Y-118846335D02*
X245296357Y-118846335D01*
X245296357Y-118846335D02*
X245105880Y-118751097D01*
X245105880Y-118751097D02*
X245010642Y-118655859D01*
X245010642Y-118655859D02*
X244915404Y-118465383D01*
X244915404Y-118465383D02*
X244915404Y-118084430D01*
X244915404Y-118084430D02*
X245010642Y-117893954D01*
X245486833Y-116941573D02*
X245486833Y-115417764D01*
X246248738Y-114465383D02*
X244248738Y-114465383D01*
X244248738Y-114465383D02*
X244248738Y-113989193D01*
X244248738Y-113989193D02*
X244343976Y-113703478D01*
X244343976Y-113703478D02*
X244534452Y-113513002D01*
X244534452Y-113513002D02*
X244724928Y-113417764D01*
X244724928Y-113417764D02*
X245105880Y-113322526D01*
X245105880Y-113322526D02*
X245391595Y-113322526D01*
X245391595Y-113322526D02*
X245772547Y-113417764D01*
X245772547Y-113417764D02*
X245963023Y-113513002D01*
X245963023Y-113513002D02*
X246153500Y-113703478D01*
X246153500Y-113703478D02*
X246248738Y-113989193D01*
X246248738Y-113989193D02*
X246248738Y-114465383D01*
X245201119Y-112465383D02*
X245201119Y-111798716D01*
X246248738Y-111513002D02*
X246248738Y-112465383D01*
X246248738Y-112465383D02*
X244248738Y-112465383D01*
X244248738Y-112465383D02*
X244248738Y-111513002D01*
X244248738Y-110941573D02*
X246248738Y-110274907D01*
X246248738Y-110274907D02*
X244248738Y-109608240D01*
X245486833Y-108941573D02*
X245486833Y-107417764D01*
X244248738Y-106751097D02*
X246248738Y-106084431D01*
X246248738Y-106084431D02*
X244248738Y-105417764D01*
X244915404Y-103893954D02*
X246248738Y-103893954D01*
X244153500Y-104370145D02*
X245582071Y-104846335D01*
X245582071Y-104846335D02*
X245582071Y-103608240D01*
X246058261Y-102846335D02*
X246153500Y-102751097D01*
X246153500Y-102751097D02*
X246248738Y-102846335D01*
X246248738Y-102846335D02*
X246153500Y-102941573D01*
X246153500Y-102941573D02*
X246058261Y-102846335D01*
X246058261Y-102846335D02*
X246248738Y-102846335D01*
X244248738Y-101513002D02*
X244248738Y-101322525D01*
X244248738Y-101322525D02*
X244343976Y-101132049D01*
X244343976Y-101132049D02*
X244439214Y-101036811D01*
X244439214Y-101036811D02*
X244629690Y-100941573D01*
X244629690Y-100941573D02*
X245010642Y-100846335D01*
X245010642Y-100846335D02*
X245486833Y-100846335D01*
X245486833Y-100846335D02*
X245867785Y-100941573D01*
X245867785Y-100941573D02*
X246058261Y-101036811D01*
X246058261Y-101036811D02*
X246153500Y-101132049D01*
X246153500Y-101132049D02*
X246248738Y-101322525D01*
X246248738Y-101322525D02*
X246248738Y-101513002D01*
X246248738Y-101513002D02*
X246153500Y-101703478D01*
X246153500Y-101703478D02*
X246058261Y-101798716D01*
X246058261Y-101798716D02*
X245867785Y-101893954D01*
X245867785Y-101893954D02*
X245486833Y-101989192D01*
X245486833Y-101989192D02*
X245010642Y-101989192D01*
X245010642Y-101989192D02*
X244629690Y-101893954D01*
X244629690Y-101893954D02*
X244439214Y-101798716D01*
X244439214Y-101798716D02*
X244343976Y-101703478D01*
X244343976Y-101703478D02*
X244248738Y-101513002D01*
D11*
X222584819Y-57976666D02*
X222108628Y-58309999D01*
X222584819Y-58548094D02*
X221584819Y-58548094D01*
X221584819Y-58548094D02*
X221584819Y-58167142D01*
X221584819Y-58167142D02*
X221632438Y-58071904D01*
X221632438Y-58071904D02*
X221680057Y-58024285D01*
X221680057Y-58024285D02*
X221775295Y-57976666D01*
X221775295Y-57976666D02*
X221918152Y-57976666D01*
X221918152Y-57976666D02*
X222013390Y-58024285D01*
X222013390Y-58024285D02*
X222061009Y-58071904D01*
X222061009Y-58071904D02*
X222108628Y-58167142D01*
X222108628Y-58167142D02*
X222108628Y-58548094D01*
X221584819Y-57119523D02*
X221584819Y-57309999D01*
X221584819Y-57309999D02*
X221632438Y-57405237D01*
X221632438Y-57405237D02*
X221680057Y-57452856D01*
X221680057Y-57452856D02*
X221822914Y-57548094D01*
X221822914Y-57548094D02*
X222013390Y-57595713D01*
X222013390Y-57595713D02*
X222394342Y-57595713D01*
X222394342Y-57595713D02*
X222489580Y-57548094D01*
X222489580Y-57548094D02*
X222537200Y-57500475D01*
X222537200Y-57500475D02*
X222584819Y-57405237D01*
X222584819Y-57405237D02*
X222584819Y-57214761D01*
X222584819Y-57214761D02*
X222537200Y-57119523D01*
X222537200Y-57119523D02*
X222489580Y-57071904D01*
X222489580Y-57071904D02*
X222394342Y-57024285D01*
X222394342Y-57024285D02*
X222156247Y-57024285D01*
X222156247Y-57024285D02*
X222061009Y-57071904D01*
X222061009Y-57071904D02*
X222013390Y-57119523D01*
X222013390Y-57119523D02*
X221965771Y-57214761D01*
X221965771Y-57214761D02*
X221965771Y-57405237D01*
X221965771Y-57405237D02*
X222013390Y-57500475D01*
X222013390Y-57500475D02*
X222061009Y-57548094D01*
X222061009Y-57548094D02*
X222156247Y-57595713D01*
X229166666Y-122944819D02*
X229166666Y-123659104D01*
X229166666Y-123659104D02*
X229119047Y-123801961D01*
X229119047Y-123801961D02*
X229023809Y-123897200D01*
X229023809Y-123897200D02*
X228880952Y-123944819D01*
X228880952Y-123944819D02*
X228785714Y-123944819D01*
X229547619Y-122944819D02*
X230214285Y-122944819D01*
X230214285Y-122944819D02*
X229785714Y-123944819D01*
X247954819Y-55666666D02*
X247478628Y-55999999D01*
X247954819Y-56238094D02*
X246954819Y-56238094D01*
X246954819Y-56238094D02*
X246954819Y-55857142D01*
X246954819Y-55857142D02*
X247002438Y-55761904D01*
X247002438Y-55761904D02*
X247050057Y-55714285D01*
X247050057Y-55714285D02*
X247145295Y-55666666D01*
X247145295Y-55666666D02*
X247288152Y-55666666D01*
X247288152Y-55666666D02*
X247383390Y-55714285D01*
X247383390Y-55714285D02*
X247431009Y-55761904D01*
X247431009Y-55761904D02*
X247478628Y-55857142D01*
X247478628Y-55857142D02*
X247478628Y-56238094D01*
X246954819Y-54761904D02*
X246954819Y-55238094D01*
X246954819Y-55238094D02*
X247431009Y-55285713D01*
X247431009Y-55285713D02*
X247383390Y-55238094D01*
X247383390Y-55238094D02*
X247335771Y-55142856D01*
X247335771Y-55142856D02*
X247335771Y-54904761D01*
X247335771Y-54904761D02*
X247383390Y-54809523D01*
X247383390Y-54809523D02*
X247431009Y-54761904D01*
X247431009Y-54761904D02*
X247526247Y-54714285D01*
X247526247Y-54714285D02*
X247764342Y-54714285D01*
X247764342Y-54714285D02*
X247859580Y-54761904D01*
X247859580Y-54761904D02*
X247907200Y-54809523D01*
X247907200Y-54809523D02*
X247954819Y-54904761D01*
X247954819Y-54904761D02*
X247954819Y-55142856D01*
X247954819Y-55142856D02*
X247907200Y-55238094D01*
X247907200Y-55238094D02*
X247859580Y-55285713D01*
X242996905Y-88954819D02*
X242996905Y-87954819D01*
X242996905Y-87954819D02*
X243235000Y-87954819D01*
X243235000Y-87954819D02*
X243377857Y-88002438D01*
X243377857Y-88002438D02*
X243473095Y-88097676D01*
X243473095Y-88097676D02*
X243520714Y-88192914D01*
X243520714Y-88192914D02*
X243568333Y-88383390D01*
X243568333Y-88383390D02*
X243568333Y-88526247D01*
X243568333Y-88526247D02*
X243520714Y-88716723D01*
X243520714Y-88716723D02*
X243473095Y-88811961D01*
X243473095Y-88811961D02*
X243377857Y-88907200D01*
X243377857Y-88907200D02*
X243235000Y-88954819D01*
X243235000Y-88954819D02*
X242996905Y-88954819D01*
X244425476Y-88288152D02*
X244425476Y-88954819D01*
X244187381Y-87907200D02*
X243949286Y-88621485D01*
X243949286Y-88621485D02*
X244568333Y-88621485D01*
X230523333Y-80324819D02*
X230190000Y-79848628D01*
X229951905Y-80324819D02*
X229951905Y-79324819D01*
X229951905Y-79324819D02*
X230332857Y-79324819D01*
X230332857Y-79324819D02*
X230428095Y-79372438D01*
X230428095Y-79372438D02*
X230475714Y-79420057D01*
X230475714Y-79420057D02*
X230523333Y-79515295D01*
X230523333Y-79515295D02*
X230523333Y-79658152D01*
X230523333Y-79658152D02*
X230475714Y-79753390D01*
X230475714Y-79753390D02*
X230428095Y-79801009D01*
X230428095Y-79801009D02*
X230332857Y-79848628D01*
X230332857Y-79848628D02*
X229951905Y-79848628D01*
X231094762Y-79753390D02*
X230999524Y-79705771D01*
X230999524Y-79705771D02*
X230951905Y-79658152D01*
X230951905Y-79658152D02*
X230904286Y-79562914D01*
X230904286Y-79562914D02*
X230904286Y-79515295D01*
X230904286Y-79515295D02*
X230951905Y-79420057D01*
X230951905Y-79420057D02*
X230999524Y-79372438D01*
X230999524Y-79372438D02*
X231094762Y-79324819D01*
X231094762Y-79324819D02*
X231285238Y-79324819D01*
X231285238Y-79324819D02*
X231380476Y-79372438D01*
X231380476Y-79372438D02*
X231428095Y-79420057D01*
X231428095Y-79420057D02*
X231475714Y-79515295D01*
X231475714Y-79515295D02*
X231475714Y-79562914D01*
X231475714Y-79562914D02*
X231428095Y-79658152D01*
X231428095Y-79658152D02*
X231380476Y-79705771D01*
X231380476Y-79705771D02*
X231285238Y-79753390D01*
X231285238Y-79753390D02*
X231094762Y-79753390D01*
X231094762Y-79753390D02*
X230999524Y-79801009D01*
X230999524Y-79801009D02*
X230951905Y-79848628D01*
X230951905Y-79848628D02*
X230904286Y-79943866D01*
X230904286Y-79943866D02*
X230904286Y-80134342D01*
X230904286Y-80134342D02*
X230951905Y-80229580D01*
X230951905Y-80229580D02*
X230999524Y-80277200D01*
X230999524Y-80277200D02*
X231094762Y-80324819D01*
X231094762Y-80324819D02*
X231285238Y-80324819D01*
X231285238Y-80324819D02*
X231380476Y-80277200D01*
X231380476Y-80277200D02*
X231428095Y-80229580D01*
X231428095Y-80229580D02*
X231475714Y-80134342D01*
X231475714Y-80134342D02*
X231475714Y-79943866D01*
X231475714Y-79943866D02*
X231428095Y-79848628D01*
X231428095Y-79848628D02*
X231380476Y-79801009D01*
X231380476Y-79801009D02*
X231285238Y-79753390D01*
X189926660Y-81664104D02*
X190402850Y-81664104D01*
X189831422Y-81949819D02*
X190164755Y-80949819D01*
X190164755Y-80949819D02*
X190498088Y-81949819D01*
X191355231Y-81949819D02*
X190783803Y-81949819D01*
X191069517Y-81949819D02*
X191069517Y-80949819D01*
X191069517Y-80949819D02*
X190974279Y-81092676D01*
X190974279Y-81092676D02*
X190879041Y-81187914D01*
X190879041Y-81187914D02*
X190783803Y-81235533D01*
X229091009Y-40843333D02*
X229091009Y-41176666D01*
X229614819Y-41176666D02*
X228614819Y-41176666D01*
X228614819Y-41176666D02*
X228614819Y-40700476D01*
X229614819Y-39795714D02*
X229614819Y-40367142D01*
X229614819Y-40081428D02*
X228614819Y-40081428D01*
X228614819Y-40081428D02*
X228757676Y-40176666D01*
X228757676Y-40176666D02*
X228852914Y-40271904D01*
X228852914Y-40271904D02*
X228900533Y-40367142D01*
X241584819Y-95166666D02*
X241108628Y-95499999D01*
X241584819Y-95738094D02*
X240584819Y-95738094D01*
X240584819Y-95738094D02*
X240584819Y-95357142D01*
X240584819Y-95357142D02*
X240632438Y-95261904D01*
X240632438Y-95261904D02*
X240680057Y-95214285D01*
X240680057Y-95214285D02*
X240775295Y-95166666D01*
X240775295Y-95166666D02*
X240918152Y-95166666D01*
X240918152Y-95166666D02*
X241013390Y-95214285D01*
X241013390Y-95214285D02*
X241061009Y-95261904D01*
X241061009Y-95261904D02*
X241108628Y-95357142D01*
X241108628Y-95357142D02*
X241108628Y-95738094D01*
X240680057Y-94785713D02*
X240632438Y-94738094D01*
X240632438Y-94738094D02*
X240584819Y-94642856D01*
X240584819Y-94642856D02*
X240584819Y-94404761D01*
X240584819Y-94404761D02*
X240632438Y-94309523D01*
X240632438Y-94309523D02*
X240680057Y-94261904D01*
X240680057Y-94261904D02*
X240775295Y-94214285D01*
X240775295Y-94214285D02*
X240870533Y-94214285D01*
X240870533Y-94214285D02*
X241013390Y-94261904D01*
X241013390Y-94261904D02*
X241584819Y-94833332D01*
X241584819Y-94833332D02*
X241584819Y-94214285D01*
X196424819Y-44238094D02*
X195424819Y-44238094D01*
X195424819Y-44238094D02*
X195424819Y-43999999D01*
X195424819Y-43999999D02*
X195472438Y-43857142D01*
X195472438Y-43857142D02*
X195567676Y-43761904D01*
X195567676Y-43761904D02*
X195662914Y-43714285D01*
X195662914Y-43714285D02*
X195853390Y-43666666D01*
X195853390Y-43666666D02*
X195996247Y-43666666D01*
X195996247Y-43666666D02*
X196186723Y-43714285D01*
X196186723Y-43714285D02*
X196281961Y-43761904D01*
X196281961Y-43761904D02*
X196377200Y-43857142D01*
X196377200Y-43857142D02*
X196424819Y-43999999D01*
X196424819Y-43999999D02*
X196424819Y-44238094D01*
X195424819Y-42761904D02*
X195424819Y-43238094D01*
X195424819Y-43238094D02*
X195901009Y-43285713D01*
X195901009Y-43285713D02*
X195853390Y-43238094D01*
X195853390Y-43238094D02*
X195805771Y-43142856D01*
X195805771Y-43142856D02*
X195805771Y-42904761D01*
X195805771Y-42904761D02*
X195853390Y-42809523D01*
X195853390Y-42809523D02*
X195901009Y-42761904D01*
X195901009Y-42761904D02*
X195996247Y-42714285D01*
X195996247Y-42714285D02*
X196234342Y-42714285D01*
X196234342Y-42714285D02*
X196329580Y-42761904D01*
X196329580Y-42761904D02*
X196377200Y-42809523D01*
X196377200Y-42809523D02*
X196424819Y-42904761D01*
X196424819Y-42904761D02*
X196424819Y-43142856D01*
X196424819Y-43142856D02*
X196377200Y-43238094D01*
X196377200Y-43238094D02*
X196329580Y-43285713D01*
X196054819Y-39951904D02*
X195054819Y-39951904D01*
X196054819Y-39380476D02*
X195483390Y-39809047D01*
X195054819Y-39380476D02*
X195626247Y-39951904D01*
X234866667Y-36007200D02*
X235009524Y-36054819D01*
X235009524Y-36054819D02*
X235247619Y-36054819D01*
X235247619Y-36054819D02*
X235342857Y-36007200D01*
X235342857Y-36007200D02*
X235390476Y-35959580D01*
X235390476Y-35959580D02*
X235438095Y-35864342D01*
X235438095Y-35864342D02*
X235438095Y-35769104D01*
X235438095Y-35769104D02*
X235390476Y-35673866D01*
X235390476Y-35673866D02*
X235342857Y-35626247D01*
X235342857Y-35626247D02*
X235247619Y-35578628D01*
X235247619Y-35578628D02*
X235057143Y-35531009D01*
X235057143Y-35531009D02*
X234961905Y-35483390D01*
X234961905Y-35483390D02*
X234914286Y-35435771D01*
X234914286Y-35435771D02*
X234866667Y-35340533D01*
X234866667Y-35340533D02*
X234866667Y-35245295D01*
X234866667Y-35245295D02*
X234914286Y-35150057D01*
X234914286Y-35150057D02*
X234961905Y-35102438D01*
X234961905Y-35102438D02*
X235057143Y-35054819D01*
X235057143Y-35054819D02*
X235295238Y-35054819D01*
X235295238Y-35054819D02*
X235438095Y-35102438D01*
X235771429Y-35054819D02*
X236009524Y-36054819D01*
X236009524Y-36054819D02*
X236200000Y-35340533D01*
X236200000Y-35340533D02*
X236390476Y-36054819D01*
X236390476Y-36054819D02*
X236628572Y-35054819D01*
X237533333Y-36054819D02*
X236961905Y-36054819D01*
X237247619Y-36054819D02*
X237247619Y-35054819D01*
X237247619Y-35054819D02*
X237152381Y-35197676D01*
X237152381Y-35197676D02*
X237057143Y-35292914D01*
X237057143Y-35292914D02*
X236961905Y-35340533D01*
X233109580Y-85666666D02*
X233157200Y-85714285D01*
X233157200Y-85714285D02*
X233204819Y-85857142D01*
X233204819Y-85857142D02*
X233204819Y-85952380D01*
X233204819Y-85952380D02*
X233157200Y-86095237D01*
X233157200Y-86095237D02*
X233061961Y-86190475D01*
X233061961Y-86190475D02*
X232966723Y-86238094D01*
X232966723Y-86238094D02*
X232776247Y-86285713D01*
X232776247Y-86285713D02*
X232633390Y-86285713D01*
X232633390Y-86285713D02*
X232442914Y-86238094D01*
X232442914Y-86238094D02*
X232347676Y-86190475D01*
X232347676Y-86190475D02*
X232252438Y-86095237D01*
X232252438Y-86095237D02*
X232204819Y-85952380D01*
X232204819Y-85952380D02*
X232204819Y-85857142D01*
X232204819Y-85857142D02*
X232252438Y-85714285D01*
X232252438Y-85714285D02*
X232300057Y-85666666D01*
X232538152Y-84809523D02*
X233204819Y-84809523D01*
X232157200Y-85047618D02*
X232871485Y-85285713D01*
X232871485Y-85285713D02*
X232871485Y-84666666D01*
X222359580Y-47666666D02*
X222407200Y-47714285D01*
X222407200Y-47714285D02*
X222454819Y-47857142D01*
X222454819Y-47857142D02*
X222454819Y-47952380D01*
X222454819Y-47952380D02*
X222407200Y-48095237D01*
X222407200Y-48095237D02*
X222311961Y-48190475D01*
X222311961Y-48190475D02*
X222216723Y-48238094D01*
X222216723Y-48238094D02*
X222026247Y-48285713D01*
X222026247Y-48285713D02*
X221883390Y-48285713D01*
X221883390Y-48285713D02*
X221692914Y-48238094D01*
X221692914Y-48238094D02*
X221597676Y-48190475D01*
X221597676Y-48190475D02*
X221502438Y-48095237D01*
X221502438Y-48095237D02*
X221454819Y-47952380D01*
X221454819Y-47952380D02*
X221454819Y-47857142D01*
X221454819Y-47857142D02*
X221502438Y-47714285D01*
X221502438Y-47714285D02*
X221550057Y-47666666D01*
X221550057Y-47285713D02*
X221502438Y-47238094D01*
X221502438Y-47238094D02*
X221454819Y-47142856D01*
X221454819Y-47142856D02*
X221454819Y-46904761D01*
X221454819Y-46904761D02*
X221502438Y-46809523D01*
X221502438Y-46809523D02*
X221550057Y-46761904D01*
X221550057Y-46761904D02*
X221645295Y-46714285D01*
X221645295Y-46714285D02*
X221740533Y-46714285D01*
X221740533Y-46714285D02*
X221883390Y-46761904D01*
X221883390Y-46761904D02*
X222454819Y-47333332D01*
X222454819Y-47333332D02*
X222454819Y-46714285D01*
X203166666Y-135454819D02*
X203166666Y-136169104D01*
X203166666Y-136169104D02*
X203119047Y-136311961D01*
X203119047Y-136311961D02*
X203023809Y-136407200D01*
X203023809Y-136407200D02*
X202880952Y-136454819D01*
X202880952Y-136454819D02*
X202785714Y-136454819D01*
X204071428Y-135788152D02*
X204071428Y-136454819D01*
X203833333Y-135407200D02*
X203595238Y-136121485D01*
X203595238Y-136121485D02*
X204214285Y-136121485D01*
X243976190Y-38954819D02*
X243976190Y-37954819D01*
X243976190Y-38431009D02*
X244547618Y-38431009D01*
X244547618Y-38954819D02*
X244547618Y-37954819D01*
X244976190Y-38050057D02*
X245023809Y-38002438D01*
X245023809Y-38002438D02*
X245119047Y-37954819D01*
X245119047Y-37954819D02*
X245357142Y-37954819D01*
X245357142Y-37954819D02*
X245452380Y-38002438D01*
X245452380Y-38002438D02*
X245499999Y-38050057D01*
X245499999Y-38050057D02*
X245547618Y-38145295D01*
X245547618Y-38145295D02*
X245547618Y-38240533D01*
X245547618Y-38240533D02*
X245499999Y-38383390D01*
X245499999Y-38383390D02*
X244928571Y-38954819D01*
X244928571Y-38954819D02*
X245547618Y-38954819D01*
X186446666Y-84544819D02*
X186446666Y-85259104D01*
X186446666Y-85259104D02*
X186399047Y-85401961D01*
X186399047Y-85401961D02*
X186303809Y-85497200D01*
X186303809Y-85497200D02*
X186160952Y-85544819D01*
X186160952Y-85544819D02*
X186065714Y-85544819D01*
X186827619Y-84544819D02*
X187446666Y-84544819D01*
X187446666Y-84544819D02*
X187113333Y-84925771D01*
X187113333Y-84925771D02*
X187256190Y-84925771D01*
X187256190Y-84925771D02*
X187351428Y-84973390D01*
X187351428Y-84973390D02*
X187399047Y-85021009D01*
X187399047Y-85021009D02*
X187446666Y-85116247D01*
X187446666Y-85116247D02*
X187446666Y-85354342D01*
X187446666Y-85354342D02*
X187399047Y-85449580D01*
X187399047Y-85449580D02*
X187351428Y-85497200D01*
X187351428Y-85497200D02*
X187256190Y-85544819D01*
X187256190Y-85544819D02*
X186970476Y-85544819D01*
X186970476Y-85544819D02*
X186875238Y-85497200D01*
X186875238Y-85497200D02*
X186827619Y-85449580D01*
X238454819Y-43333333D02*
X239169104Y-43333333D01*
X239169104Y-43333333D02*
X239311961Y-43380952D01*
X239311961Y-43380952D02*
X239407200Y-43476190D01*
X239407200Y-43476190D02*
X239454819Y-43619047D01*
X239454819Y-43619047D02*
X239454819Y-43714285D01*
X239454819Y-42333333D02*
X239454819Y-42904761D01*
X239454819Y-42619047D02*
X238454819Y-42619047D01*
X238454819Y-42619047D02*
X238597676Y-42714285D01*
X238597676Y-42714285D02*
X238692914Y-42809523D01*
X238692914Y-42809523D02*
X238740533Y-42904761D01*
X193333333Y-36359580D02*
X193285714Y-36407200D01*
X193285714Y-36407200D02*
X193142857Y-36454819D01*
X193142857Y-36454819D02*
X193047619Y-36454819D01*
X193047619Y-36454819D02*
X192904762Y-36407200D01*
X192904762Y-36407200D02*
X192809524Y-36311961D01*
X192809524Y-36311961D02*
X192761905Y-36216723D01*
X192761905Y-36216723D02*
X192714286Y-36026247D01*
X192714286Y-36026247D02*
X192714286Y-35883390D01*
X192714286Y-35883390D02*
X192761905Y-35692914D01*
X192761905Y-35692914D02*
X192809524Y-35597676D01*
X192809524Y-35597676D02*
X192904762Y-35502438D01*
X192904762Y-35502438D02*
X193047619Y-35454819D01*
X193047619Y-35454819D02*
X193142857Y-35454819D01*
X193142857Y-35454819D02*
X193285714Y-35502438D01*
X193285714Y-35502438D02*
X193333333Y-35550057D01*
X194285714Y-36454819D02*
X193714286Y-36454819D01*
X194000000Y-36454819D02*
X194000000Y-35454819D01*
X194000000Y-35454819D02*
X193904762Y-35597676D01*
X193904762Y-35597676D02*
X193809524Y-35692914D01*
X193809524Y-35692914D02*
X193714286Y-35740533D01*
X172166666Y-135454819D02*
X172166666Y-136169104D01*
X172166666Y-136169104D02*
X172119047Y-136311961D01*
X172119047Y-136311961D02*
X172023809Y-136407200D01*
X172023809Y-136407200D02*
X171880952Y-136454819D01*
X171880952Y-136454819D02*
X171785714Y-136454819D01*
X172595238Y-135550057D02*
X172642857Y-135502438D01*
X172642857Y-135502438D02*
X172738095Y-135454819D01*
X172738095Y-135454819D02*
X172976190Y-135454819D01*
X172976190Y-135454819D02*
X173071428Y-135502438D01*
X173071428Y-135502438D02*
X173119047Y-135550057D01*
X173119047Y-135550057D02*
X173166666Y-135645295D01*
X173166666Y-135645295D02*
X173166666Y-135740533D01*
X173166666Y-135740533D02*
X173119047Y-135883390D01*
X173119047Y-135883390D02*
X172547619Y-136454819D01*
X172547619Y-136454819D02*
X173166666Y-136454819D01*
X225954819Y-105666666D02*
X225478628Y-105999999D01*
X225954819Y-106238094D02*
X224954819Y-106238094D01*
X224954819Y-106238094D02*
X224954819Y-105857142D01*
X224954819Y-105857142D02*
X225002438Y-105761904D01*
X225002438Y-105761904D02*
X225050057Y-105714285D01*
X225050057Y-105714285D02*
X225145295Y-105666666D01*
X225145295Y-105666666D02*
X225288152Y-105666666D01*
X225288152Y-105666666D02*
X225383390Y-105714285D01*
X225383390Y-105714285D02*
X225431009Y-105761904D01*
X225431009Y-105761904D02*
X225478628Y-105857142D01*
X225478628Y-105857142D02*
X225478628Y-106238094D01*
X225954819Y-104714285D02*
X225954819Y-105285713D01*
X225954819Y-104999999D02*
X224954819Y-104999999D01*
X224954819Y-104999999D02*
X225097676Y-105095237D01*
X225097676Y-105095237D02*
X225192914Y-105190475D01*
X225192914Y-105190475D02*
X225240533Y-105285713D01*
X232238095Y-115954819D02*
X232238095Y-114954819D01*
X232238095Y-115431009D02*
X232809523Y-115431009D01*
X232809523Y-115954819D02*
X232809523Y-114954819D01*
X233761904Y-114954819D02*
X233285714Y-114954819D01*
X233285714Y-114954819D02*
X233238095Y-115431009D01*
X233238095Y-115431009D02*
X233285714Y-115383390D01*
X233285714Y-115383390D02*
X233380952Y-115335771D01*
X233380952Y-115335771D02*
X233619047Y-115335771D01*
X233619047Y-115335771D02*
X233714285Y-115383390D01*
X233714285Y-115383390D02*
X233761904Y-115431009D01*
X233761904Y-115431009D02*
X233809523Y-115526247D01*
X233809523Y-115526247D02*
X233809523Y-115764342D01*
X233809523Y-115764342D02*
X233761904Y-115859580D01*
X233761904Y-115859580D02*
X233714285Y-115907200D01*
X233714285Y-115907200D02*
X233619047Y-115954819D01*
X233619047Y-115954819D02*
X233380952Y-115954819D01*
X233380952Y-115954819D02*
X233285714Y-115907200D01*
X233285714Y-115907200D02*
X233238095Y-115859580D01*
X230523333Y-66084819D02*
X230190000Y-65608628D01*
X229951905Y-66084819D02*
X229951905Y-65084819D01*
X229951905Y-65084819D02*
X230332857Y-65084819D01*
X230332857Y-65084819D02*
X230428095Y-65132438D01*
X230428095Y-65132438D02*
X230475714Y-65180057D01*
X230475714Y-65180057D02*
X230523333Y-65275295D01*
X230523333Y-65275295D02*
X230523333Y-65418152D01*
X230523333Y-65418152D02*
X230475714Y-65513390D01*
X230475714Y-65513390D02*
X230428095Y-65561009D01*
X230428095Y-65561009D02*
X230332857Y-65608628D01*
X230332857Y-65608628D02*
X229951905Y-65608628D01*
X230856667Y-65084819D02*
X231523333Y-65084819D01*
X231523333Y-65084819D02*
X231094762Y-66084819D01*
X242991905Y-61994819D02*
X242991905Y-60994819D01*
X242991905Y-60994819D02*
X243230000Y-60994819D01*
X243230000Y-60994819D02*
X243372857Y-61042438D01*
X243372857Y-61042438D02*
X243468095Y-61137676D01*
X243468095Y-61137676D02*
X243515714Y-61232914D01*
X243515714Y-61232914D02*
X243563333Y-61423390D01*
X243563333Y-61423390D02*
X243563333Y-61566247D01*
X243563333Y-61566247D02*
X243515714Y-61756723D01*
X243515714Y-61756723D02*
X243468095Y-61851961D01*
X243468095Y-61851961D02*
X243372857Y-61947200D01*
X243372857Y-61947200D02*
X243230000Y-61994819D01*
X243230000Y-61994819D02*
X242991905Y-61994819D01*
X243944286Y-61090057D02*
X243991905Y-61042438D01*
X243991905Y-61042438D02*
X244087143Y-60994819D01*
X244087143Y-60994819D02*
X244325238Y-60994819D01*
X244325238Y-60994819D02*
X244420476Y-61042438D01*
X244420476Y-61042438D02*
X244468095Y-61090057D01*
X244468095Y-61090057D02*
X244515714Y-61185295D01*
X244515714Y-61185295D02*
X244515714Y-61280533D01*
X244515714Y-61280533D02*
X244468095Y-61423390D01*
X244468095Y-61423390D02*
X243896667Y-61994819D01*
X243896667Y-61994819D02*
X244515714Y-61994819D01*
X159976190Y-39454819D02*
X159976190Y-38454819D01*
X159976190Y-38931009D02*
X160547618Y-38931009D01*
X160547618Y-39454819D02*
X160547618Y-38454819D01*
X161547618Y-39454819D02*
X160976190Y-39454819D01*
X161261904Y-39454819D02*
X161261904Y-38454819D01*
X161261904Y-38454819D02*
X161166666Y-38597676D01*
X161166666Y-38597676D02*
X161071428Y-38692914D01*
X161071428Y-38692914D02*
X160976190Y-38740533D01*
X242991905Y-70494819D02*
X242991905Y-69494819D01*
X242991905Y-69494819D02*
X243230000Y-69494819D01*
X243230000Y-69494819D02*
X243372857Y-69542438D01*
X243372857Y-69542438D02*
X243468095Y-69637676D01*
X243468095Y-69637676D02*
X243515714Y-69732914D01*
X243515714Y-69732914D02*
X243563333Y-69923390D01*
X243563333Y-69923390D02*
X243563333Y-70066247D01*
X243563333Y-70066247D02*
X243515714Y-70256723D01*
X243515714Y-70256723D02*
X243468095Y-70351961D01*
X243468095Y-70351961D02*
X243372857Y-70447200D01*
X243372857Y-70447200D02*
X243230000Y-70494819D01*
X243230000Y-70494819D02*
X242991905Y-70494819D01*
X243896667Y-69494819D02*
X244515714Y-69494819D01*
X244515714Y-69494819D02*
X244182381Y-69875771D01*
X244182381Y-69875771D02*
X244325238Y-69875771D01*
X244325238Y-69875771D02*
X244420476Y-69923390D01*
X244420476Y-69923390D02*
X244468095Y-69971009D01*
X244468095Y-69971009D02*
X244515714Y-70066247D01*
X244515714Y-70066247D02*
X244515714Y-70304342D01*
X244515714Y-70304342D02*
X244468095Y-70399580D01*
X244468095Y-70399580D02*
X244420476Y-70447200D01*
X244420476Y-70447200D02*
X244325238Y-70494819D01*
X244325238Y-70494819D02*
X244039524Y-70494819D01*
X244039524Y-70494819D02*
X243944286Y-70447200D01*
X243944286Y-70447200D02*
X243896667Y-70399580D01*
X236333333Y-96109580D02*
X236285714Y-96157200D01*
X236285714Y-96157200D02*
X236142857Y-96204819D01*
X236142857Y-96204819D02*
X236047619Y-96204819D01*
X236047619Y-96204819D02*
X235904762Y-96157200D01*
X235904762Y-96157200D02*
X235809524Y-96061961D01*
X235809524Y-96061961D02*
X235761905Y-95966723D01*
X235761905Y-95966723D02*
X235714286Y-95776247D01*
X235714286Y-95776247D02*
X235714286Y-95633390D01*
X235714286Y-95633390D02*
X235761905Y-95442914D01*
X235761905Y-95442914D02*
X235809524Y-95347676D01*
X235809524Y-95347676D02*
X235904762Y-95252438D01*
X235904762Y-95252438D02*
X236047619Y-95204819D01*
X236047619Y-95204819D02*
X236142857Y-95204819D01*
X236142857Y-95204819D02*
X236285714Y-95252438D01*
X236285714Y-95252438D02*
X236333333Y-95300057D01*
X236666667Y-95204819D02*
X237285714Y-95204819D01*
X237285714Y-95204819D02*
X236952381Y-95585771D01*
X236952381Y-95585771D02*
X237095238Y-95585771D01*
X237095238Y-95585771D02*
X237190476Y-95633390D01*
X237190476Y-95633390D02*
X237238095Y-95681009D01*
X237238095Y-95681009D02*
X237285714Y-95776247D01*
X237285714Y-95776247D02*
X237285714Y-96014342D01*
X237285714Y-96014342D02*
X237238095Y-96109580D01*
X237238095Y-96109580D02*
X237190476Y-96157200D01*
X237190476Y-96157200D02*
X237095238Y-96204819D01*
X237095238Y-96204819D02*
X236809524Y-96204819D01*
X236809524Y-96204819D02*
X236714286Y-96157200D01*
X236714286Y-96157200D02*
X236666667Y-96109580D01*
X226924819Y-37238094D02*
X225924819Y-37238094D01*
X225924819Y-37238094D02*
X225924819Y-36999999D01*
X225924819Y-36999999D02*
X225972438Y-36857142D01*
X225972438Y-36857142D02*
X226067676Y-36761904D01*
X226067676Y-36761904D02*
X226162914Y-36714285D01*
X226162914Y-36714285D02*
X226353390Y-36666666D01*
X226353390Y-36666666D02*
X226496247Y-36666666D01*
X226496247Y-36666666D02*
X226686723Y-36714285D01*
X226686723Y-36714285D02*
X226781961Y-36761904D01*
X226781961Y-36761904D02*
X226877200Y-36857142D01*
X226877200Y-36857142D02*
X226924819Y-36999999D01*
X226924819Y-36999999D02*
X226924819Y-37238094D01*
X225924819Y-35809523D02*
X225924819Y-35999999D01*
X225924819Y-35999999D02*
X225972438Y-36095237D01*
X225972438Y-36095237D02*
X226020057Y-36142856D01*
X226020057Y-36142856D02*
X226162914Y-36238094D01*
X226162914Y-36238094D02*
X226353390Y-36285713D01*
X226353390Y-36285713D02*
X226734342Y-36285713D01*
X226734342Y-36285713D02*
X226829580Y-36238094D01*
X226829580Y-36238094D02*
X226877200Y-36190475D01*
X226877200Y-36190475D02*
X226924819Y-36095237D01*
X226924819Y-36095237D02*
X226924819Y-35904761D01*
X226924819Y-35904761D02*
X226877200Y-35809523D01*
X226877200Y-35809523D02*
X226829580Y-35761904D01*
X226829580Y-35761904D02*
X226734342Y-35714285D01*
X226734342Y-35714285D02*
X226496247Y-35714285D01*
X226496247Y-35714285D02*
X226401009Y-35761904D01*
X226401009Y-35761904D02*
X226353390Y-35809523D01*
X226353390Y-35809523D02*
X226305771Y-35904761D01*
X226305771Y-35904761D02*
X226305771Y-36095237D01*
X226305771Y-36095237D02*
X226353390Y-36190475D01*
X226353390Y-36190475D02*
X226401009Y-36238094D01*
X226401009Y-36238094D02*
X226496247Y-36285713D01*
X226554819Y-32951904D02*
X225554819Y-32951904D01*
X226554819Y-32380476D02*
X225983390Y-32809047D01*
X225554819Y-32380476D02*
X226126247Y-32951904D01*
X230990057Y-55325238D02*
X230942438Y-55420476D01*
X230942438Y-55420476D02*
X230847200Y-55515714D01*
X230847200Y-55515714D02*
X230704342Y-55658571D01*
X230704342Y-55658571D02*
X230656723Y-55753809D01*
X230656723Y-55753809D02*
X230656723Y-55849047D01*
X230894819Y-55801428D02*
X230847200Y-55896666D01*
X230847200Y-55896666D02*
X230751961Y-55991904D01*
X230751961Y-55991904D02*
X230561485Y-56039523D01*
X230561485Y-56039523D02*
X230228152Y-56039523D01*
X230228152Y-56039523D02*
X230037676Y-55991904D01*
X230037676Y-55991904D02*
X229942438Y-55896666D01*
X229942438Y-55896666D02*
X229894819Y-55801428D01*
X229894819Y-55801428D02*
X229894819Y-55610952D01*
X229894819Y-55610952D02*
X229942438Y-55515714D01*
X229942438Y-55515714D02*
X230037676Y-55420476D01*
X230037676Y-55420476D02*
X230228152Y-55372857D01*
X230228152Y-55372857D02*
X230561485Y-55372857D01*
X230561485Y-55372857D02*
X230751961Y-55420476D01*
X230751961Y-55420476D02*
X230847200Y-55515714D01*
X230847200Y-55515714D02*
X230894819Y-55610952D01*
X230894819Y-55610952D02*
X230894819Y-55801428D01*
X229894819Y-55039523D02*
X229894819Y-54420476D01*
X229894819Y-54420476D02*
X230275771Y-54753809D01*
X230275771Y-54753809D02*
X230275771Y-54610952D01*
X230275771Y-54610952D02*
X230323390Y-54515714D01*
X230323390Y-54515714D02*
X230371009Y-54468095D01*
X230371009Y-54468095D02*
X230466247Y-54420476D01*
X230466247Y-54420476D02*
X230704342Y-54420476D01*
X230704342Y-54420476D02*
X230799580Y-54468095D01*
X230799580Y-54468095D02*
X230847200Y-54515714D01*
X230847200Y-54515714D02*
X230894819Y-54610952D01*
X230894819Y-54610952D02*
X230894819Y-54896666D01*
X230894819Y-54896666D02*
X230847200Y-54991904D01*
X230847200Y-54991904D02*
X230799580Y-55039523D01*
X230523333Y-70584819D02*
X230190000Y-70108628D01*
X229951905Y-70584819D02*
X229951905Y-69584819D01*
X229951905Y-69584819D02*
X230332857Y-69584819D01*
X230332857Y-69584819D02*
X230428095Y-69632438D01*
X230428095Y-69632438D02*
X230475714Y-69680057D01*
X230475714Y-69680057D02*
X230523333Y-69775295D01*
X230523333Y-69775295D02*
X230523333Y-69918152D01*
X230523333Y-69918152D02*
X230475714Y-70013390D01*
X230475714Y-70013390D02*
X230428095Y-70061009D01*
X230428095Y-70061009D02*
X230332857Y-70108628D01*
X230332857Y-70108628D02*
X229951905Y-70108628D01*
X230856667Y-69584819D02*
X231475714Y-69584819D01*
X231475714Y-69584819D02*
X231142381Y-69965771D01*
X231142381Y-69965771D02*
X231285238Y-69965771D01*
X231285238Y-69965771D02*
X231380476Y-70013390D01*
X231380476Y-70013390D02*
X231428095Y-70061009D01*
X231428095Y-70061009D02*
X231475714Y-70156247D01*
X231475714Y-70156247D02*
X231475714Y-70394342D01*
X231475714Y-70394342D02*
X231428095Y-70489580D01*
X231428095Y-70489580D02*
X231380476Y-70537200D01*
X231380476Y-70537200D02*
X231285238Y-70584819D01*
X231285238Y-70584819D02*
X230999524Y-70584819D01*
X230999524Y-70584819D02*
X230904286Y-70537200D01*
X230904286Y-70537200D02*
X230856667Y-70489580D01*
X239238095Y-135554819D02*
X239238095Y-134554819D01*
X239238095Y-135031009D02*
X239809523Y-135031009D01*
X239809523Y-135554819D02*
X239809523Y-134554819D01*
X240190476Y-134554819D02*
X240809523Y-134554819D01*
X240809523Y-134554819D02*
X240476190Y-134935771D01*
X240476190Y-134935771D02*
X240619047Y-134935771D01*
X240619047Y-134935771D02*
X240714285Y-134983390D01*
X240714285Y-134983390D02*
X240761904Y-135031009D01*
X240761904Y-135031009D02*
X240809523Y-135126247D01*
X240809523Y-135126247D02*
X240809523Y-135364342D01*
X240809523Y-135364342D02*
X240761904Y-135459580D01*
X240761904Y-135459580D02*
X240714285Y-135507200D01*
X240714285Y-135507200D02*
X240619047Y-135554819D01*
X240619047Y-135554819D02*
X240333333Y-135554819D01*
X240333333Y-135554819D02*
X240238095Y-135507200D01*
X240238095Y-135507200D02*
X240190476Y-135459580D01*
X217166666Y-84544819D02*
X217166666Y-85259104D01*
X217166666Y-85259104D02*
X217119047Y-85401961D01*
X217119047Y-85401961D02*
X217023809Y-85497200D01*
X217023809Y-85497200D02*
X216880952Y-85544819D01*
X216880952Y-85544819D02*
X216785714Y-85544819D01*
X218119047Y-84544819D02*
X217642857Y-84544819D01*
X217642857Y-84544819D02*
X217595238Y-85021009D01*
X217595238Y-85021009D02*
X217642857Y-84973390D01*
X217642857Y-84973390D02*
X217738095Y-84925771D01*
X217738095Y-84925771D02*
X217976190Y-84925771D01*
X217976190Y-84925771D02*
X218071428Y-84973390D01*
X218071428Y-84973390D02*
X218119047Y-85021009D01*
X218119047Y-85021009D02*
X218166666Y-85116247D01*
X218166666Y-85116247D02*
X218166666Y-85354342D01*
X218166666Y-85354342D02*
X218119047Y-85449580D01*
X218119047Y-85449580D02*
X218071428Y-85497200D01*
X218071428Y-85497200D02*
X217976190Y-85544819D01*
X217976190Y-85544819D02*
X217738095Y-85544819D01*
X217738095Y-85544819D02*
X217642857Y-85497200D01*
X217642857Y-85497200D02*
X217595238Y-85449580D01*
X160738095Y-131604819D02*
X160738095Y-130604819D01*
X160738095Y-131081009D02*
X161309523Y-131081009D01*
X161309523Y-131604819D02*
X161309523Y-130604819D01*
X162214285Y-130938152D02*
X162214285Y-131604819D01*
X161976190Y-130557200D02*
X161738095Y-131271485D01*
X161738095Y-131271485D02*
X162357142Y-131271485D01*
X222713095Y-81359819D02*
X222713095Y-82169342D01*
X222713095Y-82169342D02*
X222760714Y-82264580D01*
X222760714Y-82264580D02*
X222808333Y-82312200D01*
X222808333Y-82312200D02*
X222903571Y-82359819D01*
X222903571Y-82359819D02*
X223094047Y-82359819D01*
X223094047Y-82359819D02*
X223189285Y-82312200D01*
X223189285Y-82312200D02*
X223236904Y-82264580D01*
X223236904Y-82264580D02*
X223284523Y-82169342D01*
X223284523Y-82169342D02*
X223284523Y-81359819D01*
X224284523Y-82359819D02*
X223713095Y-82359819D01*
X223998809Y-82359819D02*
X223998809Y-81359819D01*
X223998809Y-81359819D02*
X223903571Y-81502676D01*
X223903571Y-81502676D02*
X223808333Y-81597914D01*
X223808333Y-81597914D02*
X223713095Y-81645533D01*
X220646660Y-81664104D02*
X221122850Y-81664104D01*
X220551422Y-81949819D02*
X220884755Y-80949819D01*
X220884755Y-80949819D02*
X221218088Y-81949819D01*
X221503803Y-81045057D02*
X221551422Y-80997438D01*
X221551422Y-80997438D02*
X221646660Y-80949819D01*
X221646660Y-80949819D02*
X221884755Y-80949819D01*
X221884755Y-80949819D02*
X221979993Y-80997438D01*
X221979993Y-80997438D02*
X222027612Y-81045057D01*
X222027612Y-81045057D02*
X222075231Y-81140295D01*
X222075231Y-81140295D02*
X222075231Y-81235533D01*
X222075231Y-81235533D02*
X222027612Y-81378390D01*
X222027612Y-81378390D02*
X221456184Y-81949819D01*
X221456184Y-81949819D02*
X222075231Y-81949819D01*
X230990057Y-61825238D02*
X230942438Y-61920476D01*
X230942438Y-61920476D02*
X230847200Y-62015714D01*
X230847200Y-62015714D02*
X230704342Y-62158571D01*
X230704342Y-62158571D02*
X230656723Y-62253809D01*
X230656723Y-62253809D02*
X230656723Y-62349047D01*
X230894819Y-62301428D02*
X230847200Y-62396666D01*
X230847200Y-62396666D02*
X230751961Y-62491904D01*
X230751961Y-62491904D02*
X230561485Y-62539523D01*
X230561485Y-62539523D02*
X230228152Y-62539523D01*
X230228152Y-62539523D02*
X230037676Y-62491904D01*
X230037676Y-62491904D02*
X229942438Y-62396666D01*
X229942438Y-62396666D02*
X229894819Y-62301428D01*
X229894819Y-62301428D02*
X229894819Y-62110952D01*
X229894819Y-62110952D02*
X229942438Y-62015714D01*
X229942438Y-62015714D02*
X230037676Y-61920476D01*
X230037676Y-61920476D02*
X230228152Y-61872857D01*
X230228152Y-61872857D02*
X230561485Y-61872857D01*
X230561485Y-61872857D02*
X230751961Y-61920476D01*
X230751961Y-61920476D02*
X230847200Y-62015714D01*
X230847200Y-62015714D02*
X230894819Y-62110952D01*
X230894819Y-62110952D02*
X230894819Y-62301428D01*
X230228152Y-61015714D02*
X230894819Y-61015714D01*
X229847200Y-61253809D02*
X230561485Y-61491904D01*
X230561485Y-61491904D02*
X230561485Y-60872857D01*
X232954819Y-96666666D02*
X232478628Y-96999999D01*
X232954819Y-97238094D02*
X231954819Y-97238094D01*
X231954819Y-97238094D02*
X231954819Y-96857142D01*
X231954819Y-96857142D02*
X232002438Y-96761904D01*
X232002438Y-96761904D02*
X232050057Y-96714285D01*
X232050057Y-96714285D02*
X232145295Y-96666666D01*
X232145295Y-96666666D02*
X232288152Y-96666666D01*
X232288152Y-96666666D02*
X232383390Y-96714285D01*
X232383390Y-96714285D02*
X232431009Y-96761904D01*
X232431009Y-96761904D02*
X232478628Y-96857142D01*
X232478628Y-96857142D02*
X232478628Y-97238094D01*
X232288152Y-95809523D02*
X232954819Y-95809523D01*
X231907200Y-96047618D02*
X232621485Y-96285713D01*
X232621485Y-96285713D02*
X232621485Y-95666666D01*
D12*
%TO.C,R6*%
X223130000Y-54540000D02*
X223460000Y-54540000D01*
X223130000Y-61080000D02*
X223130000Y-54540000D01*
X223460000Y-61080000D02*
X223130000Y-61080000D01*
X225540000Y-61080000D02*
X225870000Y-61080000D01*
X225870000Y-54540000D02*
X225540000Y-54540000D01*
X225870000Y-61080000D02*
X225870000Y-54540000D01*
%TO.C,J7*%
X224440000Y-124590000D02*
X225860000Y-124590000D01*
X224440000Y-136310000D02*
X224440000Y-124590000D01*
X225860000Y-124590000D02*
X225860000Y-129090000D01*
X225860000Y-129090000D02*
X229500000Y-129090000D01*
X226700000Y-124900000D02*
X227300000Y-124900000D01*
X226750000Y-130200000D02*
X226750000Y-135700000D01*
X226750000Y-135700000D02*
X227250000Y-135700000D01*
X227000000Y-125500000D02*
X226700000Y-124900000D01*
X227250000Y-130200000D02*
X226750000Y-130200000D01*
X227250000Y-135700000D02*
X227250000Y-130200000D01*
X227300000Y-124900000D02*
X227000000Y-125500000D01*
X229250000Y-130200000D02*
X229250000Y-135700000D01*
X229250000Y-135700000D02*
X229750000Y-135700000D01*
X229500000Y-136310000D02*
X224440000Y-136310000D01*
X229500000Y-136310000D02*
X234560000Y-136310000D01*
X229750000Y-130200000D02*
X229250000Y-130200000D01*
X229750000Y-135700000D02*
X229750000Y-130200000D01*
X231750000Y-130200000D02*
X231750000Y-135700000D01*
X231750000Y-135700000D02*
X232250000Y-135700000D01*
X232250000Y-130200000D02*
X231750000Y-130200000D01*
X232250000Y-135700000D02*
X232250000Y-130200000D01*
X233140000Y-124590000D02*
X233140000Y-129090000D01*
X233140000Y-129090000D02*
X229500000Y-129090000D01*
X234560000Y-124590000D02*
X233140000Y-124590000D01*
X234560000Y-136310000D02*
X234560000Y-124590000D01*
%TO.C,R5*%
X243130000Y-52230000D02*
X243130000Y-58770000D01*
X243130000Y-58770000D02*
X243460000Y-58770000D01*
X243460000Y-52230000D02*
X243130000Y-52230000D01*
X245540000Y-52230000D02*
X245870000Y-52230000D01*
X245870000Y-52230000D02*
X245870000Y-58770000D01*
X245870000Y-58770000D02*
X245540000Y-58770000D01*
%TO.C,D4*%
X241170000Y-80955000D02*
X241170000Y-84045000D01*
X241170000Y-80955170D02*
G75*
G02*
X246720000Y-82499952I2560000J-1544830D01*
G01*
X246720000Y-82500048D02*
G75*
G02*
X241170000Y-84044830I-2990000J48D01*
G01*
X246230000Y-82500000D02*
G75*
G02*
X241230000Y-82500000I-2500000J0D01*
G01*
X241230000Y-82500000D02*
G75*
G02*
X246230000Y-82500000I2500000J0D01*
G01*
%TO.C,R8*%
X227420000Y-76130000D02*
X227420000Y-76460000D01*
X227420000Y-78870000D02*
X227420000Y-78540000D01*
X233960000Y-76130000D02*
X227420000Y-76130000D01*
X233960000Y-76460000D02*
X233960000Y-76130000D01*
X233960000Y-78540000D02*
X233960000Y-78870000D01*
X233960000Y-78870000D02*
X227420000Y-78870000D01*
%TO.C,A1*%
X166960000Y-33400000D02*
X166960000Y-31800000D01*
X167280000Y-31730000D02*
X167280000Y-81730000D01*
X167620000Y-31183000D02*
X167620000Y-82277000D01*
X167890000Y-31120000D02*
X170380000Y-31120000D01*
X167890000Y-82340000D02*
X171727939Y-82340000D01*
X170380000Y-31120000D02*
X170380000Y-32033520D01*
X170380000Y-31120000D02*
X171727940Y-31120000D01*
X170380000Y-34426480D02*
X170380000Y-79033520D01*
X170380000Y-81426480D02*
X170380000Y-82340000D01*
X172652061Y-31120000D02*
X173655000Y-31120000D01*
X173655000Y-31120000D02*
X182125000Y-31120000D01*
X173780000Y-29820000D02*
X173780000Y-30640000D01*
X173780000Y-29820000D02*
X182000000Y-29820000D01*
X173780000Y-30640000D02*
X173990000Y-30640000D01*
X173990000Y-30640000D02*
X173990000Y-32036000D01*
X173990000Y-34424000D02*
X173990000Y-35640000D01*
X174290000Y-82340000D02*
X172652061Y-82340000D01*
X181490000Y-82340000D02*
X174290000Y-82340000D01*
X181790000Y-30640000D02*
X181790000Y-32036000D01*
X181790000Y-34424000D02*
X181790000Y-35640000D01*
X181790000Y-35640000D02*
X173990000Y-35640000D01*
X182000000Y-29820000D02*
X182000000Y-30640000D01*
X182000000Y-30640000D02*
X181790000Y-30640000D01*
X182125000Y-31120000D02*
X183127939Y-31120000D01*
X183127939Y-82340000D02*
X181490000Y-82340000D01*
X184052061Y-31120000D02*
X185400000Y-31120000D01*
X184052061Y-82340000D02*
X187890000Y-82340000D01*
X185400000Y-31120000D02*
X185400000Y-32033520D01*
X185400000Y-34426480D02*
X185400000Y-79033520D01*
X185400000Y-81426480D02*
X185400000Y-82340000D01*
X187890000Y-31120000D02*
X185400000Y-31120000D01*
X188160000Y-82277000D02*
X188160000Y-31183000D01*
X188500000Y-31730000D02*
X188500000Y-81730000D01*
X167280000Y-31730000D02*
G75*
G02*
X167890000Y-31120000I610000J0D01*
G01*
X167890000Y-82340000D02*
G75*
G02*
X167280000Y-81730000I-99J609901D01*
G01*
X187890000Y-31120000D02*
G75*
G02*
X188500000Y-31730000I0J-610000D01*
G01*
X188500000Y-81730000D02*
G75*
G02*
X187890000Y-82340000I-610000J0D01*
G01*
%TO.C,F1*%
X230450000Y-36200000D02*
X234550000Y-36200000D01*
X230450000Y-44800000D02*
X230450000Y-36200000D01*
X230450000Y-44800000D02*
X234550000Y-44800000D01*
X234550000Y-44800000D02*
X234550000Y-36200000D01*
%TO.C,R2*%
X242130000Y-91730000D02*
X242460000Y-91730000D01*
X242130000Y-98270000D02*
X242130000Y-91730000D01*
X242460000Y-98270000D02*
X242130000Y-98270000D01*
X244540000Y-98270000D02*
X244870000Y-98270000D01*
X244870000Y-91730000D02*
X244540000Y-91730000D01*
X244870000Y-98270000D02*
X244870000Y-91730000D01*
%TO.C,D5*%
X192030000Y-40780000D02*
X192030000Y-46220000D01*
X192030000Y-46220000D02*
X192160000Y-46220000D01*
X192160000Y-40780000D02*
X192030000Y-40780000D01*
X194840000Y-40780000D02*
X194970000Y-40780000D01*
X194970000Y-40780000D02*
X194970000Y-46220000D01*
X194970000Y-41560000D02*
X192030000Y-41560000D01*
X194970000Y-41680000D02*
X192030000Y-41680000D01*
X194970000Y-41800000D02*
X192030000Y-41800000D01*
X194970000Y-46220000D02*
X194840000Y-46220000D01*
%TO.C,SW1*%
X233600000Y-29700000D02*
X231300000Y-29700000D01*
X239900000Y-29700000D02*
X237700000Y-29700000D01*
X239900000Y-34300000D02*
X231300000Y-34300000D01*
%TO.C,C4*%
X239120000Y-85500000D02*
G75*
G02*
X233880000Y-85500000I-2620000J0D01*
G01*
X233880000Y-85500000D02*
G75*
G02*
X239120000Y-85500000I2620000J0D01*
G01*
%TO.C,C2*%
X223130000Y-44880000D02*
X225870000Y-44880000D01*
X223130000Y-50120000D02*
X223130000Y-44880000D01*
X223130000Y-50120000D02*
X225870000Y-50120000D01*
X225870000Y-50120000D02*
X225870000Y-44880000D01*
%TO.C,J4*%
X198390000Y-134790000D02*
X198390000Y-86470000D01*
X198390000Y-137390000D02*
X198390000Y-136060000D01*
X199720000Y-137390000D02*
X198390000Y-137390000D01*
X201050000Y-86470000D02*
X198390000Y-86470000D01*
X201050000Y-134790000D02*
X198390000Y-134790000D01*
X201050000Y-134790000D02*
X201050000Y-86470000D01*
%TO.C,J3*%
X185450000Y-89130000D02*
X185450000Y-137450000D01*
X185450000Y-89130000D02*
X188110000Y-89130000D01*
X185450000Y-137450000D02*
X188110000Y-137450000D01*
X186780000Y-86530000D02*
X188110000Y-86530000D01*
X188110000Y-86530000D02*
X188110000Y-87860000D01*
X188110000Y-89130000D02*
X188110000Y-137450000D01*
%TO.C,J1*%
X240090000Y-39940000D02*
X240090000Y-40860000D01*
X240090000Y-40860000D02*
X241690000Y-40860000D01*
X240090000Y-45140000D02*
X240090000Y-46060000D01*
X240090000Y-46060000D02*
X247910000Y-46060000D01*
X241690000Y-39940000D02*
X241690000Y-40860000D01*
X241690000Y-40860000D02*
X241690000Y-41140000D01*
X241690000Y-44860000D02*
X240475000Y-44860000D01*
X241690000Y-44860000D02*
X241690000Y-45140000D01*
X241690000Y-45140000D02*
X240090000Y-45140000D01*
X241690000Y-46060000D02*
X241690000Y-45140000D01*
X243550000Y-42500000D02*
X247910000Y-42500000D01*
X243550000Y-43500000D02*
X243550000Y-42500000D01*
X244050000Y-40700000D02*
X245650000Y-40700000D01*
X244050000Y-41700000D02*
X244050000Y-40700000D01*
X244050000Y-44300000D02*
X244050000Y-45300000D01*
X244050000Y-45300000D02*
X245650000Y-45300000D01*
X245650000Y-40700000D02*
X245650000Y-41700000D01*
X245650000Y-41700000D02*
X244050000Y-41700000D01*
X245650000Y-44300000D02*
X244050000Y-44300000D01*
X245650000Y-44300000D02*
X247910000Y-44300000D01*
X245650000Y-44800000D02*
X247910000Y-44800000D01*
X245650000Y-45300000D02*
X245650000Y-44300000D01*
X247910000Y-39940000D02*
X240090000Y-39940000D01*
X247910000Y-43500000D02*
X243550000Y-43500000D01*
X247910000Y-46060000D02*
X247910000Y-39940000D01*
%TO.C,C1*%
X190880000Y-34870000D02*
X190880000Y-32130000D01*
X196120000Y-32130000D02*
X190880000Y-32130000D01*
X196120000Y-34870000D02*
X190880000Y-34870000D01*
X196120000Y-34870000D02*
X196120000Y-32130000D01*
%TO.C,J2*%
X167670000Y-134790000D02*
X167670000Y-86470000D01*
X167670000Y-137390000D02*
X167670000Y-136060000D01*
X169000000Y-137390000D02*
X167670000Y-137390000D01*
X170330000Y-86470000D02*
X167670000Y-86470000D01*
X170330000Y-134790000D02*
X167670000Y-134790000D01*
X170330000Y-134790000D02*
X170330000Y-86470000D01*
%TO.C,R1*%
X223630000Y-95230000D02*
X223960000Y-95230000D01*
X223630000Y-101770000D02*
X223630000Y-95230000D01*
X223960000Y-101770000D02*
X223630000Y-101770000D01*
X226040000Y-101770000D02*
X226370000Y-101770000D01*
X226370000Y-95230000D02*
X226040000Y-95230000D01*
X226370000Y-101770000D02*
X226370000Y-95230000D01*
%TO.C,R7*%
X227420000Y-66630000D02*
X233960000Y-66630000D01*
X227420000Y-66960000D02*
X227420000Y-66630000D01*
X227420000Y-69040000D02*
X227420000Y-69370000D01*
X227420000Y-69370000D02*
X233960000Y-69370000D01*
X233960000Y-66630000D02*
X233960000Y-66960000D01*
X233960000Y-69370000D02*
X233960000Y-69040000D01*
%TO.C,D2*%
X241170000Y-63955000D02*
X241170000Y-67045000D01*
X241170000Y-63955170D02*
G75*
G02*
X246720000Y-65499952I2560000J-1544830D01*
G01*
X246720000Y-65500048D02*
G75*
G02*
X241170000Y-67044830I-2990000J48D01*
G01*
X246230000Y-65500000D02*
G75*
G02*
X241230000Y-65500000I-2500000J0D01*
G01*
X241230000Y-65500000D02*
G75*
G02*
X246230000Y-65500000I2500000J0D01*
G01*
%TO.C,D3*%
X241170000Y-72455000D02*
X241170000Y-75545000D01*
X241170000Y-72455170D02*
G75*
G02*
X246720000Y-73999952I2560000J-1544830D01*
G01*
X246720000Y-74000048D02*
G75*
G02*
X241170000Y-75544830I-2990000J48D01*
G01*
X246230000Y-74000000D02*
G75*
G02*
X241230000Y-74000000I-2500000J0D01*
G01*
X241230000Y-74000000D02*
G75*
G02*
X246230000Y-74000000I2500000J0D01*
G01*
%TO.C,C3*%
X239120000Y-92000000D02*
G75*
G02*
X233880000Y-92000000I-2620000J0D01*
G01*
X233880000Y-92000000D02*
G75*
G02*
X239120000Y-92000000I2620000J0D01*
G01*
%TO.C,D6*%
X222530000Y-33780000D02*
X222530000Y-39220000D01*
X222530000Y-39220000D02*
X222660000Y-39220000D01*
X222660000Y-33780000D02*
X222530000Y-33780000D01*
X225340000Y-33780000D02*
X225470000Y-33780000D01*
X225470000Y-33780000D02*
X225470000Y-39220000D01*
X225470000Y-34560000D02*
X222530000Y-34560000D01*
X225470000Y-34680000D02*
X222530000Y-34680000D01*
X225470000Y-34800000D02*
X222530000Y-34800000D01*
X225470000Y-39220000D02*
X225340000Y-39220000D01*
%TO.C,Q3*%
X235850000Y-57030000D02*
X235850000Y-53430000D01*
X231400000Y-55230000D02*
G75*
G02*
X235838478Y-53391522I2600000J0D01*
G01*
X235838478Y-57068478D02*
G75*
G02*
X231399999Y-55230000I-1838478J1838478D01*
G01*
%TO.C,R3*%
X227420000Y-71130000D02*
X233960000Y-71130000D01*
X227420000Y-71460000D02*
X227420000Y-71130000D01*
X227420000Y-73540000D02*
X227420000Y-73870000D01*
X227420000Y-73870000D02*
X233960000Y-73870000D01*
X233960000Y-71130000D02*
X233960000Y-71460000D01*
X233960000Y-73870000D02*
X233960000Y-73540000D01*
%TO.C,J5*%
X216170000Y-89130000D02*
X216170000Y-137450000D01*
X216170000Y-89130000D02*
X218830000Y-89130000D01*
X216170000Y-137450000D02*
X218830000Y-137450000D01*
X217500000Y-86530000D02*
X218830000Y-86530000D01*
X218830000Y-86530000D02*
X218830000Y-87860000D01*
X218830000Y-89130000D02*
X218830000Y-137450000D01*
D13*
%TO.C,U1*%
X224475000Y-82855000D02*
X228475000Y-82855000D01*
X224475000Y-87955000D02*
X228475000Y-87955000D01*
D14*
X222130000Y-82900000D02*
G75*
G02*
X221930000Y-82900000I-100000J0D01*
G01*
X221930000Y-82900000D02*
G75*
G02*
X222130000Y-82900000I100000J0D01*
G01*
D12*
%TO.C,A2*%
X197680000Y-33400000D02*
X197680000Y-31800000D01*
X198000000Y-31730000D02*
X198000000Y-81730000D01*
X198340000Y-31183000D02*
X198340000Y-82277000D01*
X198610000Y-31120000D02*
X201100000Y-31120000D01*
X198610000Y-82340000D02*
X202447939Y-82340000D01*
X201100000Y-31120000D02*
X201100000Y-32033520D01*
X201100000Y-31120000D02*
X202447940Y-31120000D01*
X201100000Y-34426480D02*
X201100000Y-79033520D01*
X201100000Y-81426480D02*
X201100000Y-82340000D01*
X203372061Y-31120000D02*
X204375000Y-31120000D01*
X204375000Y-31120000D02*
X212845000Y-31120000D01*
X204500000Y-29820000D02*
X204500000Y-30640000D01*
X204500000Y-29820000D02*
X212720000Y-29820000D01*
X204500000Y-30640000D02*
X204710000Y-30640000D01*
X204710000Y-30640000D02*
X204710000Y-32036000D01*
X204710000Y-34424000D02*
X204710000Y-35640000D01*
X205010000Y-82340000D02*
X203372061Y-82340000D01*
X212210000Y-82340000D02*
X205010000Y-82340000D01*
X212510000Y-30640000D02*
X212510000Y-32036000D01*
X212510000Y-34424000D02*
X212510000Y-35640000D01*
X212510000Y-35640000D02*
X204710000Y-35640000D01*
X212720000Y-29820000D02*
X212720000Y-30640000D01*
X212720000Y-30640000D02*
X212510000Y-30640000D01*
X212845000Y-31120000D02*
X213847939Y-31120000D01*
X213847939Y-82340000D02*
X212210000Y-82340000D01*
X214772061Y-31120000D02*
X216120000Y-31120000D01*
X214772061Y-82340000D02*
X218610000Y-82340000D01*
X216120000Y-31120000D02*
X216120000Y-32033520D01*
X216120000Y-34426480D02*
X216120000Y-79033520D01*
X216120000Y-81426480D02*
X216120000Y-82340000D01*
X218610000Y-31120000D02*
X216120000Y-31120000D01*
X218880000Y-82277000D02*
X218880000Y-31183000D01*
X219220000Y-31730000D02*
X219220000Y-81730000D01*
X198000000Y-31730000D02*
G75*
G02*
X198610000Y-31120000I610000J0D01*
G01*
X198610000Y-82340000D02*
G75*
G02*
X198000000Y-81730000I-99J609901D01*
G01*
X218610000Y-31120000D02*
G75*
G02*
X219220000Y-31730000I0J-610000D01*
G01*
X219220000Y-81730000D02*
G75*
G02*
X218610000Y-82340000I-610000J0D01*
G01*
%TO.C,Q4*%
X235850000Y-63530000D02*
X235850000Y-59930000D01*
X231400000Y-61730000D02*
G75*
G02*
X235838478Y-59891522I2600000J0D01*
G01*
X235838478Y-63568478D02*
G75*
G02*
X231399999Y-61730000I-1838478J1838478D01*
G01*
%TO.C,R4*%
X228630000Y-95230000D02*
X228960000Y-95230000D01*
X228630000Y-101770000D02*
X228630000Y-95230000D01*
X228960000Y-101770000D02*
X228630000Y-101770000D01*
X231040000Y-101770000D02*
X231370000Y-101770000D01*
X231370000Y-95230000D02*
X231040000Y-95230000D01*
X231370000Y-101770000D02*
X231370000Y-95230000D01*
%TD*%
M02*
