M48
; DRILL file {KiCad 9.0.1} date 2025-10-25T16:53:59-0400
; FORMAT={-:-/ absolute / metric / decimal}
; #@! TF.CreationDate,2025-10-25T16:53:59-04:00
; #@! TF.GenerationSoftware,Kicad,Pcbnew,9.0.1
; #@! TF.FileFunction,Plated,1,2,PTH
FMAT,2
METRIC
; #@! TA.AperFunction,Plated,PTH,ViaDrill
T1C0.300
; #@! TA.AperFunction,Plated,PTH,ComponentDrill
T2C0.710
; #@! TA.AperFunction,Plated,PTH,ComponentDrill
T3C0.750
; #@! TA.AperFunction,Plated,PTH,ComponentDrill
T4C0.800
; #@! TA.AperFunction,Plated,PTH,ComponentDrill
T5C0.900
; #@! TA.AperFunction,Plated,PTH,ComponentDrill
T6C0.950
; #@! TA.AperFunction,Plated,PTH,ComponentDrill
T7C1.000
; #@! TA.AperFunction,Plated,PTH,ComponentDrill
T8C1.100
; #@! TA.AperFunction,Plated,PTH,ComponentDrill
T9C1.500
%
G90
G05
T1
X162.313Y-57.436
X164.028Y-103.349
X164.428Y-42.679
X164.8Y-45.631
X164.933Y-128.27
X165.001Y-63.339
X165.305Y-125.393
X165.908Y-107.395
X166.416Y-90.091
X189.741Y-54.49
X190.481Y-112.476
X191.573Y-45.424
X192.302Y-122.208
X193.044Y-54.485
X193.937Y-105.504
X194.087Y-123.046
X194.215Y-113.514
X194.312Y-54.485
X195.435Y-42.484
X197.141Y-75.331
X197.66Y-66.291
X201.501Y-120.582
X201.793Y-106.428
X203.49Y-80.99
X213.919Y-107.61
X214.14Y-83.999
X214.358Y-81.992
X214.5Y-40.5
X214.723Y-81.149
X214.904Y-72.194
X215.002Y-122.367
X215.029Y-95.805
X215.244Y-79.975
X215.506Y-69.242
X218.765Y-93.589
X220.586Y-73.195
X220.791Y-33.396
X222.153Y-125.319
X222.583Y-91.5
X223.0Y-134.0
X224.0Y-90.0
X225.0Y-92.0
X231.0Y-82.0
X231.0Y-86.0
X231.0Y-87.5
X238.5Y-78.5
T2
X231.7Y-43.05
X233.3Y-37.95
T3
X234.0Y-53.96
X234.0Y-55.23
X234.0Y-56.5
X234.0Y-60.46
X234.0Y-61.73
X234.0Y-63.0
X241.55Y-42.0
X241.55Y-44.0
T4
X192.25Y-33.5
X194.75Y-33.5
X224.5Y-46.25
X224.5Y-48.75
X224.5Y-54.0
X224.5Y-61.62
X225.0Y-94.69
X225.0Y-102.31
X226.88Y-68.0
X226.88Y-72.5
X226.88Y-77.5
X230.0Y-94.69
X230.0Y-102.31
X234.5Y-68.0
X234.5Y-72.5
X234.5Y-77.5
X235.5Y-92.0
X236.5Y-84.5
X236.5Y-86.5
X237.5Y-92.0
X243.5Y-91.19
X243.5Y-98.81
X244.5Y-51.69
X244.5Y-59.31
T5
X233.6Y-32.0
X235.6Y-32.0
X237.6Y-32.0
X242.46Y-65.5
X242.46Y-74.0
X242.46Y-82.5
X245.0Y-65.5
X245.0Y-74.0
X245.0Y-82.5
T6
X227.0Y-127.0
X229.5Y-127.0
X232.0Y-127.0
T7
X169.0Y-32.6
X169.0Y-35.14
X169.0Y-37.68
X169.0Y-40.22
X169.0Y-42.76
X169.0Y-45.3
X169.0Y-47.84
X169.0Y-50.38
X169.0Y-52.92
X169.0Y-55.46
X169.0Y-58.0
X169.0Y-60.54
X169.0Y-63.08
X169.0Y-65.62
X169.0Y-68.16
X169.0Y-70.7
X169.0Y-73.24
X169.0Y-75.78
X169.0Y-78.32
X169.0Y-80.86
X169.0Y-87.8
X169.0Y-90.34
X169.0Y-92.88
X169.0Y-95.42
X169.0Y-97.96
X169.0Y-100.5
X169.0Y-103.04
X169.0Y-105.58
X169.0Y-108.12
X169.0Y-110.66
X169.0Y-113.2
X169.0Y-115.74
X169.0Y-118.28
X169.0Y-120.82
X169.0Y-123.36
X169.0Y-125.9
X169.0Y-128.44
X169.0Y-130.98
X169.0Y-133.52
X169.0Y-136.06
X186.78Y-32.6
X186.78Y-35.14
X186.78Y-37.68
X186.78Y-40.22
X186.78Y-42.76
X186.78Y-45.3
X186.78Y-47.84
X186.78Y-50.38
X186.78Y-52.92
X186.78Y-55.46
X186.78Y-58.0
X186.78Y-60.54
X186.78Y-63.08
X186.78Y-65.62
X186.78Y-68.16
X186.78Y-70.7
X186.78Y-73.24
X186.78Y-75.78
X186.78Y-78.32
X186.78Y-80.86
X186.78Y-87.86
X186.78Y-90.4
X186.78Y-92.94
X186.78Y-95.48
X186.78Y-98.02
X186.78Y-100.56
X186.78Y-103.1
X186.78Y-105.64
X186.78Y-108.18
X186.78Y-110.72
X186.78Y-113.26
X186.78Y-115.8
X186.78Y-118.34
X186.78Y-120.88
X186.78Y-123.42
X186.78Y-125.96
X186.78Y-128.5
X186.78Y-131.04
X186.78Y-133.58
X186.78Y-136.12
X199.72Y-32.6
X199.72Y-35.14
X199.72Y-37.68
X199.72Y-40.22
X199.72Y-42.76
X199.72Y-45.3
X199.72Y-47.84
X199.72Y-50.38
X199.72Y-52.92
X199.72Y-55.46
X199.72Y-58.0
X199.72Y-60.54
X199.72Y-63.08
X199.72Y-65.62
X199.72Y-68.16
X199.72Y-70.7
X199.72Y-73.24
X199.72Y-75.78
X199.72Y-78.32
X199.72Y-80.86
X199.72Y-87.8
X199.72Y-90.34
X199.72Y-92.88
X199.72Y-95.42
X199.72Y-97.96
X199.72Y-100.5
X199.72Y-103.04
X199.72Y-105.58
X199.72Y-108.12
X199.72Y-110.66
X199.72Y-113.2
X199.72Y-115.74
X199.72Y-118.28
X199.72Y-120.82
X199.72Y-123.36
X199.72Y-125.9
X199.72Y-128.44
X199.72Y-130.98
X199.72Y-133.52
X199.72Y-136.06
X217.5Y-32.6
X217.5Y-35.14
X217.5Y-37.68
X217.5Y-40.22
X217.5Y-42.76
X217.5Y-45.3
X217.5Y-47.84
X217.5Y-50.38
X217.5Y-52.92
X217.5Y-55.46
X217.5Y-58.0
X217.5Y-60.54
X217.5Y-63.08
X217.5Y-65.62
X217.5Y-68.16
X217.5Y-70.7
X217.5Y-73.24
X217.5Y-75.78
X217.5Y-78.32
X217.5Y-80.86
X217.5Y-87.86
X217.5Y-90.4
X217.5Y-92.94
X217.5Y-95.48
X217.5Y-98.02
X217.5Y-100.56
X217.5Y-103.1
X217.5Y-105.64
X217.5Y-108.18
X217.5Y-110.72
X217.5Y-113.26
X217.5Y-115.8
X217.5Y-118.34
X217.5Y-120.88
X217.5Y-123.42
X217.5Y-125.96
X217.5Y-128.5
X217.5Y-131.04
X217.5Y-133.58
X217.5Y-136.12
T8
X193.5Y-39.69
X193.5Y-47.31
X224.0Y-32.69
X224.0Y-40.31
T9
X231.5Y-32.0
X239.7Y-32.0
M30
