%TF.GenerationSoftware,KiCad,Pcbnew,9.0.1*%
%TF.CreationDate,2025-10-25T16:54:00-04:00*%
%TF.ProjectId,Design V4.0,44657369-676e-4205-9634-2e302e6b6963,rev?*%
%TF.SameCoordinates,Original*%
%TF.FileFunction,Copper,L2,Bot*%
%TF.FilePolarity,Positive*%
%FSLAX46Y46*%
G04 Gerber Fmt 4.6, Leading zero omitted, Abs format (unit mm)*
G04 Created by KiCad (PCBNEW 9.0.1) date 2025-10-25 16:54:00*
%MOMM*%
%LPD*%
G01*
G04 APERTURE LIST*
G04 Aperture macros list*
%AMRoundRect*
0 Rectangle with rounded corners*
0 $1 Rounding radius*
0 $2 $3 $4 $5 $6 $7 $8 $9 X,Y pos of 4 corners*
0 Add a 4 corners polygon primitive as box body*
4,1,4,$2,$3,$4,$5,$6,$7,$8,$9,$2,$3,0*
0 Add four circle primitives for the rounded corners*
1,1,$1+$1,$2,$3*
1,1,$1+$1,$4,$5*
1,1,$1+$1,$6,$7*
1,1,$1+$1,$8,$9*
0 Add four rect primitives between the rounded corners*
20,1,$1+$1,$2,$3,$4,$5,0*
20,1,$1+$1,$4,$5,$6,$7,0*
20,1,$1+$1,$6,$7,$8,$9,0*
20,1,$1+$1,$8,$9,$2,$3,0*%
%AMFreePoly0*
4,1,37,0.603843,0.796157,0.639018,0.796157,0.711114,0.766294,0.766294,0.711114,0.796157,0.639018,0.796157,0.603843,0.800000,0.600000,0.800000,-0.600000,0.796157,-0.603843,0.796157,-0.639018,0.766294,-0.711114,0.711114,-0.766294,0.639018,-0.796157,0.603843,-0.796157,0.600000,-0.800000,0.000000,-0.800000,0.000000,-0.796148,-0.078414,-0.796148,-0.232228,-0.765552,-0.377117,-0.705537,
-0.507515,-0.618408,-0.618408,-0.507515,-0.705537,-0.377117,-0.765552,-0.232228,-0.796148,-0.078414,-0.796148,0.078414,-0.765552,0.232228,-0.705537,0.377117,-0.618408,0.507515,-0.507515,0.618408,-0.377117,0.705537,-0.232228,0.765552,-0.078414,0.796148,0.000000,0.796148,0.000000,0.800000,0.600000,0.800000,0.603843,0.796157,0.603843,0.796157,$1*%
%AMFreePoly1*
4,1,37,0.000000,0.796148,0.078414,0.796148,0.232228,0.765552,0.377117,0.705537,0.507515,0.618408,0.618408,0.507515,0.705537,0.377117,0.765552,0.232228,0.796148,0.078414,0.796148,-0.078414,0.765552,-0.232228,0.705537,-0.377117,0.618408,-0.507515,0.507515,-0.618408,0.377117,-0.705537,0.232228,-0.765552,0.078414,-0.796148,0.000000,-0.796148,0.000000,-0.800000,-0.600000,-0.800000,
-0.603843,-0.796157,-0.639018,-0.796157,-0.711114,-0.766294,-0.766294,-0.711114,-0.796157,-0.639018,-0.796157,-0.603843,-0.800000,-0.600000,-0.800000,0.600000,-0.796157,0.603843,-0.796157,0.639018,-0.766294,0.711114,-0.711114,0.766294,-0.639018,0.796157,-0.603843,0.796157,-0.600000,0.800000,0.000000,0.800000,0.000000,0.796148,0.000000,0.796148,$1*%
G04 Aperture macros list end*
%TA.AperFunction,ComponentPad*%
%ADD10C,1.600000*%
%TD*%
%TA.AperFunction,ComponentPad*%
%ADD11O,1.600000X1.600000*%
%TD*%
%TA.AperFunction,ComponentPad*%
%ADD12RoundRect,0.250000X-0.600000X-0.725000X0.600000X-0.725000X0.600000X0.725000X-0.600000X0.725000X0*%
%TD*%
%TA.AperFunction,ComponentPad*%
%ADD13O,1.700000X1.950000*%
%TD*%
%TA.AperFunction,ComponentPad*%
%ADD14R,1.800000X1.800000*%
%TD*%
%TA.AperFunction,ComponentPad*%
%ADD15C,1.800000*%
%TD*%
%TA.AperFunction,ComponentPad*%
%ADD16RoundRect,0.200000X-0.600000X-0.600000X0.600000X-0.600000X0.600000X0.600000X-0.600000X0.600000X0*%
%TD*%
%TA.AperFunction,ComponentPad*%
%ADD17FreePoly0,0.000000*%
%TD*%
%TA.AperFunction,ComponentPad*%
%ADD18FreePoly1,0.000000*%
%TD*%
%TA.AperFunction,ComponentPad*%
%ADD19C,1.270000*%
%TD*%
%TA.AperFunction,ComponentPad*%
%ADD20R,2.200000X2.200000*%
%TD*%
%TA.AperFunction,ComponentPad*%
%ADD21O,2.200000X2.200000*%
%TD*%
%TA.AperFunction,ComponentPad*%
%ADD22O,2.200000X3.500000*%
%TD*%
%TA.AperFunction,ComponentPad*%
%ADD23R,1.500000X2.500000*%
%TD*%
%TA.AperFunction,ComponentPad*%
%ADD24O,1.500000X2.500000*%
%TD*%
%TA.AperFunction,ComponentPad*%
%ADD25R,1.700000X1.700000*%
%TD*%
%TA.AperFunction,ComponentPad*%
%ADD26O,1.700000X1.700000*%
%TD*%
%TA.AperFunction,ComponentPad*%
%ADD27RoundRect,0.250000X0.625000X-0.350000X0.625000X0.350000X-0.625000X0.350000X-0.625000X-0.350000X0*%
%TD*%
%TA.AperFunction,ComponentPad*%
%ADD28O,1.750000X1.200000*%
%TD*%
%TA.AperFunction,ComponentPad*%
%ADD29R,1.500000X1.050000*%
%TD*%
%TA.AperFunction,ComponentPad*%
%ADD30O,1.500000X1.050000*%
%TD*%
%TA.AperFunction,ViaPad*%
%ADD31C,0.600000*%
%TD*%
%TA.AperFunction,Conductor*%
%ADD32C,0.200000*%
%TD*%
G04 APERTURE END LIST*
D10*
%TO.P,R6,1*%
%TO.N,GND*%
X224500000Y-61620000D03*
D11*
%TO.P,R6,2*%
%TO.N,Net-(Q4-B)*%
X224500000Y-54000000D03*
%TD*%
D12*
%TO.P,J7,1,Pin_1*%
%TO.N,SENSOR_DATA*%
X227000000Y-127000000D03*
D13*
%TO.P,J7,2,Pin_2*%
%TO.N,A_3V3(OUT)*%
X229500000Y-127000000D03*
%TO.P,J7,3,Pin_3*%
%TO.N,GND*%
X232000000Y-127000000D03*
%TD*%
D10*
%TO.P,R5,1*%
%TO.N,A_3V3(OUT)*%
X244500000Y-51690000D03*
D11*
%TO.P,R5,2*%
%TO.N,Net-(Q4-B)*%
X244500000Y-59310000D03*
%TD*%
D14*
%TO.P,D4,1,K*%
%TO.N,~{STDBY}*%
X242460000Y-82500000D03*
D15*
%TO.P,D4,2,A*%
%TO.N,Net-(D4-A)*%
X245000000Y-82500000D03*
%TD*%
D10*
%TO.P,R8,1*%
%TO.N,Net-(D4-A)*%
X234500000Y-77500000D03*
D11*
%TO.P,R8,2*%
%TO.N,A-VBUS*%
X226880000Y-77500000D03*
%TD*%
D16*
%TO.P,A1,1,GPIO0*%
%TO.N,A_GPIO0*%
X169000000Y-32600000D03*
D10*
%TO.P,A1,2,GPIO1*%
%TO.N,A_GPIO1*%
X169000000Y-35140000D03*
D17*
%TO.P,A1,3,GND*%
%TO.N,GND*%
X169000000Y-37680000D03*
D10*
%TO.P,A1,4,GPIO2*%
%TO.N,A_GPIO2*%
X169000000Y-40220000D03*
%TO.P,A1,5,GPIO3*%
%TO.N,A_GPIO3*%
X169000000Y-42760000D03*
%TO.P,A1,6,GPIO4*%
%TO.N,UART_TX*%
X169000000Y-45300000D03*
%TO.P,A1,7,GPIO5*%
%TO.N,UART_RX*%
X169000000Y-47840000D03*
D17*
%TO.P,A1,8,GND*%
%TO.N,GND*%
X169000000Y-50380000D03*
D10*
%TO.P,A1,9,GPIO6*%
%TO.N,A_GPIO6*%
X169000000Y-52920000D03*
%TO.P,A1,10,GPIO7*%
%TO.N,A_GPIO7*%
X169000000Y-55460000D03*
%TO.P,A1,11,GPIO8*%
%TO.N,A_GPIO8*%
X169000000Y-58000000D03*
%TO.P,A1,12,GPIO9*%
%TO.N,A_GPIO9*%
X169000000Y-60540000D03*
D17*
%TO.P,A1,13,GND*%
%TO.N,GND*%
X169000000Y-63080000D03*
D10*
%TO.P,A1,14,GPIO10*%
%TO.N,A_GPIO10*%
X169000000Y-65620000D03*
%TO.P,A1,15,GPIO11*%
%TO.N,A_GPIO11*%
X169000000Y-68160000D03*
%TO.P,A1,16,GPIO12*%
%TO.N,A_GPIO12*%
X169000000Y-70700000D03*
%TO.P,A1,17,GPIO13*%
%TO.N,A_GPIO13*%
X169000000Y-73240000D03*
D17*
%TO.P,A1,18,GND*%
%TO.N,GND*%
X169000000Y-75780000D03*
D10*
%TO.P,A1,19,GPIO14*%
%TO.N,A_GPIO14*%
X169000000Y-78320000D03*
%TO.P,A1,20,GPIO15*%
%TO.N,A_GPIO15*%
X169000000Y-80860000D03*
%TO.P,A1,21,GPIO16*%
%TO.N,A_GPIO16*%
X186780000Y-80860000D03*
%TO.P,A1,22,GPIO17*%
%TO.N,A_GPIO17*%
X186780000Y-78320000D03*
D18*
%TO.P,A1,23,GND*%
%TO.N,GND*%
X186780000Y-75780000D03*
D10*
%TO.P,A1,24,GPIO18*%
%TO.N,A_GPIO18*%
X186780000Y-73240000D03*
%TO.P,A1,25,GPIO19*%
%TO.N,A_GPIO19*%
X186780000Y-70700000D03*
%TO.P,A1,26,GPIO20*%
%TO.N,A_GPIO20*%
X186780000Y-68160000D03*
%TO.P,A1,27,GPIO21*%
%TO.N,A_GPIO21*%
X186780000Y-65620000D03*
D18*
%TO.P,A1,28,GND*%
%TO.N,GND*%
X186780000Y-63080000D03*
D10*
%TO.P,A1,29,GPIO22*%
%TO.N,SENSOR_DATA*%
X186780000Y-60540000D03*
%TO.P,A1,30,RUN*%
%TO.N,A_RUN*%
X186780000Y-58000000D03*
%TO.P,A1,31,GPIO26_ADC0*%
%TO.N,A_GPIO26*%
X186780000Y-55460000D03*
%TO.P,A1,32,GPIO27_ADC1*%
%TO.N,A_GPIO27*%
X186780000Y-52920000D03*
D18*
%TO.P,A1,33,AGND*%
%TO.N,GND*%
X186780000Y-50380000D03*
D10*
%TO.P,A1,34,GPIO28_ADC2*%
%TO.N,A_GPIO28*%
X186780000Y-47840000D03*
%TO.P,A1,35,ADC_VREF*%
%TO.N,A_ADC_VREF*%
X186780000Y-45300000D03*
%TO.P,A1,36,3V3*%
%TO.N,A_3V3(OUT)*%
X186780000Y-42760000D03*
%TO.P,A1,37,3V3_EN*%
%TO.N,A_3V3_EN*%
X186780000Y-40220000D03*
D18*
%TO.P,A1,38,GND*%
%TO.N,GND*%
X186780000Y-37680000D03*
D10*
%TO.P,A1,39,VSYS*%
%TO.N,Net-(A1-VSYS)*%
X186780000Y-35140000D03*
%TO.P,A1,40,VBUS*%
%TO.N,A-VBUS*%
X186780000Y-32600000D03*
%TD*%
D19*
%TO.P,F1,1*%
%TO.N,VSYS*%
X231700000Y-43050000D03*
%TO.P,F1,2*%
%TO.N,Net-(SW1-B)*%
X233300000Y-37950000D03*
%TD*%
D10*
%TO.P,R2,1*%
%TO.N,A_3V3(OUT)*%
X243500000Y-98810000D03*
D11*
%TO.P,R2,2*%
%TO.N,Net-(D2-A)*%
X243500000Y-91190000D03*
%TD*%
D20*
%TO.P,D5,1,K*%
%TO.N,Net-(A1-VSYS)*%
X193500000Y-39690000D03*
D21*
%TO.P,D5,2,A*%
%TO.N,VSYS*%
X193500000Y-47310000D03*
%TD*%
D22*
%TO.P,SW1,*%
%TO.N,*%
X239700000Y-32000000D03*
X231500000Y-32000000D03*
D23*
%TO.P,SW1,1,A*%
%TO.N,VBAT(+)*%
X237600000Y-32000000D03*
D24*
%TO.P,SW1,2,B*%
%TO.N,Net-(SW1-B)*%
X235600000Y-32000000D03*
%TO.P,SW1,3*%
%TO.N,N/C*%
X233600000Y-32000000D03*
%TD*%
D10*
%TO.P,C4,1*%
%TO.N,GND*%
X236500000Y-86500000D03*
%TO.P,C4,2*%
%TO.N,VBAT(+)*%
X236500000Y-84500000D03*
%TD*%
%TO.P,C2,1*%
%TO.N,GND*%
X224500000Y-48750000D03*
%TO.P,C2,2*%
%TO.N,VSYS*%
X224500000Y-46250000D03*
%TD*%
D25*
%TO.P,J4,1,Pin_1*%
%TO.N,B_GPIO0*%
X199720000Y-136060000D03*
D26*
%TO.P,J4,2,Pin_2*%
%TO.N,B_GPIO1*%
X199720000Y-133520000D03*
%TO.P,J4,3,Pin_3*%
%TO.N,GND*%
X199720000Y-130980000D03*
%TO.P,J4,4,Pin_4*%
%TO.N,B_GPIO2*%
X199720000Y-128440000D03*
%TO.P,J4,5,Pin_5*%
%TO.N,B_GPIO3*%
X199720000Y-125900000D03*
%TO.P,J4,6,Pin_6*%
%TO.N,UART_RX*%
X199720000Y-123360000D03*
%TO.P,J4,7,Pin_7*%
%TO.N,UART_TX*%
X199720000Y-120820000D03*
%TO.P,J4,8,Pin_8*%
%TO.N,GND*%
X199720000Y-118280000D03*
%TO.P,J4,9,Pin_9*%
%TO.N,B_GPIO6*%
X199720000Y-115740000D03*
%TO.P,J4,10,Pin_10*%
%TO.N,B_GPIO7*%
X199720000Y-113200000D03*
%TO.P,J4,11,Pin_11*%
%TO.N,B_GPIO8*%
X199720000Y-110660000D03*
%TO.P,J4,12,Pin_12*%
%TO.N,B_GPIO9*%
X199720000Y-108120000D03*
%TO.P,J4,13,Pin_13*%
%TO.N,GND*%
X199720000Y-105580000D03*
%TO.P,J4,14,Pin_14*%
%TO.N,B_GPIO10*%
X199720000Y-103040000D03*
%TO.P,J4,15,Pin_15*%
%TO.N,B_GPIO11*%
X199720000Y-100500000D03*
%TO.P,J4,16,Pin_16*%
%TO.N,B_GPIO12*%
X199720000Y-97960000D03*
%TO.P,J4,17,Pin_17*%
%TO.N,B_GPIO13*%
X199720000Y-95420000D03*
%TO.P,J4,18,Pin_18*%
%TO.N,GND*%
X199720000Y-92880000D03*
%TO.P,J4,19,Pin_19*%
%TO.N,B_GPIO14*%
X199720000Y-90340000D03*
%TO.P,J4,20,Pin_20*%
%TO.N,B_GPIO15*%
X199720000Y-87800000D03*
%TD*%
D25*
%TO.P,J3,1,Pin_1*%
%TO.N,A_GPIO16*%
X186780000Y-87860000D03*
D26*
%TO.P,J3,2,Pin_2*%
%TO.N,A_GPIO17*%
X186780000Y-90400000D03*
%TO.P,J3,3,Pin_3*%
%TO.N,GND*%
X186780000Y-92940000D03*
%TO.P,J3,4,Pin_4*%
%TO.N,A_GPIO18*%
X186780000Y-95480000D03*
%TO.P,J3,5,Pin_5*%
%TO.N,A_GPIO19*%
X186780000Y-98020000D03*
%TO.P,J3,6,Pin_6*%
%TO.N,A_GPIO20*%
X186780000Y-100560000D03*
%TO.P,J3,7,Pin_7*%
%TO.N,A_GPIO21*%
X186780000Y-103100000D03*
%TO.P,J3,8,Pin_8*%
%TO.N,GND*%
X186780000Y-105640000D03*
%TO.P,J3,9,Pin_9*%
%TO.N,SENSOR_DATA*%
X186780000Y-108180000D03*
%TO.P,J3,10,Pin_10*%
%TO.N,A_RUN*%
X186780000Y-110720000D03*
%TO.P,J3,11,Pin_11*%
%TO.N,A_GPIO26*%
X186780000Y-113260000D03*
%TO.P,J3,12,Pin_12*%
%TO.N,A_GPIO27*%
X186780000Y-115800000D03*
%TO.P,J3,13,Pin_13*%
%TO.N,GND*%
X186780000Y-118340000D03*
%TO.P,J3,14,Pin_14*%
%TO.N,A_GPIO28*%
X186780000Y-120880000D03*
%TO.P,J3,15,Pin_15*%
%TO.N,A_ADC_VREF*%
X186780000Y-123420000D03*
%TO.P,J3,16,Pin_16*%
%TO.N,A_3V3(OUT)*%
X186780000Y-125960000D03*
%TO.P,J3,17,Pin_17*%
%TO.N,A_3V3_EN*%
X186780000Y-128500000D03*
%TO.P,J3,18,Pin_18*%
%TO.N,GND*%
X186780000Y-131040000D03*
%TO.P,J3,19,Pin_19*%
%TO.N,VSYS*%
X186780000Y-133580000D03*
%TO.P,J3,20,Pin_20*%
%TO.N,A-VBUS*%
X186780000Y-136120000D03*
%TD*%
D27*
%TO.P,J1,1,Pin_1*%
%TO.N,VBAT(+)*%
X241550000Y-44000000D03*
D28*
%TO.P,J1,2,Pin_2*%
%TO.N,GND*%
X241550000Y-42000000D03*
%TD*%
D10*
%TO.P,C1,1*%
%TO.N,VSYS*%
X194750000Y-33500000D03*
%TO.P,C1,2*%
%TO.N,GND*%
X192250000Y-33500000D03*
%TD*%
D25*
%TO.P,J2,1,Pin_1*%
%TO.N,A_GPIO0*%
X169000000Y-136060000D03*
D26*
%TO.P,J2,2,Pin_2*%
%TO.N,A_GPIO1*%
X169000000Y-133520000D03*
%TO.P,J2,3,Pin_3*%
%TO.N,GND*%
X169000000Y-130980000D03*
%TO.P,J2,4,Pin_4*%
%TO.N,A_GPIO2*%
X169000000Y-128440000D03*
%TO.P,J2,5,Pin_5*%
%TO.N,A_GPIO3*%
X169000000Y-125900000D03*
%TO.P,J2,6,Pin_6*%
%TO.N,UART_TX*%
X169000000Y-123360000D03*
%TO.P,J2,7,Pin_7*%
%TO.N,UART_RX*%
X169000000Y-120820000D03*
%TO.P,J2,8,Pin_8*%
%TO.N,GND*%
X169000000Y-118280000D03*
%TO.P,J2,9,Pin_9*%
%TO.N,A_GPIO6*%
X169000000Y-115740000D03*
%TO.P,J2,10,Pin_10*%
%TO.N,A_GPIO7*%
X169000000Y-113200000D03*
%TO.P,J2,11,Pin_11*%
%TO.N,A_GPIO8*%
X169000000Y-110660000D03*
%TO.P,J2,12,Pin_12*%
%TO.N,A_GPIO9*%
X169000000Y-108120000D03*
%TO.P,J2,13,Pin_13*%
%TO.N,GND*%
X169000000Y-105580000D03*
%TO.P,J2,14,Pin_14*%
%TO.N,A_GPIO10*%
X169000000Y-103040000D03*
%TO.P,J2,15,Pin_15*%
%TO.N,A_GPIO11*%
X169000000Y-100500000D03*
%TO.P,J2,16,Pin_16*%
%TO.N,A_GPIO12*%
X169000000Y-97960000D03*
%TO.P,J2,17,Pin_17*%
%TO.N,A_GPIO13*%
X169000000Y-95420000D03*
%TO.P,J2,18,Pin_18*%
%TO.N,GND*%
X169000000Y-92880000D03*
%TO.P,J2,19,Pin_19*%
%TO.N,A_GPIO14*%
X169000000Y-90340000D03*
%TO.P,J2,20,Pin_20*%
%TO.N,A_GPIO15*%
X169000000Y-87800000D03*
%TD*%
D10*
%TO.P,R1,1*%
%TO.N,GND*%
X225000000Y-102310000D03*
D11*
%TO.P,R1,2*%
%TO.N,Net-(U1-PROG)*%
X225000000Y-94690000D03*
%TD*%
D10*
%TO.P,R7,1*%
%TO.N,Net-(Q3-E)*%
X226880000Y-68000000D03*
D11*
%TO.P,R7,2*%
%TO.N,Net-(Q3-B)*%
X234500000Y-68000000D03*
%TD*%
D14*
%TO.P,D2,1,K*%
%TO.N,Net-(D2-K)*%
X242460000Y-65500000D03*
D15*
%TO.P,D2,2,A*%
%TO.N,Net-(D2-A)*%
X245000000Y-65500000D03*
%TD*%
D14*
%TO.P,D3,1,K*%
%TO.N,~{CHRG}*%
X242460000Y-74000000D03*
D15*
%TO.P,D3,2,A*%
%TO.N,Net-(D3-A)*%
X245000000Y-74000000D03*
%TD*%
D10*
%TO.P,C3,1*%
%TO.N,GND*%
X237500000Y-92000000D03*
%TO.P,C3,2*%
%TO.N,A-VBUS*%
X235500000Y-92000000D03*
%TD*%
D20*
%TO.P,D6,1,K*%
%TO.N,Net-(A2-VSYS)*%
X224000000Y-32690000D03*
D21*
%TO.P,D6,2,A*%
%TO.N,VSYS*%
X224000000Y-40310000D03*
%TD*%
D29*
%TO.P,Q3,1,E*%
%TO.N,Net-(Q3-E)*%
X234000000Y-56500000D03*
D30*
%TO.P,Q3,2,B*%
%TO.N,Net-(Q3-B)*%
X234000000Y-55230000D03*
%TO.P,Q3,3,C*%
%TO.N,Net-(D2-K)*%
X234000000Y-53960000D03*
%TD*%
D10*
%TO.P,R3,1*%
%TO.N,Net-(D3-A)*%
X226880000Y-72500000D03*
D11*
%TO.P,R3,2*%
%TO.N,A-VBUS*%
X234500000Y-72500000D03*
%TD*%
D25*
%TO.P,J5,1,Pin_1*%
%TO.N,B_GPIO16*%
X217500000Y-87860000D03*
D26*
%TO.P,J5,2,Pin_2*%
%TO.N,B_GPIO17*%
X217500000Y-90400000D03*
%TO.P,J5,3,Pin_3*%
%TO.N,GND*%
X217500000Y-92940000D03*
%TO.P,J5,4,Pin_4*%
%TO.N,B_GPIO18*%
X217500000Y-95480000D03*
%TO.P,J5,5,Pin_5*%
%TO.N,B_GPIO19*%
X217500000Y-98020000D03*
%TO.P,J5,6,Pin_6*%
%TO.N,B_GPIO20*%
X217500000Y-100560000D03*
%TO.P,J5,7,Pin_7*%
%TO.N,B_GPIO21*%
X217500000Y-103100000D03*
%TO.P,J5,8,Pin_8*%
%TO.N,GND*%
X217500000Y-105640000D03*
%TO.P,J5,9,Pin_9*%
%TO.N,B_GPIO22*%
X217500000Y-108180000D03*
%TO.P,J5,10,Pin_10*%
%TO.N,B_RUN*%
X217500000Y-110720000D03*
%TO.P,J5,11,Pin_11*%
%TO.N,B_GPIO26*%
X217500000Y-113260000D03*
%TO.P,J5,12,Pin_12*%
%TO.N,B_GPIO27*%
X217500000Y-115800000D03*
%TO.P,J5,13,Pin_13*%
%TO.N,GND*%
X217500000Y-118340000D03*
%TO.P,J5,14,Pin_14*%
%TO.N,B_GPIO28*%
X217500000Y-120880000D03*
%TO.P,J5,15,Pin_15*%
%TO.N,B_ADC_VREF*%
X217500000Y-123420000D03*
%TO.P,J5,16,Pin_16*%
%TO.N,B_3V3(OUT)*%
X217500000Y-125960000D03*
%TO.P,J5,17,Pin_17*%
%TO.N,B_3V3_EN*%
X217500000Y-128500000D03*
%TO.P,J5,18,Pin_18*%
%TO.N,GND*%
X217500000Y-131040000D03*
%TO.P,J5,19,Pin_19*%
%TO.N,VSYS*%
X217500000Y-133580000D03*
%TO.P,J5,20,Pin_20*%
%TO.N,B-VBUS*%
X217500000Y-136120000D03*
%TD*%
D16*
%TO.P,A2,1,GPIO0*%
%TO.N,B_GPIO0*%
X199720000Y-32600000D03*
D10*
%TO.P,A2,2,GPIO1*%
%TO.N,B_GPIO1*%
X199720000Y-35140000D03*
D17*
%TO.P,A2,3,GND*%
%TO.N,GND*%
X199720000Y-37680000D03*
D10*
%TO.P,A2,4,GPIO2*%
%TO.N,B_GPIO2*%
X199720000Y-40220000D03*
%TO.P,A2,5,GPIO3*%
%TO.N,B_GPIO3*%
X199720000Y-42760000D03*
%TO.P,A2,6,GPIO4*%
%TO.N,UART_RX*%
X199720000Y-45300000D03*
%TO.P,A2,7,GPIO5*%
%TO.N,UART_TX*%
X199720000Y-47840000D03*
D17*
%TO.P,A2,8,GND*%
%TO.N,GND*%
X199720000Y-50380000D03*
D10*
%TO.P,A2,9,GPIO6*%
%TO.N,B_GPIO6*%
X199720000Y-52920000D03*
%TO.P,A2,10,GPIO7*%
%TO.N,B_GPIO7*%
X199720000Y-55460000D03*
%TO.P,A2,11,GPIO8*%
%TO.N,B_GPIO8*%
X199720000Y-58000000D03*
%TO.P,A2,12,GPIO9*%
%TO.N,B_GPIO9*%
X199720000Y-60540000D03*
D17*
%TO.P,A2,13,GND*%
%TO.N,GND*%
X199720000Y-63080000D03*
D10*
%TO.P,A2,14,GPIO10*%
%TO.N,B_GPIO10*%
X199720000Y-65620000D03*
%TO.P,A2,15,GPIO11*%
%TO.N,B_GPIO11*%
X199720000Y-68160000D03*
%TO.P,A2,16,GPIO12*%
%TO.N,B_GPIO12*%
X199720000Y-70700000D03*
%TO.P,A2,17,GPIO13*%
%TO.N,B_GPIO13*%
X199720000Y-73240000D03*
D17*
%TO.P,A2,18,GND*%
%TO.N,GND*%
X199720000Y-75780000D03*
D10*
%TO.P,A2,19,GPIO14*%
%TO.N,B_GPIO14*%
X199720000Y-78320000D03*
%TO.P,A2,20,GPIO15*%
%TO.N,B_GPIO15*%
X199720000Y-80860000D03*
%TO.P,A2,21,GPIO16*%
%TO.N,B_GPIO16*%
X217500000Y-80860000D03*
%TO.P,A2,22,GPIO17*%
%TO.N,B_GPIO17*%
X217500000Y-78320000D03*
D18*
%TO.P,A2,23,GND*%
%TO.N,GND*%
X217500000Y-75780000D03*
D10*
%TO.P,A2,24,GPIO18*%
%TO.N,B_GPIO18*%
X217500000Y-73240000D03*
%TO.P,A2,25,GPIO19*%
%TO.N,B_GPIO19*%
X217500000Y-70700000D03*
%TO.P,A2,26,GPIO20*%
%TO.N,B_GPIO20*%
X217500000Y-68160000D03*
%TO.P,A2,27,GPIO21*%
%TO.N,B_GPIO21*%
X217500000Y-65620000D03*
D18*
%TO.P,A2,28,GND*%
%TO.N,GND*%
X217500000Y-63080000D03*
D10*
%TO.P,A2,29,GPIO22*%
%TO.N,B_GPIO22*%
X217500000Y-60540000D03*
%TO.P,A2,30,RUN*%
%TO.N,B_RUN*%
X217500000Y-58000000D03*
%TO.P,A2,31,GPIO26_ADC0*%
%TO.N,B_GPIO26*%
X217500000Y-55460000D03*
%TO.P,A2,32,GPIO27_ADC1*%
%TO.N,B_GPIO27*%
X217500000Y-52920000D03*
D18*
%TO.P,A2,33,AGND*%
%TO.N,GND*%
X217500000Y-50380000D03*
D10*
%TO.P,A2,34,GPIO28_ADC2*%
%TO.N,B_GPIO28*%
X217500000Y-47840000D03*
%TO.P,A2,35,ADC_VREF*%
%TO.N,B_ADC_VREF*%
X217500000Y-45300000D03*
%TO.P,A2,36,3V3*%
%TO.N,B_3V3(OUT)*%
X217500000Y-42760000D03*
%TO.P,A2,37,3V3_EN*%
%TO.N,B_3V3_EN*%
X217500000Y-40220000D03*
D18*
%TO.P,A2,38,GND*%
%TO.N,GND*%
X217500000Y-37680000D03*
D10*
%TO.P,A2,39,VSYS*%
%TO.N,Net-(A2-VSYS)*%
X217500000Y-35140000D03*
%TO.P,A2,40,VBUS*%
%TO.N,B-VBUS*%
X217500000Y-32600000D03*
%TD*%
D29*
%TO.P,Q4,1,E*%
%TO.N,GND*%
X234000000Y-63000000D03*
D30*
%TO.P,Q4,2,B*%
%TO.N,Net-(Q4-B)*%
X234000000Y-61730000D03*
%TO.P,Q4,3,C*%
%TO.N,Net-(Q3-E)*%
X234000000Y-60460000D03*
%TD*%
D10*
%TO.P,R4,1*%
%TO.N,B_3V3(OUT)*%
X230000000Y-102310000D03*
D11*
%TO.P,R4,2*%
%TO.N,Net-(Q3-B)*%
X230000000Y-94690000D03*
%TD*%
D31*
%TO.N,GND*%
X197141200Y-75330700D03*
%TO.N,A_GPIO27*%
X193044200Y-54485100D03*
X193937300Y-105503800D03*
%TO.N,A_GPIO2*%
X164933100Y-128270100D03*
X164428000Y-42679500D03*
%TO.N,UART_RX*%
X191572700Y-45424200D03*
X192301700Y-122208300D03*
%TO.N,A_GPIO26*%
X189741300Y-54490400D03*
X190481300Y-112476400D03*
%TO.N,A_GPIO8*%
X162313000Y-57436500D03*
X164027800Y-103348700D03*
%TO.N,A-VBUS*%
X224000000Y-90000000D03*
X220791200Y-33395900D03*
X223000000Y-134000000D03*
%TO.N,A_GPIO3*%
X164800000Y-45630900D03*
X165305100Y-125393300D03*
%TO.N,A_GPIO9*%
X165000900Y-63339300D03*
X165908400Y-107395500D03*
%TO.N,UART_TX*%
X201500900Y-120582500D03*
%TO.N,A_GPIO11*%
X166416100Y-90091300D03*
%TO.N,B_GPIO7*%
X194215200Y-113514300D03*
X194312100Y-54485100D03*
%TO.N,B_GPIO27*%
X214903600Y-72193500D03*
X215244400Y-79974800D03*
%TO.N,B_RUN*%
X214357600Y-81992000D03*
X215506400Y-69242100D03*
X213919000Y-107610300D03*
%TO.N,B_GPIO18*%
X218764700Y-93589400D03*
%TO.N,B_3V3(OUT)*%
X222152500Y-125318700D03*
%TO.N,B_GPIO28*%
X215001700Y-122367300D03*
X220585900Y-73194600D03*
X214139900Y-83999100D03*
%TO.N,B_GPIO10*%
X197660200Y-66290700D03*
%TO.N,B_GPIO3*%
X194087500Y-123046500D03*
X195435300Y-42483700D03*
%TO.N,B_GPIO8*%
X201793500Y-106428000D03*
X203489600Y-80989900D03*
%TO.N,B_3V3_EN*%
X214500000Y-40500000D03*
%TO.N,VBAT(+)*%
X231000000Y-87500000D03*
%TO.N,~{CHRG}*%
X238500000Y-78500000D03*
X231000000Y-82000000D03*
%TO.N,~{STDBY}*%
X231000000Y-86000000D03*
%TO.N,Net-(U1-PROG)*%
X222583500Y-91500000D03*
X225000000Y-92000000D03*
%TO.N,B_GPIO19*%
X214722700Y-81148600D03*
X215029100Y-95804700D03*
%TD*%
D32*
%TO.N,GND*%
X217500000Y-105640000D02*
X218651700Y-105640000D01*
X221981700Y-102310000D02*
X225000000Y-102310000D01*
X218651700Y-105640000D02*
X221981700Y-102310000D01*
%TO.N,A-VBUS*%
X219704100Y-137295900D02*
X189107600Y-137295900D01*
X189107600Y-137295900D02*
X187931700Y-136120000D01*
X187931700Y-136120000D02*
X186780000Y-136120000D01*
X223000000Y-134000000D02*
X219704100Y-137295900D01*
%TO.N,SENSOR_DATA*%
X227000000Y-126136500D02*
X227000000Y-124000000D01*
X203912800Y-111930000D02*
X191681700Y-111930000D01*
X227000000Y-124000000D02*
X220129800Y-117129800D01*
X220129800Y-117129800D02*
X209112600Y-117129800D01*
X209112600Y-117129800D02*
X203912800Y-111930000D01*
X191681700Y-111930000D02*
X187931700Y-108180000D01*
X187931700Y-108180000D02*
X186780000Y-108180000D01*
%TO.N,A_3V3(OUT)*%
X229500000Y-127000000D02*
X229500000Y-129500000D01*
X229500000Y-129500000D02*
X229000000Y-130000000D01*
X222294900Y-130000000D02*
X219464900Y-127170000D01*
X219464900Y-127170000D02*
X189141700Y-127170000D01*
X229000000Y-130000000D02*
X222294900Y-130000000D01*
X189141700Y-127170000D02*
X187931700Y-125960000D01*
X187931700Y-125960000D02*
X186780000Y-125960000D01*
%TO.N,GND*%
X232000000Y-127000000D02*
X232000000Y-128500000D01*
X232000000Y-128500000D02*
X229460000Y-131040000D01*
X229460000Y-131040000D02*
X217500000Y-131040000D01*
X217500000Y-131040000D02*
X200931700Y-131040000D01*
X185568300Y-92880000D02*
X185628300Y-92940000D01*
X199720000Y-105580000D02*
X198568300Y-105580000D01*
X197141200Y-75780000D02*
X199720000Y-75780000D01*
X199720000Y-118280000D02*
X198568300Y-118280000D01*
X185568300Y-105580000D02*
X185628300Y-105640000D01*
X241550000Y-41098300D02*
X237411800Y-36960100D01*
X218219900Y-36960100D02*
X217500000Y-37680000D01*
X186780000Y-118340000D02*
X198508300Y-118340000D01*
X170151700Y-118280000D02*
X170211700Y-118340000D01*
X192250000Y-33500000D02*
X192250000Y-37680000D01*
X198508300Y-131040000D02*
X186780000Y-131040000D01*
X199144200Y-92880000D02*
X198568300Y-92880000D01*
X217500000Y-37680000D02*
X199720000Y-37680000D01*
X199720000Y-50380000D02*
X186780000Y-50380000D01*
X199720000Y-92880000D02*
X216288300Y-92880000D01*
X217500000Y-92940000D02*
X216348300Y-92940000D01*
X224500000Y-48750000D02*
X222870000Y-50380000D01*
X198568300Y-105580000D02*
X197890400Y-104902100D01*
X199720000Y-118280000D02*
X200871700Y-118280000D01*
X198508300Y-118340000D02*
X198568300Y-118280000D01*
X169000000Y-130980000D02*
X170151700Y-130980000D01*
X200931700Y-131040000D02*
X200871700Y-130980000D01*
X197141200Y-75780000D02*
X197141200Y-75330700D01*
X169000000Y-50380000D02*
X186780000Y-50380000D01*
X186780000Y-131040000D02*
X170211700Y-131040000D01*
X186780000Y-105640000D02*
X187931700Y-105640000D01*
X200931700Y-118340000D02*
X200871700Y-118280000D01*
X186780000Y-37680000D02*
X192250000Y-37680000D01*
X217500000Y-63080000D02*
X223040000Y-63080000D01*
X192250000Y-37680000D02*
X199720000Y-37680000D01*
X186204200Y-92940000D02*
X185628300Y-92940000D01*
X169000000Y-105580000D02*
X185568300Y-105580000D01*
X219157200Y-93131000D02*
X218966200Y-92940000D01*
X198508300Y-92940000D02*
X198568300Y-92880000D01*
X217500000Y-50380000D02*
X199720000Y-50380000D01*
X225880000Y-63000000D02*
X224500000Y-61620000D01*
X186780000Y-105640000D02*
X185628300Y-105640000D01*
X186780000Y-75780000D02*
X197141200Y-75780000D01*
X170211700Y-118340000D02*
X186780000Y-118340000D01*
X223040000Y-63080000D02*
X224500000Y-61620000D01*
X237500000Y-92000000D02*
X236369000Y-93131000D01*
X186780000Y-92940000D02*
X198508300Y-92940000D01*
X217500000Y-92940000D02*
X218966200Y-92940000D01*
X216288300Y-92880000D02*
X216348300Y-92940000D01*
X169000000Y-63080000D02*
X186780000Y-63080000D01*
X193688200Y-104902100D02*
X193254800Y-105335500D01*
X234000000Y-63000000D02*
X225880000Y-63000000D01*
X193254800Y-105335600D02*
X188236100Y-105335600D01*
X222870000Y-50380000D02*
X217500000Y-50380000D01*
X193254800Y-105335500D02*
X193254800Y-105335600D01*
X199720000Y-130980000D02*
X198568300Y-130980000D01*
X198568300Y-130980000D02*
X198508300Y-131040000D01*
X237411800Y-36960100D02*
X218219900Y-36960100D01*
X170211700Y-131040000D02*
X170151700Y-130980000D01*
X188236100Y-105335600D02*
X187931700Y-105640000D01*
X169000000Y-118280000D02*
X170151700Y-118280000D01*
X186780000Y-63080000D02*
X199720000Y-63080000D01*
X236369000Y-93131000D02*
X219157200Y-93131000D01*
X217500000Y-118340000D02*
X200931700Y-118340000D01*
X169000000Y-92880000D02*
X185568300Y-92880000D01*
X169000000Y-37680000D02*
X186780000Y-37680000D01*
X199720000Y-130980000D02*
X200871700Y-130980000D01*
X241550000Y-42000000D02*
X241550000Y-41098300D01*
X197890400Y-104902100D02*
X193688200Y-104902100D01*
%TO.N,A_GPIO27*%
X186780000Y-114648300D02*
X186492100Y-114648300D01*
X185589000Y-113745200D02*
X185589000Y-107676300D01*
X186780000Y-115800000D02*
X186780000Y-114648300D01*
X185589000Y-107676300D02*
X186258600Y-107006700D01*
X186258600Y-107006700D02*
X192434400Y-107006700D01*
X186492100Y-114648300D02*
X185589000Y-113745200D01*
X192434400Y-107006700D02*
X193937300Y-105503800D01*
X193044200Y-54485100D02*
X191479100Y-52920000D01*
X191479100Y-52920000D02*
X186780000Y-52920000D01*
%TO.N,A_3V3(OUT)*%
X236840000Y-44030000D02*
X244500000Y-51690000D01*
X188050000Y-44030000D02*
X236840000Y-44030000D01*
X186780000Y-42760000D02*
X188050000Y-44030000D01*
%TO.N,A_GPIO2*%
X164933100Y-128270100D02*
X167678400Y-128270100D01*
X169000000Y-128440000D02*
X167848300Y-128440000D01*
X167678400Y-128270100D02*
X167848300Y-128440000D01*
X169000000Y-40220000D02*
X166540500Y-42679500D01*
X166540500Y-42679500D02*
X164428000Y-42679500D01*
%TO.N,UART_RX*%
X169000000Y-120820000D02*
X170151700Y-120820000D01*
X199720000Y-45300000D02*
X191696900Y-45300000D01*
X171540000Y-122208300D02*
X192301700Y-122208300D01*
X170151700Y-120820000D02*
X171540000Y-122208300D01*
X199720000Y-123360000D02*
X198568300Y-123360000D01*
X191696900Y-45300000D02*
X191572700Y-45424200D01*
X190426900Y-46570000D02*
X170270000Y-46570000D01*
X198568300Y-123360000D02*
X197416600Y-122208300D01*
X191572700Y-45424200D02*
X190426900Y-46570000D01*
X170270000Y-46570000D02*
X169000000Y-47840000D01*
X197416600Y-122208300D02*
X192301700Y-122208300D01*
%TO.N,A_GPIO26*%
X186780000Y-113260000D02*
X187931700Y-113260000D01*
X188715300Y-112476400D02*
X187931700Y-113260000D01*
X190481300Y-112476400D02*
X188715300Y-112476400D01*
X188771700Y-55460000D02*
X189741300Y-54490400D01*
X186780000Y-55460000D02*
X188771700Y-55460000D01*
%TO.N,A_GPIO8*%
X167848300Y-110660000D02*
X164027800Y-106839500D01*
X162313000Y-57436500D02*
X168436500Y-57436500D01*
X169000000Y-110660000D02*
X167848300Y-110660000D01*
X164027800Y-106839500D02*
X164027800Y-103348700D01*
X168436500Y-57436500D02*
X169000000Y-58000000D01*
%TO.N,A-VBUS*%
X233398300Y-72500000D02*
X228398300Y-77500000D01*
X225000000Y-90000000D02*
X227000000Y-92000000D01*
X218883900Y-31488600D02*
X187891400Y-31488600D01*
X227000000Y-92000000D02*
X235500000Y-92000000D01*
X234500000Y-72500000D02*
X233398300Y-72500000D01*
X220791200Y-33395900D02*
X218883900Y-31488600D01*
X224000000Y-90000000D02*
X225000000Y-90000000D01*
X187891400Y-31488600D02*
X186780000Y-32600000D01*
X228398300Y-77500000D02*
X226880000Y-77500000D01*
%TO.N,A_GPIO3*%
X169000000Y-125900000D02*
X167848300Y-125900000D01*
X167341600Y-125393300D02*
X167848300Y-125900000D01*
X165305100Y-125393300D02*
X167341600Y-125393300D01*
X169000000Y-42760000D02*
X166129100Y-45630900D01*
X166129100Y-45630900D02*
X164800000Y-45630900D01*
%TO.N,A_GPIO9*%
X165908400Y-107395500D02*
X167123800Y-107395500D01*
X169000000Y-108120000D02*
X167848300Y-108120000D01*
X167123800Y-107395500D02*
X167848300Y-108120000D01*
X166200700Y-63339300D02*
X165000900Y-63339300D01*
X169000000Y-60540000D02*
X166200700Y-63339300D01*
%TO.N,UART_TX*%
X197358300Y-119610000D02*
X198568300Y-120820000D01*
X198605200Y-48954800D02*
X199720000Y-47840000D01*
X201263400Y-120820000D02*
X201500900Y-120582500D01*
X167845100Y-120321200D02*
X168556300Y-119610000D01*
X169000000Y-122208300D02*
X168712100Y-122208300D01*
X167869400Y-48270800D02*
X168553400Y-48954800D01*
X169000000Y-45300000D02*
X167869400Y-46430600D01*
X169000000Y-123360000D02*
X169000000Y-122208300D01*
X168553400Y-48954800D02*
X198605200Y-48954800D01*
X168556300Y-119610000D02*
X197358300Y-119610000D01*
X199144200Y-120820000D02*
X198568300Y-120820000D01*
X167845100Y-121341300D02*
X167845100Y-120321200D01*
X168712100Y-122208300D02*
X167845100Y-121341300D01*
X199720000Y-120820000D02*
X201263400Y-120820000D01*
X167869400Y-46430600D02*
X167869400Y-48270800D01*
%TO.N,A_GPIO11*%
X168712100Y-99348300D02*
X166416100Y-97052300D01*
X166416100Y-97052300D02*
X166416100Y-90091300D01*
X169000000Y-100500000D02*
X169000000Y-99348300D01*
X169000000Y-99348300D02*
X168712100Y-99348300D01*
%TO.N,B_GPIO7*%
X198745100Y-54485100D02*
X199720000Y-55460000D01*
X194312100Y-54485100D02*
X198745100Y-54485100D01*
X199720000Y-113200000D02*
X194529500Y-113200000D01*
X194529500Y-113200000D02*
X194215200Y-113514300D01*
%TO.N,B_GPIO27*%
X216023600Y-79195600D02*
X215244400Y-79974800D01*
X216023600Y-73313500D02*
X216023600Y-79195600D01*
X214903600Y-72193500D02*
X216023600Y-73313500D01*
%TO.N,B_RUN*%
X215586400Y-69322100D02*
X215506400Y-69242100D01*
X216348300Y-110720000D02*
X216348300Y-110039600D01*
X217751800Y-69322100D02*
X215586400Y-69322100D01*
X217482000Y-82447800D02*
X219509800Y-80420000D01*
X216348300Y-110039600D02*
X213919000Y-107610300D01*
X214357600Y-81992000D02*
X214813400Y-82447800D01*
X214813400Y-82447800D02*
X217482000Y-82447800D01*
X219509800Y-80420000D02*
X219509800Y-71080100D01*
X219509800Y-71080100D02*
X217751800Y-69322100D01*
X217500000Y-110720000D02*
X216348300Y-110720000D01*
X215506400Y-69322100D02*
X215506400Y-69242100D01*
%TO.N,B_GPIO18*%
X218025800Y-94328300D02*
X218764700Y-93589400D01*
X217500000Y-95480000D02*
X217500000Y-94328300D01*
X217500000Y-94328300D02*
X218025800Y-94328300D01*
%TO.N,B_3V3(OUT)*%
X219293000Y-125318700D02*
X218651700Y-125960000D01*
X217500000Y-125960000D02*
X218651700Y-125960000D01*
X222152500Y-125318700D02*
X219293000Y-125318700D01*
%TO.N,B_GPIO28*%
X217500000Y-120880000D02*
X216348300Y-120880000D01*
X216498700Y-83999100D02*
X220585900Y-79911900D01*
X220585900Y-79911900D02*
X220585900Y-73194600D01*
X216348300Y-121020700D02*
X215001700Y-122367300D01*
X216348300Y-120880000D02*
X216348300Y-121020700D01*
X214139900Y-83999100D02*
X216498700Y-83999100D01*
%TO.N,B_GPIO10*%
X198330900Y-65620000D02*
X197660200Y-66290700D01*
X199720000Y-65620000D02*
X198330900Y-65620000D01*
%TO.N,Net-(A2-VSYS)*%
X220148300Y-35140000D02*
X217500000Y-35140000D01*
X222598300Y-32690000D02*
X220148300Y-35140000D01*
X224000000Y-32690000D02*
X222598300Y-32690000D01*
%TO.N,B_GPIO3*%
X195714800Y-123046500D02*
X194087500Y-123046500D01*
X198568300Y-125900000D02*
X195714800Y-123046500D01*
X199720000Y-125900000D02*
X198568300Y-125900000D01*
X199443700Y-42483700D02*
X195435300Y-42483700D01*
%TO.N,B_GPIO8*%
X200968200Y-78468500D02*
X203489600Y-80989900D01*
X199988500Y-109508300D02*
X199720000Y-109508300D01*
X200968200Y-59248200D02*
X200968200Y-78468500D01*
X199720000Y-58000000D02*
X200968200Y-59248200D01*
X201793500Y-106428000D02*
X201793500Y-107703300D01*
X199720000Y-110660000D02*
X199720000Y-109508300D01*
X201793500Y-107703300D02*
X199988500Y-109508300D01*
%TO.N,B_3V3_EN*%
X214780000Y-40220000D02*
X217500000Y-40220000D01*
X214500000Y-40500000D02*
X214780000Y-40220000D01*
%TO.N,VSYS*%
X231700000Y-43050000D02*
X228141700Y-43050000D01*
X224020700Y-46729300D02*
X195482400Y-46729300D01*
X189077000Y-134725300D02*
X215203000Y-134725300D01*
X187931700Y-133580000D02*
X189077000Y-134725300D01*
X193500000Y-47310000D02*
X194901700Y-47310000D01*
X217500000Y-133580000D02*
X216348300Y-133580000D01*
X215203000Y-134725300D02*
X216348300Y-133580000D01*
X224000000Y-40310000D02*
X225401700Y-40310000D01*
X228141700Y-43050000D02*
X225401700Y-40310000D01*
X186780000Y-133580000D02*
X187931700Y-133580000D01*
X195482400Y-46729300D02*
X194901700Y-47310000D01*
%TO.N,VBAT(+)*%
X236500000Y-84500000D02*
X234000000Y-84500000D01*
X234000000Y-84500000D02*
X231000000Y-87500000D01*
%TO.N,Net-(D2-K)*%
X240745200Y-53960000D02*
X234000000Y-53960000D01*
X245648900Y-61109400D02*
X245648900Y-58863700D01*
X242460000Y-65500000D02*
X242460000Y-64298300D01*
X245648900Y-58863700D02*
X240745200Y-53960000D01*
X242460000Y-64298300D02*
X245648900Y-61109400D01*
%TO.N,~{CHRG}*%
X231000000Y-82000000D02*
X235000000Y-82000000D01*
X235000000Y-82000000D02*
X238500000Y-78500000D01*
%TO.N,Net-(D3-A)*%
X226880000Y-72500000D02*
X228028500Y-71351500D01*
X242351500Y-71351500D02*
X245000000Y-74000000D01*
X228028500Y-71351500D02*
X242351500Y-71351500D01*
%TO.N,Net-(D4-A)*%
X240000000Y-77500000D02*
X234500000Y-77500000D01*
X245000000Y-82500000D02*
X240000000Y-77500000D01*
%TO.N,~{STDBY}*%
X242460000Y-82500000D02*
X234500000Y-82500000D01*
X234500000Y-82500000D02*
X231000000Y-86000000D01*
%TO.N,Net-(Q4-B)*%
X234000000Y-61730000D02*
X235051700Y-61730000D01*
X235051700Y-59310000D02*
X244500000Y-59310000D01*
X224500000Y-54000000D02*
X225601700Y-54000000D01*
X235051700Y-61730000D02*
X235051700Y-59310000D01*
X230911700Y-59310000D02*
X225601700Y-54000000D01*
X235051700Y-59310000D02*
X230911700Y-59310000D01*
%TO.N,Net-(U1-PROG)*%
X224500000Y-91500000D02*
X222583500Y-91500000D01*
X225000000Y-92000000D02*
X224500000Y-91500000D01*
%TO.N,B_GPIO19*%
X217500000Y-98020000D02*
X216348300Y-98020000D01*
X215029100Y-95804600D02*
X215029100Y-95804700D01*
X215029200Y-95804600D02*
X216348300Y-97123700D01*
X214741600Y-81167500D02*
X214722700Y-81148600D01*
X216480300Y-79590000D02*
X214902800Y-81167500D01*
X215029200Y-95804600D02*
X215029100Y-95804700D01*
X214902800Y-81167500D02*
X214741600Y-81167500D01*
X218642500Y-71842500D02*
X218642500Y-78749900D01*
X217802400Y-79590000D02*
X216480300Y-79590000D01*
X218642500Y-78749900D02*
X217802400Y-79590000D01*
X217500000Y-70700000D02*
X218642500Y-71842500D01*
X216348300Y-98020000D02*
X216348300Y-97123700D01*
%TD*%
M02*
