%TF.GenerationSoftware,KiCad,Pcbnew,9.0.0*%
%TF.CreationDate,2025-03-28T14:39:21-04:00*%
%TF.ProjectId,GatorGrid,4761746f-7247-4726-9964-2e6b69636164,rev?*%
%TF.SameCoordinates,Original*%
%TF.FileFunction,Copper,L1,Top*%
%TF.FilePolarity,Positive*%
%FSLAX46Y46*%
G04 Gerber Fmt 4.6, Leading zero omitted, Abs format (unit mm)*
G04 Created by KiCad (PCBNEW 9.0.0) date 2025-03-28 14:39:21*
%MOMM*%
%LPD*%
G01*
G04 APERTURE LIST*
G04 Aperture macros list*
%AMRoundRect*
0 Rectangle with rounded corners*
0 $1 Rounding radius*
0 $2 $3 $4 $5 $6 $7 $8 $9 X,Y pos of 4 corners*
0 Add a 4 corners polygon primitive as box body*
4,1,4,$2,$3,$4,$5,$6,$7,$8,$9,$2,$3,0*
0 Add four circle primitives for the rounded corners*
1,1,$1+$1,$2,$3*
1,1,$1+$1,$4,$5*
1,1,$1+$1,$6,$7*
1,1,$1+$1,$8,$9*
0 Add four rect primitives between the rounded corners*
20,1,$1+$1,$2,$3,$4,$5,0*
20,1,$1+$1,$4,$5,$6,$7,0*
20,1,$1+$1,$6,$7,$8,$9,0*
20,1,$1+$1,$8,$9,$2,$3,0*%
%AMFreePoly0*
4,1,37,0.000000,0.796148,0.078414,0.796148,0.232228,0.765552,0.377117,0.705537,0.507515,0.618408,0.618408,0.507515,0.705537,0.377117,0.765552,0.232228,0.796148,0.078414,0.796148,-0.078414,0.765552,-0.232228,0.705537,-0.377117,0.618408,-0.507515,0.507515,-0.618408,0.377117,-0.705537,0.232228,-0.765552,0.078414,-0.796148,0.000000,-0.796148,0.000000,-0.800000,-0.600000,-0.800000,
-0.603843,-0.796157,-0.639018,-0.796157,-0.711114,-0.766294,-0.766294,-0.711114,-0.796157,-0.639018,-0.796157,-0.603843,-0.800000,-0.600000,-0.800000,0.600000,-0.796157,0.603843,-0.796157,0.639018,-0.766294,0.711114,-0.711114,0.766294,-0.639018,0.796157,-0.603843,0.796157,-0.600000,0.800000,0.000000,0.800000,0.000000,0.796148,0.000000,0.796148,$1*%
%AMFreePoly1*
4,1,37,0.603843,0.796157,0.639018,0.796157,0.711114,0.766294,0.766294,0.711114,0.796157,0.639018,0.796157,0.603843,0.800000,0.600000,0.800000,-0.600000,0.796157,-0.603843,0.796157,-0.639018,0.766294,-0.711114,0.711114,-0.766294,0.639018,-0.796157,0.603843,-0.796157,0.600000,-0.800000,0.000000,-0.800000,0.000000,-0.796148,-0.078414,-0.796148,-0.232228,-0.765552,-0.377117,-0.705537,
-0.507515,-0.618408,-0.618408,-0.507515,-0.705537,-0.377117,-0.765552,-0.232228,-0.796148,-0.078414,-0.796148,0.078414,-0.765552,0.232228,-0.705537,0.377117,-0.618408,0.507515,-0.507515,0.618408,-0.377117,0.705537,-0.232228,0.765552,-0.078414,0.796148,0.000000,0.796148,0.000000,0.800000,0.600000,0.800000,0.603843,0.796157,0.603843,0.796157,$1*%
G04 Aperture macros list end*
%TA.AperFunction,ComponentPad*%
%ADD10C,1.600000*%
%TD*%
%TA.AperFunction,ComponentPad*%
%ADD11FreePoly0,0.000000*%
%TD*%
%TA.AperFunction,ComponentPad*%
%ADD12FreePoly1,0.000000*%
%TD*%
%TA.AperFunction,ComponentPad*%
%ADD13RoundRect,0.200000X-0.600000X-0.600000X0.600000X-0.600000X0.600000X0.600000X-0.600000X0.600000X0*%
%TD*%
%TA.AperFunction,ComponentPad*%
%ADD14R,1.700000X1.700000*%
%TD*%
%TA.AperFunction,ComponentPad*%
%ADD15O,1.700000X1.700000*%
%TD*%
%TA.AperFunction,ViaPad*%
%ADD16C,0.600000*%
%TD*%
%TA.AperFunction,Conductor*%
%ADD17C,0.200000*%
%TD*%
G04 APERTURE END LIST*
D10*
%TO.P,U1,40,VBUS*%
%TO.N,AVBUS*%
X139000000Y-37300000D03*
%TO.P,U1,39,VSYS*%
%TO.N,AVSYS*%
X139000000Y-39840000D03*
D11*
%TO.P,U1,38,GND*%
%TO.N,GND*%
X139000000Y-42380000D03*
D10*
%TO.P,U1,37,3V3_EN*%
%TO.N,A3V3_EN*%
X139000000Y-44920000D03*
%TO.P,U1,36,3V3_OUT*%
%TO.N,A3V3(OUT)*%
X139000000Y-47460000D03*
%TO.P,U1,35,ADC_VREF*%
%TO.N,AADC_VREF*%
X139000000Y-50000000D03*
%TO.P,U1,34,ADC2_GP28*%
%TO.N,AGP28*%
X139000000Y-52540000D03*
D11*
%TO.P,U1,33,AGND*%
%TO.N,GND*%
X139000000Y-55080000D03*
D10*
%TO.P,U1,32,I2C1_SCL/ADC1/GP27*%
%TO.N,AGP27*%
X139000000Y-57620000D03*
%TO.P,U1,31,I2C1_SDA/ADC0/GP26*%
%TO.N,AGP26*%
X139000000Y-60160000D03*
%TO.P,U1,30,~{RUN}*%
%TO.N,ARUN*%
X139000000Y-62700000D03*
%TO.P,U1,29,GP22*%
%TO.N,AGP22*%
X139000000Y-65240000D03*
D11*
%TO.P,U1,28,GND*%
%TO.N,GND*%
X139000000Y-67780000D03*
D10*
%TO.P,U1,27,12C0_SCL/GP21*%
%TO.N,AGP21*%
X139000000Y-70320000D03*
%TO.P,U1,26,I2C0_SDA/GP20*%
%TO.N,AGP20*%
X139000000Y-72860000D03*
%TO.P,U1,25,I2C1_SCL/SPI0_TX/GP19*%
%TO.N,AGP19*%
X139000000Y-75400000D03*
%TO.P,U1,24,I2C1_SDA/SPI0_SCK/GP18*%
%TO.N,AGP18*%
X139000000Y-77940000D03*
D11*
%TO.P,U1,23,GND*%
%TO.N,GND*%
X139000000Y-80480000D03*
D10*
%TO.P,U1,22,UART0_RX/I2C0_SCL/SPI0_CSN/GP17*%
%TO.N,AGP17*%
X139000000Y-83020000D03*
%TO.P,U1,21,UART0_TX/I2C0_SDA/SPI0_RX/GP16*%
%TO.N,AGP16*%
X139000000Y-85560000D03*
%TO.P,U1,20,I2C1_SCL/SPI1_TX/GP15*%
%TO.N,AGP15*%
X121220000Y-85560000D03*
%TO.P,U1,19,I2C1_SDA/SPI1_SCK/GP14*%
%TO.N,AGP14*%
X121220000Y-83020000D03*
D12*
%TO.P,U1,18,GND*%
%TO.N,GND*%
X121220000Y-80480000D03*
D10*
%TO.P,U1,17,UART0_RX/I2C0_SCL/SPI1_CSN/GP13*%
%TO.N,AGP13*%
X121220000Y-77940000D03*
%TO.P,U1,16,UART0_TX/I2C0_SDA/SPI1_RX/GP12*%
%TO.N,AGP12*%
X121220000Y-75400000D03*
%TO.P,U1,15,I2C1_SCL/SPI1_TX/GP11*%
%TO.N,AGP11*%
X121220000Y-72860000D03*
%TO.P,U1,14,I2C1_SDA/SPI1_SCK/GP10*%
%TO.N,AGP10*%
X121220000Y-70320000D03*
D12*
%TO.P,U1,13,GND*%
%TO.N,GND*%
X121220000Y-67780000D03*
D10*
%TO.P,U1,12,UART1_RX/I2C0_SCL/SPI1_CSN/GP9*%
%TO.N,AGP9*%
X121220000Y-65240000D03*
%TO.P,U1,11,UART1_TX/I2C0_SDA/SPI1_RX/GP8*%
%TO.N,AGP8*%
X121220000Y-62700000D03*
%TO.P,U1,10,I2C1_SCL/SPI0_TX/GP7*%
%TO.N,AGP7*%
X121220000Y-60160000D03*
%TO.P,U1,9,I2C1_SDA/SPI0_SCK/GP6*%
%TO.N,AGP6*%
X121220000Y-57620000D03*
D12*
%TO.P,U1,8,GND*%
%TO.N,GND*%
X121220000Y-55080000D03*
D10*
%TO.P,U1,7,UART1_RX/I2C0_SCL/SPI0_CSN/GP5*%
%TO.N,AGP5*%
X121220000Y-52540000D03*
%TO.P,U1,6,UART1_TX/I2C0_SDA/SPI0_RX/GP4*%
%TO.N,AGP4*%
X121220000Y-50000000D03*
%TO.P,U1,5,I2C1_SCL/SPI0_TX/GP3*%
%TO.N,AGP3*%
X121220000Y-47460000D03*
%TO.P,U1,4,I2C1_SDA/SPI0_SCK/GP2*%
%TO.N,AGP2*%
X121220000Y-44920000D03*
D12*
%TO.P,U1,3,GND*%
%TO.N,GND*%
X121220000Y-42380000D03*
D10*
%TO.P,U1,2,UART0_RX/I2C0_SCL/SPI0_CSN/GP1*%
%TO.N,AGP1*%
X121220000Y-39840000D03*
D13*
%TO.P,U1,1,UART0_TX/I2C0_SDA/SPI0_RX/GP0*%
%TO.N,AGP0*%
X121220000Y-37300000D03*
%TD*%
D14*
%TO.P,J4,1,Pin_1*%
%TO.N,AGP0*%
X121500000Y-97980000D03*
D15*
%TO.P,J4,2,Pin_2*%
%TO.N,AGP1*%
X121500000Y-100520000D03*
%TO.P,J4,3,Pin_3*%
%TO.N,GND*%
X121500000Y-103060000D03*
%TO.P,J4,4,Pin_4*%
%TO.N,AGP2*%
X121500000Y-105600000D03*
%TO.P,J4,5,Pin_5*%
%TO.N,AGP3*%
X121500000Y-108140000D03*
%TO.P,J4,6,Pin_6*%
%TO.N,AGP4*%
X121500000Y-110680000D03*
%TO.P,J4,7,Pin_7*%
%TO.N,AGP5*%
X121500000Y-113220000D03*
%TO.P,J4,8,Pin_8*%
%TO.N,GND*%
X121500000Y-115760000D03*
%TO.P,J4,9,Pin_9*%
%TO.N,AGP6*%
X121500000Y-118300000D03*
%TO.P,J4,10,Pin_10*%
%TO.N,AGP7*%
X121500000Y-120840000D03*
%TO.P,J4,11,Pin_11*%
%TO.N,AGP8*%
X121500000Y-123380000D03*
%TO.P,J4,12,Pin_12*%
%TO.N,AGP9*%
X121500000Y-125920000D03*
%TO.P,J4,13,Pin_13*%
%TO.N,GND*%
X121500000Y-128460000D03*
%TO.P,J4,14,Pin_14*%
%TO.N,AGP10*%
X121500000Y-131000000D03*
%TO.P,J4,15,Pin_15*%
%TO.N,AGP11*%
X121500000Y-133540000D03*
%TO.P,J4,16,Pin_16*%
%TO.N,AGP12*%
X121500000Y-136080000D03*
%TO.P,J4,17,Pin_17*%
%TO.N,AGP13*%
X121500000Y-138620000D03*
%TO.P,J4,18,Pin_18*%
%TO.N,GND*%
X121500000Y-141160000D03*
%TO.P,J4,19,Pin_19*%
%TO.N,AGP14*%
X121500000Y-143700000D03*
%TO.P,J4,20,Pin_20*%
%TO.N,AGP15*%
X121500000Y-146240000D03*
%TD*%
D14*
%TO.P,J7,1,Pin_1*%
%TO.N,AVBUS*%
X140500000Y-98100000D03*
D15*
%TO.P,J7,2,Pin_2*%
%TO.N,AVSYS*%
X140500000Y-100640000D03*
%TO.P,J7,3,Pin_3*%
%TO.N,GND*%
X140500000Y-103180000D03*
%TO.P,J7,4,Pin_4*%
%TO.N,A3V3_EN*%
X140500000Y-105720000D03*
%TO.P,J7,5,Pin_5*%
%TO.N,A3V3(OUT)*%
X140500000Y-108260000D03*
%TO.P,J7,6,Pin_6*%
%TO.N,AADC_VREF*%
X140500000Y-110800000D03*
%TO.P,J7,7,Pin_7*%
%TO.N,AGP28*%
X140500000Y-113340000D03*
%TO.P,J7,8,Pin_8*%
%TO.N,GND*%
X140500000Y-115880000D03*
%TO.P,J7,9,Pin_9*%
%TO.N,AGP27*%
X140500000Y-118420000D03*
%TO.P,J7,10,Pin_10*%
%TO.N,AGP26*%
X140500000Y-120960000D03*
%TO.P,J7,11,Pin_11*%
%TO.N,ARUN*%
X140500000Y-123500000D03*
%TO.P,J7,12,Pin_12*%
%TO.N,AGP22*%
X140500000Y-126040000D03*
%TO.P,J7,13,Pin_13*%
%TO.N,GND*%
X140500000Y-128580000D03*
%TO.P,J7,14,Pin_14*%
%TO.N,AGP21*%
X140500000Y-131120000D03*
%TO.P,J7,15,Pin_15*%
%TO.N,AGP20*%
X140500000Y-133660000D03*
%TO.P,J7,16,Pin_16*%
%TO.N,AGP19*%
X140500000Y-136200000D03*
%TO.P,J7,17,Pin_17*%
%TO.N,AGP18*%
X140500000Y-138740000D03*
%TO.P,J7,18,Pin_18*%
%TO.N,GND*%
X140500000Y-141280000D03*
%TO.P,J7,19,Pin_19*%
%TO.N,AGP17*%
X140500000Y-143820000D03*
%TO.P,J7,20,Pin_20*%
%TO.N,AGP16*%
X140500000Y-146360000D03*
%TD*%
D14*
%TO.P,J8,1,Pin_1*%
%TO.N,BVBUS*%
X177500000Y-98100000D03*
D15*
%TO.P,J8,2,Pin_2*%
%TO.N,BVSYS*%
X177500000Y-100640000D03*
%TO.P,J8,3,Pin_3*%
%TO.N,GND*%
X177500000Y-103180000D03*
%TO.P,J8,4,Pin_4*%
%TO.N,B3V3_EN*%
X177500000Y-105720000D03*
%TO.P,J8,5,Pin_5*%
%TO.N,B3V3(OUT)*%
X177500000Y-108260000D03*
%TO.P,J8,6,Pin_6*%
%TO.N,BADC_VREF*%
X177500000Y-110800000D03*
%TO.P,J8,7,Pin_7*%
%TO.N,BGP28*%
X177500000Y-113340000D03*
%TO.P,J8,8,Pin_8*%
%TO.N,GND*%
X177500000Y-115880000D03*
%TO.P,J8,9,Pin_9*%
%TO.N,BGP27*%
X177500000Y-118420000D03*
%TO.P,J8,10,Pin_10*%
%TO.N,BGP26*%
X177500000Y-120960000D03*
%TO.P,J8,11,Pin_11*%
%TO.N,BRUN*%
X177500000Y-123500000D03*
%TO.P,J8,12,Pin_12*%
%TO.N,BGP22*%
X177500000Y-126040000D03*
%TO.P,J8,13,Pin_13*%
%TO.N,GND*%
X177500000Y-128580000D03*
%TO.P,J8,14,Pin_14*%
%TO.N,BGP21*%
X177500000Y-131120000D03*
%TO.P,J8,15,Pin_15*%
%TO.N,BGP20*%
X177500000Y-133660000D03*
%TO.P,J8,16,Pin_16*%
%TO.N,BGP19*%
X177500000Y-136200000D03*
%TO.P,J8,17,Pin_17*%
%TO.N,BGP18*%
X177500000Y-138740000D03*
%TO.P,J8,18,Pin_18*%
%TO.N,GND*%
X177500000Y-141280000D03*
%TO.P,J8,19,Pin_19*%
%TO.N,BGP17*%
X177500000Y-143820000D03*
%TO.P,J8,20,Pin_20*%
%TO.N,BGP16*%
X177500000Y-146360000D03*
%TD*%
D14*
%TO.P,J6,1,Pin_1*%
%TO.N,BGP0*%
X158500000Y-98100000D03*
D15*
%TO.P,J6,2,Pin_2*%
%TO.N,BGP1*%
X158500000Y-100640000D03*
%TO.P,J6,3,Pin_3*%
%TO.N,GND*%
X158500000Y-103180000D03*
%TO.P,J6,4,Pin_4*%
%TO.N,BGP2*%
X158500000Y-105720000D03*
%TO.P,J6,5,Pin_5*%
%TO.N,BGP3*%
X158500000Y-108260000D03*
%TO.P,J6,6,Pin_6*%
%TO.N,BGP4*%
X158500000Y-110800000D03*
%TO.P,J6,7,Pin_7*%
%TO.N,BGP5*%
X158500000Y-113340000D03*
%TO.P,J6,8,Pin_8*%
%TO.N,GND*%
X158500000Y-115880000D03*
%TO.P,J6,9,Pin_9*%
%TO.N,BGP6*%
X158500000Y-118420000D03*
%TO.P,J6,10,Pin_10*%
%TO.N,BGP7*%
X158500000Y-120960000D03*
%TO.P,J6,11,Pin_11*%
%TO.N,BGP8*%
X158500000Y-123500000D03*
%TO.P,J6,12,Pin_12*%
%TO.N,BGP9*%
X158500000Y-126040000D03*
%TO.P,J6,13,Pin_13*%
%TO.N,GND*%
X158500000Y-128580000D03*
%TO.P,J6,14,Pin_14*%
%TO.N,BGP10*%
X158500000Y-131120000D03*
%TO.P,J6,15,Pin_15*%
%TO.N,BGP11*%
X158500000Y-133660000D03*
%TO.P,J6,16,Pin_16*%
%TO.N,BGP12*%
X158500000Y-136200000D03*
%TO.P,J6,17,Pin_17*%
%TO.N,BGP13*%
X158500000Y-138740000D03*
%TO.P,J6,18,Pin_18*%
%TO.N,GND*%
X158500000Y-141280000D03*
%TO.P,J6,19,Pin_19*%
%TO.N,BGP14*%
X158500000Y-143820000D03*
%TO.P,J6,20,Pin_20*%
%TO.N,BGP15*%
X158500000Y-146360000D03*
%TD*%
D13*
%TO.P,U2,1,UART0_TX/I2C0_SDA/SPI0_RX/GP0*%
%TO.N,BGP0*%
X159110000Y-37682500D03*
D10*
%TO.P,U2,2,UART0_RX/I2C0_SCL/SPI0_CSN/GP1*%
%TO.N,BGP1*%
X159110000Y-40222500D03*
D12*
%TO.P,U2,3,GND*%
%TO.N,GND*%
X159110000Y-42762500D03*
D10*
%TO.P,U2,4,I2C1_SDA/SPI0_SCK/GP2*%
%TO.N,BGP2*%
X159110000Y-45302500D03*
%TO.P,U2,5,I2C1_SCL/SPI0_TX/GP3*%
%TO.N,BGP3*%
X159110000Y-47842500D03*
%TO.P,U2,6,UART1_TX/I2C0_SDA/SPI0_RX/GP4*%
%TO.N,BGP4*%
X159110000Y-50382500D03*
%TO.P,U2,7,UART1_RX/I2C0_SCL/SPI0_CSN/GP5*%
%TO.N,BGP5*%
X159110000Y-52922500D03*
D12*
%TO.P,U2,8,GND*%
%TO.N,GND*%
X159110000Y-55462500D03*
D10*
%TO.P,U2,9,I2C1_SDA/SPI0_SCK/GP6*%
%TO.N,BGP6*%
X159110000Y-58002500D03*
%TO.P,U2,10,I2C1_SCL/SPI0_TX/GP7*%
%TO.N,BGP7*%
X159110000Y-60542500D03*
%TO.P,U2,11,UART1_TX/I2C0_SDA/SPI1_RX/GP8*%
%TO.N,BGP8*%
X159110000Y-63082500D03*
%TO.P,U2,12,UART1_RX/I2C0_SCL/SPI1_CSN/GP9*%
%TO.N,BGP9*%
X159110000Y-65622500D03*
D12*
%TO.P,U2,13,GND*%
%TO.N,GND*%
X159110000Y-68162500D03*
D10*
%TO.P,U2,14,I2C1_SDA/SPI1_SCK/GP10*%
%TO.N,BGP10*%
X159110000Y-70702500D03*
%TO.P,U2,15,I2C1_SCL/SPI1_TX/GP11*%
%TO.N,BGP11*%
X159110000Y-73242500D03*
%TO.P,U2,16,UART0_TX/I2C0_SDA/SPI1_RX/GP12*%
%TO.N,BGP12*%
X159110000Y-75782500D03*
%TO.P,U2,17,UART0_RX/I2C0_SCL/SPI1_CSN/GP13*%
%TO.N,BGP13*%
X159110000Y-78322500D03*
D12*
%TO.P,U2,18,GND*%
%TO.N,GND*%
X159110000Y-80862500D03*
D10*
%TO.P,U2,19,I2C1_SDA/SPI1_SCK/GP14*%
%TO.N,BGP14*%
X159110000Y-83402500D03*
%TO.P,U2,20,I2C1_SCL/SPI1_TX/GP15*%
%TO.N,BGP15*%
X159110000Y-85942500D03*
%TO.P,U2,21,UART0_TX/I2C0_SDA/SPI0_RX/GP16*%
%TO.N,BGP16*%
X176890000Y-85942500D03*
%TO.P,U2,22,UART0_RX/I2C0_SCL/SPI0_CSN/GP17*%
%TO.N,BGP17*%
X176890000Y-83402500D03*
D11*
%TO.P,U2,23,GND*%
%TO.N,GND*%
X176890000Y-80862500D03*
D10*
%TO.P,U2,24,I2C1_SDA/SPI0_SCK/GP18*%
%TO.N,BGP18*%
X176890000Y-78322500D03*
%TO.P,U2,25,I2C1_SCL/SPI0_TX/GP19*%
%TO.N,BGP19*%
X176890000Y-75782500D03*
%TO.P,U2,26,I2C0_SDA/GP20*%
%TO.N,BGP20*%
X176890000Y-73242500D03*
%TO.P,U2,27,12C0_SCL/GP21*%
%TO.N,BGP21*%
X176890000Y-70702500D03*
D11*
%TO.P,U2,28,GND*%
%TO.N,GND*%
X176890000Y-68162500D03*
D10*
%TO.P,U2,29,GP22*%
%TO.N,BGP22*%
X176890000Y-65622500D03*
%TO.P,U2,30,~{RUN}*%
%TO.N,BRUN*%
X176890000Y-63082500D03*
%TO.P,U2,31,I2C1_SDA/ADC0/GP26*%
%TO.N,BGP26*%
X176890000Y-60542500D03*
%TO.P,U2,32,I2C1_SCL/ADC1/GP27*%
%TO.N,BGP27*%
X176890000Y-58002500D03*
D11*
%TO.P,U2,33,AGND*%
%TO.N,GND*%
X176890000Y-55462500D03*
D10*
%TO.P,U2,34,ADC2_GP28*%
%TO.N,BGP28*%
X176890000Y-52922500D03*
%TO.P,U2,35,ADC_VREF*%
%TO.N,BADC_VREF*%
X176890000Y-50382500D03*
%TO.P,U2,36,3V3_OUT*%
%TO.N,B3V3(OUT)*%
X176890000Y-47842500D03*
%TO.P,U2,37,3V3_EN*%
%TO.N,B3V3_EN*%
X176890000Y-45302500D03*
D11*
%TO.P,U2,38,GND*%
%TO.N,GND*%
X176890000Y-42762500D03*
D10*
%TO.P,U2,39,VSYS*%
%TO.N,BVSYS*%
X176890000Y-40222500D03*
%TO.P,U2,40,VBUS*%
%TO.N,BVBUS*%
X176890000Y-37682500D03*
%TD*%
D16*
%TO.N,AGP6*%
X115825000Y-114883000D03*
X116396000Y-59010200D03*
%TO.N,AGP9*%
X114420000Y-125920000D03*
X113976000Y-65240000D03*
%TO.N,AGP14*%
X116603000Y-83060800D03*
%TO.N,AGP11*%
X115625000Y-133540000D03*
X116796000Y-73156900D03*
%TO.N,AGP13*%
X117230000Y-136062000D03*
X117029000Y-80508000D03*
%TO.N,AGP3*%
X118240000Y-48516500D03*
%TO.N,AGP7*%
X115528000Y-120840000D03*
X115792000Y-61393100D03*
%TO.N,AGP15*%
X124694000Y-88058200D03*
%TO.N,AGP8*%
X115023000Y-123380000D03*
X115122000Y-64347200D03*
%TO.N,AGP5*%
X117408000Y-55589500D03*
%TO.N,AGP4*%
X117826000Y-50000000D03*
%TO.N,AGP12*%
X123982000Y-84840800D03*
%TO.N,BGP26*%
X183471400Y-60542500D03*
X183873100Y-119481300D03*
%TO.N,B3V3_EN*%
X179921700Y-45302500D03*
X181664600Y-105921700D03*
%TO.N,BGP20*%
X181853400Y-76371200D03*
%TO.N,BGP22*%
X179720900Y-75228800D03*
%TO.N,BRUN*%
X179319200Y-73898300D03*
%TO.N,BVSYS*%
X182869700Y-100640000D03*
%TO.N,BGP19*%
X183271400Y-79451200D03*
%TO.N,BGP18*%
X174542200Y-138707200D03*
%TO.N,BGP28*%
X181126800Y-52922500D03*
X181664600Y-113340000D03*
%TO.N,BVBUS*%
X184274800Y-96736500D03*
%TO.N,BGP0*%
X152116000Y-96999700D03*
%TO.N,BGP6*%
X152717800Y-58002500D03*
%TO.N,AGP21*%
X143071000Y-131120000D03*
X142170000Y-70175200D03*
%TO.N,AGP26*%
X143509000Y-117863000D03*
X143135000Y-62200100D03*
%TO.N,A3V3_EN*%
X145408000Y-99980200D03*
X143633000Y-47795200D03*
%TO.N,AGP22*%
X145020000Y-126040000D03*
X145006000Y-65240000D03*
%TO.N,AGP18*%
X147748000Y-132734000D03*
X147748000Y-79116700D03*
%TO.N,A3V3(OUT)*%
X142687000Y-102962000D03*
X141581000Y-48804000D03*
%TO.N,AGP28*%
X145796000Y-113340000D03*
X145796000Y-52540000D03*
%TO.N,ARUN*%
X144416000Y-123500000D03*
X144384000Y-64615700D03*
%TO.N,AGP20*%
X143749000Y-133660000D03*
X143782000Y-74768300D03*
%TO.N,AGP27*%
X146411000Y-114127000D03*
X146599000Y-57620000D03*
%TO.N,AGP19*%
X142666000Y-135678000D03*
X142086000Y-77039200D03*
%TD*%
D17*
%TO.N,AGP6*%
X115825000Y-83994300D02*
X115825000Y-114883000D01*
X115532000Y-83701400D02*
X115825000Y-83994300D01*
X115532000Y-80124400D02*
X115532000Y-83701400D01*
X116273000Y-79383400D02*
X115532000Y-80124400D01*
X116273000Y-73484400D02*
X116273000Y-79383400D01*
X116194000Y-73404800D02*
X116273000Y-73484400D01*
X116194000Y-72906600D02*
X116194000Y-73404800D01*
X116396000Y-72703800D02*
X116194000Y-72906600D01*
X116396000Y-59010200D02*
X116396000Y-72703800D01*
%TO.N,AGP9*%
X113976000Y-84088200D02*
X113976000Y-65240000D01*
X114521000Y-84632600D02*
X113976000Y-84088200D01*
X114521000Y-114200000D02*
X114521000Y-84632600D01*
X114420000Y-114301000D02*
X114521000Y-114200000D01*
X114420000Y-125920000D02*
X114420000Y-114301000D01*
%TO.N,AGP10*%
X123509000Y-128991000D02*
X121500000Y-131000000D01*
X123509000Y-85217900D02*
X123509000Y-128991000D01*
X122630000Y-84339300D02*
X123509000Y-85217900D01*
X122630000Y-71730000D02*
X122630000Y-84339300D01*
X121220000Y-70320000D02*
X122630000Y-71730000D01*
%TO.N,AGP14*%
X116828000Y-83286400D02*
X116603000Y-83060800D01*
X116828000Y-122035000D02*
X116828000Y-83286400D01*
X116596000Y-122267000D02*
X116828000Y-122035000D01*
X116596000Y-137932000D02*
X116596000Y-122267000D01*
X121212000Y-142548000D02*
X116596000Y-137932000D01*
X121500000Y-142548000D02*
X121212000Y-142548000D01*
X121500000Y-143700000D02*
X121500000Y-142548000D01*
%TO.N,AGP11*%
X115625000Y-122469000D02*
X115625000Y-133540000D01*
X116427000Y-121667000D02*
X115625000Y-122469000D01*
X116427000Y-83950800D02*
X116427000Y-121667000D01*
X115975000Y-83499200D02*
X116427000Y-83950800D01*
X115975000Y-80388200D02*
X115975000Y-83499200D01*
X116796000Y-79566800D02*
X115975000Y-80388200D01*
X116796000Y-73156900D02*
X116796000Y-79566800D01*
%TO.N,AGP0*%
X121500000Y-96828300D02*
X121500000Y-97980000D01*
X118842000Y-94170400D02*
X121500000Y-96828300D01*
X118842000Y-39677900D02*
X118842000Y-94170400D01*
X121220000Y-37300000D02*
X118842000Y-39677900D01*
%TO.N,AGP13*%
X117230000Y-80708800D02*
X117029000Y-80508000D01*
X117230000Y-136062000D02*
X117230000Y-80708800D01*
%TO.N,AGP3*%
X118435000Y-48711400D02*
X118240000Y-48516500D01*
X118435000Y-104211000D02*
X118435000Y-48711400D01*
X121212000Y-106988000D02*
X118435000Y-104211000D01*
X121500000Y-106988000D02*
X121212000Y-106988000D01*
X121500000Y-108140000D02*
X121500000Y-106988000D01*
%TO.N,AGP7*%
X115528000Y-115436000D02*
X115528000Y-120840000D01*
X115223000Y-115132000D02*
X115528000Y-115436000D01*
X115223000Y-114634000D02*
X115223000Y-115132000D01*
X115423000Y-114433000D02*
X115223000Y-114634000D01*
X115423000Y-84326900D02*
X115423000Y-114433000D01*
X114780000Y-83683300D02*
X115423000Y-84326900D01*
X114780000Y-80308800D02*
X114780000Y-83683300D01*
X115794000Y-79294100D02*
X114780000Y-80308800D01*
X115794000Y-73573700D02*
X115794000Y-79294100D01*
X115792000Y-73571100D02*
X115794000Y-73573700D01*
X115792000Y-61393100D02*
X115792000Y-73571100D01*
%TO.N,AGP15*%
X124694000Y-142163000D02*
X124694000Y-88058200D01*
X121768000Y-145088000D02*
X124694000Y-142163000D01*
X121500000Y-145088000D02*
X121768000Y-145088000D01*
X121500000Y-146240000D02*
X121500000Y-145088000D01*
%TO.N,AGP1*%
X121500000Y-99368300D02*
X121500000Y-100520000D01*
X122292000Y-99368300D02*
X121500000Y-99368300D01*
X122659000Y-99001500D02*
X122292000Y-99368300D01*
X122659000Y-89875900D02*
X122659000Y-99001500D01*
X119244000Y-86461100D02*
X122659000Y-89875900D01*
X119244000Y-41816200D02*
X119244000Y-86461100D01*
X121220000Y-39840000D02*
X119244000Y-41816200D01*
%TO.N,AGP8*%
X114922000Y-123279000D02*
X115023000Y-123380000D01*
X114922000Y-120595000D02*
X114922000Y-123279000D01*
X115122000Y-120395000D02*
X114922000Y-120595000D01*
X115122000Y-115599000D02*
X115122000Y-120395000D01*
X114822000Y-115298000D02*
X115122000Y-115599000D01*
X114822000Y-114467000D02*
X114822000Y-115298000D01*
X115022000Y-114267000D02*
X114822000Y-114467000D01*
X115022000Y-84565500D02*
X115022000Y-114267000D01*
X114721000Y-84264600D02*
X115022000Y-84565500D01*
X114721000Y-84192300D02*
X114721000Y-84264600D01*
X114378000Y-83849600D02*
X114721000Y-84192300D01*
X114378000Y-79957200D02*
X114378000Y-83849600D01*
X115122000Y-79212800D02*
X114378000Y-79957200D01*
X115122000Y-64347200D02*
X115122000Y-79212800D01*
%TO.N,AGP5*%
X117632000Y-55813700D02*
X117408000Y-55589500D01*
X117632000Y-108469000D02*
X117632000Y-55813700D01*
X121232000Y-112068000D02*
X117632000Y-108469000D01*
X121500000Y-112068000D02*
X121232000Y-112068000D01*
X121500000Y-113220000D02*
X121500000Y-112068000D01*
%TO.N,AGP2*%
X120342000Y-104442000D02*
X121500000Y-105600000D01*
X120342000Y-102569000D02*
X120342000Y-104442000D01*
X121121000Y-101790000D02*
X120342000Y-102569000D01*
X121891000Y-101790000D02*
X121121000Y-101790000D01*
X123062000Y-100619000D02*
X121891000Y-101790000D01*
X123062000Y-85843700D02*
X123062000Y-100619000D01*
X121676000Y-84458300D02*
X123062000Y-85843700D01*
X121096000Y-84458300D02*
X121676000Y-84458300D01*
X119646000Y-83008200D02*
X121096000Y-84458300D01*
X119646000Y-46494500D02*
X119646000Y-83008200D01*
X121220000Y-44920000D02*
X119646000Y-46494500D01*
%TO.N,AGP4*%
X118034000Y-50207000D02*
X117826000Y-50000000D01*
X118034000Y-106330000D02*
X118034000Y-50207000D01*
X121232000Y-109528000D02*
X118034000Y-106330000D01*
X121500000Y-109528000D02*
X121232000Y-109528000D01*
X121500000Y-110680000D02*
X121500000Y-109528000D01*
%TO.N,AGP12*%
X123982000Y-132734000D02*
X123982000Y-84840800D01*
X121788000Y-134928000D02*
X123982000Y-132734000D01*
X121500000Y-134928000D02*
X121788000Y-134928000D01*
X121500000Y-136080000D02*
X121500000Y-134928000D01*
%TO.N,BGP26*%
X183471400Y-78800400D02*
X183471400Y-60542500D01*
X183471500Y-78800400D02*
X183471400Y-78800400D01*
X183873100Y-79202000D02*
X183471500Y-78800400D01*
X183873100Y-79700400D02*
X183873100Y-79202000D01*
X183473000Y-80100500D02*
X183873100Y-79700400D01*
X183473000Y-99824400D02*
X183473000Y-80100500D01*
X183873100Y-100224500D02*
X183473000Y-99824400D01*
X183873100Y-119481300D02*
X183873100Y-100224500D01*
%TO.N,B3V3_EN*%
X179921700Y-73081900D02*
X179921700Y-45302500D01*
X180725100Y-73885300D02*
X179921700Y-73081900D01*
X180725100Y-76662000D02*
X180725100Y-73885300D01*
X181062800Y-76999700D02*
X180725100Y-76662000D01*
X181062800Y-78991400D02*
X181062800Y-76999700D01*
X181464500Y-79393100D02*
X181062800Y-78991400D01*
X181464500Y-105721600D02*
X181464500Y-79393100D01*
X181664600Y-105921700D02*
X181464500Y-105721600D01*
%TO.N,BGP20*%
X177500000Y-133660000D02*
X177500000Y-132508300D01*
X181866200Y-76384000D02*
X181853400Y-76371200D01*
X181866200Y-78658800D02*
X181866200Y-76384000D01*
X182267900Y-79060500D02*
X181866200Y-78658800D01*
X182267900Y-105106100D02*
X182267900Y-79060500D01*
X182668000Y-105506200D02*
X182267900Y-105106100D01*
X182668000Y-127608800D02*
X182668000Y-105506200D01*
X177768500Y-132508300D02*
X182668000Y-127608800D01*
X177500000Y-132508300D02*
X177768500Y-132508300D01*
%TO.N,BGP22*%
X177768500Y-124888300D02*
X177500000Y-124888300D01*
X180661100Y-121995700D02*
X177768500Y-124888300D01*
X180661100Y-79725700D02*
X180661100Y-121995700D01*
X180259400Y-79324000D02*
X180661100Y-79725700D01*
X180259400Y-77332300D02*
X180259400Y-79324000D01*
X179921700Y-76994600D02*
X180259400Y-77332300D01*
X179921700Y-75429600D02*
X179921700Y-76994600D01*
X179720900Y-75228800D02*
X179921700Y-75429600D01*
X177500000Y-126040000D02*
X177500000Y-124888300D01*
%TO.N,BRUN*%
X177500000Y-123500000D02*
X177500000Y-122348300D01*
X177766500Y-122348300D02*
X177500000Y-122348300D01*
X180259400Y-119855400D02*
X177766500Y-122348300D01*
X180259400Y-80093500D02*
X180259400Y-119855400D01*
X179857700Y-79691800D02*
X180259400Y-80093500D01*
X179857700Y-77498600D02*
X179857700Y-79691800D01*
X179520000Y-77160900D02*
X179857700Y-77498600D01*
X179520000Y-75878600D02*
X179520000Y-77160900D01*
X179519900Y-75878600D02*
X179520000Y-75878600D01*
X179119200Y-75477900D02*
X179519900Y-75878600D01*
X179119200Y-74098300D02*
X179119200Y-75477900D01*
X179319200Y-73898300D02*
X179119200Y-74098300D01*
%TO.N,BVSYS*%
X182455100Y-45787600D02*
X176890000Y-40222500D01*
X182455100Y-76620400D02*
X182455100Y-45787600D01*
X182267900Y-76807600D02*
X182455100Y-76620400D01*
X182267900Y-78492500D02*
X182267900Y-76807600D01*
X182669600Y-78894200D02*
X182267900Y-78492500D01*
X182669600Y-100439900D02*
X182669600Y-78894200D01*
X182869700Y-100640000D02*
X182669600Y-100439900D01*
%TO.N,BGP19*%
X177500000Y-136200000D02*
X177500000Y-135048300D01*
X183071300Y-79651300D02*
X183271400Y-79451200D01*
X183071300Y-99990800D02*
X183071300Y-79651300D01*
X183118800Y-100038300D02*
X183071300Y-99990800D01*
X183118900Y-100038300D02*
X183118800Y-100038300D01*
X183471400Y-100390800D02*
X183118900Y-100038300D01*
X183471400Y-100889200D02*
X183471400Y-100390800D01*
X183071300Y-101289300D02*
X183471400Y-100889200D01*
X183071200Y-101289300D02*
X183071300Y-101289300D01*
X183071200Y-129745600D02*
X183071200Y-101289300D01*
X177768500Y-135048300D02*
X183071200Y-129745600D01*
X177500000Y-135048300D02*
X177768500Y-135048300D01*
%TO.N,BGP27*%
X179857700Y-116062300D02*
X177500000Y-118420000D01*
X179857700Y-80259900D02*
X179857700Y-116062300D01*
X179456000Y-79858200D02*
X179857700Y-80259900D01*
X179456000Y-77700400D02*
X179456000Y-79858200D01*
X178717500Y-76961900D02*
X179456000Y-77700400D01*
X178717500Y-73497500D02*
X178717500Y-76961900D01*
X177050900Y-71830900D02*
X178717500Y-73497500D01*
X176450500Y-71830900D02*
X177050900Y-71830900D01*
X175788300Y-71168700D02*
X176450500Y-71830900D01*
X175788300Y-59104200D02*
X175788300Y-71168700D01*
X176890000Y-58002500D02*
X175788300Y-59104200D01*
%TO.N,BGP16*%
X177500000Y-146360000D02*
X177500000Y-145208300D01*
X175541900Y-87290600D02*
X176890000Y-85942500D01*
X175541900Y-143491000D02*
X175541900Y-87290600D01*
X177259200Y-145208300D02*
X175541900Y-143491000D01*
X177500000Y-145208300D02*
X177259200Y-145208300D01*
%TO.N,BGP18*%
X174542200Y-87150300D02*
X174542200Y-138707200D01*
X175542100Y-86150400D02*
X174542200Y-87150300D01*
X175542100Y-79670400D02*
X175542100Y-86150400D01*
X176890000Y-78322500D02*
X175542100Y-79670400D01*
%TO.N,BADC_VREF*%
X177500000Y-110800000D02*
X177500000Y-109648300D01*
X177768500Y-109648300D02*
X177500000Y-109648300D01*
X179456000Y-107960800D02*
X177768500Y-109648300D01*
X179456000Y-80426200D02*
X179456000Y-107960800D01*
X179054300Y-80024500D02*
X179456000Y-80426200D01*
X179054300Y-78182300D02*
X179054300Y-80024500D01*
X178315800Y-77443800D02*
X179054300Y-78182300D01*
X178315800Y-75622300D02*
X178315800Y-77443800D01*
X177206000Y-74512500D02*
X178315800Y-75622300D01*
X176555300Y-74512500D02*
X177206000Y-74512500D01*
X175370200Y-73327400D02*
X176555300Y-74512500D01*
X175370200Y-51902300D02*
X175370200Y-73327400D01*
X176890000Y-50382500D02*
X175370200Y-51902300D01*
%TO.N,BGP17*%
X177500000Y-143820000D02*
X177500000Y-142668300D01*
X177212000Y-142668300D02*
X177500000Y-142668300D01*
X175943600Y-141399900D02*
X177212000Y-142668300D01*
X175943600Y-97529700D02*
X175943600Y-141399900D01*
X178002600Y-95470700D02*
X175943600Y-97529700D01*
X178002600Y-84515100D02*
X178002600Y-95470700D01*
X176890000Y-83402500D02*
X178002600Y-84515100D01*
%TO.N,BGP28*%
X181126800Y-76495700D02*
X181126800Y-52922500D01*
X181464500Y-76833400D02*
X181126800Y-76495700D01*
X181464500Y-78825100D02*
X181464500Y-76833400D01*
X181866200Y-79226800D02*
X181464500Y-78825100D01*
X181866200Y-105272500D02*
X181866200Y-79226800D01*
X181913700Y-105320000D02*
X181866200Y-105272500D01*
X181913800Y-105320000D02*
X181913700Y-105320000D01*
X182266300Y-105672500D02*
X181913800Y-105320000D01*
X182266300Y-106170900D02*
X182266300Y-105672500D01*
X181664700Y-106772500D02*
X182266300Y-106170900D01*
X181664600Y-106772500D02*
X181664700Y-106772500D01*
X181664600Y-113340000D02*
X181664600Y-106772500D01*
%TO.N,BVBUS*%
X184274800Y-45067300D02*
X176890000Y-37682500D01*
X184274800Y-96736500D02*
X184274800Y-45067300D01*
%TO.N,B3V3(OUT)*%
X177500000Y-108260000D02*
X177500000Y-107108300D01*
X177766500Y-107108300D02*
X177500000Y-107108300D01*
X179053400Y-105821400D02*
X177766500Y-107108300D01*
X179053400Y-80591600D02*
X179053400Y-105821400D01*
X178652600Y-80190800D02*
X179053400Y-80591600D01*
X178652600Y-78525400D02*
X178652600Y-80190800D01*
X177179700Y-77052500D02*
X178652600Y-78525400D01*
X176598000Y-77052500D02*
X177179700Y-77052500D01*
X174968500Y-75423000D02*
X176598000Y-77052500D01*
X174968500Y-49764000D02*
X174968500Y-75423000D01*
X176890000Y-47842500D02*
X174968500Y-49764000D01*
%TO.N,BGP21*%
X179484100Y-73296600D02*
X176890000Y-70702500D01*
X179568400Y-73296600D02*
X179484100Y-73296600D01*
X179920900Y-73649100D02*
X179568400Y-73296600D01*
X179920900Y-74577900D02*
X179920900Y-73649100D01*
X180323400Y-74980400D02*
X179920900Y-74577900D01*
X180323400Y-76828300D02*
X180323400Y-74980400D01*
X180661100Y-77166000D02*
X180323400Y-76828300D01*
X180661100Y-79157700D02*
X180661100Y-77166000D01*
X181062800Y-79559400D02*
X180661100Y-79157700D01*
X181062800Y-127557200D02*
X181062800Y-79559400D01*
X177500000Y-131120000D02*
X181062800Y-127557200D01*
%TO.N,BGP7*%
X158500000Y-120960000D02*
X158500000Y-119808300D01*
X154727700Y-64924800D02*
X159110000Y-60542500D01*
X154727700Y-98497200D02*
X154727700Y-64924800D01*
X158140500Y-101910000D02*
X154727700Y-98497200D01*
X158911900Y-101910000D02*
X158140500Y-101910000D01*
X159656800Y-102654900D02*
X158911900Y-101910000D01*
X159656800Y-104116300D02*
X159656800Y-102654900D01*
X160058500Y-104518000D02*
X159656800Y-104116300D01*
X160058500Y-118518300D02*
X160058500Y-104518000D01*
X158768500Y-119808300D02*
X160058500Y-118518300D01*
X158500000Y-119808300D02*
X158768500Y-119808300D01*
%TO.N,BGP0*%
X152116000Y-44676500D02*
X152116000Y-96999700D01*
X159110000Y-37682500D02*
X152116000Y-44676500D01*
%TO.N,BGP2*%
X154324600Y-101544600D02*
X158500000Y-105720000D01*
X154324600Y-63722200D02*
X154324600Y-101544600D01*
X158774300Y-59272500D02*
X154324600Y-63722200D01*
X159413400Y-59272500D02*
X158774300Y-59272500D01*
X161018100Y-57667800D02*
X159413400Y-59272500D01*
X161018100Y-47210600D02*
X161018100Y-57667800D01*
X159110000Y-45302500D02*
X161018100Y-47210600D01*
%TO.N,BGP5*%
X158500000Y-113340000D02*
X158500000Y-112188300D01*
X158231500Y-112188300D02*
X158500000Y-112188300D01*
X153119500Y-107076300D02*
X158231500Y-112188300D01*
X153119500Y-58913000D02*
X153119500Y-107076300D01*
X159110000Y-52922500D02*
X153119500Y-58913000D01*
%TO.N,BGP15*%
X158500000Y-146360000D02*
X158500000Y-145208300D01*
X163272100Y-90104600D02*
X159110000Y-85942500D01*
X163272100Y-140701700D02*
X163272100Y-90104600D01*
X158765500Y-145208300D02*
X163272100Y-140701700D01*
X158500000Y-145208300D02*
X158765500Y-145208300D01*
%TO.N,BGP6*%
X158500000Y-118420000D02*
X158500000Y-117268300D01*
X152717800Y-111754600D02*
X152717800Y-58002500D01*
X158231500Y-117268300D02*
X152717800Y-111754600D01*
X158500000Y-117268300D02*
X158231500Y-117268300D01*
%TO.N,BGP12*%
X158500000Y-136200000D02*
X158500000Y-135048300D01*
X157162800Y-77729700D02*
X159110000Y-75782500D01*
X157162800Y-92419800D02*
X157162800Y-77729700D01*
X157733000Y-92990000D02*
X157162800Y-92419800D01*
X157820500Y-92990000D02*
X157733000Y-92990000D01*
X161263600Y-96433100D02*
X157820500Y-92990000D01*
X161263600Y-100883600D02*
X161263600Y-96433100D01*
X161458500Y-101078500D02*
X161263600Y-100883600D01*
X161458500Y-101306200D02*
X161458500Y-101078500D01*
X162067000Y-101914700D02*
X161458500Y-101306200D01*
X162067000Y-131747000D02*
X162067000Y-101914700D01*
X158765700Y-135048300D02*
X162067000Y-131747000D01*
X158500000Y-135048300D02*
X158765700Y-135048300D01*
%TO.N,BGP3*%
X158500000Y-108260000D02*
X158500000Y-107108300D01*
X158231500Y-107108300D02*
X158500000Y-107108300D01*
X153922900Y-102799700D02*
X158231500Y-107108300D01*
X153922900Y-61567200D02*
X153922900Y-102799700D01*
X158602700Y-56887400D02*
X153922900Y-61567200D01*
X159661300Y-56887400D02*
X158602700Y-56887400D01*
X160616400Y-55932300D02*
X159661300Y-56887400D01*
X160616400Y-49348900D02*
X160616400Y-55932300D01*
X159110000Y-47842500D02*
X160616400Y-49348900D01*
%TO.N,BGP8*%
X158500000Y-123500000D02*
X158500000Y-122348300D01*
X155554500Y-66638000D02*
X159110000Y-63082500D01*
X155554500Y-93277200D02*
X155554500Y-66638000D01*
X156874100Y-94596800D02*
X155554500Y-93277200D01*
X157155300Y-94596800D02*
X156874100Y-94596800D01*
X159656800Y-97098300D02*
X157155300Y-94596800D01*
X159656800Y-101776500D02*
X159656800Y-97098300D01*
X160058500Y-102178200D02*
X159656800Y-101776500D01*
X160058500Y-103950000D02*
X160058500Y-102178200D01*
X160460200Y-104351700D02*
X160058500Y-103950000D01*
X160460200Y-120698900D02*
X160460200Y-104351700D01*
X158810800Y-122348300D02*
X160460200Y-120698900D01*
X158500000Y-122348300D02*
X158810800Y-122348300D01*
%TO.N,BGP11*%
X158500000Y-133660000D02*
X158500000Y-132508300D01*
X156759600Y-75592900D02*
X159110000Y-73242500D01*
X156759600Y-92672100D02*
X156759600Y-75592900D01*
X157479200Y-93391700D02*
X156759600Y-92672100D01*
X157654200Y-93391700D02*
X157479200Y-93391700D01*
X160861900Y-96599400D02*
X157654200Y-93391700D01*
X160861900Y-101049900D02*
X160861900Y-96599400D01*
X161056800Y-101244800D02*
X160861900Y-101049900D01*
X161056800Y-101472500D02*
X161056800Y-101244800D01*
X161263600Y-101679300D02*
X161056800Y-101472500D01*
X161263600Y-103451100D02*
X161263600Y-101679300D01*
X161665300Y-103852800D02*
X161263600Y-103451100D01*
X161665300Y-129608700D02*
X161665300Y-103852800D01*
X158765700Y-132508300D02*
X161665300Y-129608700D01*
X158500000Y-132508300D02*
X158765700Y-132508300D01*
%TO.N,BGP10*%
X158500000Y-131120000D02*
X158500000Y-129968300D01*
X156357900Y-73454600D02*
X159110000Y-70702500D01*
X156357900Y-92838400D02*
X156357900Y-73454600D01*
X157312900Y-93793400D02*
X156357900Y-92838400D01*
X157487900Y-93793400D02*
X157312900Y-93793400D01*
X160460200Y-96765700D02*
X157487900Y-93793400D01*
X160460200Y-101216200D02*
X160460200Y-96765700D01*
X160655100Y-101411100D02*
X160460200Y-101216200D01*
X160655100Y-101638800D02*
X160655100Y-101411100D01*
X160861900Y-101845600D02*
X160655100Y-101638800D01*
X160861900Y-103617400D02*
X160861900Y-101845600D01*
X161263600Y-104019100D02*
X160861900Y-103617400D01*
X161263600Y-127470400D02*
X161263600Y-104019100D01*
X158765700Y-129968300D02*
X161263600Y-127470400D01*
X158500000Y-129968300D02*
X158765700Y-129968300D01*
%TO.N,BGP14*%
X158500000Y-143820000D02*
X158500000Y-142668300D01*
X158004600Y-84507900D02*
X159110000Y-83402500D01*
X158004600Y-92038100D02*
X158004600Y-84507900D01*
X162870400Y-96903900D02*
X158004600Y-92038100D01*
X162870400Y-138558600D02*
X162870400Y-96903900D01*
X158760700Y-142668300D02*
X162870400Y-138558600D01*
X158500000Y-142668300D02*
X158760700Y-142668300D01*
%TO.N,BGP4*%
X158500000Y-110800000D02*
X158500000Y-109648300D01*
X158231500Y-109648300D02*
X158500000Y-109648300D01*
X153521200Y-104938000D02*
X158231500Y-109648300D01*
X153521200Y-59482700D02*
X153521200Y-104938000D01*
X158953000Y-54050900D02*
X153521200Y-59482700D01*
X159553500Y-54050900D02*
X158953000Y-54050900D01*
X160214700Y-53389700D02*
X159553500Y-54050900D01*
X160214700Y-51487200D02*
X160214700Y-53389700D01*
X159110000Y-50382500D02*
X160214700Y-51487200D01*
%TO.N,BGP1*%
X158500000Y-100640000D02*
X158500000Y-99488300D01*
X161419800Y-42532300D02*
X159110000Y-40222500D01*
X161419800Y-59855500D02*
X161419800Y-42532300D01*
X159462800Y-61812500D02*
X161419800Y-59855500D01*
X158771200Y-61812500D02*
X159462800Y-61812500D01*
X155129400Y-65454300D02*
X158771200Y-61812500D01*
X155129400Y-96930100D02*
X155129400Y-65454300D01*
X157687600Y-99488300D02*
X155129400Y-96930100D01*
X158500000Y-99488300D02*
X157687600Y-99488300D01*
%TO.N,BGP13*%
X158500000Y-138740000D02*
X158500000Y-137588300D01*
X157564500Y-79868000D02*
X159110000Y-78322500D01*
X157564500Y-92250700D02*
X157564500Y-79868000D01*
X157902100Y-92588300D02*
X157564500Y-92250700D01*
X157986800Y-92588300D02*
X157902100Y-92588300D01*
X161665300Y-96266800D02*
X157986800Y-92588300D01*
X161665300Y-100717300D02*
X161665300Y-96266800D01*
X162468700Y-101520700D02*
X161665300Y-100717300D01*
X162468700Y-133885300D02*
X162468700Y-101520700D01*
X158765700Y-137588300D02*
X162468700Y-133885300D01*
X158500000Y-137588300D02*
X158765700Y-137588300D01*
%TO.N,BGP9*%
X158500000Y-126040000D02*
X158500000Y-124888300D01*
X155956200Y-68776300D02*
X159110000Y-65622500D01*
X155956200Y-93084500D02*
X155956200Y-68776300D01*
X157066800Y-94195100D02*
X155956200Y-93084500D01*
X157321600Y-94195100D02*
X157066800Y-94195100D01*
X160058500Y-96932000D02*
X157321600Y-94195100D01*
X160058500Y-101382500D02*
X160058500Y-96932000D01*
X160253400Y-101577400D02*
X160058500Y-101382500D01*
X160253400Y-101805100D02*
X160253400Y-101577400D01*
X160460200Y-102011900D02*
X160253400Y-101805100D01*
X160460200Y-103783700D02*
X160460200Y-102011900D01*
X160861900Y-104185400D02*
X160460200Y-103783700D01*
X160861900Y-122792100D02*
X160861900Y-104185400D01*
X158765700Y-124888300D02*
X160861900Y-122792100D01*
X158500000Y-124888300D02*
X158765700Y-124888300D01*
%TO.N,AGP21*%
X142908000Y-130956000D02*
X143071000Y-131120000D01*
X142908000Y-103593000D02*
X142908000Y-130956000D01*
X143289000Y-103212000D02*
X142908000Y-103593000D01*
X143289000Y-100984000D02*
X143289000Y-103212000D01*
X143199000Y-100894000D02*
X143289000Y-100984000D01*
X143199000Y-76269800D02*
X143199000Y-100894000D01*
X142170000Y-75241000D02*
X143199000Y-76269800D01*
X142170000Y-70175200D02*
X142170000Y-75241000D01*
%TO.N,AGP16*%
X138935000Y-85625300D02*
X138935000Y-86262600D01*
X140500000Y-145208000D02*
X140500000Y-146360000D01*
X140788000Y-145208000D02*
X140500000Y-145208000D01*
X142054000Y-143942000D02*
X140788000Y-145208000D01*
X142054000Y-103748000D02*
X142054000Y-143942000D01*
X141684000Y-103378000D02*
X142054000Y-103748000D01*
X141684000Y-102694000D02*
X141684000Y-103378000D01*
X140900000Y-101910000D02*
X141684000Y-102694000D01*
X140044000Y-101910000D02*
X140900000Y-101910000D01*
X138935000Y-100801000D02*
X140044000Y-101910000D01*
X138935000Y-86262600D02*
X138935000Y-100801000D01*
X139000000Y-86197600D02*
X139000000Y-85560000D01*
X138935000Y-86262600D02*
X139000000Y-86197600D01*
%TO.N,AGP26*%
X143711000Y-117662000D02*
X143509000Y-117863000D01*
X143711000Y-100838000D02*
X143711000Y-117662000D01*
X143601000Y-100728000D02*
X143711000Y-100838000D01*
X143601000Y-99232200D02*
X143601000Y-100728000D01*
X143711000Y-99122100D02*
X143601000Y-99232200D01*
X143711000Y-76213500D02*
X143711000Y-99122100D01*
X143135000Y-75637700D02*
X143711000Y-76213500D01*
X143135000Y-62200100D02*
X143135000Y-75637700D01*
%TO.N,A3V3_EN*%
X143633000Y-61232900D02*
X143633000Y-47795200D01*
X145626000Y-63226000D02*
X143633000Y-61232900D01*
X145626000Y-67392000D02*
X145626000Y-63226000D01*
X145408000Y-67610200D02*
X145626000Y-67392000D01*
X145408000Y-99980200D02*
X145408000Y-67610200D01*
%TO.N,AGP22*%
X145020000Y-100443000D02*
X145020000Y-126040000D01*
X144806000Y-100229000D02*
X145020000Y-100443000D01*
X144806000Y-99731100D02*
X144806000Y-100229000D01*
X145006000Y-99531100D02*
X144806000Y-99731100D01*
X145006000Y-65240000D02*
X145006000Y-99531100D01*
%TO.N,AGP18*%
X147748000Y-132734000D02*
X147748000Y-79116700D01*
%TO.N,AGP17*%
X140500000Y-142668000D02*
X140500000Y-143820000D01*
X140751000Y-142668000D02*
X140500000Y-142668000D01*
X141652000Y-141766000D02*
X140751000Y-142668000D01*
X141652000Y-105185000D02*
X141652000Y-141766000D01*
X140917000Y-104450000D02*
X141652000Y-105185000D01*
X140102000Y-104450000D02*
X140917000Y-104450000D01*
X137478000Y-101826000D02*
X140102000Y-104450000D01*
X137478000Y-84541500D02*
X137478000Y-101826000D01*
X139000000Y-83020000D02*
X137478000Y-84541500D01*
%TO.N,AVBUS*%
X140500000Y-96948300D02*
X140500000Y-98100000D01*
X140956000Y-96491800D02*
X140500000Y-96948300D01*
X140956000Y-39256500D02*
X140956000Y-96491800D01*
X139000000Y-37300000D02*
X140956000Y-39256500D01*
%TO.N,A3V3(OUT)*%
X142687000Y-76752600D02*
X142687000Y-102962000D01*
X141526000Y-75591400D02*
X142687000Y-76752600D01*
X141526000Y-48859400D02*
X141526000Y-75591400D01*
X141581000Y-48804000D02*
X141526000Y-48859400D01*
%TO.N,AGP28*%
X145796000Y-62627500D02*
X145796000Y-52540000D01*
X146197000Y-63029200D02*
X145796000Y-62627500D01*
X146197000Y-67588500D02*
X146197000Y-63029200D01*
X145810000Y-67976400D02*
X146197000Y-67588500D01*
X145810000Y-99531000D02*
X145810000Y-67976400D01*
X146010000Y-99731000D02*
X145810000Y-99531000D01*
X146010000Y-113126000D02*
X146010000Y-99731000D01*
X145796000Y-113340000D02*
X146010000Y-113126000D01*
%TO.N,ARUN*%
X144514000Y-123402000D02*
X144416000Y-123500000D01*
X144514000Y-100506000D02*
X144514000Y-123402000D01*
X144404000Y-100396000D02*
X144514000Y-100506000D01*
X144404000Y-99564800D02*
X144404000Y-100396000D01*
X144514000Y-99454700D02*
X144404000Y-99564800D01*
X144514000Y-75880900D02*
X144514000Y-99454700D01*
X144384000Y-75750600D02*
X144514000Y-75880900D01*
X144384000Y-64615700D02*
X144384000Y-75750600D01*
%TO.N,AGP20*%
X143749000Y-118476000D02*
X143749000Y-133660000D01*
X144113000Y-118112000D02*
X143749000Y-118476000D01*
X144113000Y-100672000D02*
X144113000Y-118112000D01*
X144003000Y-100562000D02*
X144113000Y-100672000D01*
X144003000Y-99398500D02*
X144003000Y-100562000D01*
X144113000Y-99288400D02*
X144003000Y-99398500D01*
X144113000Y-76047200D02*
X144113000Y-99288400D01*
X143814000Y-75748900D02*
X144113000Y-76047200D01*
X143814000Y-74801200D02*
X143814000Y-75748900D01*
X143782000Y-74768300D02*
X143814000Y-74801200D01*
%TO.N,AADC_VREF*%
X137564000Y-51436500D02*
X139000000Y-50000000D01*
X137564000Y-83604600D02*
X137564000Y-51436500D01*
X137050000Y-84118100D02*
X137564000Y-83604600D01*
X137050000Y-106467000D02*
X137050000Y-84118100D01*
X140232000Y-109648000D02*
X137050000Y-106467000D01*
X140500000Y-109648000D02*
X140232000Y-109648000D01*
X140500000Y-110800000D02*
X140500000Y-109648000D01*
%TO.N,AVSYS*%
X140500000Y-99488300D02*
X140500000Y-100640000D01*
X139686000Y-99488300D02*
X140500000Y-99488300D01*
X139343000Y-99145800D02*
X139686000Y-99488300D01*
X139343000Y-86775100D02*
X139343000Y-99145800D01*
X140553000Y-85564800D02*
X139343000Y-86775100D01*
X140553000Y-41393300D02*
X140553000Y-85564800D01*
X139000000Y-39840000D02*
X140553000Y-41393300D01*
%TO.N,AGP27*%
X146599000Y-67754800D02*
X146599000Y-57620000D01*
X146407000Y-67947200D02*
X146599000Y-67754800D01*
X146407000Y-99560200D02*
X146407000Y-67947200D01*
X146411000Y-99564700D02*
X146407000Y-99560200D01*
X146411000Y-114127000D02*
X146411000Y-99564700D01*
%TO.N,AGP19*%
X142467000Y-135479000D02*
X142666000Y-135678000D01*
X142467000Y-103591000D02*
X142467000Y-135479000D01*
X142440000Y-103564000D02*
X142467000Y-103591000D01*
X142438000Y-103564000D02*
X142440000Y-103564000D01*
X142086000Y-103211000D02*
X142438000Y-103564000D01*
X142086000Y-77039200D02*
X142086000Y-103211000D01*
%TO.N,GND*%
X120084000Y-79343500D02*
X121220000Y-80480000D01*
X120084000Y-68916500D02*
X120084000Y-79343500D01*
X121220000Y-67780000D02*
X120084000Y-68916500D01*
X120084000Y-66644300D02*
X121220000Y-67780000D01*
X120084000Y-56215700D02*
X120084000Y-66644300D01*
X121220000Y-55080000D02*
X120084000Y-56215700D01*
X139000000Y-55080000D02*
X140126000Y-55080000D01*
X140126000Y-43505900D02*
X140126000Y-55080000D01*
X139000000Y-42380000D02*
X140126000Y-43505900D01*
X140126000Y-66654100D02*
X139000000Y-67780000D01*
X140126000Y-55080000D02*
X140126000Y-66654100D01*
X121500000Y-115760000D02*
X121500000Y-116912000D01*
X140102000Y-68881700D02*
X139000000Y-67780000D01*
X140102000Y-79378300D02*
X140102000Y-68881700D01*
X139000000Y-80480000D02*
X140102000Y-79378300D01*
X140102000Y-81581700D02*
X139000000Y-80480000D01*
X140102000Y-83477100D02*
X140102000Y-81581700D01*
X139289000Y-84290000D02*
X140102000Y-83477100D01*
X138658000Y-84290000D02*
X139289000Y-84290000D01*
X137880000Y-85067500D02*
X138658000Y-84290000D01*
X137880000Y-100560000D02*
X137880000Y-85067500D01*
X140500000Y-103180000D02*
X137880000Y-100560000D01*
X122008000Y-116912000D02*
X121500000Y-116912000D01*
X122008000Y-116836000D02*
X122008000Y-116912000D01*
X121947000Y-116775000D02*
X122008000Y-116836000D01*
X121947000Y-116442000D02*
X121947000Y-116775000D01*
X122602000Y-115787000D02*
X121947000Y-116442000D01*
X122603000Y-115787000D02*
X122602000Y-115787000D01*
X122652000Y-115738000D02*
X122603000Y-115787000D01*
X122652000Y-105076000D02*
X122652000Y-115738000D01*
X121788000Y-104212000D02*
X122652000Y-105076000D01*
X121500000Y-104212000D02*
X121788000Y-104212000D01*
X121500000Y-103060000D02*
X121500000Y-104212000D01*
X121500000Y-129186500D02*
X121500000Y-128460000D01*
X121500000Y-128761000D02*
X121500000Y-129186500D01*
X120348000Y-127610000D02*
X121500000Y-128761000D01*
X120348000Y-117823000D02*
X120348000Y-127610000D01*
X121260000Y-116912000D02*
X120348000Y-117823000D01*
X121500000Y-116912000D02*
X121260000Y-116912000D01*
X121500000Y-140008000D02*
X121500000Y-141160000D01*
X121212000Y-140008000D02*
X121500000Y-140008000D01*
X120342000Y-139138000D02*
X121212000Y-140008000D01*
X120342000Y-130501000D02*
X120342000Y-139138000D01*
X121232000Y-129612000D02*
X120342000Y-130501000D01*
X121500000Y-129612000D02*
X121232000Y-129612000D01*
X121500000Y-129186500D02*
X121500000Y-129612000D01*
X178010600Y-54341900D02*
X176890000Y-55462500D01*
X178010600Y-43883100D02*
X178010600Y-54341900D01*
X176890000Y-42762500D02*
X178010600Y-43883100D01*
X178001200Y-67051300D02*
X176890000Y-68162500D01*
X178001200Y-56573700D02*
X178001200Y-67051300D01*
X176890000Y-55462500D02*
X178001200Y-56573700D01*
X158768500Y-114728300D02*
X158500000Y-114728300D01*
X159656800Y-113840000D02*
X158768500Y-114728300D01*
X159656800Y-105214100D02*
X159656800Y-113840000D01*
X158774400Y-104331700D02*
X159656800Y-105214100D01*
X158500000Y-104331700D02*
X158774400Y-104331700D01*
X158500000Y-115880000D02*
X158500000Y-114728300D01*
X177500000Y-141280000D02*
X177500000Y-140128300D01*
X177500000Y-128580000D02*
X177500000Y-129731700D01*
X177500000Y-115880000D02*
X177500000Y-117031700D01*
X176348300Y-130614900D02*
X177231500Y-129731700D01*
X176348300Y-139231500D02*
X176348300Y-130614900D01*
X177245100Y-140128300D02*
X176348300Y-139231500D01*
X177500000Y-140128300D02*
X177245100Y-140128300D01*
X177231500Y-129731700D02*
X177500000Y-129731700D01*
X177500000Y-103180000D02*
X177500000Y-104331700D01*
X177231500Y-104331700D02*
X177500000Y-104331700D01*
X176347600Y-105215600D02*
X177231500Y-104331700D01*
X176347600Y-116147800D02*
X176347600Y-105215600D01*
X177231500Y-117031700D02*
X176347600Y-116147800D01*
X176348300Y-117914900D02*
X177231500Y-117031700D01*
X176348300Y-128848500D02*
X176348300Y-117914900D01*
X177231500Y-129731700D02*
X176348300Y-128848500D01*
X177231500Y-117031700D02*
X177500000Y-117031700D01*
X177740500Y-102028300D02*
X177500000Y-102028300D01*
X178651700Y-101117100D02*
X177740500Y-102028300D01*
X178651700Y-82624200D02*
X178651700Y-101117100D01*
X176890000Y-80862500D02*
X178651700Y-82624200D01*
X177500000Y-103180000D02*
X177500000Y-102028300D01*
X158500000Y-103180000D02*
X158500000Y-104331700D01*
%TD*%
M02*
