%TF.GenerationSoftware,KiCad,Pcbnew,9.0.0*%
%TF.CreationDate,2025-03-28T14:39:21-04:00*%
%TF.ProjectId,GatorGrid,4761746f-7247-4726-9964-2e6b69636164,rev?*%
%TF.SameCoordinates,Original*%
%TF.FileFunction,Copper,L2,Bot*%
%TF.FilePolarity,Positive*%
%FSLAX46Y46*%
G04 Gerber Fmt 4.6, Leading zero omitted, Abs format (unit mm)*
G04 Created by KiCad (PCBNEW 9.0.0) date 2025-03-28 14:39:21*
%MOMM*%
%LPD*%
G01*
G04 APERTURE LIST*
G04 Aperture macros list*
%AMRoundRect*
0 Rectangle with rounded corners*
0 $1 Rounding radius*
0 $2 $3 $4 $5 $6 $7 $8 $9 X,Y pos of 4 corners*
0 Add a 4 corners polygon primitive as box body*
4,1,4,$2,$3,$4,$5,$6,$7,$8,$9,$2,$3,0*
0 Add four circle primitives for the rounded corners*
1,1,$1+$1,$2,$3*
1,1,$1+$1,$4,$5*
1,1,$1+$1,$6,$7*
1,1,$1+$1,$8,$9*
0 Add four rect primitives between the rounded corners*
20,1,$1+$1,$2,$3,$4,$5,0*
20,1,$1+$1,$4,$5,$6,$7,0*
20,1,$1+$1,$6,$7,$8,$9,0*
20,1,$1+$1,$8,$9,$2,$3,0*%
%AMFreePoly0*
4,1,37,0.000000,0.796148,0.078414,0.796148,0.232228,0.765552,0.377117,0.705537,0.507515,0.618408,0.618408,0.507515,0.705537,0.377117,0.765552,0.232228,0.796148,0.078414,0.796148,-0.078414,0.765552,-0.232228,0.705537,-0.377117,0.618408,-0.507515,0.507515,-0.618408,0.377117,-0.705537,0.232228,-0.765552,0.078414,-0.796148,0.000000,-0.796148,0.000000,-0.800000,-0.600000,-0.800000,
-0.603843,-0.796157,-0.639018,-0.796157,-0.711114,-0.766294,-0.766294,-0.711114,-0.796157,-0.639018,-0.796157,-0.603843,-0.800000,-0.600000,-0.800000,0.600000,-0.796157,0.603843,-0.796157,0.639018,-0.766294,0.711114,-0.711114,0.766294,-0.639018,0.796157,-0.603843,0.796157,-0.600000,0.800000,0.000000,0.800000,0.000000,0.796148,0.000000,0.796148,$1*%
%AMFreePoly1*
4,1,37,0.603843,0.796157,0.639018,0.796157,0.711114,0.766294,0.766294,0.711114,0.796157,0.639018,0.796157,0.603843,0.800000,0.600000,0.800000,-0.600000,0.796157,-0.603843,0.796157,-0.639018,0.766294,-0.711114,0.711114,-0.766294,0.639018,-0.796157,0.603843,-0.796157,0.600000,-0.800000,0.000000,-0.800000,0.000000,-0.796148,-0.078414,-0.796148,-0.232228,-0.765552,-0.377117,-0.705537,
-0.507515,-0.618408,-0.618408,-0.507515,-0.705537,-0.377117,-0.765552,-0.232228,-0.796148,-0.078414,-0.796148,0.078414,-0.765552,0.232228,-0.705537,0.377117,-0.618408,0.507515,-0.507515,0.618408,-0.377117,0.705537,-0.232228,0.765552,-0.078414,0.796148,0.000000,0.796148,0.000000,0.800000,0.600000,0.800000,0.603843,0.796157,0.603843,0.796157,$1*%
G04 Aperture macros list end*
%TA.AperFunction,ComponentPad*%
%ADD10C,1.600000*%
%TD*%
%TA.AperFunction,ComponentPad*%
%ADD11FreePoly0,0.000000*%
%TD*%
%TA.AperFunction,ComponentPad*%
%ADD12FreePoly1,0.000000*%
%TD*%
%TA.AperFunction,ComponentPad*%
%ADD13RoundRect,0.200000X-0.600000X-0.600000X0.600000X-0.600000X0.600000X0.600000X-0.600000X0.600000X0*%
%TD*%
%TA.AperFunction,ComponentPad*%
%ADD14R,1.700000X1.700000*%
%TD*%
%TA.AperFunction,ComponentPad*%
%ADD15O,1.700000X1.700000*%
%TD*%
%TA.AperFunction,ViaPad*%
%ADD16C,0.600000*%
%TD*%
%TA.AperFunction,Conductor*%
%ADD17C,0.200000*%
%TD*%
G04 APERTURE END LIST*
D10*
%TO.P,U1,40,VBUS*%
%TO.N,AVBUS*%
X139000000Y-37300000D03*
%TO.P,U1,39,VSYS*%
%TO.N,AVSYS*%
X139000000Y-39840000D03*
D11*
%TO.P,U1,38,GND*%
%TO.N,GND*%
X139000000Y-42380000D03*
D10*
%TO.P,U1,37,3V3_EN*%
%TO.N,A3V3_EN*%
X139000000Y-44920000D03*
%TO.P,U1,36,3V3_OUT*%
%TO.N,A3V3(OUT)*%
X139000000Y-47460000D03*
%TO.P,U1,35,ADC_VREF*%
%TO.N,AADC_VREF*%
X139000000Y-50000000D03*
%TO.P,U1,34,ADC2_GP28*%
%TO.N,AGP28*%
X139000000Y-52540000D03*
D11*
%TO.P,U1,33,AGND*%
%TO.N,GND*%
X139000000Y-55080000D03*
D10*
%TO.P,U1,32,I2C1_SCL/ADC1/GP27*%
%TO.N,AGP27*%
X139000000Y-57620000D03*
%TO.P,U1,31,I2C1_SDA/ADC0/GP26*%
%TO.N,AGP26*%
X139000000Y-60160000D03*
%TO.P,U1,30,~{RUN}*%
%TO.N,ARUN*%
X139000000Y-62700000D03*
%TO.P,U1,29,GP22*%
%TO.N,AGP22*%
X139000000Y-65240000D03*
D11*
%TO.P,U1,28,GND*%
%TO.N,GND*%
X139000000Y-67780000D03*
D10*
%TO.P,U1,27,12C0_SCL/GP21*%
%TO.N,AGP21*%
X139000000Y-70320000D03*
%TO.P,U1,26,I2C0_SDA/GP20*%
%TO.N,AGP20*%
X139000000Y-72860000D03*
%TO.P,U1,25,I2C1_SCL/SPI0_TX/GP19*%
%TO.N,AGP19*%
X139000000Y-75400000D03*
%TO.P,U1,24,I2C1_SDA/SPI0_SCK/GP18*%
%TO.N,AGP18*%
X139000000Y-77940000D03*
D11*
%TO.P,U1,23,GND*%
%TO.N,GND*%
X139000000Y-80480000D03*
D10*
%TO.P,U1,22,UART0_RX/I2C0_SCL/SPI0_CSN/GP17*%
%TO.N,AGP17*%
X139000000Y-83020000D03*
%TO.P,U1,21,UART0_TX/I2C0_SDA/SPI0_RX/GP16*%
%TO.N,AGP16*%
X139000000Y-85560000D03*
%TO.P,U1,20,I2C1_SCL/SPI1_TX/GP15*%
%TO.N,AGP15*%
X121220000Y-85560000D03*
%TO.P,U1,19,I2C1_SDA/SPI1_SCK/GP14*%
%TO.N,AGP14*%
X121220000Y-83020000D03*
D12*
%TO.P,U1,18,GND*%
%TO.N,GND*%
X121220000Y-80480000D03*
D10*
%TO.P,U1,17,UART0_RX/I2C0_SCL/SPI1_CSN/GP13*%
%TO.N,AGP13*%
X121220000Y-77940000D03*
%TO.P,U1,16,UART0_TX/I2C0_SDA/SPI1_RX/GP12*%
%TO.N,AGP12*%
X121220000Y-75400000D03*
%TO.P,U1,15,I2C1_SCL/SPI1_TX/GP11*%
%TO.N,AGP11*%
X121220000Y-72860000D03*
%TO.P,U1,14,I2C1_SDA/SPI1_SCK/GP10*%
%TO.N,AGP10*%
X121220000Y-70320000D03*
D12*
%TO.P,U1,13,GND*%
%TO.N,GND*%
X121220000Y-67780000D03*
D10*
%TO.P,U1,12,UART1_RX/I2C0_SCL/SPI1_CSN/GP9*%
%TO.N,AGP9*%
X121220000Y-65240000D03*
%TO.P,U1,11,UART1_TX/I2C0_SDA/SPI1_RX/GP8*%
%TO.N,AGP8*%
X121220000Y-62700000D03*
%TO.P,U1,10,I2C1_SCL/SPI0_TX/GP7*%
%TO.N,AGP7*%
X121220000Y-60160000D03*
%TO.P,U1,9,I2C1_SDA/SPI0_SCK/GP6*%
%TO.N,AGP6*%
X121220000Y-57620000D03*
D12*
%TO.P,U1,8,GND*%
%TO.N,GND*%
X121220000Y-55080000D03*
D10*
%TO.P,U1,7,UART1_RX/I2C0_SCL/SPI0_CSN/GP5*%
%TO.N,AGP5*%
X121220000Y-52540000D03*
%TO.P,U1,6,UART1_TX/I2C0_SDA/SPI0_RX/GP4*%
%TO.N,AGP4*%
X121220000Y-50000000D03*
%TO.P,U1,5,I2C1_SCL/SPI0_TX/GP3*%
%TO.N,AGP3*%
X121220000Y-47460000D03*
%TO.P,U1,4,I2C1_SDA/SPI0_SCK/GP2*%
%TO.N,AGP2*%
X121220000Y-44920000D03*
D12*
%TO.P,U1,3,GND*%
%TO.N,GND*%
X121220000Y-42380000D03*
D10*
%TO.P,U1,2,UART0_RX/I2C0_SCL/SPI0_CSN/GP1*%
%TO.N,AGP1*%
X121220000Y-39840000D03*
D13*
%TO.P,U1,1,UART0_TX/I2C0_SDA/SPI0_RX/GP0*%
%TO.N,AGP0*%
X121220000Y-37300000D03*
%TD*%
D14*
%TO.P,J4,1,Pin_1*%
%TO.N,AGP0*%
X121500000Y-97980000D03*
D15*
%TO.P,J4,2,Pin_2*%
%TO.N,AGP1*%
X121500000Y-100520000D03*
%TO.P,J4,3,Pin_3*%
%TO.N,GND*%
X121500000Y-103060000D03*
%TO.P,J4,4,Pin_4*%
%TO.N,AGP2*%
X121500000Y-105600000D03*
%TO.P,J4,5,Pin_5*%
%TO.N,AGP3*%
X121500000Y-108140000D03*
%TO.P,J4,6,Pin_6*%
%TO.N,AGP4*%
X121500000Y-110680000D03*
%TO.P,J4,7,Pin_7*%
%TO.N,AGP5*%
X121500000Y-113220000D03*
%TO.P,J4,8,Pin_8*%
%TO.N,GND*%
X121500000Y-115760000D03*
%TO.P,J4,9,Pin_9*%
%TO.N,AGP6*%
X121500000Y-118300000D03*
%TO.P,J4,10,Pin_10*%
%TO.N,AGP7*%
X121500000Y-120840000D03*
%TO.P,J4,11,Pin_11*%
%TO.N,AGP8*%
X121500000Y-123380000D03*
%TO.P,J4,12,Pin_12*%
%TO.N,AGP9*%
X121500000Y-125920000D03*
%TO.P,J4,13,Pin_13*%
%TO.N,GND*%
X121500000Y-128460000D03*
%TO.P,J4,14,Pin_14*%
%TO.N,AGP10*%
X121500000Y-131000000D03*
%TO.P,J4,15,Pin_15*%
%TO.N,AGP11*%
X121500000Y-133540000D03*
%TO.P,J4,16,Pin_16*%
%TO.N,AGP12*%
X121500000Y-136080000D03*
%TO.P,J4,17,Pin_17*%
%TO.N,AGP13*%
X121500000Y-138620000D03*
%TO.P,J4,18,Pin_18*%
%TO.N,GND*%
X121500000Y-141160000D03*
%TO.P,J4,19,Pin_19*%
%TO.N,AGP14*%
X121500000Y-143700000D03*
%TO.P,J4,20,Pin_20*%
%TO.N,AGP15*%
X121500000Y-146240000D03*
%TD*%
D14*
%TO.P,J7,1,Pin_1*%
%TO.N,AVBUS*%
X140500000Y-98100000D03*
D15*
%TO.P,J7,2,Pin_2*%
%TO.N,AVSYS*%
X140500000Y-100640000D03*
%TO.P,J7,3,Pin_3*%
%TO.N,GND*%
X140500000Y-103180000D03*
%TO.P,J7,4,Pin_4*%
%TO.N,A3V3_EN*%
X140500000Y-105720000D03*
%TO.P,J7,5,Pin_5*%
%TO.N,A3V3(OUT)*%
X140500000Y-108260000D03*
%TO.P,J7,6,Pin_6*%
%TO.N,AADC_VREF*%
X140500000Y-110800000D03*
%TO.P,J7,7,Pin_7*%
%TO.N,AGP28*%
X140500000Y-113340000D03*
%TO.P,J7,8,Pin_8*%
%TO.N,GND*%
X140500000Y-115880000D03*
%TO.P,J7,9,Pin_9*%
%TO.N,AGP27*%
X140500000Y-118420000D03*
%TO.P,J7,10,Pin_10*%
%TO.N,AGP26*%
X140500000Y-120960000D03*
%TO.P,J7,11,Pin_11*%
%TO.N,ARUN*%
X140500000Y-123500000D03*
%TO.P,J7,12,Pin_12*%
%TO.N,AGP22*%
X140500000Y-126040000D03*
%TO.P,J7,13,Pin_13*%
%TO.N,GND*%
X140500000Y-128580000D03*
%TO.P,J7,14,Pin_14*%
%TO.N,AGP21*%
X140500000Y-131120000D03*
%TO.P,J7,15,Pin_15*%
%TO.N,AGP20*%
X140500000Y-133660000D03*
%TO.P,J7,16,Pin_16*%
%TO.N,AGP19*%
X140500000Y-136200000D03*
%TO.P,J7,17,Pin_17*%
%TO.N,AGP18*%
X140500000Y-138740000D03*
%TO.P,J7,18,Pin_18*%
%TO.N,GND*%
X140500000Y-141280000D03*
%TO.P,J7,19,Pin_19*%
%TO.N,AGP17*%
X140500000Y-143820000D03*
%TO.P,J7,20,Pin_20*%
%TO.N,AGP16*%
X140500000Y-146360000D03*
%TD*%
D14*
%TO.P,J8,1,Pin_1*%
%TO.N,BVBUS*%
X177500000Y-98100000D03*
D15*
%TO.P,J8,2,Pin_2*%
%TO.N,BVSYS*%
X177500000Y-100640000D03*
%TO.P,J8,3,Pin_3*%
%TO.N,GND*%
X177500000Y-103180000D03*
%TO.P,J8,4,Pin_4*%
%TO.N,B3V3_EN*%
X177500000Y-105720000D03*
%TO.P,J8,5,Pin_5*%
%TO.N,B3V3(OUT)*%
X177500000Y-108260000D03*
%TO.P,J8,6,Pin_6*%
%TO.N,BADC_VREF*%
X177500000Y-110800000D03*
%TO.P,J8,7,Pin_7*%
%TO.N,BGP28*%
X177500000Y-113340000D03*
%TO.P,J8,8,Pin_8*%
%TO.N,GND*%
X177500000Y-115880000D03*
%TO.P,J8,9,Pin_9*%
%TO.N,BGP27*%
X177500000Y-118420000D03*
%TO.P,J8,10,Pin_10*%
%TO.N,BGP26*%
X177500000Y-120960000D03*
%TO.P,J8,11,Pin_11*%
%TO.N,BRUN*%
X177500000Y-123500000D03*
%TO.P,J8,12,Pin_12*%
%TO.N,BGP22*%
X177500000Y-126040000D03*
%TO.P,J8,13,Pin_13*%
%TO.N,GND*%
X177500000Y-128580000D03*
%TO.P,J8,14,Pin_14*%
%TO.N,BGP21*%
X177500000Y-131120000D03*
%TO.P,J8,15,Pin_15*%
%TO.N,BGP20*%
X177500000Y-133660000D03*
%TO.P,J8,16,Pin_16*%
%TO.N,BGP19*%
X177500000Y-136200000D03*
%TO.P,J8,17,Pin_17*%
%TO.N,BGP18*%
X177500000Y-138740000D03*
%TO.P,J8,18,Pin_18*%
%TO.N,GND*%
X177500000Y-141280000D03*
%TO.P,J8,19,Pin_19*%
%TO.N,BGP17*%
X177500000Y-143820000D03*
%TO.P,J8,20,Pin_20*%
%TO.N,BGP16*%
X177500000Y-146360000D03*
%TD*%
D14*
%TO.P,J6,1,Pin_1*%
%TO.N,BGP0*%
X158500000Y-98100000D03*
D15*
%TO.P,J6,2,Pin_2*%
%TO.N,BGP1*%
X158500000Y-100640000D03*
%TO.P,J6,3,Pin_3*%
%TO.N,GND*%
X158500000Y-103180000D03*
%TO.P,J6,4,Pin_4*%
%TO.N,BGP2*%
X158500000Y-105720000D03*
%TO.P,J6,5,Pin_5*%
%TO.N,BGP3*%
X158500000Y-108260000D03*
%TO.P,J6,6,Pin_6*%
%TO.N,BGP4*%
X158500000Y-110800000D03*
%TO.P,J6,7,Pin_7*%
%TO.N,BGP5*%
X158500000Y-113340000D03*
%TO.P,J6,8,Pin_8*%
%TO.N,GND*%
X158500000Y-115880000D03*
%TO.P,J6,9,Pin_9*%
%TO.N,BGP6*%
X158500000Y-118420000D03*
%TO.P,J6,10,Pin_10*%
%TO.N,BGP7*%
X158500000Y-120960000D03*
%TO.P,J6,11,Pin_11*%
%TO.N,BGP8*%
X158500000Y-123500000D03*
%TO.P,J6,12,Pin_12*%
%TO.N,BGP9*%
X158500000Y-126040000D03*
%TO.P,J6,13,Pin_13*%
%TO.N,GND*%
X158500000Y-128580000D03*
%TO.P,J6,14,Pin_14*%
%TO.N,BGP10*%
X158500000Y-131120000D03*
%TO.P,J6,15,Pin_15*%
%TO.N,BGP11*%
X158500000Y-133660000D03*
%TO.P,J6,16,Pin_16*%
%TO.N,BGP12*%
X158500000Y-136200000D03*
%TO.P,J6,17,Pin_17*%
%TO.N,BGP13*%
X158500000Y-138740000D03*
%TO.P,J6,18,Pin_18*%
%TO.N,GND*%
X158500000Y-141280000D03*
%TO.P,J6,19,Pin_19*%
%TO.N,BGP14*%
X158500000Y-143820000D03*
%TO.P,J6,20,Pin_20*%
%TO.N,BGP15*%
X158500000Y-146360000D03*
%TD*%
D13*
%TO.P,U2,1,UART0_TX/I2C0_SDA/SPI0_RX/GP0*%
%TO.N,BGP0*%
X159110000Y-37682500D03*
D10*
%TO.P,U2,2,UART0_RX/I2C0_SCL/SPI0_CSN/GP1*%
%TO.N,BGP1*%
X159110000Y-40222500D03*
D12*
%TO.P,U2,3,GND*%
%TO.N,GND*%
X159110000Y-42762500D03*
D10*
%TO.P,U2,4,I2C1_SDA/SPI0_SCK/GP2*%
%TO.N,BGP2*%
X159110000Y-45302500D03*
%TO.P,U2,5,I2C1_SCL/SPI0_TX/GP3*%
%TO.N,BGP3*%
X159110000Y-47842500D03*
%TO.P,U2,6,UART1_TX/I2C0_SDA/SPI0_RX/GP4*%
%TO.N,BGP4*%
X159110000Y-50382500D03*
%TO.P,U2,7,UART1_RX/I2C0_SCL/SPI0_CSN/GP5*%
%TO.N,BGP5*%
X159110000Y-52922500D03*
D12*
%TO.P,U2,8,GND*%
%TO.N,GND*%
X159110000Y-55462500D03*
D10*
%TO.P,U2,9,I2C1_SDA/SPI0_SCK/GP6*%
%TO.N,BGP6*%
X159110000Y-58002500D03*
%TO.P,U2,10,I2C1_SCL/SPI0_TX/GP7*%
%TO.N,BGP7*%
X159110000Y-60542500D03*
%TO.P,U2,11,UART1_TX/I2C0_SDA/SPI1_RX/GP8*%
%TO.N,BGP8*%
X159110000Y-63082500D03*
%TO.P,U2,12,UART1_RX/I2C0_SCL/SPI1_CSN/GP9*%
%TO.N,BGP9*%
X159110000Y-65622500D03*
D12*
%TO.P,U2,13,GND*%
%TO.N,GND*%
X159110000Y-68162500D03*
D10*
%TO.P,U2,14,I2C1_SDA/SPI1_SCK/GP10*%
%TO.N,BGP10*%
X159110000Y-70702500D03*
%TO.P,U2,15,I2C1_SCL/SPI1_TX/GP11*%
%TO.N,BGP11*%
X159110000Y-73242500D03*
%TO.P,U2,16,UART0_TX/I2C0_SDA/SPI1_RX/GP12*%
%TO.N,BGP12*%
X159110000Y-75782500D03*
%TO.P,U2,17,UART0_RX/I2C0_SCL/SPI1_CSN/GP13*%
%TO.N,BGP13*%
X159110000Y-78322500D03*
D12*
%TO.P,U2,18,GND*%
%TO.N,GND*%
X159110000Y-80862500D03*
D10*
%TO.P,U2,19,I2C1_SDA/SPI1_SCK/GP14*%
%TO.N,BGP14*%
X159110000Y-83402500D03*
%TO.P,U2,20,I2C1_SCL/SPI1_TX/GP15*%
%TO.N,BGP15*%
X159110000Y-85942500D03*
%TO.P,U2,21,UART0_TX/I2C0_SDA/SPI0_RX/GP16*%
%TO.N,BGP16*%
X176890000Y-85942500D03*
%TO.P,U2,22,UART0_RX/I2C0_SCL/SPI0_CSN/GP17*%
%TO.N,BGP17*%
X176890000Y-83402500D03*
D11*
%TO.P,U2,23,GND*%
%TO.N,GND*%
X176890000Y-80862500D03*
D10*
%TO.P,U2,24,I2C1_SDA/SPI0_SCK/GP18*%
%TO.N,BGP18*%
X176890000Y-78322500D03*
%TO.P,U2,25,I2C1_SCL/SPI0_TX/GP19*%
%TO.N,BGP19*%
X176890000Y-75782500D03*
%TO.P,U2,26,I2C0_SDA/GP20*%
%TO.N,BGP20*%
X176890000Y-73242500D03*
%TO.P,U2,27,12C0_SCL/GP21*%
%TO.N,BGP21*%
X176890000Y-70702500D03*
D11*
%TO.P,U2,28,GND*%
%TO.N,GND*%
X176890000Y-68162500D03*
D10*
%TO.P,U2,29,GP22*%
%TO.N,BGP22*%
X176890000Y-65622500D03*
%TO.P,U2,30,~{RUN}*%
%TO.N,BRUN*%
X176890000Y-63082500D03*
%TO.P,U2,31,I2C1_SDA/ADC0/GP26*%
%TO.N,BGP26*%
X176890000Y-60542500D03*
%TO.P,U2,32,I2C1_SCL/ADC1/GP27*%
%TO.N,BGP27*%
X176890000Y-58002500D03*
D11*
%TO.P,U2,33,AGND*%
%TO.N,GND*%
X176890000Y-55462500D03*
D10*
%TO.P,U2,34,ADC2_GP28*%
%TO.N,BGP28*%
X176890000Y-52922500D03*
%TO.P,U2,35,ADC_VREF*%
%TO.N,BADC_VREF*%
X176890000Y-50382500D03*
%TO.P,U2,36,3V3_OUT*%
%TO.N,B3V3(OUT)*%
X176890000Y-47842500D03*
%TO.P,U2,37,3V3_EN*%
%TO.N,B3V3_EN*%
X176890000Y-45302500D03*
D11*
%TO.P,U2,38,GND*%
%TO.N,GND*%
X176890000Y-42762500D03*
D10*
%TO.P,U2,39,VSYS*%
%TO.N,BVSYS*%
X176890000Y-40222500D03*
%TO.P,U2,40,VBUS*%
%TO.N,BVBUS*%
X176890000Y-37682500D03*
%TD*%
D16*
%TO.N,AGP6*%
X115825000Y-114883000D03*
X116396000Y-59010200D03*
%TO.N,AGP9*%
X114420000Y-125920000D03*
X113976000Y-65240000D03*
%TO.N,AGP14*%
X116603000Y-83060800D03*
%TO.N,AGP11*%
X115625000Y-133540000D03*
X116796000Y-73156900D03*
%TO.N,AGP13*%
X117230000Y-136062000D03*
X117029000Y-80508000D03*
%TO.N,AGP3*%
X118240000Y-48516500D03*
%TO.N,AGP7*%
X115528000Y-120840000D03*
X115792000Y-61393100D03*
%TO.N,AGP15*%
X124694000Y-88058200D03*
%TO.N,AGP8*%
X115023000Y-123380000D03*
X115122000Y-64347200D03*
%TO.N,AGP5*%
X117408000Y-55589500D03*
%TO.N,AGP4*%
X117826000Y-50000000D03*
%TO.N,AGP12*%
X123982000Y-84840800D03*
%TO.N,BGP26*%
X183471400Y-60542500D03*
X183873100Y-119481300D03*
%TO.N,B3V3_EN*%
X179921700Y-45302500D03*
X181664600Y-105921700D03*
%TO.N,BGP20*%
X181853400Y-76371200D03*
%TO.N,BGP22*%
X179720900Y-75228800D03*
%TO.N,BRUN*%
X179319200Y-73898300D03*
%TO.N,BVSYS*%
X182869700Y-100640000D03*
%TO.N,BGP19*%
X183271400Y-79451200D03*
%TO.N,BGP18*%
X174542200Y-138707200D03*
%TO.N,BGP28*%
X181126800Y-52922500D03*
X181664600Y-113340000D03*
%TO.N,BVBUS*%
X184274800Y-96736500D03*
%TO.N,BGP0*%
X152116000Y-96999700D03*
%TO.N,BGP6*%
X152717800Y-58002500D03*
%TO.N,AGP21*%
X143071000Y-131120000D03*
X142170000Y-70175200D03*
%TO.N,AGP26*%
X143509000Y-117863000D03*
X143135000Y-62200100D03*
%TO.N,A3V3_EN*%
X145408000Y-99980200D03*
X143633000Y-47795200D03*
%TO.N,AGP22*%
X145020000Y-126040000D03*
X145006000Y-65240000D03*
%TO.N,AGP18*%
X147748000Y-132734000D03*
X147748000Y-79116700D03*
%TO.N,A3V3(OUT)*%
X142687000Y-102962000D03*
X141581000Y-48804000D03*
%TO.N,AGP28*%
X145796000Y-113340000D03*
X145796000Y-52540000D03*
%TO.N,ARUN*%
X144416000Y-123500000D03*
X144384000Y-64615700D03*
%TO.N,AGP20*%
X143749000Y-133660000D03*
X143782000Y-74768300D03*
%TO.N,AGP27*%
X146411000Y-114127000D03*
X146599000Y-57620000D03*
%TO.N,AGP19*%
X142666000Y-135678000D03*
X142086000Y-77039200D03*
%TD*%
D17*
%TO.N,AGP6*%
X119830000Y-59010200D02*
X116396000Y-59010200D01*
X121220000Y-57620000D02*
X119830000Y-59010200D01*
X119242000Y-118300000D02*
X115825000Y-114883000D01*
X121500000Y-118300000D02*
X119242000Y-118300000D01*
%TO.N,AGP9*%
X121500000Y-125920000D02*
X114420000Y-125920000D01*
X121220000Y-65240000D02*
X113976000Y-65240000D01*
%TO.N,AGP14*%
X121179000Y-83060800D02*
X116603000Y-83060800D01*
X121179200Y-83060800D02*
X121220000Y-83020000D01*
X121179000Y-83060800D02*
X121179200Y-83060800D01*
%TO.N,AGP11*%
X121500000Y-133540000D02*
X115625000Y-133540000D01*
X120923000Y-73156900D02*
X116796000Y-73156900D01*
X120923100Y-73156900D02*
X121220000Y-72860000D01*
X120923000Y-73156900D02*
X120923100Y-73156900D01*
%TO.N,AGP13*%
X118652000Y-80508000D02*
X117029000Y-80508000D01*
X121220000Y-77940000D02*
X118652000Y-80508000D01*
X119789000Y-138620000D02*
X117230000Y-136062000D01*
X121500000Y-138620000D02*
X119789000Y-138620000D01*
%TO.N,AGP3*%
X120164000Y-48516500D02*
X118240000Y-48516500D01*
X121220000Y-47460000D02*
X120164000Y-48516500D01*
%TO.N,AGP7*%
X121500000Y-120840000D02*
X115528000Y-120840000D01*
X119987000Y-61393100D02*
X115792000Y-61393100D01*
X121220000Y-60160000D02*
X119987000Y-61393100D01*
%TO.N,AGP15*%
X123718000Y-88058200D02*
X124694000Y-88058200D01*
X121220000Y-85560000D02*
X123718000Y-88058200D01*
%TO.N,AGP8*%
X119573000Y-64347200D02*
X115122000Y-64347200D01*
X121220000Y-62700000D02*
X119573000Y-64347200D01*
X121500000Y-123380000D02*
X115023000Y-123380000D01*
%TO.N,AGP5*%
X118170000Y-55589500D02*
X117408000Y-55589500D01*
X121220000Y-52540000D02*
X118170000Y-55589500D01*
%TO.N,AGP4*%
X121220000Y-50000000D02*
X117826000Y-50000000D01*
%TO.N,AGP12*%
X122643000Y-83501500D02*
X123982000Y-84840800D01*
X122643000Y-76823000D02*
X122643000Y-83501500D01*
X121220000Y-75400000D02*
X122643000Y-76823000D01*
%TO.N,BGP26*%
X177500000Y-120960000D02*
X178651700Y-120960000D01*
X180130400Y-119481300D02*
X183873100Y-119481300D01*
X178651700Y-120960000D02*
X180130400Y-119481300D01*
X176890000Y-60542500D02*
X183471400Y-60542500D01*
%TO.N,B3V3_EN*%
X177500000Y-105720000D02*
X178651700Y-105720000D01*
X176890000Y-45302500D02*
X179921700Y-45302500D01*
X178853400Y-105921700D02*
X181664600Y-105921700D01*
X178651700Y-105720000D02*
X178853400Y-105921700D01*
%TO.N,BGP20*%
X180012500Y-76371200D02*
X181853400Y-76371200D01*
X176890000Y-73248700D02*
X180012500Y-76371200D01*
X176890000Y-73242500D02*
X176890000Y-73248700D01*
%TO.N,BGP22*%
X178573900Y-74081800D02*
X179720900Y-75228800D01*
X178573900Y-67306400D02*
X178573900Y-74081800D01*
X176890000Y-65622500D02*
X178573900Y-67306400D01*
%TO.N,BRUN*%
X179319200Y-65511700D02*
X179319200Y-73898300D01*
X176890000Y-63082500D02*
X179319200Y-65511700D01*
%TO.N,BVSYS*%
X177500000Y-100640000D02*
X182869700Y-100640000D01*
%TO.N,BGP19*%
X180558700Y-79451200D02*
X183271400Y-79451200D01*
X176890000Y-75782500D02*
X180558700Y-79451200D01*
%TO.N,BGP18*%
X176315500Y-138707200D02*
X176348300Y-138740000D01*
X174542200Y-138707200D02*
X176315500Y-138707200D01*
X177500000Y-138740000D02*
X176348300Y-138740000D01*
%TO.N,BGP28*%
X177500000Y-113340000D02*
X181664600Y-113340000D01*
X176890000Y-52922500D02*
X181126800Y-52922500D01*
%TO.N,BVBUS*%
X177500000Y-98100000D02*
X178651700Y-98100000D01*
X180015200Y-96736500D02*
X184274800Y-96736500D01*
X178651700Y-98100000D02*
X180015200Y-96736500D01*
%TO.N,BGP0*%
X158500000Y-98100000D02*
X157348300Y-98100000D01*
X156248000Y-96999700D02*
X152116000Y-96999700D01*
X157348300Y-98100000D02*
X156248000Y-96999700D01*
%TO.N,BGP6*%
X159110000Y-58002500D02*
X152717800Y-58002500D01*
%TO.N,AGP21*%
X140500000Y-131120000D02*
X143071000Y-131120000D01*
X139145000Y-70175200D02*
X142170000Y-70175200D01*
X139144800Y-70175200D02*
X139000000Y-70320000D01*
X139145000Y-70175200D02*
X139144800Y-70175200D01*
%TO.N,AGP26*%
X141040000Y-62200100D02*
X143135000Y-62200100D01*
X139000000Y-60160000D02*
X141040000Y-62200100D01*
X141564000Y-119808000D02*
X143509000Y-117863000D01*
X140500000Y-119808000D02*
X141564000Y-119808000D01*
X140500000Y-120960000D02*
X140500000Y-119808000D01*
%TO.N,A3V3_EN*%
X141875000Y-47795200D02*
X143633000Y-47795200D01*
X139000000Y-44920000D02*
X141875000Y-47795200D01*
X144778000Y-99980200D02*
X145408000Y-99980200D01*
X141652000Y-103107000D02*
X144778000Y-99980200D01*
X141652000Y-103705000D02*
X141652000Y-103107000D01*
X140788000Y-104568000D02*
X141652000Y-103705000D01*
X140500000Y-104568000D02*
X140788000Y-104568000D01*
X140500000Y-105720000D02*
X140500000Y-104568000D01*
%TO.N,AGP22*%
X139000000Y-65240000D02*
X145006000Y-65240000D01*
X140500000Y-126040000D02*
X145020000Y-126040000D01*
%TO.N,AGP18*%
X140177000Y-79116700D02*
X139000000Y-77940000D01*
X147748000Y-79116700D02*
X140177000Y-79116700D01*
X147658000Y-132734000D02*
X147748000Y-132734000D01*
X141652000Y-138740000D02*
X147658000Y-132734000D01*
X140500000Y-138740000D02*
X141652000Y-138740000D01*
%TO.N,A3V3(OUT)*%
X140344000Y-48804000D02*
X141581000Y-48804000D01*
X139000000Y-47460000D02*
X140344000Y-48804000D01*
X142687000Y-105209000D02*
X142687000Y-102962000D01*
X140788000Y-107108000D02*
X142687000Y-105209000D01*
X140500000Y-107108000D02*
X140788000Y-107108000D01*
X140500000Y-108260000D02*
X140500000Y-107108000D01*
%TO.N,AGP28*%
X140500000Y-113340000D02*
X145796000Y-113340000D01*
X139000000Y-52540000D02*
X145796000Y-52540000D01*
%TO.N,ARUN*%
X140916000Y-64615700D02*
X144384000Y-64615700D01*
X139000000Y-62700000D02*
X140916000Y-64615700D01*
X140500000Y-123500000D02*
X144416000Y-123500000D01*
%TO.N,AGP20*%
X140500000Y-133660000D02*
X143749000Y-133660000D01*
X140908000Y-74768300D02*
X143782000Y-74768300D01*
X139000000Y-72860000D02*
X140908000Y-74768300D01*
%TO.N,AGP27*%
X139000000Y-57620000D02*
X146599000Y-57620000D01*
X145945000Y-114127000D02*
X146411000Y-114127000D01*
X141652000Y-118420000D02*
X145945000Y-114127000D01*
X140500000Y-118420000D02*
X141652000Y-118420000D01*
%TO.N,AGP19*%
X142173000Y-135678000D02*
X142666000Y-135678000D01*
X141652000Y-136200000D02*
X142173000Y-135678000D01*
X140500000Y-136200000D02*
X141652000Y-136200000D01*
X140639000Y-77039200D02*
X142086000Y-77039200D01*
X139000000Y-75400000D02*
X140639000Y-77039200D01*
%TO.N,GND*%
X139228000Y-103060000D02*
X121500000Y-103060000D01*
X139348000Y-103180000D02*
X139228000Y-103060000D01*
X140500000Y-103180000D02*
X139348000Y-103180000D01*
X122772000Y-115880000D02*
X140500000Y-115880000D01*
X122652000Y-115760000D02*
X122772000Y-115880000D01*
X121500000Y-115760000D02*
X122652000Y-115760000D01*
X121220000Y-67780000D02*
X139000000Y-67780000D01*
X121220000Y-42380000D02*
X139000000Y-42380000D01*
X139228000Y-141160000D02*
X121500000Y-141160000D01*
X139348000Y-141280000D02*
X139228000Y-141160000D01*
X140500000Y-141280000D02*
X139348000Y-141280000D01*
X176890000Y-55462500D02*
X159110000Y-55462500D01*
X159110000Y-68162500D02*
X176890000Y-68162500D01*
X159110000Y-42762500D02*
X176890000Y-42762500D01*
X139228000Y-128460000D02*
X121500000Y-128460000D01*
X139348000Y-128580000D02*
X139228000Y-128460000D01*
X140500000Y-128580000D02*
X139348000Y-128580000D01*
X140500000Y-128580000D02*
X158500000Y-128580000D01*
X140500000Y-141280000D02*
X158500000Y-141280000D01*
X158500000Y-141280000D02*
X177500000Y-141280000D01*
X158500000Y-115880000D02*
X177500000Y-115880000D01*
X158727500Y-42380000D02*
X159110000Y-42762500D01*
X139000000Y-42380000D02*
X158727500Y-42380000D01*
X139382500Y-80862500D02*
X139000000Y-80480000D01*
X159110000Y-80862500D02*
X139382500Y-80862500D01*
%TD*%
M02*
