%TF.GenerationSoftware,KiCad,Pcbnew,9.0.0*%
%TF.CreationDate,2025-03-28T14:39:21-04:00*%
%TF.ProjectId,GatorGrid,4761746f-7247-4726-9964-2e6b69636164,rev?*%
%TF.SameCoordinates,Original*%
%TF.FileFunction,Soldermask,Top*%
%TF.FilePolarity,Negative*%
%FSLAX46Y46*%
G04 Gerber Fmt 4.6, Leading zero omitted, Abs format (unit mm)*
G04 Created by KiCad (PCBNEW 9.0.0) date 2025-03-28 14:39:21*
%MOMM*%
%LPD*%
G01*
G04 APERTURE LIST*
G04 Aperture macros list*
%AMRoundRect*
0 Rectangle with rounded corners*
0 $1 Rounding radius*
0 $2 $3 $4 $5 $6 $7 $8 $9 X,Y pos of 4 corners*
0 Add a 4 corners polygon primitive as box body*
4,1,4,$2,$3,$4,$5,$6,$7,$8,$9,$2,$3,0*
0 Add four circle primitives for the rounded corners*
1,1,$1+$1,$2,$3*
1,1,$1+$1,$4,$5*
1,1,$1+$1,$6,$7*
1,1,$1+$1,$8,$9*
0 Add four rect primitives between the rounded corners*
20,1,$1+$1,$2,$3,$4,$5,0*
20,1,$1+$1,$4,$5,$6,$7,0*
20,1,$1+$1,$6,$7,$8,$9,0*
20,1,$1+$1,$8,$9,$2,$3,0*%
%AMFreePoly0*
4,1,37,0.000000,0.796148,0.078414,0.796148,0.232228,0.765552,0.377117,0.705537,0.507515,0.618408,0.618408,0.507515,0.705537,0.377117,0.765552,0.232228,0.796148,0.078414,0.796148,-0.078414,0.765552,-0.232228,0.705537,-0.377117,0.618408,-0.507515,0.507515,-0.618408,0.377117,-0.705537,0.232228,-0.765552,0.078414,-0.796148,0.000000,-0.796148,0.000000,-0.800000,-0.600000,-0.800000,
-0.603843,-0.796157,-0.639018,-0.796157,-0.711114,-0.766294,-0.766294,-0.711114,-0.796157,-0.639018,-0.796157,-0.603843,-0.800000,-0.600000,-0.800000,0.600000,-0.796157,0.603843,-0.796157,0.639018,-0.766294,0.711114,-0.711114,0.766294,-0.639018,0.796157,-0.603843,0.796157,-0.600000,0.800000,0.000000,0.800000,0.000000,0.796148,0.000000,0.796148,$1*%
%AMFreePoly1*
4,1,37,0.603843,0.796157,0.639018,0.796157,0.711114,0.766294,0.766294,0.711114,0.796157,0.639018,0.796157,0.603843,0.800000,0.600000,0.800000,-0.600000,0.796157,-0.603843,0.796157,-0.639018,0.766294,-0.711114,0.711114,-0.766294,0.639018,-0.796157,0.603843,-0.796157,0.600000,-0.800000,0.000000,-0.800000,0.000000,-0.796148,-0.078414,-0.796148,-0.232228,-0.765552,-0.377117,-0.705537,
-0.507515,-0.618408,-0.618408,-0.507515,-0.705537,-0.377117,-0.765552,-0.232228,-0.796148,-0.078414,-0.796148,0.078414,-0.765552,0.232228,-0.705537,0.377117,-0.618408,0.507515,-0.507515,0.618408,-0.377117,0.705537,-0.232228,0.765552,-0.078414,0.796148,0.000000,0.796148,0.000000,0.800000,0.600000,0.800000,0.603843,0.796157,0.603843,0.796157,$1*%
G04 Aperture macros list end*
%ADD10C,1.600000*%
%ADD11FreePoly0,0.000000*%
%ADD12FreePoly1,0.000000*%
%ADD13RoundRect,0.200000X-0.600000X-0.600000X0.600000X-0.600000X0.600000X0.600000X-0.600000X0.600000X0*%
%ADD14R,1.700000X1.700000*%
%ADD15O,1.700000X1.700000*%
G04 APERTURE END LIST*
D10*
%TO.C,U1*%
X139000000Y-37300000D03*
X139000000Y-39840000D03*
D11*
X139000000Y-42380000D03*
D10*
X139000000Y-44920000D03*
X139000000Y-47460000D03*
X139000000Y-50000000D03*
X139000000Y-52540000D03*
D11*
X139000000Y-55080000D03*
D10*
X139000000Y-57620000D03*
X139000000Y-60160000D03*
X139000000Y-62700000D03*
X139000000Y-65240000D03*
D11*
X139000000Y-67780000D03*
D10*
X139000000Y-70320000D03*
X139000000Y-72860000D03*
X139000000Y-75400000D03*
X139000000Y-77940000D03*
D11*
X139000000Y-80480000D03*
D10*
X139000000Y-83020000D03*
X139000000Y-85560000D03*
X121220000Y-85560000D03*
X121220000Y-83020000D03*
D12*
X121220000Y-80480000D03*
D10*
X121220000Y-77940000D03*
X121220000Y-75400000D03*
X121220000Y-72860000D03*
X121220000Y-70320000D03*
D12*
X121220000Y-67780000D03*
D10*
X121220000Y-65240000D03*
X121220000Y-62700000D03*
X121220000Y-60160000D03*
X121220000Y-57620000D03*
D12*
X121220000Y-55080000D03*
D10*
X121220000Y-52540000D03*
X121220000Y-50000000D03*
X121220000Y-47460000D03*
X121220000Y-44920000D03*
D12*
X121220000Y-42380000D03*
D10*
X121220000Y-39840000D03*
D13*
X121220000Y-37300000D03*
%TD*%
D14*
%TO.C,J4*%
X121500000Y-97980000D03*
D15*
X121500000Y-100520000D03*
X121500000Y-103060000D03*
X121500000Y-105600000D03*
X121500000Y-108140000D03*
X121500000Y-110680000D03*
X121500000Y-113220000D03*
X121500000Y-115760000D03*
X121500000Y-118300000D03*
X121500000Y-120840000D03*
X121500000Y-123380000D03*
X121500000Y-125920000D03*
X121500000Y-128460000D03*
X121500000Y-131000000D03*
X121500000Y-133540000D03*
X121500000Y-136080000D03*
X121500000Y-138620000D03*
X121500000Y-141160000D03*
X121500000Y-143700000D03*
X121500000Y-146240000D03*
%TD*%
D14*
%TO.C,J7*%
X140500000Y-98100000D03*
D15*
X140500000Y-100640000D03*
X140500000Y-103180000D03*
X140500000Y-105720000D03*
X140500000Y-108260000D03*
X140500000Y-110800000D03*
X140500000Y-113340000D03*
X140500000Y-115880000D03*
X140500000Y-118420000D03*
X140500000Y-120960000D03*
X140500000Y-123500000D03*
X140500000Y-126040000D03*
X140500000Y-128580000D03*
X140500000Y-131120000D03*
X140500000Y-133660000D03*
X140500000Y-136200000D03*
X140500000Y-138740000D03*
X140500000Y-141280000D03*
X140500000Y-143820000D03*
X140500000Y-146360000D03*
%TD*%
D14*
%TO.C,J8*%
X177500000Y-98100000D03*
D15*
X177500000Y-100640000D03*
X177500000Y-103180000D03*
X177500000Y-105720000D03*
X177500000Y-108260000D03*
X177500000Y-110800000D03*
X177500000Y-113340000D03*
X177500000Y-115880000D03*
X177500000Y-118420000D03*
X177500000Y-120960000D03*
X177500000Y-123500000D03*
X177500000Y-126040000D03*
X177500000Y-128580000D03*
X177500000Y-131120000D03*
X177500000Y-133660000D03*
X177500000Y-136200000D03*
X177500000Y-138740000D03*
X177500000Y-141280000D03*
X177500000Y-143820000D03*
X177500000Y-146360000D03*
%TD*%
D14*
%TO.C,J6*%
X158500000Y-98100000D03*
D15*
X158500000Y-100640000D03*
X158500000Y-103180000D03*
X158500000Y-105720000D03*
X158500000Y-108260000D03*
X158500000Y-110800000D03*
X158500000Y-113340000D03*
X158500000Y-115880000D03*
X158500000Y-118420000D03*
X158500000Y-120960000D03*
X158500000Y-123500000D03*
X158500000Y-126040000D03*
X158500000Y-128580000D03*
X158500000Y-131120000D03*
X158500000Y-133660000D03*
X158500000Y-136200000D03*
X158500000Y-138740000D03*
X158500000Y-141280000D03*
X158500000Y-143820000D03*
X158500000Y-146360000D03*
%TD*%
D13*
%TO.C,U2*%
X159110000Y-37682500D03*
D10*
X159110000Y-40222500D03*
D12*
X159110000Y-42762500D03*
D10*
X159110000Y-45302500D03*
X159110000Y-47842500D03*
X159110000Y-50382500D03*
X159110000Y-52922500D03*
D12*
X159110000Y-55462500D03*
D10*
X159110000Y-58002500D03*
X159110000Y-60542500D03*
X159110000Y-63082500D03*
X159110000Y-65622500D03*
D12*
X159110000Y-68162500D03*
D10*
X159110000Y-70702500D03*
X159110000Y-73242500D03*
X159110000Y-75782500D03*
X159110000Y-78322500D03*
D12*
X159110000Y-80862500D03*
D10*
X159110000Y-83402500D03*
X159110000Y-85942500D03*
X176890000Y-85942500D03*
X176890000Y-83402500D03*
D11*
X176890000Y-80862500D03*
D10*
X176890000Y-78322500D03*
X176890000Y-75782500D03*
X176890000Y-73242500D03*
X176890000Y-70702500D03*
D11*
X176890000Y-68162500D03*
D10*
X176890000Y-65622500D03*
X176890000Y-63082500D03*
X176890000Y-60542500D03*
X176890000Y-58002500D03*
D11*
X176890000Y-55462500D03*
D10*
X176890000Y-52922500D03*
X176890000Y-50382500D03*
X176890000Y-47842500D03*
X176890000Y-45302500D03*
D11*
X176890000Y-42762500D03*
D10*
X176890000Y-40222500D03*
X176890000Y-37682500D03*
%TD*%
M02*
