%TF.GenerationSoftware,KiCad,Pcbnew,9.0.0*%
%TF.CreationDate,2025-03-28T14:39:21-04:00*%
%TF.ProjectId,GatorGrid,4761746f-7247-4726-9964-2e6b69636164,rev?*%
%TF.SameCoordinates,Original*%
%TF.FileFunction,Legend,Top*%
%TF.FilePolarity,Positive*%
%FSLAX46Y46*%
G04 Gerber Fmt 4.6, Leading zero omitted, Abs format (unit mm)*
G04 Created by KiCad (PCBNEW 9.0.0) date 2025-03-28 14:39:21*
%MOMM*%
%LPD*%
G01*
G04 APERTURE LIST*
%ADD10C,0.150000*%
%ADD11C,0.120000*%
G04 APERTURE END LIST*
D10*
X142194279Y-85649819D02*
X142194279Y-86459342D01*
X142194279Y-86459342D02*
X142241898Y-86554580D01*
X142241898Y-86554580D02*
X142289517Y-86602200D01*
X142289517Y-86602200D02*
X142384755Y-86649819D01*
X142384755Y-86649819D02*
X142575231Y-86649819D01*
X142575231Y-86649819D02*
X142670469Y-86602200D01*
X142670469Y-86602200D02*
X142718088Y-86554580D01*
X142718088Y-86554580D02*
X142765707Y-86459342D01*
X142765707Y-86459342D02*
X142765707Y-85649819D01*
X143765707Y-86649819D02*
X143194279Y-86649819D01*
X143479993Y-86649819D02*
X143479993Y-85649819D01*
X143479993Y-85649819D02*
X143384755Y-85792676D01*
X143384755Y-85792676D02*
X143289517Y-85887914D01*
X143289517Y-85887914D02*
X143194279Y-85935533D01*
X121166666Y-95104819D02*
X121166666Y-95819104D01*
X121166666Y-95819104D02*
X121119047Y-95961961D01*
X121119047Y-95961961D02*
X121023809Y-96057200D01*
X121023809Y-96057200D02*
X120880952Y-96104819D01*
X120880952Y-96104819D02*
X120785714Y-96104819D01*
X122071428Y-95438152D02*
X122071428Y-96104819D01*
X121833333Y-95057200D02*
X121595238Y-95771485D01*
X121595238Y-95771485D02*
X122214285Y-95771485D01*
X140166666Y-95224819D02*
X140166666Y-95939104D01*
X140166666Y-95939104D02*
X140119047Y-96081961D01*
X140119047Y-96081961D02*
X140023809Y-96177200D01*
X140023809Y-96177200D02*
X139880952Y-96224819D01*
X139880952Y-96224819D02*
X139785714Y-96224819D01*
X140547619Y-95224819D02*
X141214285Y-95224819D01*
X141214285Y-95224819D02*
X140785714Y-96224819D01*
X177166666Y-95224819D02*
X177166666Y-95939104D01*
X177166666Y-95939104D02*
X177119047Y-96081961D01*
X177119047Y-96081961D02*
X177023809Y-96177200D01*
X177023809Y-96177200D02*
X176880952Y-96224819D01*
X176880952Y-96224819D02*
X176785714Y-96224819D01*
X177785714Y-95653390D02*
X177690476Y-95605771D01*
X177690476Y-95605771D02*
X177642857Y-95558152D01*
X177642857Y-95558152D02*
X177595238Y-95462914D01*
X177595238Y-95462914D02*
X177595238Y-95415295D01*
X177595238Y-95415295D02*
X177642857Y-95320057D01*
X177642857Y-95320057D02*
X177690476Y-95272438D01*
X177690476Y-95272438D02*
X177785714Y-95224819D01*
X177785714Y-95224819D02*
X177976190Y-95224819D01*
X177976190Y-95224819D02*
X178071428Y-95272438D01*
X178071428Y-95272438D02*
X178119047Y-95320057D01*
X178119047Y-95320057D02*
X178166666Y-95415295D01*
X178166666Y-95415295D02*
X178166666Y-95462914D01*
X178166666Y-95462914D02*
X178119047Y-95558152D01*
X178119047Y-95558152D02*
X178071428Y-95605771D01*
X178071428Y-95605771D02*
X177976190Y-95653390D01*
X177976190Y-95653390D02*
X177785714Y-95653390D01*
X177785714Y-95653390D02*
X177690476Y-95701009D01*
X177690476Y-95701009D02*
X177642857Y-95748628D01*
X177642857Y-95748628D02*
X177595238Y-95843866D01*
X177595238Y-95843866D02*
X177595238Y-96034342D01*
X177595238Y-96034342D02*
X177642857Y-96129580D01*
X177642857Y-96129580D02*
X177690476Y-96177200D01*
X177690476Y-96177200D02*
X177785714Y-96224819D01*
X177785714Y-96224819D02*
X177976190Y-96224819D01*
X177976190Y-96224819D02*
X178071428Y-96177200D01*
X178071428Y-96177200D02*
X178119047Y-96129580D01*
X178119047Y-96129580D02*
X178166666Y-96034342D01*
X178166666Y-96034342D02*
X178166666Y-95843866D01*
X178166666Y-95843866D02*
X178119047Y-95748628D01*
X178119047Y-95748628D02*
X178071428Y-95701009D01*
X178071428Y-95701009D02*
X177976190Y-95653390D01*
X158166666Y-95224819D02*
X158166666Y-95939104D01*
X158166666Y-95939104D02*
X158119047Y-96081961D01*
X158119047Y-96081961D02*
X158023809Y-96177200D01*
X158023809Y-96177200D02*
X157880952Y-96224819D01*
X157880952Y-96224819D02*
X157785714Y-96224819D01*
X159071428Y-95224819D02*
X158880952Y-95224819D01*
X158880952Y-95224819D02*
X158785714Y-95272438D01*
X158785714Y-95272438D02*
X158738095Y-95320057D01*
X158738095Y-95320057D02*
X158642857Y-95462914D01*
X158642857Y-95462914D02*
X158595238Y-95653390D01*
X158595238Y-95653390D02*
X158595238Y-96034342D01*
X158595238Y-96034342D02*
X158642857Y-96129580D01*
X158642857Y-96129580D02*
X158690476Y-96177200D01*
X158690476Y-96177200D02*
X158785714Y-96224819D01*
X158785714Y-96224819D02*
X158976190Y-96224819D01*
X158976190Y-96224819D02*
X159071428Y-96177200D01*
X159071428Y-96177200D02*
X159119047Y-96129580D01*
X159119047Y-96129580D02*
X159166666Y-96034342D01*
X159166666Y-96034342D02*
X159166666Y-95796247D01*
X159166666Y-95796247D02*
X159119047Y-95701009D01*
X159119047Y-95701009D02*
X159071428Y-95653390D01*
X159071428Y-95653390D02*
X158976190Y-95605771D01*
X158976190Y-95605771D02*
X158785714Y-95605771D01*
X158785714Y-95605771D02*
X158690476Y-95653390D01*
X158690476Y-95653390D02*
X158642857Y-95701009D01*
X158642857Y-95701009D02*
X158595238Y-95796247D01*
X180084279Y-86032319D02*
X180084279Y-86841842D01*
X180084279Y-86841842D02*
X180131898Y-86937080D01*
X180131898Y-86937080D02*
X180179517Y-86984700D01*
X180179517Y-86984700D02*
X180274755Y-87032319D01*
X180274755Y-87032319D02*
X180465231Y-87032319D01*
X180465231Y-87032319D02*
X180560469Y-86984700D01*
X180560469Y-86984700D02*
X180608088Y-86937080D01*
X180608088Y-86937080D02*
X180655707Y-86841842D01*
X180655707Y-86841842D02*
X180655707Y-86032319D01*
X181084279Y-86127557D02*
X181131898Y-86079938D01*
X181131898Y-86079938D02*
X181227136Y-86032319D01*
X181227136Y-86032319D02*
X181465231Y-86032319D01*
X181465231Y-86032319D02*
X181560469Y-86079938D01*
X181560469Y-86079938D02*
X181608088Y-86127557D01*
X181608088Y-86127557D02*
X181655707Y-86222795D01*
X181655707Y-86222795D02*
X181655707Y-86318033D01*
X181655707Y-86318033D02*
X181608088Y-86460890D01*
X181608088Y-86460890D02*
X181036660Y-87032319D01*
X181036660Y-87032319D02*
X181655707Y-87032319D01*
D11*
%TO.C,U1*%
X140720000Y-86430000D02*
G75*
G02*
X140110000Y-87040000I-610000J0D01*
G01*
X140110000Y-35820000D02*
G75*
G02*
X140720000Y-36430000I0J-610000D01*
G01*
X120110000Y-87040000D02*
G75*
G02*
X119500000Y-86430000I-99J609901D01*
G01*
X119500000Y-36430000D02*
G75*
G02*
X120110000Y-35820000I610000J0D01*
G01*
X140720000Y-36430000D02*
X140720000Y-86430000D01*
X140380000Y-86977000D02*
X140380000Y-35883000D01*
X140110000Y-35820000D02*
X137620000Y-35820000D01*
X137620000Y-86126480D02*
X137620000Y-87040000D01*
X137620000Y-39126480D02*
X137620000Y-83733520D01*
X137620000Y-35820000D02*
X137620000Y-36733520D01*
X136272061Y-87040000D02*
X140110000Y-87040000D01*
X136272061Y-35820000D02*
X137620000Y-35820000D01*
X135347939Y-87040000D02*
X133710000Y-87040000D01*
X134345000Y-35820000D02*
X135347939Y-35820000D01*
X134220000Y-35340000D02*
X134010000Y-35340000D01*
X134220000Y-34520000D02*
X134220000Y-35340000D01*
X134010000Y-40340000D02*
X126210000Y-40340000D01*
X134010000Y-39124000D02*
X134010000Y-40340000D01*
X134010000Y-35340000D02*
X134010000Y-36736000D01*
X133710000Y-87040000D02*
X126510000Y-87040000D01*
X126510000Y-87040000D02*
X124872061Y-87040000D01*
X126210000Y-39124000D02*
X126210000Y-40340000D01*
X126210000Y-35340000D02*
X126210000Y-36736000D01*
X126000000Y-35340000D02*
X126210000Y-35340000D01*
X126000000Y-34520000D02*
X134220000Y-34520000D01*
X126000000Y-34520000D02*
X126000000Y-35340000D01*
X125875000Y-35820000D02*
X134345000Y-35820000D01*
X124872061Y-35820000D02*
X125875000Y-35820000D01*
X122600000Y-86126480D02*
X122600000Y-87040000D01*
X122600000Y-39126480D02*
X122600000Y-83733520D01*
X122600000Y-35820000D02*
X123947940Y-35820000D01*
X122600000Y-35820000D02*
X122600000Y-36733520D01*
X120110000Y-87040000D02*
X123947939Y-87040000D01*
X120110000Y-35820000D02*
X122600000Y-35820000D01*
X119840000Y-35883000D02*
X119840000Y-86977000D01*
X119500000Y-36430000D02*
X119500000Y-86430000D01*
X119180000Y-38100000D02*
X119180000Y-36500000D01*
%TO.C,J4*%
X120170000Y-96650000D02*
X121500000Y-96650000D01*
X120170000Y-97980000D02*
X120170000Y-96650000D01*
X120170000Y-99250000D02*
X120170000Y-147570000D01*
X120170000Y-99250000D02*
X122830000Y-99250000D01*
X120170000Y-147570000D02*
X122830000Y-147570000D01*
X122830000Y-99250000D02*
X122830000Y-147570000D01*
%TO.C,J7*%
X139170000Y-96770000D02*
X140500000Y-96770000D01*
X139170000Y-98100000D02*
X139170000Y-96770000D01*
X139170000Y-99370000D02*
X139170000Y-147690000D01*
X139170000Y-99370000D02*
X141830000Y-99370000D01*
X139170000Y-147690000D02*
X141830000Y-147690000D01*
X141830000Y-99370000D02*
X141830000Y-147690000D01*
%TO.C,J8*%
X176170000Y-96770000D02*
X177500000Y-96770000D01*
X176170000Y-98100000D02*
X176170000Y-96770000D01*
X176170000Y-99370000D02*
X176170000Y-147690000D01*
X176170000Y-99370000D02*
X178830000Y-99370000D01*
X176170000Y-147690000D02*
X178830000Y-147690000D01*
X178830000Y-99370000D02*
X178830000Y-147690000D01*
%TO.C,J6*%
X157170000Y-96770000D02*
X158500000Y-96770000D01*
X157170000Y-98100000D02*
X157170000Y-96770000D01*
X157170000Y-99370000D02*
X157170000Y-147690000D01*
X157170000Y-99370000D02*
X159830000Y-99370000D01*
X157170000Y-147690000D02*
X159830000Y-147690000D01*
X159830000Y-99370000D02*
X159830000Y-147690000D01*
%TO.C,U2*%
X157070000Y-38482500D02*
X157070000Y-36882500D01*
X157390000Y-36812500D02*
X157390000Y-86812500D01*
X157730000Y-36265500D02*
X157730000Y-87359500D01*
X158000000Y-36202500D02*
X160490000Y-36202500D01*
X158000000Y-87422500D02*
X161837939Y-87422500D01*
X160490000Y-36202500D02*
X160490000Y-37116020D01*
X160490000Y-36202500D02*
X161837940Y-36202500D01*
X160490000Y-39508980D02*
X160490000Y-84116020D01*
X160490000Y-86508980D02*
X160490000Y-87422500D01*
X162762061Y-36202500D02*
X163765000Y-36202500D01*
X163765000Y-36202500D02*
X172235000Y-36202500D01*
X163890000Y-34902500D02*
X163890000Y-35722500D01*
X163890000Y-34902500D02*
X172110000Y-34902500D01*
X163890000Y-35722500D02*
X164100000Y-35722500D01*
X164100000Y-35722500D02*
X164100000Y-37118500D01*
X164100000Y-39506500D02*
X164100000Y-40722500D01*
X164400000Y-87422500D02*
X162762061Y-87422500D01*
X171600000Y-87422500D02*
X164400000Y-87422500D01*
X171900000Y-35722500D02*
X171900000Y-37118500D01*
X171900000Y-39506500D02*
X171900000Y-40722500D01*
X171900000Y-40722500D02*
X164100000Y-40722500D01*
X172110000Y-34902500D02*
X172110000Y-35722500D01*
X172110000Y-35722500D02*
X171900000Y-35722500D01*
X172235000Y-36202500D02*
X173237939Y-36202500D01*
X173237939Y-87422500D02*
X171600000Y-87422500D01*
X174162061Y-36202500D02*
X175510000Y-36202500D01*
X174162061Y-87422500D02*
X178000000Y-87422500D01*
X175510000Y-36202500D02*
X175510000Y-37116020D01*
X175510000Y-39508980D02*
X175510000Y-84116020D01*
X175510000Y-86508980D02*
X175510000Y-87422500D01*
X178000000Y-36202500D02*
X175510000Y-36202500D01*
X178270000Y-87359500D02*
X178270000Y-36265500D01*
X178610000Y-36812500D02*
X178610000Y-86812500D01*
X157390000Y-36812500D02*
G75*
G02*
X158000000Y-36202500I610000J0D01*
G01*
X158000000Y-87422500D02*
G75*
G02*
X157390000Y-86812500I-99J609901D01*
G01*
X178000000Y-36202500D02*
G75*
G02*
X178610000Y-36812500I0J-610000D01*
G01*
X178610000Y-86812500D02*
G75*
G02*
X178000000Y-87422500I-610000J0D01*
G01*
%TD*%
M02*
