%TF.GenerationSoftware,KiCad,Pcbnew,9.0.0*%
%TF.CreationDate,2025-09-21T20:59:59-04:00*%
%TF.ProjectId,Design V2.0,44657369-676e-4205-9632-2e302e6b6963,rev?*%
%TF.SameCoordinates,Original*%
%TF.FileFunction,Soldermask,Bot*%
%TF.FilePolarity,Negative*%
%FSLAX46Y46*%
G04 Gerber Fmt 4.6, Leading zero omitted, Abs format (unit mm)*
G04 Created by KiCad (PCBNEW 9.0.0) date 2025-09-21 20:59:59*
%MOMM*%
%LPD*%
G01*
G04 APERTURE LIST*
G04 Aperture macros list*
%AMRoundRect*
0 Rectangle with rounded corners*
0 $1 Rounding radius*
0 $2 $3 $4 $5 $6 $7 $8 $9 X,Y pos of 4 corners*
0 Add a 4 corners polygon primitive as box body*
4,1,4,$2,$3,$4,$5,$6,$7,$8,$9,$2,$3,0*
0 Add four circle primitives for the rounded corners*
1,1,$1+$1,$2,$3*
1,1,$1+$1,$4,$5*
1,1,$1+$1,$6,$7*
1,1,$1+$1,$8,$9*
0 Add four rect primitives between the rounded corners*
20,1,$1+$1,$2,$3,$4,$5,0*
20,1,$1+$1,$4,$5,$6,$7,0*
20,1,$1+$1,$6,$7,$8,$9,0*
20,1,$1+$1,$8,$9,$2,$3,0*%
%AMFreePoly0*
4,1,37,0.603843,0.796157,0.639018,0.796157,0.711114,0.766294,0.766294,0.711114,0.796157,0.639018,0.796157,0.603843,0.800000,0.600000,0.800000,-0.600000,0.796157,-0.603843,0.796157,-0.639018,0.766294,-0.711114,0.711114,-0.766294,0.639018,-0.796157,0.603843,-0.796157,0.600000,-0.800000,0.000000,-0.800000,0.000000,-0.796148,-0.078414,-0.796148,-0.232228,-0.765552,-0.377117,-0.705537,
-0.507515,-0.618408,-0.618408,-0.507515,-0.705537,-0.377117,-0.765552,-0.232228,-0.796148,-0.078414,-0.796148,0.078414,-0.765552,0.232228,-0.705537,0.377117,-0.618408,0.507515,-0.507515,0.618408,-0.377117,0.705537,-0.232228,0.765552,-0.078414,0.796148,0.000000,0.796148,0.000000,0.800000,0.600000,0.800000,0.603843,0.796157,0.603843,0.796157,$1*%
%AMFreePoly1*
4,1,37,0.000000,0.796148,0.078414,0.796148,0.232228,0.765552,0.377117,0.705537,0.507515,0.618408,0.618408,0.507515,0.705537,0.377117,0.765552,0.232228,0.796148,0.078414,0.796148,-0.078414,0.765552,-0.232228,0.705537,-0.377117,0.618408,-0.507515,0.507515,-0.618408,0.377117,-0.705537,0.232228,-0.765552,0.078414,-0.796148,0.000000,-0.796148,0.000000,-0.800000,-0.600000,-0.800000,
-0.603843,-0.796157,-0.639018,-0.796157,-0.711114,-0.766294,-0.766294,-0.711114,-0.796157,-0.639018,-0.796157,-0.603843,-0.800000,-0.600000,-0.800000,0.600000,-0.796157,0.603843,-0.796157,0.639018,-0.766294,0.711114,-0.711114,0.766294,-0.639018,0.796157,-0.603843,0.796157,-0.600000,0.800000,0.000000,0.800000,0.000000,0.796148,0.000000,0.796148,$1*%
G04 Aperture macros list end*
%ADD10C,1.600000*%
%ADD11O,1.600000X1.600000*%
%ADD12R,1.800000X1.800000*%
%ADD13C,1.800000*%
%ADD14RoundRect,0.200000X-0.600000X-0.600000X0.600000X-0.600000X0.600000X0.600000X-0.600000X0.600000X0*%
%ADD15FreePoly0,0.000000*%
%ADD16FreePoly1,0.000000*%
%ADD17C,1.270000*%
%ADD18R,2.200000X2.200000*%
%ADD19O,2.200000X2.200000*%
%ADD20O,2.200000X3.500000*%
%ADD21R,1.500000X2.500000*%
%ADD22O,1.500000X2.500000*%
%ADD23R,1.700000X1.700000*%
%ADD24O,1.700000X1.700000*%
%ADD25C,3.200000*%
%ADD26RoundRect,0.250000X-0.350000X-0.625000X0.350000X-0.625000X0.350000X0.625000X-0.350000X0.625000X0*%
%ADD27O,1.200000X1.750000*%
%ADD28R,1.500000X1.050000*%
%ADD29O,1.500000X1.050000*%
G04 APERTURE END LIST*
D10*
%TO.C,R6*%
X224500000Y-61620000D03*
D11*
X224500000Y-54000000D03*
%TD*%
D10*
%TO.C,R5*%
X244500000Y-51690000D03*
D11*
X244500000Y-59310000D03*
%TD*%
D12*
%TO.C,D4*%
X242460000Y-82500000D03*
D13*
X245000000Y-82500000D03*
%TD*%
D10*
%TO.C,R8*%
X236810000Y-77000000D03*
D11*
X229190000Y-77000000D03*
%TD*%
D14*
%TO.C,A1*%
X169000000Y-32600000D03*
D10*
X169000000Y-35140000D03*
D15*
X169000000Y-37680000D03*
D10*
X169000000Y-40220000D03*
X169000000Y-42760000D03*
X169000000Y-45300000D03*
X169000000Y-47840000D03*
D15*
X169000000Y-50380000D03*
D10*
X169000000Y-52920000D03*
X169000000Y-55460000D03*
X169000000Y-58000000D03*
X169000000Y-60540000D03*
D15*
X169000000Y-63080000D03*
D10*
X169000000Y-65620000D03*
X169000000Y-68160000D03*
X169000000Y-70700000D03*
X169000000Y-73240000D03*
D15*
X169000000Y-75780000D03*
D10*
X169000000Y-78320000D03*
X169000000Y-80860000D03*
X186780000Y-80860000D03*
X186780000Y-78320000D03*
D16*
X186780000Y-75780000D03*
D10*
X186780000Y-73240000D03*
X186780000Y-70700000D03*
X186780000Y-68160000D03*
X186780000Y-65620000D03*
D16*
X186780000Y-63080000D03*
D10*
X186780000Y-60540000D03*
X186780000Y-58000000D03*
X186780000Y-55460000D03*
X186780000Y-52920000D03*
D16*
X186780000Y-50380000D03*
D10*
X186780000Y-47840000D03*
X186780000Y-45300000D03*
X186780000Y-42760000D03*
X186780000Y-40220000D03*
D16*
X186780000Y-37680000D03*
D10*
X186780000Y-35140000D03*
X186780000Y-32600000D03*
%TD*%
D17*
%TO.C,F1*%
X231700000Y-43050000D03*
X233300000Y-37950000D03*
%TD*%
D10*
%TO.C,R2*%
X230380000Y-49500000D03*
D11*
X238000000Y-49500000D03*
%TD*%
D18*
%TO.C,D5*%
X193500000Y-39690000D03*
D19*
X193500000Y-47310000D03*
%TD*%
D20*
%TO.C,SW1*%
X239700000Y-32000000D03*
X231500000Y-32000000D03*
D21*
X237600000Y-32000000D03*
D22*
X235600000Y-32000000D03*
X233600000Y-32000000D03*
%TD*%
D10*
%TO.C,C4*%
X236500000Y-86500000D03*
X236500000Y-84500000D03*
%TD*%
%TO.C,C2*%
X224500000Y-48750000D03*
X224500000Y-46250000D03*
%TD*%
D23*
%TO.C,J4*%
X199720000Y-136060000D03*
D24*
X199720000Y-133520000D03*
X199720000Y-130980000D03*
X199720000Y-128440000D03*
X199720000Y-125900000D03*
X199720000Y-123360000D03*
X199720000Y-120820000D03*
X199720000Y-118280000D03*
X199720000Y-115740000D03*
X199720000Y-113200000D03*
X199720000Y-110660000D03*
X199720000Y-108120000D03*
X199720000Y-105580000D03*
X199720000Y-103040000D03*
X199720000Y-100500000D03*
X199720000Y-97960000D03*
X199720000Y-95420000D03*
X199720000Y-92880000D03*
X199720000Y-90340000D03*
X199720000Y-87800000D03*
%TD*%
D25*
%TO.C,H2*%
X245500000Y-33500000D03*
%TD*%
D23*
%TO.C,J3*%
X186780000Y-87860000D03*
D24*
X186780000Y-90400000D03*
X186780000Y-92940000D03*
X186780000Y-95480000D03*
X186780000Y-98020000D03*
X186780000Y-100560000D03*
X186780000Y-103100000D03*
X186780000Y-105640000D03*
X186780000Y-108180000D03*
X186780000Y-110720000D03*
X186780000Y-113260000D03*
X186780000Y-115800000D03*
X186780000Y-118340000D03*
X186780000Y-120880000D03*
X186780000Y-123420000D03*
X186780000Y-125960000D03*
X186780000Y-128500000D03*
X186780000Y-131040000D03*
X186780000Y-133580000D03*
X186780000Y-136120000D03*
%TD*%
D26*
%TO.C,J1*%
X241500000Y-40500000D03*
D27*
X243500000Y-40500000D03*
%TD*%
D10*
%TO.C,C1*%
X194750000Y-33500000D03*
X192250000Y-33500000D03*
%TD*%
D23*
%TO.C,J2*%
X169000000Y-136060000D03*
D24*
X169000000Y-133520000D03*
X169000000Y-130980000D03*
X169000000Y-128440000D03*
X169000000Y-125900000D03*
X169000000Y-123360000D03*
X169000000Y-120820000D03*
X169000000Y-118280000D03*
X169000000Y-115740000D03*
X169000000Y-113200000D03*
X169000000Y-110660000D03*
X169000000Y-108120000D03*
X169000000Y-105580000D03*
X169000000Y-103040000D03*
X169000000Y-100500000D03*
X169000000Y-97960000D03*
X169000000Y-95420000D03*
X169000000Y-92880000D03*
X169000000Y-90340000D03*
X169000000Y-87800000D03*
%TD*%
D10*
%TO.C,R7*%
X229000000Y-68000000D03*
D11*
X236620000Y-68000000D03*
%TD*%
D12*
%TO.C,D2*%
X242460000Y-65500000D03*
D13*
X245000000Y-65500000D03*
%TD*%
D25*
%TO.C,H1*%
X162000000Y-33500000D03*
%TD*%
D12*
%TO.C,D3*%
X242460000Y-74000000D03*
D13*
X245000000Y-74000000D03*
%TD*%
D10*
%TO.C,C3*%
X237500000Y-92000000D03*
X235500000Y-92000000D03*
%TD*%
D18*
%TO.C,D6*%
X225000000Y-33190000D03*
D19*
X225000000Y-40810000D03*
%TD*%
D28*
%TO.C,Q3*%
X234000000Y-56500000D03*
D29*
X234000000Y-55230000D03*
X234000000Y-53960000D03*
%TD*%
D10*
%TO.C,R3*%
X229190000Y-72500000D03*
D11*
X236810000Y-72500000D03*
%TD*%
D25*
%TO.C,H3*%
X245500000Y-137500000D03*
%TD*%
D23*
%TO.C,J5*%
X217500000Y-87860000D03*
D24*
X217500000Y-90400000D03*
X217500000Y-92940000D03*
X217500000Y-95480000D03*
X217500000Y-98020000D03*
X217500000Y-100560000D03*
X217500000Y-103100000D03*
X217500000Y-105640000D03*
X217500000Y-108180000D03*
X217500000Y-110720000D03*
X217500000Y-113260000D03*
X217500000Y-115800000D03*
X217500000Y-118340000D03*
X217500000Y-120880000D03*
X217500000Y-123420000D03*
X217500000Y-125960000D03*
X217500000Y-128500000D03*
X217500000Y-131040000D03*
X217500000Y-133580000D03*
X217500000Y-136120000D03*
%TD*%
D25*
%TO.C,H4*%
X161500000Y-137500000D03*
%TD*%
D14*
%TO.C,A2*%
X199720000Y-32600000D03*
D10*
X199720000Y-35140000D03*
D15*
X199720000Y-37680000D03*
D10*
X199720000Y-40220000D03*
X199720000Y-42760000D03*
X199720000Y-45300000D03*
X199720000Y-47840000D03*
D15*
X199720000Y-50380000D03*
D10*
X199720000Y-52920000D03*
X199720000Y-55460000D03*
X199720000Y-58000000D03*
X199720000Y-60540000D03*
D15*
X199720000Y-63080000D03*
D10*
X199720000Y-65620000D03*
X199720000Y-68160000D03*
X199720000Y-70700000D03*
X199720000Y-73240000D03*
D15*
X199720000Y-75780000D03*
D10*
X199720000Y-78320000D03*
X199720000Y-80860000D03*
X217500000Y-80860000D03*
X217500000Y-78320000D03*
D16*
X217500000Y-75780000D03*
D10*
X217500000Y-73240000D03*
X217500000Y-70700000D03*
X217500000Y-68160000D03*
X217500000Y-65620000D03*
D16*
X217500000Y-63080000D03*
D10*
X217500000Y-60540000D03*
X217500000Y-58000000D03*
X217500000Y-55460000D03*
X217500000Y-52920000D03*
D16*
X217500000Y-50380000D03*
D10*
X217500000Y-47840000D03*
X217500000Y-45300000D03*
X217500000Y-42760000D03*
X217500000Y-40220000D03*
D16*
X217500000Y-37680000D03*
D10*
X217500000Y-35140000D03*
X217500000Y-32600000D03*
%TD*%
D28*
%TO.C,Q4*%
X234000000Y-63000000D03*
D29*
X234000000Y-61730000D03*
X234000000Y-60460000D03*
%TD*%
D10*
%TO.C,R4*%
X232000000Y-103310000D03*
D11*
X232000000Y-95690000D03*
%TD*%
D10*
%TO.C,R1*%
X224500000Y-103310000D03*
D11*
X224500000Y-95690000D03*
%TD*%
M02*
