%TF.GenerationSoftware,KiCad,Pcbnew,9.0.0*%
%TF.CreationDate,2025-09-21T20:59:59-04:00*%
%TF.ProjectId,Design V2.0,44657369-676e-4205-9632-2e302e6b6963,rev?*%
%TF.SameCoordinates,Original*%
%TF.FileFunction,Legend,Top*%
%TF.FilePolarity,Positive*%
%FSLAX46Y46*%
G04 Gerber Fmt 4.6, Leading zero omitted, Abs format (unit mm)*
G04 Created by KiCad (PCBNEW 9.0.0) date 2025-09-21 20:59:59*
%MOMM*%
%LPD*%
G01*
G04 APERTURE LIST*
%ADD10C,0.125000*%
%ADD11C,0.150000*%
%ADD12C,0.200000*%
%ADD13C,0.127000*%
%ADD14C,0.120000*%
G04 APERTURE END LIST*
D10*
X244843976Y-125893954D02*
X244748738Y-126084430D01*
X244748738Y-126084430D02*
X244748738Y-126370144D01*
X244748738Y-126370144D02*
X244843976Y-126655859D01*
X244843976Y-126655859D02*
X245034452Y-126846335D01*
X245034452Y-126846335D02*
X245224928Y-126941573D01*
X245224928Y-126941573D02*
X245605880Y-127036811D01*
X245605880Y-127036811D02*
X245891595Y-127036811D01*
X245891595Y-127036811D02*
X246272547Y-126941573D01*
X246272547Y-126941573D02*
X246463023Y-126846335D01*
X246463023Y-126846335D02*
X246653500Y-126655859D01*
X246653500Y-126655859D02*
X246748738Y-126370144D01*
X246748738Y-126370144D02*
X246748738Y-126179668D01*
X246748738Y-126179668D02*
X246653500Y-125893954D01*
X246653500Y-125893954D02*
X246558261Y-125798716D01*
X246558261Y-125798716D02*
X245891595Y-125798716D01*
X245891595Y-125798716D02*
X245891595Y-126179668D01*
X246748738Y-124084430D02*
X245701119Y-124084430D01*
X245701119Y-124084430D02*
X245510642Y-124179668D01*
X245510642Y-124179668D02*
X245415404Y-124370144D01*
X245415404Y-124370144D02*
X245415404Y-124751097D01*
X245415404Y-124751097D02*
X245510642Y-124941573D01*
X246653500Y-124084430D02*
X246748738Y-124274906D01*
X246748738Y-124274906D02*
X246748738Y-124751097D01*
X246748738Y-124751097D02*
X246653500Y-124941573D01*
X246653500Y-124941573D02*
X246463023Y-125036811D01*
X246463023Y-125036811D02*
X246272547Y-125036811D01*
X246272547Y-125036811D02*
X246082071Y-124941573D01*
X246082071Y-124941573D02*
X245986833Y-124751097D01*
X245986833Y-124751097D02*
X245986833Y-124274906D01*
X245986833Y-124274906D02*
X245891595Y-124084430D01*
X245415404Y-123417763D02*
X245415404Y-122655859D01*
X244748738Y-123132049D02*
X246463023Y-123132049D01*
X246463023Y-123132049D02*
X246653500Y-123036811D01*
X246653500Y-123036811D02*
X246748738Y-122846335D01*
X246748738Y-122846335D02*
X246748738Y-122655859D01*
X246748738Y-121703478D02*
X246653500Y-121893954D01*
X246653500Y-121893954D02*
X246558261Y-121989192D01*
X246558261Y-121989192D02*
X246367785Y-122084430D01*
X246367785Y-122084430D02*
X245796357Y-122084430D01*
X245796357Y-122084430D02*
X245605880Y-121989192D01*
X245605880Y-121989192D02*
X245510642Y-121893954D01*
X245510642Y-121893954D02*
X245415404Y-121703478D01*
X245415404Y-121703478D02*
X245415404Y-121417763D01*
X245415404Y-121417763D02*
X245510642Y-121227287D01*
X245510642Y-121227287D02*
X245605880Y-121132049D01*
X245605880Y-121132049D02*
X245796357Y-121036811D01*
X245796357Y-121036811D02*
X246367785Y-121036811D01*
X246367785Y-121036811D02*
X246558261Y-121132049D01*
X246558261Y-121132049D02*
X246653500Y-121227287D01*
X246653500Y-121227287D02*
X246748738Y-121417763D01*
X246748738Y-121417763D02*
X246748738Y-121703478D01*
X246748738Y-120179668D02*
X245415404Y-120179668D01*
X245796357Y-120179668D02*
X245605880Y-120084430D01*
X245605880Y-120084430D02*
X245510642Y-119989192D01*
X245510642Y-119989192D02*
X245415404Y-119798716D01*
X245415404Y-119798716D02*
X245415404Y-119608239D01*
X244843976Y-117893954D02*
X244748738Y-118084430D01*
X244748738Y-118084430D02*
X244748738Y-118370144D01*
X244748738Y-118370144D02*
X244843976Y-118655859D01*
X244843976Y-118655859D02*
X245034452Y-118846335D01*
X245034452Y-118846335D02*
X245224928Y-118941573D01*
X245224928Y-118941573D02*
X245605880Y-119036811D01*
X245605880Y-119036811D02*
X245891595Y-119036811D01*
X245891595Y-119036811D02*
X246272547Y-118941573D01*
X246272547Y-118941573D02*
X246463023Y-118846335D01*
X246463023Y-118846335D02*
X246653500Y-118655859D01*
X246653500Y-118655859D02*
X246748738Y-118370144D01*
X246748738Y-118370144D02*
X246748738Y-118179668D01*
X246748738Y-118179668D02*
X246653500Y-117893954D01*
X246653500Y-117893954D02*
X246558261Y-117798716D01*
X246558261Y-117798716D02*
X245891595Y-117798716D01*
X245891595Y-117798716D02*
X245891595Y-118179668D01*
X246748738Y-116941573D02*
X245415404Y-116941573D01*
X245796357Y-116941573D02*
X245605880Y-116846335D01*
X245605880Y-116846335D02*
X245510642Y-116751097D01*
X245510642Y-116751097D02*
X245415404Y-116560621D01*
X245415404Y-116560621D02*
X245415404Y-116370144D01*
X246748738Y-115703478D02*
X245415404Y-115703478D01*
X244748738Y-115703478D02*
X244843976Y-115798716D01*
X244843976Y-115798716D02*
X244939214Y-115703478D01*
X244939214Y-115703478D02*
X244843976Y-115608240D01*
X244843976Y-115608240D02*
X244748738Y-115703478D01*
X244748738Y-115703478D02*
X244939214Y-115703478D01*
X246748738Y-113893954D02*
X244748738Y-113893954D01*
X246653500Y-113893954D02*
X246748738Y-114084430D01*
X246748738Y-114084430D02*
X246748738Y-114465383D01*
X246748738Y-114465383D02*
X246653500Y-114655859D01*
X246653500Y-114655859D02*
X246558261Y-114751097D01*
X246558261Y-114751097D02*
X246367785Y-114846335D01*
X246367785Y-114846335D02*
X245796357Y-114846335D01*
X245796357Y-114846335D02*
X245605880Y-114751097D01*
X245605880Y-114751097D02*
X245510642Y-114655859D01*
X245510642Y-114655859D02*
X245415404Y-114465383D01*
X245415404Y-114465383D02*
X245415404Y-114084430D01*
X245415404Y-114084430D02*
X245510642Y-113893954D01*
X245986833Y-112941573D02*
X245986833Y-111417764D01*
X246748738Y-110465383D02*
X244748738Y-110465383D01*
X244748738Y-110465383D02*
X244748738Y-109989193D01*
X244748738Y-109989193D02*
X244843976Y-109703478D01*
X244843976Y-109703478D02*
X245034452Y-109513002D01*
X245034452Y-109513002D02*
X245224928Y-109417764D01*
X245224928Y-109417764D02*
X245605880Y-109322526D01*
X245605880Y-109322526D02*
X245891595Y-109322526D01*
X245891595Y-109322526D02*
X246272547Y-109417764D01*
X246272547Y-109417764D02*
X246463023Y-109513002D01*
X246463023Y-109513002D02*
X246653500Y-109703478D01*
X246653500Y-109703478D02*
X246748738Y-109989193D01*
X246748738Y-109989193D02*
X246748738Y-110465383D01*
X245701119Y-108465383D02*
X245701119Y-107798716D01*
X246748738Y-107513002D02*
X246748738Y-108465383D01*
X246748738Y-108465383D02*
X244748738Y-108465383D01*
X244748738Y-108465383D02*
X244748738Y-107513002D01*
X244748738Y-106941573D02*
X246748738Y-106274907D01*
X246748738Y-106274907D02*
X244748738Y-105608240D01*
X245986833Y-104941573D02*
X245986833Y-103417764D01*
X244748738Y-102751097D02*
X246748738Y-102084431D01*
X246748738Y-102084431D02*
X244748738Y-101417764D01*
X244939214Y-100846335D02*
X244843976Y-100751097D01*
X244843976Y-100751097D02*
X244748738Y-100560621D01*
X244748738Y-100560621D02*
X244748738Y-100084430D01*
X244748738Y-100084430D02*
X244843976Y-99893954D01*
X244843976Y-99893954D02*
X244939214Y-99798716D01*
X244939214Y-99798716D02*
X245129690Y-99703478D01*
X245129690Y-99703478D02*
X245320166Y-99703478D01*
X245320166Y-99703478D02*
X245605880Y-99798716D01*
X245605880Y-99798716D02*
X246748738Y-100941573D01*
X246748738Y-100941573D02*
X246748738Y-99703478D01*
X246558261Y-98846335D02*
X246653500Y-98751097D01*
X246653500Y-98751097D02*
X246748738Y-98846335D01*
X246748738Y-98846335D02*
X246653500Y-98941573D01*
X246653500Y-98941573D02*
X246558261Y-98846335D01*
X246558261Y-98846335D02*
X246748738Y-98846335D01*
X244748738Y-97513002D02*
X244748738Y-97322525D01*
X244748738Y-97322525D02*
X244843976Y-97132049D01*
X244843976Y-97132049D02*
X244939214Y-97036811D01*
X244939214Y-97036811D02*
X245129690Y-96941573D01*
X245129690Y-96941573D02*
X245510642Y-96846335D01*
X245510642Y-96846335D02*
X245986833Y-96846335D01*
X245986833Y-96846335D02*
X246367785Y-96941573D01*
X246367785Y-96941573D02*
X246558261Y-97036811D01*
X246558261Y-97036811D02*
X246653500Y-97132049D01*
X246653500Y-97132049D02*
X246748738Y-97322525D01*
X246748738Y-97322525D02*
X246748738Y-97513002D01*
X246748738Y-97513002D02*
X246653500Y-97703478D01*
X246653500Y-97703478D02*
X246558261Y-97798716D01*
X246558261Y-97798716D02*
X246367785Y-97893954D01*
X246367785Y-97893954D02*
X245986833Y-97989192D01*
X245986833Y-97989192D02*
X245510642Y-97989192D01*
X245510642Y-97989192D02*
X245129690Y-97893954D01*
X245129690Y-97893954D02*
X244939214Y-97798716D01*
X244939214Y-97798716D02*
X244843976Y-97703478D01*
X244843976Y-97703478D02*
X244748738Y-97513002D01*
D11*
X223454819Y-89761904D02*
X224264342Y-89761904D01*
X224264342Y-89761904D02*
X224359580Y-89714285D01*
X224359580Y-89714285D02*
X224407200Y-89666666D01*
X224407200Y-89666666D02*
X224454819Y-89571428D01*
X224454819Y-89571428D02*
X224454819Y-89380952D01*
X224454819Y-89380952D02*
X224407200Y-89285714D01*
X224407200Y-89285714D02*
X224359580Y-89238095D01*
X224359580Y-89238095D02*
X224264342Y-89190476D01*
X224264342Y-89190476D02*
X223454819Y-89190476D01*
X224454819Y-88190476D02*
X224454819Y-88761904D01*
X224454819Y-88476190D02*
X223454819Y-88476190D01*
X223454819Y-88476190D02*
X223597676Y-88571428D01*
X223597676Y-88571428D02*
X223692914Y-88666666D01*
X223692914Y-88666666D02*
X223740533Y-88761904D01*
X222584819Y-57976666D02*
X222108628Y-58309999D01*
X222584819Y-58548094D02*
X221584819Y-58548094D01*
X221584819Y-58548094D02*
X221584819Y-58167142D01*
X221584819Y-58167142D02*
X221632438Y-58071904D01*
X221632438Y-58071904D02*
X221680057Y-58024285D01*
X221680057Y-58024285D02*
X221775295Y-57976666D01*
X221775295Y-57976666D02*
X221918152Y-57976666D01*
X221918152Y-57976666D02*
X222013390Y-58024285D01*
X222013390Y-58024285D02*
X222061009Y-58071904D01*
X222061009Y-58071904D02*
X222108628Y-58167142D01*
X222108628Y-58167142D02*
X222108628Y-58548094D01*
X221584819Y-57119523D02*
X221584819Y-57309999D01*
X221584819Y-57309999D02*
X221632438Y-57405237D01*
X221632438Y-57405237D02*
X221680057Y-57452856D01*
X221680057Y-57452856D02*
X221822914Y-57548094D01*
X221822914Y-57548094D02*
X222013390Y-57595713D01*
X222013390Y-57595713D02*
X222394342Y-57595713D01*
X222394342Y-57595713D02*
X222489580Y-57548094D01*
X222489580Y-57548094D02*
X222537200Y-57500475D01*
X222537200Y-57500475D02*
X222584819Y-57405237D01*
X222584819Y-57405237D02*
X222584819Y-57214761D01*
X222584819Y-57214761D02*
X222537200Y-57119523D01*
X222537200Y-57119523D02*
X222489580Y-57071904D01*
X222489580Y-57071904D02*
X222394342Y-57024285D01*
X222394342Y-57024285D02*
X222156247Y-57024285D01*
X222156247Y-57024285D02*
X222061009Y-57071904D01*
X222061009Y-57071904D02*
X222013390Y-57119523D01*
X222013390Y-57119523D02*
X221965771Y-57214761D01*
X221965771Y-57214761D02*
X221965771Y-57405237D01*
X221965771Y-57405237D02*
X222013390Y-57500475D01*
X222013390Y-57500475D02*
X222061009Y-57548094D01*
X222061009Y-57548094D02*
X222156247Y-57595713D01*
X247324819Y-55666666D02*
X246848628Y-55999999D01*
X247324819Y-56238094D02*
X246324819Y-56238094D01*
X246324819Y-56238094D02*
X246324819Y-55857142D01*
X246324819Y-55857142D02*
X246372438Y-55761904D01*
X246372438Y-55761904D02*
X246420057Y-55714285D01*
X246420057Y-55714285D02*
X246515295Y-55666666D01*
X246515295Y-55666666D02*
X246658152Y-55666666D01*
X246658152Y-55666666D02*
X246753390Y-55714285D01*
X246753390Y-55714285D02*
X246801009Y-55761904D01*
X246801009Y-55761904D02*
X246848628Y-55857142D01*
X246848628Y-55857142D02*
X246848628Y-56238094D01*
X246324819Y-54761904D02*
X246324819Y-55238094D01*
X246324819Y-55238094D02*
X246801009Y-55285713D01*
X246801009Y-55285713D02*
X246753390Y-55238094D01*
X246753390Y-55238094D02*
X246705771Y-55142856D01*
X246705771Y-55142856D02*
X246705771Y-54904761D01*
X246705771Y-54904761D02*
X246753390Y-54809523D01*
X246753390Y-54809523D02*
X246801009Y-54761904D01*
X246801009Y-54761904D02*
X246896247Y-54714285D01*
X246896247Y-54714285D02*
X247134342Y-54714285D01*
X247134342Y-54714285D02*
X247229580Y-54761904D01*
X247229580Y-54761904D02*
X247277200Y-54809523D01*
X247277200Y-54809523D02*
X247324819Y-54904761D01*
X247324819Y-54904761D02*
X247324819Y-55142856D01*
X247324819Y-55142856D02*
X247277200Y-55238094D01*
X247277200Y-55238094D02*
X247229580Y-55285713D01*
X242991905Y-78994819D02*
X242991905Y-77994819D01*
X242991905Y-77994819D02*
X243230000Y-77994819D01*
X243230000Y-77994819D02*
X243372857Y-78042438D01*
X243372857Y-78042438D02*
X243468095Y-78137676D01*
X243468095Y-78137676D02*
X243515714Y-78232914D01*
X243515714Y-78232914D02*
X243563333Y-78423390D01*
X243563333Y-78423390D02*
X243563333Y-78566247D01*
X243563333Y-78566247D02*
X243515714Y-78756723D01*
X243515714Y-78756723D02*
X243468095Y-78851961D01*
X243468095Y-78851961D02*
X243372857Y-78947200D01*
X243372857Y-78947200D02*
X243230000Y-78994819D01*
X243230000Y-78994819D02*
X242991905Y-78994819D01*
X244420476Y-78328152D02*
X244420476Y-78994819D01*
X244182381Y-77947200D02*
X243944286Y-78661485D01*
X243944286Y-78661485D02*
X244563333Y-78661485D01*
X232833333Y-79824819D02*
X232500000Y-79348628D01*
X232261905Y-79824819D02*
X232261905Y-78824819D01*
X232261905Y-78824819D02*
X232642857Y-78824819D01*
X232642857Y-78824819D02*
X232738095Y-78872438D01*
X232738095Y-78872438D02*
X232785714Y-78920057D01*
X232785714Y-78920057D02*
X232833333Y-79015295D01*
X232833333Y-79015295D02*
X232833333Y-79158152D01*
X232833333Y-79158152D02*
X232785714Y-79253390D01*
X232785714Y-79253390D02*
X232738095Y-79301009D01*
X232738095Y-79301009D02*
X232642857Y-79348628D01*
X232642857Y-79348628D02*
X232261905Y-79348628D01*
X233404762Y-79253390D02*
X233309524Y-79205771D01*
X233309524Y-79205771D02*
X233261905Y-79158152D01*
X233261905Y-79158152D02*
X233214286Y-79062914D01*
X233214286Y-79062914D02*
X233214286Y-79015295D01*
X233214286Y-79015295D02*
X233261905Y-78920057D01*
X233261905Y-78920057D02*
X233309524Y-78872438D01*
X233309524Y-78872438D02*
X233404762Y-78824819D01*
X233404762Y-78824819D02*
X233595238Y-78824819D01*
X233595238Y-78824819D02*
X233690476Y-78872438D01*
X233690476Y-78872438D02*
X233738095Y-78920057D01*
X233738095Y-78920057D02*
X233785714Y-79015295D01*
X233785714Y-79015295D02*
X233785714Y-79062914D01*
X233785714Y-79062914D02*
X233738095Y-79158152D01*
X233738095Y-79158152D02*
X233690476Y-79205771D01*
X233690476Y-79205771D02*
X233595238Y-79253390D01*
X233595238Y-79253390D02*
X233404762Y-79253390D01*
X233404762Y-79253390D02*
X233309524Y-79301009D01*
X233309524Y-79301009D02*
X233261905Y-79348628D01*
X233261905Y-79348628D02*
X233214286Y-79443866D01*
X233214286Y-79443866D02*
X233214286Y-79634342D01*
X233214286Y-79634342D02*
X233261905Y-79729580D01*
X233261905Y-79729580D02*
X233309524Y-79777200D01*
X233309524Y-79777200D02*
X233404762Y-79824819D01*
X233404762Y-79824819D02*
X233595238Y-79824819D01*
X233595238Y-79824819D02*
X233690476Y-79777200D01*
X233690476Y-79777200D02*
X233738095Y-79729580D01*
X233738095Y-79729580D02*
X233785714Y-79634342D01*
X233785714Y-79634342D02*
X233785714Y-79443866D01*
X233785714Y-79443866D02*
X233738095Y-79348628D01*
X233738095Y-79348628D02*
X233690476Y-79301009D01*
X233690476Y-79301009D02*
X233595238Y-79253390D01*
X189926660Y-81664104D02*
X190402850Y-81664104D01*
X189831422Y-81949819D02*
X190164755Y-80949819D01*
X190164755Y-80949819D02*
X190498088Y-81949819D01*
X191355231Y-81949819D02*
X190783803Y-81949819D01*
X191069517Y-81949819D02*
X191069517Y-80949819D01*
X191069517Y-80949819D02*
X190974279Y-81092676D01*
X190974279Y-81092676D02*
X190879041Y-81187914D01*
X190879041Y-81187914D02*
X190783803Y-81235533D01*
X229091009Y-40843333D02*
X229091009Y-41176666D01*
X229614819Y-41176666D02*
X228614819Y-41176666D01*
X228614819Y-41176666D02*
X228614819Y-40700476D01*
X229614819Y-39795714D02*
X229614819Y-40367142D01*
X229614819Y-40081428D02*
X228614819Y-40081428D01*
X228614819Y-40081428D02*
X228757676Y-40176666D01*
X228757676Y-40176666D02*
X228852914Y-40271904D01*
X228852914Y-40271904D02*
X228900533Y-40367142D01*
X234023333Y-47584819D02*
X233690000Y-47108628D01*
X233451905Y-47584819D02*
X233451905Y-46584819D01*
X233451905Y-46584819D02*
X233832857Y-46584819D01*
X233832857Y-46584819D02*
X233928095Y-46632438D01*
X233928095Y-46632438D02*
X233975714Y-46680057D01*
X233975714Y-46680057D02*
X234023333Y-46775295D01*
X234023333Y-46775295D02*
X234023333Y-46918152D01*
X234023333Y-46918152D02*
X233975714Y-47013390D01*
X233975714Y-47013390D02*
X233928095Y-47061009D01*
X233928095Y-47061009D02*
X233832857Y-47108628D01*
X233832857Y-47108628D02*
X233451905Y-47108628D01*
X234404286Y-46680057D02*
X234451905Y-46632438D01*
X234451905Y-46632438D02*
X234547143Y-46584819D01*
X234547143Y-46584819D02*
X234785238Y-46584819D01*
X234785238Y-46584819D02*
X234880476Y-46632438D01*
X234880476Y-46632438D02*
X234928095Y-46680057D01*
X234928095Y-46680057D02*
X234975714Y-46775295D01*
X234975714Y-46775295D02*
X234975714Y-46870533D01*
X234975714Y-46870533D02*
X234928095Y-47013390D01*
X234928095Y-47013390D02*
X234356667Y-47584819D01*
X234356667Y-47584819D02*
X234975714Y-47584819D01*
X196424819Y-44238094D02*
X195424819Y-44238094D01*
X195424819Y-44238094D02*
X195424819Y-43999999D01*
X195424819Y-43999999D02*
X195472438Y-43857142D01*
X195472438Y-43857142D02*
X195567676Y-43761904D01*
X195567676Y-43761904D02*
X195662914Y-43714285D01*
X195662914Y-43714285D02*
X195853390Y-43666666D01*
X195853390Y-43666666D02*
X195996247Y-43666666D01*
X195996247Y-43666666D02*
X196186723Y-43714285D01*
X196186723Y-43714285D02*
X196281961Y-43761904D01*
X196281961Y-43761904D02*
X196377200Y-43857142D01*
X196377200Y-43857142D02*
X196424819Y-43999999D01*
X196424819Y-43999999D02*
X196424819Y-44238094D01*
X195424819Y-42761904D02*
X195424819Y-43238094D01*
X195424819Y-43238094D02*
X195901009Y-43285713D01*
X195901009Y-43285713D02*
X195853390Y-43238094D01*
X195853390Y-43238094D02*
X195805771Y-43142856D01*
X195805771Y-43142856D02*
X195805771Y-42904761D01*
X195805771Y-42904761D02*
X195853390Y-42809523D01*
X195853390Y-42809523D02*
X195901009Y-42761904D01*
X195901009Y-42761904D02*
X195996247Y-42714285D01*
X195996247Y-42714285D02*
X196234342Y-42714285D01*
X196234342Y-42714285D02*
X196329580Y-42761904D01*
X196329580Y-42761904D02*
X196377200Y-42809523D01*
X196377200Y-42809523D02*
X196424819Y-42904761D01*
X196424819Y-42904761D02*
X196424819Y-43142856D01*
X196424819Y-43142856D02*
X196377200Y-43238094D01*
X196377200Y-43238094D02*
X196329580Y-43285713D01*
X196054819Y-39951904D02*
X195054819Y-39951904D01*
X196054819Y-39380476D02*
X195483390Y-39809047D01*
X195054819Y-39380476D02*
X195626247Y-39951904D01*
X234866667Y-36007200D02*
X235009524Y-36054819D01*
X235009524Y-36054819D02*
X235247619Y-36054819D01*
X235247619Y-36054819D02*
X235342857Y-36007200D01*
X235342857Y-36007200D02*
X235390476Y-35959580D01*
X235390476Y-35959580D02*
X235438095Y-35864342D01*
X235438095Y-35864342D02*
X235438095Y-35769104D01*
X235438095Y-35769104D02*
X235390476Y-35673866D01*
X235390476Y-35673866D02*
X235342857Y-35626247D01*
X235342857Y-35626247D02*
X235247619Y-35578628D01*
X235247619Y-35578628D02*
X235057143Y-35531009D01*
X235057143Y-35531009D02*
X234961905Y-35483390D01*
X234961905Y-35483390D02*
X234914286Y-35435771D01*
X234914286Y-35435771D02*
X234866667Y-35340533D01*
X234866667Y-35340533D02*
X234866667Y-35245295D01*
X234866667Y-35245295D02*
X234914286Y-35150057D01*
X234914286Y-35150057D02*
X234961905Y-35102438D01*
X234961905Y-35102438D02*
X235057143Y-35054819D01*
X235057143Y-35054819D02*
X235295238Y-35054819D01*
X235295238Y-35054819D02*
X235438095Y-35102438D01*
X235771429Y-35054819D02*
X236009524Y-36054819D01*
X236009524Y-36054819D02*
X236200000Y-35340533D01*
X236200000Y-35340533D02*
X236390476Y-36054819D01*
X236390476Y-36054819D02*
X236628572Y-35054819D01*
X237533333Y-36054819D02*
X236961905Y-36054819D01*
X237247619Y-36054819D02*
X237247619Y-35054819D01*
X237247619Y-35054819D02*
X237152381Y-35197676D01*
X237152381Y-35197676D02*
X237057143Y-35292914D01*
X237057143Y-35292914D02*
X236961905Y-35340533D01*
X233109580Y-85666666D02*
X233157200Y-85714285D01*
X233157200Y-85714285D02*
X233204819Y-85857142D01*
X233204819Y-85857142D02*
X233204819Y-85952380D01*
X233204819Y-85952380D02*
X233157200Y-86095237D01*
X233157200Y-86095237D02*
X233061961Y-86190475D01*
X233061961Y-86190475D02*
X232966723Y-86238094D01*
X232966723Y-86238094D02*
X232776247Y-86285713D01*
X232776247Y-86285713D02*
X232633390Y-86285713D01*
X232633390Y-86285713D02*
X232442914Y-86238094D01*
X232442914Y-86238094D02*
X232347676Y-86190475D01*
X232347676Y-86190475D02*
X232252438Y-86095237D01*
X232252438Y-86095237D02*
X232204819Y-85952380D01*
X232204819Y-85952380D02*
X232204819Y-85857142D01*
X232204819Y-85857142D02*
X232252438Y-85714285D01*
X232252438Y-85714285D02*
X232300057Y-85666666D01*
X232538152Y-84809523D02*
X233204819Y-84809523D01*
X232157200Y-85047618D02*
X232871485Y-85285713D01*
X232871485Y-85285713D02*
X232871485Y-84666666D01*
X222359580Y-47666666D02*
X222407200Y-47714285D01*
X222407200Y-47714285D02*
X222454819Y-47857142D01*
X222454819Y-47857142D02*
X222454819Y-47952380D01*
X222454819Y-47952380D02*
X222407200Y-48095237D01*
X222407200Y-48095237D02*
X222311961Y-48190475D01*
X222311961Y-48190475D02*
X222216723Y-48238094D01*
X222216723Y-48238094D02*
X222026247Y-48285713D01*
X222026247Y-48285713D02*
X221883390Y-48285713D01*
X221883390Y-48285713D02*
X221692914Y-48238094D01*
X221692914Y-48238094D02*
X221597676Y-48190475D01*
X221597676Y-48190475D02*
X221502438Y-48095237D01*
X221502438Y-48095237D02*
X221454819Y-47952380D01*
X221454819Y-47952380D02*
X221454819Y-47857142D01*
X221454819Y-47857142D02*
X221502438Y-47714285D01*
X221502438Y-47714285D02*
X221550057Y-47666666D01*
X221550057Y-47285713D02*
X221502438Y-47238094D01*
X221502438Y-47238094D02*
X221454819Y-47142856D01*
X221454819Y-47142856D02*
X221454819Y-46904761D01*
X221454819Y-46904761D02*
X221502438Y-46809523D01*
X221502438Y-46809523D02*
X221550057Y-46761904D01*
X221550057Y-46761904D02*
X221645295Y-46714285D01*
X221645295Y-46714285D02*
X221740533Y-46714285D01*
X221740533Y-46714285D02*
X221883390Y-46761904D01*
X221883390Y-46761904D02*
X222454819Y-47333332D01*
X222454819Y-47333332D02*
X222454819Y-46714285D01*
X199386666Y-138284819D02*
X199386666Y-138999104D01*
X199386666Y-138999104D02*
X199339047Y-139141961D01*
X199339047Y-139141961D02*
X199243809Y-139237200D01*
X199243809Y-139237200D02*
X199100952Y-139284819D01*
X199100952Y-139284819D02*
X199005714Y-139284819D01*
X200291428Y-138618152D02*
X200291428Y-139284819D01*
X200053333Y-138237200D02*
X199815238Y-138951485D01*
X199815238Y-138951485D02*
X200434285Y-138951485D01*
X244738095Y-30104819D02*
X244738095Y-29104819D01*
X244738095Y-29581009D02*
X245309523Y-29581009D01*
X245309523Y-30104819D02*
X245309523Y-29104819D01*
X245738095Y-29200057D02*
X245785714Y-29152438D01*
X245785714Y-29152438D02*
X245880952Y-29104819D01*
X245880952Y-29104819D02*
X246119047Y-29104819D01*
X246119047Y-29104819D02*
X246214285Y-29152438D01*
X246214285Y-29152438D02*
X246261904Y-29200057D01*
X246261904Y-29200057D02*
X246309523Y-29295295D01*
X246309523Y-29295295D02*
X246309523Y-29390533D01*
X246309523Y-29390533D02*
X246261904Y-29533390D01*
X246261904Y-29533390D02*
X245690476Y-30104819D01*
X245690476Y-30104819D02*
X246309523Y-30104819D01*
X186446666Y-84544819D02*
X186446666Y-85259104D01*
X186446666Y-85259104D02*
X186399047Y-85401961D01*
X186399047Y-85401961D02*
X186303809Y-85497200D01*
X186303809Y-85497200D02*
X186160952Y-85544819D01*
X186160952Y-85544819D02*
X186065714Y-85544819D01*
X186827619Y-84544819D02*
X187446666Y-84544819D01*
X187446666Y-84544819D02*
X187113333Y-84925771D01*
X187113333Y-84925771D02*
X187256190Y-84925771D01*
X187256190Y-84925771D02*
X187351428Y-84973390D01*
X187351428Y-84973390D02*
X187399047Y-85021009D01*
X187399047Y-85021009D02*
X187446666Y-85116247D01*
X187446666Y-85116247D02*
X187446666Y-85354342D01*
X187446666Y-85354342D02*
X187399047Y-85449580D01*
X187399047Y-85449580D02*
X187351428Y-85497200D01*
X187351428Y-85497200D02*
X187256190Y-85544819D01*
X187256190Y-85544819D02*
X186970476Y-85544819D01*
X186970476Y-85544819D02*
X186875238Y-85497200D01*
X186875238Y-85497200D02*
X186827619Y-85449580D01*
X242166666Y-37404819D02*
X242166666Y-38119104D01*
X242166666Y-38119104D02*
X242119047Y-38261961D01*
X242119047Y-38261961D02*
X242023809Y-38357200D01*
X242023809Y-38357200D02*
X241880952Y-38404819D01*
X241880952Y-38404819D02*
X241785714Y-38404819D01*
X243166666Y-38404819D02*
X242595238Y-38404819D01*
X242880952Y-38404819D02*
X242880952Y-37404819D01*
X242880952Y-37404819D02*
X242785714Y-37547676D01*
X242785714Y-37547676D02*
X242690476Y-37642914D01*
X242690476Y-37642914D02*
X242595238Y-37690533D01*
X193333333Y-36359580D02*
X193285714Y-36407200D01*
X193285714Y-36407200D02*
X193142857Y-36454819D01*
X193142857Y-36454819D02*
X193047619Y-36454819D01*
X193047619Y-36454819D02*
X192904762Y-36407200D01*
X192904762Y-36407200D02*
X192809524Y-36311961D01*
X192809524Y-36311961D02*
X192761905Y-36216723D01*
X192761905Y-36216723D02*
X192714286Y-36026247D01*
X192714286Y-36026247D02*
X192714286Y-35883390D01*
X192714286Y-35883390D02*
X192761905Y-35692914D01*
X192761905Y-35692914D02*
X192809524Y-35597676D01*
X192809524Y-35597676D02*
X192904762Y-35502438D01*
X192904762Y-35502438D02*
X193047619Y-35454819D01*
X193047619Y-35454819D02*
X193142857Y-35454819D01*
X193142857Y-35454819D02*
X193285714Y-35502438D01*
X193285714Y-35502438D02*
X193333333Y-35550057D01*
X194285714Y-36454819D02*
X193714286Y-36454819D01*
X194000000Y-36454819D02*
X194000000Y-35454819D01*
X194000000Y-35454819D02*
X193904762Y-35597676D01*
X193904762Y-35597676D02*
X193809524Y-35692914D01*
X193809524Y-35692914D02*
X193714286Y-35740533D01*
X168666666Y-138284819D02*
X168666666Y-138999104D01*
X168666666Y-138999104D02*
X168619047Y-139141961D01*
X168619047Y-139141961D02*
X168523809Y-139237200D01*
X168523809Y-139237200D02*
X168380952Y-139284819D01*
X168380952Y-139284819D02*
X168285714Y-139284819D01*
X169095238Y-138380057D02*
X169142857Y-138332438D01*
X169142857Y-138332438D02*
X169238095Y-138284819D01*
X169238095Y-138284819D02*
X169476190Y-138284819D01*
X169476190Y-138284819D02*
X169571428Y-138332438D01*
X169571428Y-138332438D02*
X169619047Y-138380057D01*
X169619047Y-138380057D02*
X169666666Y-138475295D01*
X169666666Y-138475295D02*
X169666666Y-138570533D01*
X169666666Y-138570533D02*
X169619047Y-138713390D01*
X169619047Y-138713390D02*
X169047619Y-139284819D01*
X169047619Y-139284819D02*
X169666666Y-139284819D01*
X232643333Y-66084819D02*
X232310000Y-65608628D01*
X232071905Y-66084819D02*
X232071905Y-65084819D01*
X232071905Y-65084819D02*
X232452857Y-65084819D01*
X232452857Y-65084819D02*
X232548095Y-65132438D01*
X232548095Y-65132438D02*
X232595714Y-65180057D01*
X232595714Y-65180057D02*
X232643333Y-65275295D01*
X232643333Y-65275295D02*
X232643333Y-65418152D01*
X232643333Y-65418152D02*
X232595714Y-65513390D01*
X232595714Y-65513390D02*
X232548095Y-65561009D01*
X232548095Y-65561009D02*
X232452857Y-65608628D01*
X232452857Y-65608628D02*
X232071905Y-65608628D01*
X232976667Y-65084819D02*
X233643333Y-65084819D01*
X233643333Y-65084819D02*
X233214762Y-66084819D01*
X242991905Y-61994819D02*
X242991905Y-60994819D01*
X242991905Y-60994819D02*
X243230000Y-60994819D01*
X243230000Y-60994819D02*
X243372857Y-61042438D01*
X243372857Y-61042438D02*
X243468095Y-61137676D01*
X243468095Y-61137676D02*
X243515714Y-61232914D01*
X243515714Y-61232914D02*
X243563333Y-61423390D01*
X243563333Y-61423390D02*
X243563333Y-61566247D01*
X243563333Y-61566247D02*
X243515714Y-61756723D01*
X243515714Y-61756723D02*
X243468095Y-61851961D01*
X243468095Y-61851961D02*
X243372857Y-61947200D01*
X243372857Y-61947200D02*
X243230000Y-61994819D01*
X243230000Y-61994819D02*
X242991905Y-61994819D01*
X243944286Y-61090057D02*
X243991905Y-61042438D01*
X243991905Y-61042438D02*
X244087143Y-60994819D01*
X244087143Y-60994819D02*
X244325238Y-60994819D01*
X244325238Y-60994819D02*
X244420476Y-61042438D01*
X244420476Y-61042438D02*
X244468095Y-61090057D01*
X244468095Y-61090057D02*
X244515714Y-61185295D01*
X244515714Y-61185295D02*
X244515714Y-61280533D01*
X244515714Y-61280533D02*
X244468095Y-61423390D01*
X244468095Y-61423390D02*
X243896667Y-61994819D01*
X243896667Y-61994819D02*
X244515714Y-61994819D01*
X161238095Y-30104819D02*
X161238095Y-29104819D01*
X161238095Y-29581009D02*
X161809523Y-29581009D01*
X161809523Y-30104819D02*
X161809523Y-29104819D01*
X162809523Y-30104819D02*
X162238095Y-30104819D01*
X162523809Y-30104819D02*
X162523809Y-29104819D01*
X162523809Y-29104819D02*
X162428571Y-29247676D01*
X162428571Y-29247676D02*
X162333333Y-29342914D01*
X162333333Y-29342914D02*
X162238095Y-29390533D01*
X242991905Y-70494819D02*
X242991905Y-69494819D01*
X242991905Y-69494819D02*
X243230000Y-69494819D01*
X243230000Y-69494819D02*
X243372857Y-69542438D01*
X243372857Y-69542438D02*
X243468095Y-69637676D01*
X243468095Y-69637676D02*
X243515714Y-69732914D01*
X243515714Y-69732914D02*
X243563333Y-69923390D01*
X243563333Y-69923390D02*
X243563333Y-70066247D01*
X243563333Y-70066247D02*
X243515714Y-70256723D01*
X243515714Y-70256723D02*
X243468095Y-70351961D01*
X243468095Y-70351961D02*
X243372857Y-70447200D01*
X243372857Y-70447200D02*
X243230000Y-70494819D01*
X243230000Y-70494819D02*
X242991905Y-70494819D01*
X243896667Y-69494819D02*
X244515714Y-69494819D01*
X244515714Y-69494819D02*
X244182381Y-69875771D01*
X244182381Y-69875771D02*
X244325238Y-69875771D01*
X244325238Y-69875771D02*
X244420476Y-69923390D01*
X244420476Y-69923390D02*
X244468095Y-69971009D01*
X244468095Y-69971009D02*
X244515714Y-70066247D01*
X244515714Y-70066247D02*
X244515714Y-70304342D01*
X244515714Y-70304342D02*
X244468095Y-70399580D01*
X244468095Y-70399580D02*
X244420476Y-70447200D01*
X244420476Y-70447200D02*
X244325238Y-70494819D01*
X244325238Y-70494819D02*
X244039524Y-70494819D01*
X244039524Y-70494819D02*
X243944286Y-70447200D01*
X243944286Y-70447200D02*
X243896667Y-70399580D01*
X236333333Y-96109580D02*
X236285714Y-96157200D01*
X236285714Y-96157200D02*
X236142857Y-96204819D01*
X236142857Y-96204819D02*
X236047619Y-96204819D01*
X236047619Y-96204819D02*
X235904762Y-96157200D01*
X235904762Y-96157200D02*
X235809524Y-96061961D01*
X235809524Y-96061961D02*
X235761905Y-95966723D01*
X235761905Y-95966723D02*
X235714286Y-95776247D01*
X235714286Y-95776247D02*
X235714286Y-95633390D01*
X235714286Y-95633390D02*
X235761905Y-95442914D01*
X235761905Y-95442914D02*
X235809524Y-95347676D01*
X235809524Y-95347676D02*
X235904762Y-95252438D01*
X235904762Y-95252438D02*
X236047619Y-95204819D01*
X236047619Y-95204819D02*
X236142857Y-95204819D01*
X236142857Y-95204819D02*
X236285714Y-95252438D01*
X236285714Y-95252438D02*
X236333333Y-95300057D01*
X236666667Y-95204819D02*
X237285714Y-95204819D01*
X237285714Y-95204819D02*
X236952381Y-95585771D01*
X236952381Y-95585771D02*
X237095238Y-95585771D01*
X237095238Y-95585771D02*
X237190476Y-95633390D01*
X237190476Y-95633390D02*
X237238095Y-95681009D01*
X237238095Y-95681009D02*
X237285714Y-95776247D01*
X237285714Y-95776247D02*
X237285714Y-96014342D01*
X237285714Y-96014342D02*
X237238095Y-96109580D01*
X237238095Y-96109580D02*
X237190476Y-96157200D01*
X237190476Y-96157200D02*
X237095238Y-96204819D01*
X237095238Y-96204819D02*
X236809524Y-96204819D01*
X236809524Y-96204819D02*
X236714286Y-96157200D01*
X236714286Y-96157200D02*
X236666667Y-96109580D01*
X227924819Y-37738094D02*
X226924819Y-37738094D01*
X226924819Y-37738094D02*
X226924819Y-37499999D01*
X226924819Y-37499999D02*
X226972438Y-37357142D01*
X226972438Y-37357142D02*
X227067676Y-37261904D01*
X227067676Y-37261904D02*
X227162914Y-37214285D01*
X227162914Y-37214285D02*
X227353390Y-37166666D01*
X227353390Y-37166666D02*
X227496247Y-37166666D01*
X227496247Y-37166666D02*
X227686723Y-37214285D01*
X227686723Y-37214285D02*
X227781961Y-37261904D01*
X227781961Y-37261904D02*
X227877200Y-37357142D01*
X227877200Y-37357142D02*
X227924819Y-37499999D01*
X227924819Y-37499999D02*
X227924819Y-37738094D01*
X226924819Y-36309523D02*
X226924819Y-36499999D01*
X226924819Y-36499999D02*
X226972438Y-36595237D01*
X226972438Y-36595237D02*
X227020057Y-36642856D01*
X227020057Y-36642856D02*
X227162914Y-36738094D01*
X227162914Y-36738094D02*
X227353390Y-36785713D01*
X227353390Y-36785713D02*
X227734342Y-36785713D01*
X227734342Y-36785713D02*
X227829580Y-36738094D01*
X227829580Y-36738094D02*
X227877200Y-36690475D01*
X227877200Y-36690475D02*
X227924819Y-36595237D01*
X227924819Y-36595237D02*
X227924819Y-36404761D01*
X227924819Y-36404761D02*
X227877200Y-36309523D01*
X227877200Y-36309523D02*
X227829580Y-36261904D01*
X227829580Y-36261904D02*
X227734342Y-36214285D01*
X227734342Y-36214285D02*
X227496247Y-36214285D01*
X227496247Y-36214285D02*
X227401009Y-36261904D01*
X227401009Y-36261904D02*
X227353390Y-36309523D01*
X227353390Y-36309523D02*
X227305771Y-36404761D01*
X227305771Y-36404761D02*
X227305771Y-36595237D01*
X227305771Y-36595237D02*
X227353390Y-36690475D01*
X227353390Y-36690475D02*
X227401009Y-36738094D01*
X227401009Y-36738094D02*
X227496247Y-36785713D01*
X227554819Y-33451904D02*
X226554819Y-33451904D01*
X227554819Y-32880476D02*
X226983390Y-33309047D01*
X226554819Y-32880476D02*
X227126247Y-33451904D01*
X230990057Y-55325238D02*
X230942438Y-55420476D01*
X230942438Y-55420476D02*
X230847200Y-55515714D01*
X230847200Y-55515714D02*
X230704342Y-55658571D01*
X230704342Y-55658571D02*
X230656723Y-55753809D01*
X230656723Y-55753809D02*
X230656723Y-55849047D01*
X230894819Y-55801428D02*
X230847200Y-55896666D01*
X230847200Y-55896666D02*
X230751961Y-55991904D01*
X230751961Y-55991904D02*
X230561485Y-56039523D01*
X230561485Y-56039523D02*
X230228152Y-56039523D01*
X230228152Y-56039523D02*
X230037676Y-55991904D01*
X230037676Y-55991904D02*
X229942438Y-55896666D01*
X229942438Y-55896666D02*
X229894819Y-55801428D01*
X229894819Y-55801428D02*
X229894819Y-55610952D01*
X229894819Y-55610952D02*
X229942438Y-55515714D01*
X229942438Y-55515714D02*
X230037676Y-55420476D01*
X230037676Y-55420476D02*
X230228152Y-55372857D01*
X230228152Y-55372857D02*
X230561485Y-55372857D01*
X230561485Y-55372857D02*
X230751961Y-55420476D01*
X230751961Y-55420476D02*
X230847200Y-55515714D01*
X230847200Y-55515714D02*
X230894819Y-55610952D01*
X230894819Y-55610952D02*
X230894819Y-55801428D01*
X229894819Y-55039523D02*
X229894819Y-54420476D01*
X229894819Y-54420476D02*
X230275771Y-54753809D01*
X230275771Y-54753809D02*
X230275771Y-54610952D01*
X230275771Y-54610952D02*
X230323390Y-54515714D01*
X230323390Y-54515714D02*
X230371009Y-54468095D01*
X230371009Y-54468095D02*
X230466247Y-54420476D01*
X230466247Y-54420476D02*
X230704342Y-54420476D01*
X230704342Y-54420476D02*
X230799580Y-54468095D01*
X230799580Y-54468095D02*
X230847200Y-54515714D01*
X230847200Y-54515714D02*
X230894819Y-54610952D01*
X230894819Y-54610952D02*
X230894819Y-54896666D01*
X230894819Y-54896666D02*
X230847200Y-54991904D01*
X230847200Y-54991904D02*
X230799580Y-55039523D01*
X232833333Y-70584819D02*
X232500000Y-70108628D01*
X232261905Y-70584819D02*
X232261905Y-69584819D01*
X232261905Y-69584819D02*
X232642857Y-69584819D01*
X232642857Y-69584819D02*
X232738095Y-69632438D01*
X232738095Y-69632438D02*
X232785714Y-69680057D01*
X232785714Y-69680057D02*
X232833333Y-69775295D01*
X232833333Y-69775295D02*
X232833333Y-69918152D01*
X232833333Y-69918152D02*
X232785714Y-70013390D01*
X232785714Y-70013390D02*
X232738095Y-70061009D01*
X232738095Y-70061009D02*
X232642857Y-70108628D01*
X232642857Y-70108628D02*
X232261905Y-70108628D01*
X233166667Y-69584819D02*
X233785714Y-69584819D01*
X233785714Y-69584819D02*
X233452381Y-69965771D01*
X233452381Y-69965771D02*
X233595238Y-69965771D01*
X233595238Y-69965771D02*
X233690476Y-70013390D01*
X233690476Y-70013390D02*
X233738095Y-70061009D01*
X233738095Y-70061009D02*
X233785714Y-70156247D01*
X233785714Y-70156247D02*
X233785714Y-70394342D01*
X233785714Y-70394342D02*
X233738095Y-70489580D01*
X233738095Y-70489580D02*
X233690476Y-70537200D01*
X233690476Y-70537200D02*
X233595238Y-70584819D01*
X233595238Y-70584819D02*
X233309524Y-70584819D01*
X233309524Y-70584819D02*
X233214286Y-70537200D01*
X233214286Y-70537200D02*
X233166667Y-70489580D01*
X244738095Y-134104819D02*
X244738095Y-133104819D01*
X244738095Y-133581009D02*
X245309523Y-133581009D01*
X245309523Y-134104819D02*
X245309523Y-133104819D01*
X245690476Y-133104819D02*
X246309523Y-133104819D01*
X246309523Y-133104819D02*
X245976190Y-133485771D01*
X245976190Y-133485771D02*
X246119047Y-133485771D01*
X246119047Y-133485771D02*
X246214285Y-133533390D01*
X246214285Y-133533390D02*
X246261904Y-133581009D01*
X246261904Y-133581009D02*
X246309523Y-133676247D01*
X246309523Y-133676247D02*
X246309523Y-133914342D01*
X246309523Y-133914342D02*
X246261904Y-134009580D01*
X246261904Y-134009580D02*
X246214285Y-134057200D01*
X246214285Y-134057200D02*
X246119047Y-134104819D01*
X246119047Y-134104819D02*
X245833333Y-134104819D01*
X245833333Y-134104819D02*
X245738095Y-134057200D01*
X245738095Y-134057200D02*
X245690476Y-134009580D01*
X217166666Y-84544819D02*
X217166666Y-85259104D01*
X217166666Y-85259104D02*
X217119047Y-85401961D01*
X217119047Y-85401961D02*
X217023809Y-85497200D01*
X217023809Y-85497200D02*
X216880952Y-85544819D01*
X216880952Y-85544819D02*
X216785714Y-85544819D01*
X218119047Y-84544819D02*
X217642857Y-84544819D01*
X217642857Y-84544819D02*
X217595238Y-85021009D01*
X217595238Y-85021009D02*
X217642857Y-84973390D01*
X217642857Y-84973390D02*
X217738095Y-84925771D01*
X217738095Y-84925771D02*
X217976190Y-84925771D01*
X217976190Y-84925771D02*
X218071428Y-84973390D01*
X218071428Y-84973390D02*
X218119047Y-85021009D01*
X218119047Y-85021009D02*
X218166666Y-85116247D01*
X218166666Y-85116247D02*
X218166666Y-85354342D01*
X218166666Y-85354342D02*
X218119047Y-85449580D01*
X218119047Y-85449580D02*
X218071428Y-85497200D01*
X218071428Y-85497200D02*
X217976190Y-85544819D01*
X217976190Y-85544819D02*
X217738095Y-85544819D01*
X217738095Y-85544819D02*
X217642857Y-85497200D01*
X217642857Y-85497200D02*
X217595238Y-85449580D01*
X160738095Y-134104819D02*
X160738095Y-133104819D01*
X160738095Y-133581009D02*
X161309523Y-133581009D01*
X161309523Y-134104819D02*
X161309523Y-133104819D01*
X162214285Y-133438152D02*
X162214285Y-134104819D01*
X161976190Y-133057200D02*
X161738095Y-133771485D01*
X161738095Y-133771485D02*
X162357142Y-133771485D01*
X220646660Y-81664104D02*
X221122850Y-81664104D01*
X220551422Y-81949819D02*
X220884755Y-80949819D01*
X220884755Y-80949819D02*
X221218088Y-81949819D01*
X221503803Y-81045057D02*
X221551422Y-80997438D01*
X221551422Y-80997438D02*
X221646660Y-80949819D01*
X221646660Y-80949819D02*
X221884755Y-80949819D01*
X221884755Y-80949819D02*
X221979993Y-80997438D01*
X221979993Y-80997438D02*
X222027612Y-81045057D01*
X222027612Y-81045057D02*
X222075231Y-81140295D01*
X222075231Y-81140295D02*
X222075231Y-81235533D01*
X222075231Y-81235533D02*
X222027612Y-81378390D01*
X222027612Y-81378390D02*
X221456184Y-81949819D01*
X221456184Y-81949819D02*
X222075231Y-81949819D01*
X230990057Y-61825238D02*
X230942438Y-61920476D01*
X230942438Y-61920476D02*
X230847200Y-62015714D01*
X230847200Y-62015714D02*
X230704342Y-62158571D01*
X230704342Y-62158571D02*
X230656723Y-62253809D01*
X230656723Y-62253809D02*
X230656723Y-62349047D01*
X230894819Y-62301428D02*
X230847200Y-62396666D01*
X230847200Y-62396666D02*
X230751961Y-62491904D01*
X230751961Y-62491904D02*
X230561485Y-62539523D01*
X230561485Y-62539523D02*
X230228152Y-62539523D01*
X230228152Y-62539523D02*
X230037676Y-62491904D01*
X230037676Y-62491904D02*
X229942438Y-62396666D01*
X229942438Y-62396666D02*
X229894819Y-62301428D01*
X229894819Y-62301428D02*
X229894819Y-62110952D01*
X229894819Y-62110952D02*
X229942438Y-62015714D01*
X229942438Y-62015714D02*
X230037676Y-61920476D01*
X230037676Y-61920476D02*
X230228152Y-61872857D01*
X230228152Y-61872857D02*
X230561485Y-61872857D01*
X230561485Y-61872857D02*
X230751961Y-61920476D01*
X230751961Y-61920476D02*
X230847200Y-62015714D01*
X230847200Y-62015714D02*
X230894819Y-62110952D01*
X230894819Y-62110952D02*
X230894819Y-62301428D01*
X230228152Y-61015714D02*
X230894819Y-61015714D01*
X229847200Y-61253809D02*
X230561485Y-61491904D01*
X230561485Y-61491904D02*
X230561485Y-60872857D01*
X232454819Y-106666666D02*
X231978628Y-106999999D01*
X232454819Y-107238094D02*
X231454819Y-107238094D01*
X231454819Y-107238094D02*
X231454819Y-106857142D01*
X231454819Y-106857142D02*
X231502438Y-106761904D01*
X231502438Y-106761904D02*
X231550057Y-106714285D01*
X231550057Y-106714285D02*
X231645295Y-106666666D01*
X231645295Y-106666666D02*
X231788152Y-106666666D01*
X231788152Y-106666666D02*
X231883390Y-106714285D01*
X231883390Y-106714285D02*
X231931009Y-106761904D01*
X231931009Y-106761904D02*
X231978628Y-106857142D01*
X231978628Y-106857142D02*
X231978628Y-107238094D01*
X231788152Y-105809523D02*
X232454819Y-105809523D01*
X231407200Y-106047618D02*
X232121485Y-106285713D01*
X232121485Y-106285713D02*
X232121485Y-105666666D01*
X225454819Y-106666666D02*
X224978628Y-106999999D01*
X225454819Y-107238094D02*
X224454819Y-107238094D01*
X224454819Y-107238094D02*
X224454819Y-106857142D01*
X224454819Y-106857142D02*
X224502438Y-106761904D01*
X224502438Y-106761904D02*
X224550057Y-106714285D01*
X224550057Y-106714285D02*
X224645295Y-106666666D01*
X224645295Y-106666666D02*
X224788152Y-106666666D01*
X224788152Y-106666666D02*
X224883390Y-106714285D01*
X224883390Y-106714285D02*
X224931009Y-106761904D01*
X224931009Y-106761904D02*
X224978628Y-106857142D01*
X224978628Y-106857142D02*
X224978628Y-107238094D01*
X225454819Y-105714285D02*
X225454819Y-106285713D01*
X225454819Y-105999999D02*
X224454819Y-105999999D01*
X224454819Y-105999999D02*
X224597676Y-106095237D01*
X224597676Y-106095237D02*
X224692914Y-106190475D01*
X224692914Y-106190475D02*
X224740533Y-106285713D01*
D12*
%TO.C,U1*%
X225095000Y-90445000D02*
G75*
G02*
X224895000Y-90445000I-100000J0D01*
G01*
X224895000Y-90445000D02*
G75*
G02*
X225095000Y-90445000I100000J0D01*
G01*
D13*
X230050000Y-88000000D02*
X230050000Y-84000000D01*
X224950000Y-88000000D02*
X224950000Y-84000000D01*
D14*
%TO.C,R6*%
X223130000Y-54540000D02*
X223460000Y-54540000D01*
X223130000Y-61080000D02*
X223130000Y-54540000D01*
X223460000Y-61080000D02*
X223130000Y-61080000D01*
X225540000Y-61080000D02*
X225870000Y-61080000D01*
X225870000Y-54540000D02*
X225540000Y-54540000D01*
X225870000Y-61080000D02*
X225870000Y-54540000D01*
%TO.C,R5*%
X243130000Y-52230000D02*
X243130000Y-58770000D01*
X243130000Y-58770000D02*
X243460000Y-58770000D01*
X243460000Y-52230000D02*
X243130000Y-52230000D01*
X245540000Y-52230000D02*
X245870000Y-52230000D01*
X245870000Y-52230000D02*
X245870000Y-58770000D01*
X245870000Y-58770000D02*
X245540000Y-58770000D01*
%TO.C,D4*%
X241170000Y-80955000D02*
X241170000Y-84045000D01*
X241170000Y-80955170D02*
G75*
G02*
X246720000Y-82499952I2560000J-1544830D01*
G01*
X246720000Y-82500048D02*
G75*
G02*
X241170000Y-84044830I-2990000J48D01*
G01*
X246230000Y-82500000D02*
G75*
G02*
X241230000Y-82500000I-2500000J0D01*
G01*
X241230000Y-82500000D02*
G75*
G02*
X246230000Y-82500000I2500000J0D01*
G01*
%TO.C,R8*%
X229730000Y-75630000D02*
X229730000Y-75960000D01*
X229730000Y-78370000D02*
X229730000Y-78040000D01*
X236270000Y-75630000D02*
X229730000Y-75630000D01*
X236270000Y-75960000D02*
X236270000Y-75630000D01*
X236270000Y-78040000D02*
X236270000Y-78370000D01*
X236270000Y-78370000D02*
X229730000Y-78370000D01*
%TO.C,A1*%
X166960000Y-33400000D02*
X166960000Y-31800000D01*
X167280000Y-31730000D02*
X167280000Y-81730000D01*
X167620000Y-31183000D02*
X167620000Y-82277000D01*
X167890000Y-31120000D02*
X170380000Y-31120000D01*
X167890000Y-82340000D02*
X171727939Y-82340000D01*
X170380000Y-31120000D02*
X170380000Y-32033520D01*
X170380000Y-31120000D02*
X171727940Y-31120000D01*
X170380000Y-34426480D02*
X170380000Y-79033520D01*
X170380000Y-81426480D02*
X170380000Y-82340000D01*
X172652061Y-31120000D02*
X173655000Y-31120000D01*
X173655000Y-31120000D02*
X182125000Y-31120000D01*
X173780000Y-29820000D02*
X173780000Y-30640000D01*
X173780000Y-29820000D02*
X182000000Y-29820000D01*
X173780000Y-30640000D02*
X173990000Y-30640000D01*
X173990000Y-30640000D02*
X173990000Y-32036000D01*
X173990000Y-34424000D02*
X173990000Y-35640000D01*
X174290000Y-82340000D02*
X172652061Y-82340000D01*
X181490000Y-82340000D02*
X174290000Y-82340000D01*
X181790000Y-30640000D02*
X181790000Y-32036000D01*
X181790000Y-34424000D02*
X181790000Y-35640000D01*
X181790000Y-35640000D02*
X173990000Y-35640000D01*
X182000000Y-29820000D02*
X182000000Y-30640000D01*
X182000000Y-30640000D02*
X181790000Y-30640000D01*
X182125000Y-31120000D02*
X183127939Y-31120000D01*
X183127939Y-82340000D02*
X181490000Y-82340000D01*
X184052061Y-31120000D02*
X185400000Y-31120000D01*
X184052061Y-82340000D02*
X187890000Y-82340000D01*
X185400000Y-31120000D02*
X185400000Y-32033520D01*
X185400000Y-34426480D02*
X185400000Y-79033520D01*
X185400000Y-81426480D02*
X185400000Y-82340000D01*
X187890000Y-31120000D02*
X185400000Y-31120000D01*
X188160000Y-82277000D02*
X188160000Y-31183000D01*
X188500000Y-31730000D02*
X188500000Y-81730000D01*
X167280000Y-31730000D02*
G75*
G02*
X167890000Y-31120000I610000J0D01*
G01*
X167890000Y-82340000D02*
G75*
G02*
X167280000Y-81730000I-99J609901D01*
G01*
X187890000Y-31120000D02*
G75*
G02*
X188500000Y-31730000I0J-610000D01*
G01*
X188500000Y-81730000D02*
G75*
G02*
X187890000Y-82340000I-610000J0D01*
G01*
%TO.C,F1*%
X230450000Y-36200000D02*
X234550000Y-36200000D01*
X230450000Y-44800000D02*
X230450000Y-36200000D01*
X230450000Y-44800000D02*
X234550000Y-44800000D01*
X234550000Y-44800000D02*
X234550000Y-36200000D01*
%TO.C,R2*%
X230920000Y-48130000D02*
X237460000Y-48130000D01*
X230920000Y-48460000D02*
X230920000Y-48130000D01*
X230920000Y-50540000D02*
X230920000Y-50870000D01*
X230920000Y-50870000D02*
X237460000Y-50870000D01*
X237460000Y-48130000D02*
X237460000Y-48460000D01*
X237460000Y-50870000D02*
X237460000Y-50540000D01*
%TO.C,D5*%
X192030000Y-40780000D02*
X192030000Y-46220000D01*
X192030000Y-46220000D02*
X192160000Y-46220000D01*
X192160000Y-40780000D02*
X192030000Y-40780000D01*
X194840000Y-40780000D02*
X194970000Y-40780000D01*
X194970000Y-40780000D02*
X194970000Y-46220000D01*
X194970000Y-41560000D02*
X192030000Y-41560000D01*
X194970000Y-41680000D02*
X192030000Y-41680000D01*
X194970000Y-41800000D02*
X192030000Y-41800000D01*
X194970000Y-46220000D02*
X194840000Y-46220000D01*
%TO.C,SW1*%
X233600000Y-29700000D02*
X231300000Y-29700000D01*
X239900000Y-29700000D02*
X237700000Y-29700000D01*
X239900000Y-34300000D02*
X231300000Y-34300000D01*
%TO.C,C4*%
X239120000Y-85500000D02*
G75*
G02*
X233880000Y-85500000I-2620000J0D01*
G01*
X233880000Y-85500000D02*
G75*
G02*
X239120000Y-85500000I2620000J0D01*
G01*
%TO.C,C2*%
X223130000Y-44880000D02*
X225870000Y-44880000D01*
X223130000Y-50120000D02*
X223130000Y-44880000D01*
X223130000Y-50120000D02*
X225870000Y-50120000D01*
X225870000Y-50120000D02*
X225870000Y-44880000D01*
%TO.C,J4*%
X198390000Y-134790000D02*
X198390000Y-86470000D01*
X198390000Y-137390000D02*
X198390000Y-136060000D01*
X199720000Y-137390000D02*
X198390000Y-137390000D01*
X201050000Y-86470000D02*
X198390000Y-86470000D01*
X201050000Y-134790000D02*
X198390000Y-134790000D01*
X201050000Y-134790000D02*
X201050000Y-86470000D01*
%TO.C,J3*%
X185450000Y-89130000D02*
X185450000Y-137450000D01*
X185450000Y-89130000D02*
X188110000Y-89130000D01*
X185450000Y-137450000D02*
X188110000Y-137450000D01*
X186780000Y-86530000D02*
X188110000Y-86530000D01*
X188110000Y-86530000D02*
X188110000Y-87860000D01*
X188110000Y-89130000D02*
X188110000Y-137450000D01*
%TO.C,J1*%
X239440000Y-39040000D02*
X239440000Y-46860000D01*
X239440000Y-40640000D02*
X240360000Y-40640000D01*
X239440000Y-46860000D02*
X245560000Y-46860000D01*
X240200000Y-43000000D02*
X240200000Y-44600000D01*
X240200000Y-44600000D02*
X241200000Y-44600000D01*
X240360000Y-39040000D02*
X239440000Y-39040000D01*
X240360000Y-40640000D02*
X240360000Y-39040000D01*
X240640000Y-40640000D02*
X240360000Y-40640000D01*
X240640000Y-40640000D02*
X240640000Y-39425000D01*
X240700000Y-44600000D02*
X240700000Y-46860000D01*
X241200000Y-43000000D02*
X240200000Y-43000000D01*
X241200000Y-44600000D02*
X241200000Y-43000000D01*
X241200000Y-44600000D02*
X241200000Y-46860000D01*
X242000000Y-42500000D02*
X243000000Y-42500000D01*
X242000000Y-46860000D02*
X242000000Y-42500000D01*
X243000000Y-42500000D02*
X243000000Y-46860000D01*
X243800000Y-43000000D02*
X244800000Y-43000000D01*
X243800000Y-44600000D02*
X243800000Y-43000000D01*
X244640000Y-39040000D02*
X244640000Y-40640000D01*
X244640000Y-40640000D02*
X244360000Y-40640000D01*
X244800000Y-43000000D02*
X244800000Y-44600000D01*
X244800000Y-44600000D02*
X243800000Y-44600000D01*
X245560000Y-39040000D02*
X244640000Y-39040000D01*
X245560000Y-40640000D02*
X244640000Y-40640000D01*
X245560000Y-46860000D02*
X245560000Y-39040000D01*
%TO.C,C1*%
X190880000Y-34870000D02*
X190880000Y-32130000D01*
X196120000Y-32130000D02*
X190880000Y-32130000D01*
X196120000Y-34870000D02*
X190880000Y-34870000D01*
X196120000Y-34870000D02*
X196120000Y-32130000D01*
%TO.C,J2*%
X167670000Y-134790000D02*
X167670000Y-86470000D01*
X167670000Y-137390000D02*
X167670000Y-136060000D01*
X169000000Y-137390000D02*
X167670000Y-137390000D01*
X170330000Y-86470000D02*
X167670000Y-86470000D01*
X170330000Y-134790000D02*
X167670000Y-134790000D01*
X170330000Y-134790000D02*
X170330000Y-86470000D01*
%TO.C,R7*%
X229540000Y-66630000D02*
X236080000Y-66630000D01*
X229540000Y-66960000D02*
X229540000Y-66630000D01*
X229540000Y-69040000D02*
X229540000Y-69370000D01*
X229540000Y-69370000D02*
X236080000Y-69370000D01*
X236080000Y-66630000D02*
X236080000Y-66960000D01*
X236080000Y-69370000D02*
X236080000Y-69040000D01*
%TO.C,D2*%
X241170000Y-63955000D02*
X241170000Y-67045000D01*
X241170000Y-63955170D02*
G75*
G02*
X246720000Y-65499952I2560000J-1544830D01*
G01*
X246720000Y-65500048D02*
G75*
G02*
X241170000Y-67044830I-2990000J48D01*
G01*
X246230000Y-65500000D02*
G75*
G02*
X241230000Y-65500000I-2500000J0D01*
G01*
X241230000Y-65500000D02*
G75*
G02*
X246230000Y-65500000I2500000J0D01*
G01*
%TO.C,D3*%
X241170000Y-72455000D02*
X241170000Y-75545000D01*
X241170000Y-72455170D02*
G75*
G02*
X246720000Y-73999952I2560000J-1544830D01*
G01*
X246720000Y-74000048D02*
G75*
G02*
X241170000Y-75544830I-2990000J48D01*
G01*
X246230000Y-74000000D02*
G75*
G02*
X241230000Y-74000000I-2500000J0D01*
G01*
X241230000Y-74000000D02*
G75*
G02*
X246230000Y-74000000I2500000J0D01*
G01*
%TO.C,C3*%
X239120000Y-92000000D02*
G75*
G02*
X233880000Y-92000000I-2620000J0D01*
G01*
X233880000Y-92000000D02*
G75*
G02*
X239120000Y-92000000I2620000J0D01*
G01*
%TO.C,D6*%
X223530000Y-34280000D02*
X223530000Y-39720000D01*
X223530000Y-39720000D02*
X223660000Y-39720000D01*
X223660000Y-34280000D02*
X223530000Y-34280000D01*
X226340000Y-34280000D02*
X226470000Y-34280000D01*
X226470000Y-34280000D02*
X226470000Y-39720000D01*
X226470000Y-35060000D02*
X223530000Y-35060000D01*
X226470000Y-35180000D02*
X223530000Y-35180000D01*
X226470000Y-35300000D02*
X223530000Y-35300000D01*
X226470000Y-39720000D02*
X226340000Y-39720000D01*
%TO.C,Q3*%
X235850000Y-57030000D02*
X235850000Y-53430000D01*
X231400000Y-55230000D02*
G75*
G02*
X235838478Y-53391522I2600000J0D01*
G01*
X235838478Y-57068478D02*
G75*
G02*
X231399999Y-55230000I-1838478J1838478D01*
G01*
%TO.C,R3*%
X229730000Y-71130000D02*
X236270000Y-71130000D01*
X229730000Y-71460000D02*
X229730000Y-71130000D01*
X229730000Y-73540000D02*
X229730000Y-73870000D01*
X229730000Y-73870000D02*
X236270000Y-73870000D01*
X236270000Y-71130000D02*
X236270000Y-71460000D01*
X236270000Y-73870000D02*
X236270000Y-73540000D01*
%TO.C,J5*%
X216170000Y-89130000D02*
X216170000Y-137450000D01*
X216170000Y-89130000D02*
X218830000Y-89130000D01*
X216170000Y-137450000D02*
X218830000Y-137450000D01*
X217500000Y-86530000D02*
X218830000Y-86530000D01*
X218830000Y-86530000D02*
X218830000Y-87860000D01*
X218830000Y-89130000D02*
X218830000Y-137450000D01*
%TO.C,A2*%
X197680000Y-33400000D02*
X197680000Y-31800000D01*
X198000000Y-31730000D02*
X198000000Y-81730000D01*
X198340000Y-31183000D02*
X198340000Y-82277000D01*
X198610000Y-31120000D02*
X201100000Y-31120000D01*
X198610000Y-82340000D02*
X202447939Y-82340000D01*
X201100000Y-31120000D02*
X201100000Y-32033520D01*
X201100000Y-31120000D02*
X202447940Y-31120000D01*
X201100000Y-34426480D02*
X201100000Y-79033520D01*
X201100000Y-81426480D02*
X201100000Y-82340000D01*
X203372061Y-31120000D02*
X204375000Y-31120000D01*
X204375000Y-31120000D02*
X212845000Y-31120000D01*
X204500000Y-29820000D02*
X204500000Y-30640000D01*
X204500000Y-29820000D02*
X212720000Y-29820000D01*
X204500000Y-30640000D02*
X204710000Y-30640000D01*
X204710000Y-30640000D02*
X204710000Y-32036000D01*
X204710000Y-34424000D02*
X204710000Y-35640000D01*
X205010000Y-82340000D02*
X203372061Y-82340000D01*
X212210000Y-82340000D02*
X205010000Y-82340000D01*
X212510000Y-30640000D02*
X212510000Y-32036000D01*
X212510000Y-34424000D02*
X212510000Y-35640000D01*
X212510000Y-35640000D02*
X204710000Y-35640000D01*
X212720000Y-29820000D02*
X212720000Y-30640000D01*
X212720000Y-30640000D02*
X212510000Y-30640000D01*
X212845000Y-31120000D02*
X213847939Y-31120000D01*
X213847939Y-82340000D02*
X212210000Y-82340000D01*
X214772061Y-31120000D02*
X216120000Y-31120000D01*
X214772061Y-82340000D02*
X218610000Y-82340000D01*
X216120000Y-31120000D02*
X216120000Y-32033520D01*
X216120000Y-34426480D02*
X216120000Y-79033520D01*
X216120000Y-81426480D02*
X216120000Y-82340000D01*
X218610000Y-31120000D02*
X216120000Y-31120000D01*
X218880000Y-82277000D02*
X218880000Y-31183000D01*
X219220000Y-31730000D02*
X219220000Y-81730000D01*
X198000000Y-31730000D02*
G75*
G02*
X198610000Y-31120000I610000J0D01*
G01*
X198610000Y-82340000D02*
G75*
G02*
X198000000Y-81730000I-99J609901D01*
G01*
X218610000Y-31120000D02*
G75*
G02*
X219220000Y-31730000I0J-610000D01*
G01*
X219220000Y-81730000D02*
G75*
G02*
X218610000Y-82340000I-610000J0D01*
G01*
%TO.C,Q4*%
X235850000Y-63530000D02*
X235850000Y-59930000D01*
X231400000Y-61730000D02*
G75*
G02*
X235838478Y-59891522I2600000J0D01*
G01*
X235838478Y-63568478D02*
G75*
G02*
X231399999Y-61730000I-1838478J1838478D01*
G01*
%TO.C,R4*%
X230630000Y-96230000D02*
X230960000Y-96230000D01*
X230630000Y-102770000D02*
X230630000Y-96230000D01*
X230960000Y-102770000D02*
X230630000Y-102770000D01*
X233040000Y-102770000D02*
X233370000Y-102770000D01*
X233370000Y-96230000D02*
X233040000Y-96230000D01*
X233370000Y-102770000D02*
X233370000Y-96230000D01*
%TO.C,R1*%
X223130000Y-96230000D02*
X223460000Y-96230000D01*
X223130000Y-102770000D02*
X223130000Y-96230000D01*
X223460000Y-102770000D02*
X223130000Y-102770000D01*
X225540000Y-102770000D02*
X225870000Y-102770000D01*
X225870000Y-96230000D02*
X225540000Y-96230000D01*
X225870000Y-102770000D02*
X225870000Y-96230000D01*
%TD*%
M02*
