M48
; DRILL file {KiCad 9.0.1} date 2025-08-22T15:07:00-0400
; FORMAT={-:-/ absolute / metric / decimal}
; #@! TF.CreationDate,2025-08-22T15:07:00-04:00
; #@! TF.GenerationSoftware,Kicad,Pcbnew,9.0.1
; #@! TF.FileFunction,Plated,1,2,PTH
FMAT,2
METRIC
; #@! TA.AperFunction,Plated,PTH,ViaDrill
T1C0.300
; #@! TA.AperFunction,Plated,PTH,ComponentDrill
T2C0.710
; #@! TA.AperFunction,Plated,PTH,ComponentDrill
T3C0.750
; #@! TA.AperFunction,Plated,PTH,ComponentDrill
T4C0.800
; #@! TA.AperFunction,Plated,PTH,ComponentDrill
T5C0.900
; #@! TA.AperFunction,Plated,PTH,ComponentDrill
T6C1.000
; #@! TA.AperFunction,Plated,PTH,ComponentDrill
T7C1.100
; #@! TA.AperFunction,Plated,PTH,ComponentDrill
T8C1.500
%
G90
G05
T1
X66.397Y-73.207
X94.163Y-70.27
X109.931Y-46.792
X109.998Y-65.74
X110.831Y-41.15
X111.033Y-65.975
X113.356Y-66.373
T2
X124.7Y-61.55
X126.3Y-56.45
T3
X130.05Y-78.0
X130.05Y-80.0
T4
X104.25Y-53.5
X105.5Y-42.25
X105.5Y-44.75
X106.5Y-79.19
X106.5Y-86.81
X106.75Y-53.5
X112.5Y-77.5
X113.0Y-68.0
X114.5Y-77.5
X115.0Y-68.0
X118.19Y-37.0
X118.19Y-44.0
X125.81Y-37.0
X125.81Y-44.0
T5
X132.96Y-36.04
X134.5Y-44.0
X134.5Y-46.54
X134.5Y-59.0
X134.5Y-61.0
X134.5Y-63.0
X135.5Y-36.04
T6
X45.11Y-35.682
X45.11Y-38.222
X45.11Y-40.762
X45.11Y-43.302
X45.11Y-45.843
X45.11Y-48.383
X45.11Y-50.922
X45.11Y-53.462
X45.11Y-56.002
X45.11Y-58.542
X45.11Y-61.082
X45.11Y-63.622
X45.11Y-66.162
X45.11Y-68.703
X45.11Y-71.242
X45.11Y-73.782
X45.11Y-76.322
X45.11Y-78.862
X45.11Y-81.403
X45.11Y-83.942
X62.89Y-35.682
X62.89Y-38.222
X62.89Y-40.762
X62.89Y-43.302
X62.89Y-45.843
X62.89Y-48.383
X62.89Y-50.922
X62.89Y-53.462
X62.89Y-56.002
X62.89Y-58.542
X62.89Y-61.082
X62.89Y-63.622
X62.89Y-66.162
X62.89Y-68.703
X62.89Y-71.242
X62.89Y-73.782
X62.89Y-76.322
X62.89Y-78.862
X62.89Y-81.403
X62.89Y-83.942
X77.22Y-35.98
X77.22Y-38.52
X77.22Y-41.06
X77.22Y-43.6
X77.22Y-46.14
X77.22Y-48.68
X77.22Y-51.22
X77.22Y-53.76
X77.22Y-56.3
X77.22Y-58.84
X77.22Y-61.38
X77.22Y-63.92
X77.22Y-66.46
X77.22Y-69.0
X77.22Y-71.54
X77.22Y-74.08
X77.22Y-76.62
X77.22Y-79.16
X77.22Y-81.7
X77.22Y-84.24
X95.0Y-35.98
X95.0Y-38.52
X95.0Y-41.06
X95.0Y-43.6
X95.0Y-46.14
X95.0Y-48.68
X95.0Y-51.22
X95.0Y-53.76
X95.0Y-56.3
X95.0Y-58.84
X95.0Y-61.38
X95.0Y-63.92
X95.0Y-66.46
X95.0Y-69.0
X95.0Y-71.54
X95.0Y-74.08
X95.0Y-76.62
X95.0Y-79.16
X95.0Y-81.7
X95.0Y-84.24
T7
X102.19Y-35.5
X109.81Y-35.5
T8
X134.5Y-56.9
X134.5Y-65.1
M30
