%TF.GenerationSoftware,KiCad,Pcbnew,9.0.1*%
%TF.CreationDate,2025-08-22T15:06:57-04:00*%
%TF.ProjectId,Design_V1.0,44657369-676e-45f5-9631-2e302e6b6963,rev?*%
%TF.SameCoordinates,Original*%
%TF.FileFunction,Copper,L2,Bot*%
%TF.FilePolarity,Positive*%
%FSLAX46Y46*%
G04 Gerber Fmt 4.6, Leading zero omitted, Abs format (unit mm)*
G04 Created by KiCad (PCBNEW 9.0.1) date 2025-08-22 15:06:57*
%MOMM*%
%LPD*%
G01*
G04 APERTURE LIST*
G04 Aperture macros list*
%AMRoundRect*
0 Rectangle with rounded corners*
0 $1 Rounding radius*
0 $2 $3 $4 $5 $6 $7 $8 $9 X,Y pos of 4 corners*
0 Add a 4 corners polygon primitive as box body*
4,1,4,$2,$3,$4,$5,$6,$7,$8,$9,$2,$3,0*
0 Add four circle primitives for the rounded corners*
1,1,$1+$1,$2,$3*
1,1,$1+$1,$4,$5*
1,1,$1+$1,$6,$7*
1,1,$1+$1,$8,$9*
0 Add four rect primitives between the rounded corners*
20,1,$1+$1,$2,$3,$4,$5,0*
20,1,$1+$1,$4,$5,$6,$7,0*
20,1,$1+$1,$6,$7,$8,$9,0*
20,1,$1+$1,$8,$9,$2,$3,0*%
%AMFreePoly0*
4,1,37,0.603843,0.796157,0.639018,0.796157,0.711114,0.766294,0.766294,0.711114,0.796157,0.639018,0.796157,0.603843,0.800000,0.600000,0.800000,-0.600000,0.796157,-0.603843,0.796157,-0.639018,0.766294,-0.711114,0.711114,-0.766294,0.639018,-0.796157,0.603843,-0.796157,0.600000,-0.800000,0.000000,-0.800000,0.000000,-0.796148,-0.078414,-0.796148,-0.232228,-0.765552,-0.377117,-0.705537,
-0.507515,-0.618408,-0.618408,-0.507515,-0.705537,-0.377117,-0.765552,-0.232228,-0.796148,-0.078414,-0.796148,0.078414,-0.765552,0.232228,-0.705537,0.377117,-0.618408,0.507515,-0.507515,0.618408,-0.377117,0.705537,-0.232228,0.765552,-0.078414,0.796148,0.000000,0.796148,0.000000,0.800000,0.600000,0.800000,0.603843,0.796157,0.603843,0.796157,$1*%
%AMFreePoly1*
4,1,37,0.000000,0.796148,0.078414,0.796148,0.232228,0.765552,0.377117,0.705537,0.507515,0.618408,0.618408,0.507515,0.705537,0.377117,0.765552,0.232228,0.796148,0.078414,0.796148,-0.078414,0.765552,-0.232228,0.705537,-0.377117,0.618408,-0.507515,0.507515,-0.618408,0.377117,-0.705537,0.232228,-0.765552,0.078414,-0.796148,0.000000,-0.796148,0.000000,-0.800000,-0.600000,-0.800000,
-0.603843,-0.796157,-0.639018,-0.796157,-0.711114,-0.766294,-0.766294,-0.711114,-0.796157,-0.639018,-0.796157,-0.603843,-0.800000,-0.600000,-0.800000,0.600000,-0.796157,0.603843,-0.796157,0.639018,-0.766294,0.711114,-0.711114,0.766294,-0.639018,0.796157,-0.603843,0.796157,-0.600000,0.800000,0.000000,0.800000,0.000000,0.796148,0.000000,0.796148,$1*%
G04 Aperture macros list end*
%TA.AperFunction,ComponentPad*%
%ADD10C,1.270000*%
%TD*%
%TA.AperFunction,ComponentPad*%
%ADD11RoundRect,0.250000X0.625000X-0.350000X0.625000X0.350000X-0.625000X0.350000X-0.625000X-0.350000X0*%
%TD*%
%TA.AperFunction,ComponentPad*%
%ADD12O,1.750000X1.200000*%
%TD*%
%TA.AperFunction,ComponentPad*%
%ADD13O,3.500000X2.200000*%
%TD*%
%TA.AperFunction,ComponentPad*%
%ADD14R,2.500000X1.500000*%
%TD*%
%TA.AperFunction,ComponentPad*%
%ADD15O,2.500000X1.500000*%
%TD*%
%TA.AperFunction,ComponentPad*%
%ADD16C,1.600000*%
%TD*%
%TA.AperFunction,ComponentPad*%
%ADD17RoundRect,0.200000X-0.600000X-0.600000X0.600000X-0.600000X0.600000X0.600000X-0.600000X0.600000X0*%
%TD*%
%TA.AperFunction,ComponentPad*%
%ADD18FreePoly0,0.000000*%
%TD*%
%TA.AperFunction,ComponentPad*%
%ADD19FreePoly1,0.000000*%
%TD*%
%TA.AperFunction,ComponentPad*%
%ADD20R,1.800000X1.800000*%
%TD*%
%TA.AperFunction,ComponentPad*%
%ADD21C,1.800000*%
%TD*%
%TA.AperFunction,ComponentPad*%
%ADD22O,1.600000X1.600000*%
%TD*%
%TA.AperFunction,ComponentPad*%
%ADD23R,2.200000X2.200000*%
%TD*%
%TA.AperFunction,ComponentPad*%
%ADD24O,2.200000X2.200000*%
%TD*%
%TA.AperFunction,ViaPad*%
%ADD25C,0.600000*%
%TD*%
%TA.AperFunction,Conductor*%
%ADD26C,0.200000*%
%TD*%
G04 APERTURE END LIST*
D10*
%TO.P,F1,1*%
%TO.N,Net-(D1-A)*%
X126300000Y-56450000D03*
%TO.P,F1,2*%
%TO.N,Net-(SW1-B)*%
X124700000Y-61550000D03*
%TD*%
D11*
%TO.P,J1,1,Pin_1*%
%TO.N,VBAT(+)*%
X130050000Y-80000000D03*
D12*
%TO.P,J1,2,Pin_2*%
%TO.N,GND*%
X130050000Y-78000000D03*
%TD*%
D13*
%TO.P,SW1,*%
%TO.N,*%
X134500000Y-65100000D03*
X134500000Y-56900000D03*
D14*
%TO.P,SW1,1,A*%
%TO.N,VBAT(+)*%
X134500000Y-63000000D03*
D15*
%TO.P,SW1,2,B*%
%TO.N,Net-(SW1-B)*%
X134500000Y-61000000D03*
%TO.P,SW1,3*%
%TO.N,N/C*%
X134500000Y-59000000D03*
%TD*%
D16*
%TO.P,C3,1*%
%TO.N,GND*%
X114500000Y-77500000D03*
%TO.P,C3,2*%
%TO.N,VBUS*%
X112500000Y-77500000D03*
%TD*%
%TO.P,C4,1*%
%TO.N,GND*%
X115000000Y-68000000D03*
%TO.P,C4,2*%
%TO.N,VBAT(+)*%
X113000000Y-68000000D03*
%TD*%
D17*
%TO.P,A1,1,GPIO0*%
%TO.N,unconnected-(A1-GPIO0-Pad1)*%
X77220000Y-35980000D03*
D16*
%TO.P,A1,2,GPIO1*%
%TO.N,unconnected-(A1-GPIO1-Pad2)*%
X77220000Y-38520000D03*
D18*
%TO.P,A1,3,GND*%
%TO.N,GND*%
X77220000Y-41060000D03*
D16*
%TO.P,A1,4,GPIO2*%
%TO.N,unconnected-(A1-GPIO2-Pad4)*%
X77220000Y-43600000D03*
%TO.P,A1,5,GPIO3*%
%TO.N,unconnected-(A1-GPIO3-Pad5)*%
X77220000Y-46140000D03*
%TO.P,A1,6,GPIO4*%
%TO.N,unconnected-(A1-GPIO4-Pad6)*%
X77220000Y-48680000D03*
%TO.P,A1,7,GPIO5*%
%TO.N,unconnected-(A1-GPIO5-Pad7)*%
X77220000Y-51220000D03*
D18*
%TO.P,A1,8,GND*%
%TO.N,GND*%
X77220000Y-53760000D03*
D16*
%TO.P,A1,9,GPIO6*%
%TO.N,unconnected-(A1-GPIO6-Pad9)*%
X77220000Y-56300000D03*
%TO.P,A1,10,GPIO7*%
%TO.N,unconnected-(A1-GPIO7-Pad10)*%
X77220000Y-58840000D03*
%TO.P,A1,11,GPIO8*%
%TO.N,unconnected-(A1-GPIO8-Pad11)*%
X77220000Y-61380000D03*
%TO.P,A1,12,GPIO9*%
%TO.N,unconnected-(A1-GPIO9-Pad12)*%
X77220000Y-63920000D03*
D18*
%TO.P,A1,13,GND*%
%TO.N,GND*%
X77220000Y-66460000D03*
D16*
%TO.P,A1,14,GPIO10*%
%TO.N,unconnected-(A1-GPIO10-Pad14)*%
X77220000Y-69000000D03*
%TO.P,A1,15,GPIO11*%
%TO.N,unconnected-(A1-GPIO11-Pad15)*%
X77220000Y-71540000D03*
%TO.P,A1,16,GPIO12*%
%TO.N,unconnected-(A1-GPIO12-Pad16)*%
X77220000Y-74080000D03*
%TO.P,A1,17,GPIO13*%
%TO.N,unconnected-(A1-GPIO13-Pad17)*%
X77220000Y-76620000D03*
D18*
%TO.P,A1,18,GND*%
%TO.N,GND*%
X77220000Y-79160000D03*
D16*
%TO.P,A1,19,GPIO14*%
%TO.N,unconnected-(A1-GPIO14-Pad19)*%
X77220000Y-81700000D03*
%TO.P,A1,20,GPIO15*%
%TO.N,unconnected-(A1-GPIO15-Pad20)*%
X77220000Y-84240000D03*
%TO.P,A1,21,GPIO16*%
%TO.N,RX-TX*%
X95000000Y-84240000D03*
%TO.P,A1,22,GPIO17*%
%TO.N,CS*%
X95000000Y-81700000D03*
D19*
%TO.P,A1,23,GND*%
%TO.N,GND*%
X95000000Y-79160000D03*
D16*
%TO.P,A1,24,GPIO18*%
%TO.N,SCK*%
X95000000Y-76620000D03*
%TO.P,A1,25,GPIO19*%
%TO.N,TX-RX*%
X95000000Y-74080000D03*
%TO.P,A1,26,GPIO20*%
%TO.N,unconnected-(A1-GPIO20-Pad26)*%
X95000000Y-71540000D03*
%TO.P,A1,27,GPIO21*%
%TO.N,unconnected-(A1-GPIO21-Pad27)*%
X95000000Y-69000000D03*
D19*
%TO.P,A1,28,GND*%
%TO.N,GND*%
X95000000Y-66460000D03*
D16*
%TO.P,A1,29,GPIO22*%
%TO.N,unconnected-(A1-GPIO22-Pad29)*%
X95000000Y-63920000D03*
%TO.P,A1,30,RUN*%
%TO.N,unconnected-(A1-RUN-Pad30)*%
X95000000Y-61380000D03*
%TO.P,A1,31,GPIO26_ADC0*%
%TO.N,unconnected-(A1-GPIO26_ADC0-Pad31)*%
X95000000Y-58840000D03*
%TO.P,A1,32,GPIO27_ADC1*%
%TO.N,unconnected-(A1-GPIO27_ADC1-Pad32)*%
X95000000Y-56300000D03*
D19*
%TO.P,A1,33,AGND*%
%TO.N,unconnected-(A1-AGND-Pad33)*%
X95000000Y-53760000D03*
D16*
%TO.P,A1,34,GPIO28_ADC2*%
%TO.N,unconnected-(A1-GPIO28_ADC2-Pad34)*%
X95000000Y-51220000D03*
%TO.P,A1,35,ADC_VREF*%
%TO.N,unconnected-(A1-ADC_VREF-Pad35)*%
X95000000Y-48680000D03*
%TO.P,A1,36,3V3*%
%TO.N,unconnected-(A1-3V3-Pad36)*%
X95000000Y-46140000D03*
%TO.P,A1,37,3V3_EN*%
%TO.N,unconnected-(A1-3V3_EN-Pad37)*%
X95000000Y-43600000D03*
D19*
%TO.P,A1,38,GND*%
%TO.N,GND*%
X95000000Y-41060000D03*
D16*
%TO.P,A1,39,VSYS*%
%TO.N,VSYS*%
X95000000Y-38520000D03*
%TO.P,A1,40,VBUS*%
%TO.N,VBUS*%
X95000000Y-35980000D03*
%TD*%
D20*
%TO.P,D2,1,K*%
%TO.N,GND*%
X135500000Y-36040000D03*
D21*
%TO.P,D2,2,A*%
%TO.N,Net-(D2-A)*%
X132960000Y-36040000D03*
%TD*%
D16*
%TO.P,R1,1*%
%TO.N,GND*%
X106500000Y-86810000D03*
D22*
%TO.P,R1,2*%
%TO.N,Net-(U1-PROG)*%
X106500000Y-79190000D03*
%TD*%
D17*
%TO.P,A2,1,GPIO0*%
%TO.N,unconnected-(A2-GPIO0-Pad1)*%
X45110000Y-35682500D03*
D16*
%TO.P,A2,2,GPIO1*%
%TO.N,unconnected-(A2-GPIO1-Pad2)*%
X45110000Y-38222500D03*
D18*
%TO.P,A2,3,GND*%
%TO.N,GND*%
X45110000Y-40762500D03*
D16*
%TO.P,A2,4,GPIO2*%
%TO.N,unconnected-(A2-GPIO2-Pad4)*%
X45110000Y-43302500D03*
%TO.P,A2,5,GPIO3*%
%TO.N,unconnected-(A2-GPIO3-Pad5)*%
X45110000Y-45842500D03*
%TO.P,A2,6,GPIO4*%
%TO.N,unconnected-(A2-GPIO4-Pad6)*%
X45110000Y-48382500D03*
%TO.P,A2,7,GPIO5*%
%TO.N,unconnected-(A2-GPIO5-Pad7)*%
X45110000Y-50922500D03*
D18*
%TO.P,A2,8,GND*%
%TO.N,GND*%
X45110000Y-53462500D03*
D16*
%TO.P,A2,9,GPIO6*%
%TO.N,unconnected-(A2-GPIO6-Pad9)*%
X45110000Y-56002500D03*
%TO.P,A2,10,GPIO7*%
%TO.N,unconnected-(A2-GPIO7-Pad10)*%
X45110000Y-58542500D03*
%TO.P,A2,11,GPIO8*%
%TO.N,unconnected-(A2-GPIO8-Pad11)*%
X45110000Y-61082500D03*
%TO.P,A2,12,GPIO9*%
%TO.N,unconnected-(A2-GPIO9-Pad12)*%
X45110000Y-63622500D03*
D18*
%TO.P,A2,13,GND*%
%TO.N,GND*%
X45110000Y-66162500D03*
D16*
%TO.P,A2,14,GPIO10*%
%TO.N,unconnected-(A2-GPIO10-Pad14)*%
X45110000Y-68702500D03*
%TO.P,A2,15,GPIO11*%
%TO.N,unconnected-(A2-GPIO11-Pad15)*%
X45110000Y-71242500D03*
%TO.P,A2,16,GPIO12*%
%TO.N,unconnected-(A2-GPIO12-Pad16)*%
X45110000Y-73782500D03*
%TO.P,A2,17,GPIO13*%
%TO.N,unconnected-(A2-GPIO13-Pad17)*%
X45110000Y-76322500D03*
D18*
%TO.P,A2,18,GND*%
%TO.N,GND*%
X45110000Y-78862500D03*
D16*
%TO.P,A2,19,GPIO14*%
%TO.N,unconnected-(A2-GPIO14-Pad19)*%
X45110000Y-81402500D03*
%TO.P,A2,20,GPIO15*%
%TO.N,unconnected-(A2-GPIO15-Pad20)*%
X45110000Y-83942500D03*
%TO.P,A2,21,GPIO16*%
%TO.N,TX-RX*%
X62890000Y-83942500D03*
%TO.P,A2,22,GPIO17*%
%TO.N,CS*%
X62890000Y-81402500D03*
D19*
%TO.P,A2,23,GND*%
%TO.N,GND*%
X62890000Y-78862500D03*
D16*
%TO.P,A2,24,GPIO18*%
%TO.N,SCK*%
X62890000Y-76322500D03*
%TO.P,A2,25,GPIO19*%
%TO.N,RX-TX*%
X62890000Y-73782500D03*
%TO.P,A2,26,GPIO20*%
%TO.N,unconnected-(A2-GPIO20-Pad26)*%
X62890000Y-71242500D03*
%TO.P,A2,27,GPIO21*%
%TO.N,unconnected-(A2-GPIO21-Pad27)*%
X62890000Y-68702500D03*
D19*
%TO.P,A2,28,GND*%
%TO.N,GND*%
X62890000Y-66162500D03*
D16*
%TO.P,A2,29,GPIO22*%
%TO.N,unconnected-(A2-GPIO22-Pad29)*%
X62890000Y-63622500D03*
%TO.P,A2,30,RUN*%
%TO.N,unconnected-(A2-RUN-Pad30)*%
X62890000Y-61082500D03*
%TO.P,A2,31,GPIO26_ADC0*%
%TO.N,unconnected-(A2-GPIO26_ADC0-Pad31)*%
X62890000Y-58542500D03*
%TO.P,A2,32,GPIO27_ADC1*%
%TO.N,unconnected-(A2-GPIO27_ADC1-Pad32)*%
X62890000Y-56002500D03*
D19*
%TO.P,A2,33,AGND*%
%TO.N,unconnected-(A2-AGND-Pad33)*%
X62890000Y-53462500D03*
D16*
%TO.P,A2,34,GPIO28_ADC2*%
%TO.N,unconnected-(A2-GPIO28_ADC2-Pad34)*%
X62890000Y-50922500D03*
%TO.P,A2,35,ADC_VREF*%
%TO.N,unconnected-(A2-ADC_VREF-Pad35)*%
X62890000Y-48382500D03*
%TO.P,A2,36,3V3*%
%TO.N,unconnected-(A2-3V3-Pad36)*%
X62890000Y-45842500D03*
%TO.P,A2,37,3V3_EN*%
%TO.N,unconnected-(A2-3V3_EN-Pad37)*%
X62890000Y-43302500D03*
D19*
%TO.P,A2,38,GND*%
%TO.N,GND*%
X62890000Y-40762500D03*
D16*
%TO.P,A2,39,VSYS*%
%TO.N,VSYS*%
X62890000Y-38222500D03*
%TO.P,A2,40,VBUS*%
%TO.N,unconnected-(A2-VBUS-Pad40)*%
X62890000Y-35682500D03*
%TD*%
%TO.P,C2,1*%
%TO.N,VSYS*%
X104250000Y-53500000D03*
%TO.P,C2,2*%
%TO.N,GND*%
X106750000Y-53500000D03*
%TD*%
%TO.P,R2,1*%
%TO.N,STDBY*%
X118190000Y-37000000D03*
D22*
%TO.P,R2,2*%
%TO.N,Net-(D2-A)*%
X125810000Y-37000000D03*
%TD*%
D16*
%TO.P,C1,1*%
%TO.N,VSYS*%
X105500000Y-42250000D03*
%TO.P,C1,2*%
%TO.N,GND*%
X105500000Y-44750000D03*
%TD*%
D20*
%TO.P,D3,1,K*%
%TO.N,Net-(D3-K)*%
X134500000Y-46540000D03*
D21*
%TO.P,D3,2,A*%
%TO.N,VBUS*%
X134500000Y-44000000D03*
%TD*%
D16*
%TO.P,R3,1*%
%TO.N,CHRG*%
X118190000Y-44000000D03*
D22*
%TO.P,R3,2*%
%TO.N,Net-(D3-K)*%
X125810000Y-44000000D03*
%TD*%
D23*
%TO.P,D1,1,K*%
%TO.N,VSYS*%
X102190000Y-35500000D03*
D24*
%TO.P,D1,2,A*%
%TO.N,Net-(D1-A)*%
X109810000Y-35500000D03*
%TD*%
D25*
%TO.N,STDBY*%
X113355600Y-66372500D03*
%TO.N,CHRG*%
X109930900Y-46792500D03*
X109997600Y-65739800D03*
%TO.N,VBUS*%
X111033000Y-65975100D03*
X110831300Y-41149800D03*
%TO.N,RX-TX*%
X94162600Y-70270000D03*
%TO.N,TX-RX*%
X66397500Y-73207500D03*
%TD*%
D26*
%TO.N,VBAT(+)*%
X131684700Y-64263600D02*
X132948300Y-63000000D01*
X130050000Y-80000000D02*
X131684700Y-78365300D01*
X131684700Y-78365300D02*
X131684700Y-64263600D01*
X134500000Y-63000000D02*
X132948300Y-63000000D01*
%TO.N,VSYS*%
X102190000Y-38940000D02*
X105500000Y-42250000D01*
X104250000Y-43500000D02*
X105500000Y-42250000D01*
X102190000Y-35500000D02*
X102190000Y-38940000D01*
X104250000Y-53500000D02*
X104250000Y-43500000D01*
%TO.N,GND*%
X45110000Y-78862500D02*
X44008300Y-77760800D01*
X45110000Y-40762500D02*
X44008300Y-41864200D01*
X114500000Y-77500000D02*
X115000000Y-77000000D01*
X44008300Y-41864200D02*
X44008300Y-52360800D01*
X44008300Y-77760800D02*
X44008300Y-67264200D01*
X45110000Y-53462500D02*
X44007600Y-54564900D01*
X106500000Y-86810000D02*
X114500000Y-78810000D01*
X95000000Y-66460000D02*
X93560900Y-67899100D01*
X105500000Y-44750000D02*
X106750000Y-46000000D01*
X93560900Y-67899100D02*
X93560900Y-77720900D01*
X44008300Y-52360800D02*
X45110000Y-53462500D01*
X115000000Y-77000000D02*
X115000000Y-68000000D01*
X76079900Y-65319900D02*
X77220000Y-66460000D01*
X106750000Y-46000000D02*
X106750000Y-53500000D01*
X135500000Y-37241700D02*
X130050000Y-42691700D01*
X77220000Y-53760000D02*
X76079900Y-54900100D01*
X77220000Y-79160000D02*
X76118300Y-78058300D01*
X130050000Y-42691700D02*
X130050000Y-78000000D01*
X114500000Y-78810000D02*
X114500000Y-77500000D01*
X93560900Y-77720900D02*
X95000000Y-79160000D01*
X44007600Y-54564900D02*
X44007600Y-65060100D01*
X44008300Y-67264200D02*
X45110000Y-66162500D01*
X76079900Y-54900100D02*
X76079900Y-65319900D01*
X76118300Y-67561700D02*
X77220000Y-66460000D01*
X44007600Y-65060100D02*
X45110000Y-66162500D01*
X76118300Y-78058300D02*
X76118300Y-67561700D01*
X135500000Y-36040000D02*
X135500000Y-37241700D01*
%TO.N,STDBY*%
X118190000Y-37000000D02*
X113355600Y-41834400D01*
X113355600Y-41834400D02*
X113355600Y-66372500D01*
%TO.N,CHRG*%
X109997600Y-46859200D02*
X109930900Y-46792500D01*
X109997600Y-65739800D02*
X109997600Y-46859200D01*
%TO.N,VBUS*%
X111033000Y-41351500D02*
X110831300Y-41149800D01*
X111033000Y-76033000D02*
X112500000Y-77500000D01*
X111033000Y-65975100D02*
X111033000Y-41351500D01*
X111033000Y-65975100D02*
X111033000Y-76033000D01*
%TO.N,RX-TX*%
X95327400Y-70270000D02*
X94162600Y-70270000D01*
X96101700Y-71044300D02*
X95327400Y-70270000D01*
X96101700Y-83138300D02*
X96101700Y-71044300D01*
X95000000Y-84240000D02*
X96101700Y-83138300D01*
%TO.N,TX-RX*%
X62890000Y-83942500D02*
X66397500Y-80435000D01*
X66397500Y-80435000D02*
X66397500Y-73207500D01*
%TO.N,Net-(D1-A)*%
X122000000Y-39177300D02*
X122000000Y-52150000D01*
X118322700Y-35500000D02*
X122000000Y-39177300D01*
X109810000Y-35500000D02*
X118322700Y-35500000D01*
X122000000Y-52150000D02*
X126300000Y-56450000D01*
%TD*%
M02*
