%TF.GenerationSoftware,KiCad,Pcbnew,9.0.0*%
%TF.CreationDate,2025-09-26T14:07:42-04:00*%
%TF.ProjectId,Design V2.0,44657369-676e-4205-9632-2e302e6b6963,rev?*%
%TF.SameCoordinates,Original*%
%TF.FileFunction,Plated,1,2,PTH,Drill*%
%TF.FilePolarity,Positive*%
%FSLAX46Y46*%
G04 Gerber Fmt 4.6, Leading zero omitted, Abs format (unit mm)*
G04 Created by KiCad (PCBNEW 9.0.0) date 2025-09-26 14:07:42*
%MOMM*%
%LPD*%
G01*
G04 APERTURE LIST*
%TA.AperFunction,ViaDrill*%
%ADD10C,0.300000*%
%TD*%
%TA.AperFunction,ComponentDrill*%
%ADD11C,0.710000*%
%TD*%
%TA.AperFunction,ComponentDrill*%
%ADD12C,0.750000*%
%TD*%
%TA.AperFunction,ComponentDrill*%
%ADD13C,0.800000*%
%TD*%
%TA.AperFunction,ComponentDrill*%
%ADD14C,0.900000*%
%TD*%
%TA.AperFunction,ComponentDrill*%
%ADD15C,1.000000*%
%TD*%
%TA.AperFunction,ComponentDrill*%
%ADD16C,1.100000*%
%TD*%
%TA.AperFunction,ComponentDrill*%
%ADD17C,1.500000*%
%TD*%
G04 APERTURE END LIST*
D10*
X161796600Y-108924500D03*
X163485400Y-73783300D03*
X163558500Y-60025500D03*
X163722400Y-67928300D03*
X163867400Y-59142200D03*
X164463800Y-56421200D03*
X165467300Y-88267800D03*
X166411300Y-94258400D03*
X166837600Y-99602100D03*
X171215500Y-79306700D03*
X171417300Y-106536500D03*
X171487100Y-126494300D03*
X173946300Y-82361800D03*
X183845900Y-131610700D03*
X184731100Y-122162500D03*
X184841800Y-82569800D03*
X186256000Y-82365300D03*
X188486600Y-43590500D03*
X190515900Y-67928300D03*
X191083500Y-38969300D03*
X191286000Y-47518500D03*
X191501400Y-99212300D03*
X191727000Y-94393900D03*
X191749300Y-97211300D03*
X191749300Y-100139600D03*
X193373000Y-97211300D03*
X193655200Y-90553800D03*
X194078800Y-70592300D03*
X194078800Y-73711700D03*
X194752900Y-94511400D03*
X194834300Y-103814800D03*
X195139100Y-46371800D03*
X196260700Y-108325800D03*
X197014600Y-109698400D03*
X197842100Y-102277000D03*
X198299600Y-124692300D03*
X210500000Y-63000000D03*
X210500000Y-73000000D03*
X218883400Y-94359700D03*
X219275600Y-104653000D03*
X219476400Y-106194700D03*
X219730900Y-108066100D03*
X221291600Y-62383500D03*
X221694800Y-100138300D03*
X222413700Y-97539500D03*
X222946100Y-87259900D03*
X223000000Y-93000000D03*
X225544150Y-79544150D03*
X226000000Y-107000000D03*
X226865000Y-74018200D03*
X227064700Y-58672900D03*
X227500000Y-93000000D03*
X228000000Y-80000000D03*
X231499500Y-83000500D03*
X235330100Y-75926600D03*
D11*
%TO.C,F1*%
X231700000Y-43050000D03*
X233300000Y-37950000D03*
D12*
%TO.C,Q3*%
X234000000Y-53960000D03*
X234000000Y-55230000D03*
X234000000Y-56500000D03*
%TO.C,Q4*%
X234000000Y-60460000D03*
X234000000Y-61730000D03*
X234000000Y-63000000D03*
%TO.C,J1*%
X241500000Y-40500000D03*
X243500000Y-40500000D03*
D13*
%TO.C,C1*%
X192250000Y-33500000D03*
X194750000Y-33500000D03*
%TO.C,C2*%
X224500000Y-46250000D03*
X224500000Y-48750000D03*
%TO.C,R6*%
X224500000Y-54000000D03*
X224500000Y-61620000D03*
%TO.C,R1*%
X224500000Y-95690000D03*
X224500000Y-103310000D03*
%TO.C,R7*%
X229000000Y-68000000D03*
%TO.C,R3*%
X229190000Y-72500000D03*
%TO.C,R8*%
X229190000Y-77000000D03*
%TO.C,R2*%
X230380000Y-49500000D03*
%TO.C,R4*%
X232000000Y-95690000D03*
X232000000Y-103310000D03*
%TO.C,C3*%
X235500000Y-92000000D03*
%TO.C,C4*%
X236500000Y-84500000D03*
X236500000Y-86500000D03*
%TO.C,R7*%
X236620000Y-68000000D03*
%TO.C,R3*%
X236810000Y-72500000D03*
%TO.C,R8*%
X236810000Y-77000000D03*
%TO.C,C3*%
X237500000Y-92000000D03*
%TO.C,R2*%
X238000000Y-49500000D03*
%TO.C,R5*%
X244500000Y-51690000D03*
X244500000Y-59310000D03*
D14*
%TO.C,SW1*%
X233600000Y-32000000D03*
X235600000Y-32000000D03*
X237600000Y-32000000D03*
%TO.C,D2*%
X242460000Y-65500000D03*
%TO.C,D3*%
X242460000Y-74000000D03*
%TO.C,D4*%
X242460000Y-82500000D03*
%TO.C,D2*%
X245000000Y-65500000D03*
%TO.C,D3*%
X245000000Y-74000000D03*
%TO.C,D4*%
X245000000Y-82500000D03*
D15*
%TO.C,A1*%
X169000000Y-32600000D03*
X169000000Y-35140000D03*
X169000000Y-37680000D03*
X169000000Y-40220000D03*
X169000000Y-42760000D03*
X169000000Y-45300000D03*
X169000000Y-47840000D03*
X169000000Y-50380000D03*
X169000000Y-52920000D03*
X169000000Y-55460000D03*
X169000000Y-58000000D03*
X169000000Y-60540000D03*
X169000000Y-63080000D03*
X169000000Y-65620000D03*
X169000000Y-68160000D03*
X169000000Y-70700000D03*
X169000000Y-73240000D03*
X169000000Y-75780000D03*
X169000000Y-78320000D03*
X169000000Y-80860000D03*
%TO.C,J2*%
X169000000Y-87800000D03*
X169000000Y-90340000D03*
X169000000Y-92880000D03*
X169000000Y-95420000D03*
X169000000Y-97960000D03*
X169000000Y-100500000D03*
X169000000Y-103040000D03*
X169000000Y-105580000D03*
X169000000Y-108120000D03*
X169000000Y-110660000D03*
X169000000Y-113200000D03*
X169000000Y-115740000D03*
X169000000Y-118280000D03*
X169000000Y-120820000D03*
X169000000Y-123360000D03*
X169000000Y-125900000D03*
X169000000Y-128440000D03*
X169000000Y-130980000D03*
X169000000Y-133520000D03*
X169000000Y-136060000D03*
%TO.C,A1*%
X186780000Y-32600000D03*
X186780000Y-35140000D03*
X186780000Y-37680000D03*
X186780000Y-40220000D03*
X186780000Y-42760000D03*
X186780000Y-45300000D03*
X186780000Y-47840000D03*
X186780000Y-50380000D03*
X186780000Y-52920000D03*
X186780000Y-55460000D03*
X186780000Y-58000000D03*
X186780000Y-60540000D03*
X186780000Y-63080000D03*
X186780000Y-65620000D03*
X186780000Y-68160000D03*
X186780000Y-70700000D03*
X186780000Y-73240000D03*
X186780000Y-75780000D03*
X186780000Y-78320000D03*
X186780000Y-80860000D03*
%TO.C,J3*%
X186780000Y-87860000D03*
X186780000Y-90400000D03*
X186780000Y-92940000D03*
X186780000Y-95480000D03*
X186780000Y-98020000D03*
X186780000Y-100560000D03*
X186780000Y-103100000D03*
X186780000Y-105640000D03*
X186780000Y-108180000D03*
X186780000Y-110720000D03*
X186780000Y-113260000D03*
X186780000Y-115800000D03*
X186780000Y-118340000D03*
X186780000Y-120880000D03*
X186780000Y-123420000D03*
X186780000Y-125960000D03*
X186780000Y-128500000D03*
X186780000Y-131040000D03*
X186780000Y-133580000D03*
X186780000Y-136120000D03*
%TO.C,A2*%
X199720000Y-32600000D03*
X199720000Y-35140000D03*
X199720000Y-37680000D03*
X199720000Y-40220000D03*
X199720000Y-42760000D03*
X199720000Y-45300000D03*
X199720000Y-47840000D03*
X199720000Y-50380000D03*
X199720000Y-52920000D03*
X199720000Y-55460000D03*
X199720000Y-58000000D03*
X199720000Y-60540000D03*
X199720000Y-63080000D03*
X199720000Y-65620000D03*
X199720000Y-68160000D03*
X199720000Y-70700000D03*
X199720000Y-73240000D03*
X199720000Y-75780000D03*
X199720000Y-78320000D03*
X199720000Y-80860000D03*
%TO.C,J4*%
X199720000Y-87800000D03*
X199720000Y-90340000D03*
X199720000Y-92880000D03*
X199720000Y-95420000D03*
X199720000Y-97960000D03*
X199720000Y-100500000D03*
X199720000Y-103040000D03*
X199720000Y-105580000D03*
X199720000Y-108120000D03*
X199720000Y-110660000D03*
X199720000Y-113200000D03*
X199720000Y-115740000D03*
X199720000Y-118280000D03*
X199720000Y-120820000D03*
X199720000Y-123360000D03*
X199720000Y-125900000D03*
X199720000Y-128440000D03*
X199720000Y-130980000D03*
X199720000Y-133520000D03*
X199720000Y-136060000D03*
%TO.C,A2*%
X217500000Y-32600000D03*
X217500000Y-35140000D03*
X217500000Y-37680000D03*
X217500000Y-40220000D03*
X217500000Y-42760000D03*
X217500000Y-45300000D03*
X217500000Y-47840000D03*
X217500000Y-50380000D03*
X217500000Y-52920000D03*
X217500000Y-55460000D03*
X217500000Y-58000000D03*
X217500000Y-60540000D03*
X217500000Y-63080000D03*
X217500000Y-65620000D03*
X217500000Y-68160000D03*
X217500000Y-70700000D03*
X217500000Y-73240000D03*
X217500000Y-75780000D03*
X217500000Y-78320000D03*
X217500000Y-80860000D03*
%TO.C,J5*%
X217500000Y-87860000D03*
X217500000Y-90400000D03*
X217500000Y-92940000D03*
X217500000Y-95480000D03*
X217500000Y-98020000D03*
X217500000Y-100560000D03*
X217500000Y-103100000D03*
X217500000Y-105640000D03*
X217500000Y-108180000D03*
X217500000Y-110720000D03*
X217500000Y-113260000D03*
X217500000Y-115800000D03*
X217500000Y-118340000D03*
X217500000Y-120880000D03*
X217500000Y-123420000D03*
X217500000Y-125960000D03*
X217500000Y-128500000D03*
X217500000Y-131040000D03*
X217500000Y-133580000D03*
X217500000Y-136120000D03*
D16*
%TO.C,D5*%
X193500000Y-39690000D03*
X193500000Y-47310000D03*
%TO.C,D6*%
X225000000Y-33190000D03*
X225000000Y-40810000D03*
D17*
%TO.C,SW1*%
X231500000Y-32000000D03*
X239700000Y-32000000D03*
M02*
