%TF.GenerationSoftware,KiCad,Pcbnew,9.0.0*%
%TF.CreationDate,2025-09-26T14:07:43-04:00*%
%TF.ProjectId,Design V2.0,44657369-676e-4205-9632-2e302e6b6963,rev?*%
%TF.SameCoordinates,Original*%
%TF.FileFunction,Copper,L1,Top*%
%TF.FilePolarity,Positive*%
%FSLAX46Y46*%
G04 Gerber Fmt 4.6, Leading zero omitted, Abs format (unit mm)*
G04 Created by KiCad (PCBNEW 9.0.0) date 2025-09-26 14:07:43*
%MOMM*%
%LPD*%
G01*
G04 APERTURE LIST*
G04 Aperture macros list*
%AMRoundRect*
0 Rectangle with rounded corners*
0 $1 Rounding radius*
0 $2 $3 $4 $5 $6 $7 $8 $9 X,Y pos of 4 corners*
0 Add a 4 corners polygon primitive as box body*
4,1,4,$2,$3,$4,$5,$6,$7,$8,$9,$2,$3,0*
0 Add four circle primitives for the rounded corners*
1,1,$1+$1,$2,$3*
1,1,$1+$1,$4,$5*
1,1,$1+$1,$6,$7*
1,1,$1+$1,$8,$9*
0 Add four rect primitives between the rounded corners*
20,1,$1+$1,$2,$3,$4,$5,0*
20,1,$1+$1,$4,$5,$6,$7,0*
20,1,$1+$1,$6,$7,$8,$9,0*
20,1,$1+$1,$8,$9,$2,$3,0*%
%AMFreePoly0*
4,1,37,0.603843,0.796157,0.639018,0.796157,0.711114,0.766294,0.766294,0.711114,0.796157,0.639018,0.796157,0.603843,0.800000,0.600000,0.800000,-0.600000,0.796157,-0.603843,0.796157,-0.639018,0.766294,-0.711114,0.711114,-0.766294,0.639018,-0.796157,0.603843,-0.796157,0.600000,-0.800000,0.000000,-0.800000,0.000000,-0.796148,-0.078414,-0.796148,-0.232228,-0.765552,-0.377117,-0.705537,
-0.507515,-0.618408,-0.618408,-0.507515,-0.705537,-0.377117,-0.765552,-0.232228,-0.796148,-0.078414,-0.796148,0.078414,-0.765552,0.232228,-0.705537,0.377117,-0.618408,0.507515,-0.507515,0.618408,-0.377117,0.705537,-0.232228,0.765552,-0.078414,0.796148,0.000000,0.796148,0.000000,0.800000,0.600000,0.800000,0.603843,0.796157,0.603843,0.796157,$1*%
%AMFreePoly1*
4,1,37,0.000000,0.796148,0.078414,0.796148,0.232228,0.765552,0.377117,0.705537,0.507515,0.618408,0.618408,0.507515,0.705537,0.377117,0.765552,0.232228,0.796148,0.078414,0.796148,-0.078414,0.765552,-0.232228,0.705537,-0.377117,0.618408,-0.507515,0.507515,-0.618408,0.377117,-0.705537,0.232228,-0.765552,0.078414,-0.796148,0.000000,-0.796148,0.000000,-0.800000,-0.600000,-0.800000,
-0.603843,-0.796157,-0.639018,-0.796157,-0.711114,-0.766294,-0.766294,-0.711114,-0.796157,-0.639018,-0.796157,-0.603843,-0.800000,-0.600000,-0.800000,0.600000,-0.796157,0.603843,-0.796157,0.639018,-0.766294,0.711114,-0.711114,0.766294,-0.639018,0.796157,-0.603843,0.796157,-0.600000,0.800000,0.000000,0.800000,0.000000,0.796148,0.000000,0.796148,$1*%
G04 Aperture macros list end*
%TA.AperFunction,Conductor*%
%ADD10C,0.200000*%
%TD*%
%TA.AperFunction,ComponentPad*%
%ADD11C,1.600000*%
%TD*%
%TA.AperFunction,ComponentPad*%
%ADD12O,1.600000X1.600000*%
%TD*%
%TA.AperFunction,ComponentPad*%
%ADD13R,1.800000X1.800000*%
%TD*%
%TA.AperFunction,ComponentPad*%
%ADD14C,1.800000*%
%TD*%
%TA.AperFunction,ComponentPad*%
%ADD15RoundRect,0.200000X-0.600000X-0.600000X0.600000X-0.600000X0.600000X0.600000X-0.600000X0.600000X0*%
%TD*%
%TA.AperFunction,ComponentPad*%
%ADD16FreePoly0,0.000000*%
%TD*%
%TA.AperFunction,ComponentPad*%
%ADD17FreePoly1,0.000000*%
%TD*%
%TA.AperFunction,ComponentPad*%
%ADD18C,1.270000*%
%TD*%
%TA.AperFunction,ComponentPad*%
%ADD19R,2.200000X2.200000*%
%TD*%
%TA.AperFunction,ComponentPad*%
%ADD20O,2.200000X2.200000*%
%TD*%
%TA.AperFunction,ComponentPad*%
%ADD21O,2.200000X3.500000*%
%TD*%
%TA.AperFunction,ComponentPad*%
%ADD22R,1.500000X2.500000*%
%TD*%
%TA.AperFunction,ComponentPad*%
%ADD23O,1.500000X2.500000*%
%TD*%
%TA.AperFunction,ComponentPad*%
%ADD24R,1.700000X1.700000*%
%TD*%
%TA.AperFunction,ComponentPad*%
%ADD25O,1.700000X1.700000*%
%TD*%
%TA.AperFunction,ComponentPad*%
%ADD26RoundRect,0.250000X-0.350000X-0.625000X0.350000X-0.625000X0.350000X0.625000X-0.350000X0.625000X0*%
%TD*%
%TA.AperFunction,ComponentPad*%
%ADD27O,1.200000X1.750000*%
%TD*%
%TA.AperFunction,ComponentPad*%
%ADD28R,1.500000X1.050000*%
%TD*%
%TA.AperFunction,ComponentPad*%
%ADD29O,1.500000X1.050000*%
%TD*%
%TA.AperFunction,SMDPad,CuDef*%
%ADD30RoundRect,0.075000X0.225000X-0.910000X0.225000X0.910000X-0.225000X0.910000X-0.225000X-0.910000X0*%
%TD*%
%TA.AperFunction,SMDPad,CuDef*%
%ADD31R,3.302000X2.413000*%
%TD*%
%TA.AperFunction,ViaPad*%
%ADD32C,0.600000*%
%TD*%
G04 APERTURE END LIST*
D10*
%TO.N,VSYS*%
X225000000Y-42000000D02*
X231700000Y-43050000D01*
%TO.N,A-VBUS*%
X225500000Y-83000000D02*
X225500000Y-79500000D01*
%TO.N,~{STDBY}*%
X228000000Y-80000000D02*
X228000000Y-82500000D01*
%TD*%
D11*
%TO.P,R6,1*%
%TO.N,GND*%
X224500000Y-61620000D03*
D12*
%TO.P,R6,2*%
%TO.N,Net-(Q4-B)*%
X224500000Y-54000000D03*
%TD*%
D11*
%TO.P,R5,1*%
%TO.N,A_3V3(OUT)*%
X244500000Y-51690000D03*
D12*
%TO.P,R5,2*%
%TO.N,Net-(Q4-B)*%
X244500000Y-59310000D03*
%TD*%
D13*
%TO.P,D4,1,K*%
%TO.N,~{STDBY}*%
X242460000Y-82500000D03*
D14*
%TO.P,D4,2,A*%
%TO.N,Net-(D4-A)*%
X245000000Y-82500000D03*
%TD*%
D11*
%TO.P,R8,1*%
%TO.N,Net-(D4-A)*%
X236810000Y-77000000D03*
D12*
%TO.P,R8,2*%
%TO.N,A-VBUS*%
X229190000Y-77000000D03*
%TD*%
D15*
%TO.P,A1,1,GPIO0*%
%TO.N,A_GPIO0*%
X169000000Y-32600000D03*
D11*
%TO.P,A1,2,GPIO1*%
%TO.N,A_GPIO1*%
X169000000Y-35140000D03*
D16*
%TO.P,A1,3,GND*%
%TO.N,GND*%
X169000000Y-37680000D03*
D11*
%TO.P,A1,4,GPIO2*%
%TO.N,A_GPIO2*%
X169000000Y-40220000D03*
%TO.P,A1,5,GPIO3*%
%TO.N,A_GPIO3*%
X169000000Y-42760000D03*
%TO.P,A1,6,GPIO4*%
%TO.N,A_GPIO4*%
X169000000Y-45300000D03*
%TO.P,A1,7,GPIO5*%
%TO.N,A_GPIO5*%
X169000000Y-47840000D03*
D16*
%TO.P,A1,8,GND*%
%TO.N,GND*%
X169000000Y-50380000D03*
D11*
%TO.P,A1,9,GPIO6*%
%TO.N,A_GPIO6*%
X169000000Y-52920000D03*
%TO.P,A1,10,GPIO7*%
%TO.N,A_GPIO7*%
X169000000Y-55460000D03*
%TO.P,A1,11,GPIO8*%
%TO.N,A_GPIO8*%
X169000000Y-58000000D03*
%TO.P,A1,12,GPIO9*%
%TO.N,A_GPIO9*%
X169000000Y-60540000D03*
D16*
%TO.P,A1,13,GND*%
%TO.N,GND*%
X169000000Y-63080000D03*
D11*
%TO.P,A1,14,GPIO10*%
%TO.N,A_GPIO10*%
X169000000Y-65620000D03*
%TO.P,A1,15,GPIO11*%
%TO.N,A_GPIO11*%
X169000000Y-68160000D03*
%TO.P,A1,16,GPIO12*%
%TO.N,UART_TX*%
X169000000Y-70700000D03*
%TO.P,A1,17,GPIO13*%
%TO.N,UART_RX*%
X169000000Y-73240000D03*
D16*
%TO.P,A1,18,GND*%
%TO.N,GND*%
X169000000Y-75780000D03*
D11*
%TO.P,A1,19,GPIO14*%
%TO.N,A_GPIO14*%
X169000000Y-78320000D03*
%TO.P,A1,20,GPIO15*%
%TO.N,A_GPIO15*%
X169000000Y-80860000D03*
%TO.P,A1,21,GPIO16*%
%TO.N,RX-TX*%
X186780000Y-80860000D03*
%TO.P,A1,22,GPIO17*%
%TO.N,CS*%
X186780000Y-78320000D03*
D17*
%TO.P,A1,23,GND*%
%TO.N,GND*%
X186780000Y-75780000D03*
D11*
%TO.P,A1,24,GPIO18*%
%TO.N,SCK*%
X186780000Y-73240000D03*
%TO.P,A1,25,GPIO19*%
%TO.N,TX-RX*%
X186780000Y-70700000D03*
%TO.P,A1,26,GPIO20*%
%TO.N,A_GPIO20*%
X186780000Y-68160000D03*
%TO.P,A1,27,GPIO21*%
%TO.N,A_GPIO21*%
X186780000Y-65620000D03*
D17*
%TO.P,A1,28,GND*%
%TO.N,GND*%
X186780000Y-63080000D03*
D11*
%TO.P,A1,29,GPIO22*%
%TO.N,A_GPIO22*%
X186780000Y-60540000D03*
%TO.P,A1,30,RUN*%
%TO.N,A_RUN*%
X186780000Y-58000000D03*
%TO.P,A1,31,GPIO26_ADC0*%
%TO.N,A_GPIO26*%
X186780000Y-55460000D03*
%TO.P,A1,32,GPIO27_ADC1*%
%TO.N,A_GPIO27*%
X186780000Y-52920000D03*
D17*
%TO.P,A1,33,AGND*%
%TO.N,GND*%
X186780000Y-50380000D03*
D11*
%TO.P,A1,34,GPIO28_ADC2*%
%TO.N,A_GPIO28*%
X186780000Y-47840000D03*
%TO.P,A1,35,ADC_VREF*%
%TO.N,A_ADC_VREF*%
X186780000Y-45300000D03*
%TO.P,A1,36,3V3*%
%TO.N,A_3V3(OUT)*%
X186780000Y-42760000D03*
%TO.P,A1,37,3V3_EN*%
%TO.N,A_3V3_EN*%
X186780000Y-40220000D03*
D17*
%TO.P,A1,38,GND*%
%TO.N,GND*%
X186780000Y-37680000D03*
D11*
%TO.P,A1,39,VSYS*%
%TO.N,Net-(A1-VSYS)*%
X186780000Y-35140000D03*
%TO.P,A1,40,VBUS*%
%TO.N,A-VBUS*%
X186780000Y-32600000D03*
%TD*%
D18*
%TO.P,F1,1*%
%TO.N,VSYS*%
X231700000Y-43050000D03*
%TO.P,F1,2*%
%TO.N,Net-(SW1-B)*%
X233300000Y-37950000D03*
%TD*%
D11*
%TO.P,R2,1*%
%TO.N,A_3V3(OUT)*%
X230380000Y-49500000D03*
D12*
%TO.P,R2,2*%
%TO.N,Net-(D2-A)*%
X238000000Y-49500000D03*
%TD*%
D19*
%TO.P,D5,1,K*%
%TO.N,Net-(A1-VSYS)*%
X193500000Y-39690000D03*
D20*
%TO.P,D5,2,A*%
%TO.N,VSYS*%
X193500000Y-47310000D03*
%TD*%
D21*
%TO.P,SW1,*%
%TO.N,*%
X239700000Y-32000000D03*
X231500000Y-32000000D03*
D22*
%TO.P,SW1,1,A*%
%TO.N,VBAT(+)*%
X237600000Y-32000000D03*
D23*
%TO.P,SW1,2,B*%
%TO.N,Net-(SW1-B)*%
X235600000Y-32000000D03*
%TO.P,SW1,3*%
%TO.N,N/C*%
X233600000Y-32000000D03*
%TD*%
D11*
%TO.P,C4,1*%
%TO.N,GND*%
X236500000Y-86500000D03*
%TO.P,C4,2*%
%TO.N,VBAT(+)*%
X236500000Y-84500000D03*
%TD*%
%TO.P,C2,1*%
%TO.N,GND*%
X224500000Y-48750000D03*
%TO.P,C2,2*%
%TO.N,VSYS*%
X224500000Y-46250000D03*
%TD*%
D24*
%TO.P,J4,1,Pin_1*%
%TO.N,B_GPIO15*%
X199720000Y-136060000D03*
D25*
%TO.P,J4,2,Pin_2*%
%TO.N,B_GPIO14*%
X199720000Y-133520000D03*
%TO.P,J4,3,Pin_3*%
%TO.N,GND*%
X199720000Y-130980000D03*
%TO.P,J4,4,Pin_4*%
%TO.N,UART_TX*%
X199720000Y-128440000D03*
%TO.P,J4,5,Pin_5*%
%TO.N,UART_RX*%
X199720000Y-125900000D03*
%TO.P,J4,6,Pin_6*%
%TO.N,B_GPIO11*%
X199720000Y-123360000D03*
%TO.P,J4,7,Pin_7*%
%TO.N,B_GPIO10*%
X199720000Y-120820000D03*
%TO.P,J4,8,Pin_8*%
%TO.N,GND*%
X199720000Y-118280000D03*
%TO.P,J4,9,Pin_9*%
%TO.N,B_GPIO9*%
X199720000Y-115740000D03*
%TO.P,J4,10,Pin_10*%
%TO.N,B_GPIO8*%
X199720000Y-113200000D03*
%TO.P,J4,11,Pin_11*%
%TO.N,B_GPIO7*%
X199720000Y-110660000D03*
%TO.P,J4,12,Pin_12*%
%TO.N,B_GPIO6*%
X199720000Y-108120000D03*
%TO.P,J4,13,Pin_13*%
%TO.N,GND*%
X199720000Y-105580000D03*
%TO.P,J4,14,Pin_14*%
%TO.N,B_GPIO5*%
X199720000Y-103040000D03*
%TO.P,J4,15,Pin_15*%
%TO.N,B_GPIO4*%
X199720000Y-100500000D03*
%TO.P,J4,16,Pin_16*%
%TO.N,B_GPIO3*%
X199720000Y-97960000D03*
%TO.P,J4,17,Pin_17*%
%TO.N,B_GPIO2*%
X199720000Y-95420000D03*
%TO.P,J4,18,Pin_18*%
%TO.N,GND*%
X199720000Y-92880000D03*
%TO.P,J4,19,Pin_19*%
%TO.N,B_GPIO1*%
X199720000Y-90340000D03*
%TO.P,J4,20,Pin_20*%
%TO.N,B_GPIO0*%
X199720000Y-87800000D03*
%TD*%
D24*
%TO.P,J3,1,Pin_1*%
%TO.N,A-VBUS*%
X186780000Y-87860000D03*
D25*
%TO.P,J3,2,Pin_2*%
%TO.N,VSYS*%
X186780000Y-90400000D03*
%TO.P,J3,3,Pin_3*%
%TO.N,GND*%
X186780000Y-92940000D03*
%TO.P,J3,4,Pin_4*%
%TO.N,A_3V3_EN*%
X186780000Y-95480000D03*
%TO.P,J3,5,Pin_5*%
%TO.N,A_3V3(OUT)*%
X186780000Y-98020000D03*
%TO.P,J3,6,Pin_6*%
%TO.N,A_ADC_VREF*%
X186780000Y-100560000D03*
%TO.P,J3,7,Pin_7*%
%TO.N,A_GPIO28*%
X186780000Y-103100000D03*
%TO.P,J3,8,Pin_8*%
%TO.N,GND*%
X186780000Y-105640000D03*
%TO.P,J3,9,Pin_9*%
%TO.N,A_GPIO27*%
X186780000Y-108180000D03*
%TO.P,J3,10,Pin_10*%
%TO.N,A_GPIO26*%
X186780000Y-110720000D03*
%TO.P,J3,11,Pin_11*%
%TO.N,A_RUN*%
X186780000Y-113260000D03*
%TO.P,J3,12,Pin_12*%
%TO.N,A_GPIO22*%
X186780000Y-115800000D03*
%TO.P,J3,13,Pin_13*%
%TO.N,GND*%
X186780000Y-118340000D03*
%TO.P,J3,14,Pin_14*%
%TO.N,A_GPIO21*%
X186780000Y-120880000D03*
%TO.P,J3,15,Pin_15*%
%TO.N,A_GPIO20*%
X186780000Y-123420000D03*
%TO.P,J3,16,Pin_16*%
%TO.N,TX-RX*%
X186780000Y-125960000D03*
%TO.P,J3,17,Pin_17*%
%TO.N,SCK*%
X186780000Y-128500000D03*
%TO.P,J3,18,Pin_18*%
%TO.N,GND*%
X186780000Y-131040000D03*
%TO.P,J3,19,Pin_19*%
%TO.N,CS*%
X186780000Y-133580000D03*
%TO.P,J3,20,Pin_20*%
%TO.N,RX-TX*%
X186780000Y-136120000D03*
%TD*%
D26*
%TO.P,J1,1,Pin_1*%
%TO.N,VBAT(+)*%
X241500000Y-40500000D03*
D27*
%TO.P,J1,2,Pin_2*%
%TO.N,GND*%
X243500000Y-40500000D03*
%TD*%
D11*
%TO.P,C1,1*%
%TO.N,VSYS*%
X194750000Y-33500000D03*
%TO.P,C1,2*%
%TO.N,GND*%
X192250000Y-33500000D03*
%TD*%
D24*
%TO.P,J2,1,Pin_1*%
%TO.N,A_GPIO15*%
X169000000Y-136060000D03*
D25*
%TO.P,J2,2,Pin_2*%
%TO.N,A_GPIO14*%
X169000000Y-133520000D03*
%TO.P,J2,3,Pin_3*%
%TO.N,GND*%
X169000000Y-130980000D03*
%TO.P,J2,4,Pin_4*%
%TO.N,UART_RX*%
X169000000Y-128440000D03*
%TO.P,J2,5,Pin_5*%
%TO.N,UART_TX*%
X169000000Y-125900000D03*
%TO.P,J2,6,Pin_6*%
%TO.N,A_GPIO11*%
X169000000Y-123360000D03*
%TO.P,J2,7,Pin_7*%
%TO.N,A_GPIO10*%
X169000000Y-120820000D03*
%TO.P,J2,8,Pin_8*%
%TO.N,GND*%
X169000000Y-118280000D03*
%TO.P,J2,9,Pin_9*%
%TO.N,A_GPIO9*%
X169000000Y-115740000D03*
%TO.P,J2,10,Pin_10*%
%TO.N,A_GPIO8*%
X169000000Y-113200000D03*
%TO.P,J2,11,Pin_11*%
%TO.N,A_GPIO7*%
X169000000Y-110660000D03*
%TO.P,J2,12,Pin_12*%
%TO.N,A_GPIO6*%
X169000000Y-108120000D03*
%TO.P,J2,13,Pin_13*%
%TO.N,GND*%
X169000000Y-105580000D03*
%TO.P,J2,14,Pin_14*%
%TO.N,A_GPIO5*%
X169000000Y-103040000D03*
%TO.P,J2,15,Pin_15*%
%TO.N,A_GPIO4*%
X169000000Y-100500000D03*
%TO.P,J2,16,Pin_16*%
%TO.N,A_GPIO3*%
X169000000Y-97960000D03*
%TO.P,J2,17,Pin_17*%
%TO.N,A_GPIO2*%
X169000000Y-95420000D03*
%TO.P,J2,18,Pin_18*%
%TO.N,GND*%
X169000000Y-92880000D03*
%TO.P,J2,19,Pin_19*%
%TO.N,A_GPIO1*%
X169000000Y-90340000D03*
%TO.P,J2,20,Pin_20*%
%TO.N,A_GPIO0*%
X169000000Y-87800000D03*
%TD*%
D11*
%TO.P,R1,1*%
%TO.N,GND*%
X224500000Y-103310000D03*
D12*
%TO.P,R1,2*%
%TO.N,Net-(U1-PROG)*%
X224500000Y-95690000D03*
%TD*%
D11*
%TO.P,R7,1*%
%TO.N,Net-(Q3-E)*%
X229000000Y-68000000D03*
D12*
%TO.P,R7,2*%
%TO.N,Net-(Q3-B)*%
X236620000Y-68000000D03*
%TD*%
D13*
%TO.P,D2,1,K*%
%TO.N,Net-(D2-K)*%
X242460000Y-65500000D03*
D14*
%TO.P,D2,2,A*%
%TO.N,Net-(D2-A)*%
X245000000Y-65500000D03*
%TD*%
D13*
%TO.P,D3,1,K*%
%TO.N,~{CHRG}*%
X242460000Y-74000000D03*
D14*
%TO.P,D3,2,A*%
%TO.N,Net-(D3-A)*%
X245000000Y-74000000D03*
%TD*%
D11*
%TO.P,C3,1*%
%TO.N,GND*%
X237500000Y-92000000D03*
%TO.P,C3,2*%
%TO.N,A-VBUS*%
X235500000Y-92000000D03*
%TD*%
D19*
%TO.P,D6,1,K*%
%TO.N,Net-(A2-VSYS)*%
X225000000Y-33190000D03*
D20*
%TO.P,D6,2,A*%
%TO.N,VSYS*%
X225000000Y-40810000D03*
%TD*%
D28*
%TO.P,Q3,1,E*%
%TO.N,Net-(Q3-E)*%
X234000000Y-56500000D03*
D29*
%TO.P,Q3,2,B*%
%TO.N,Net-(Q3-B)*%
X234000000Y-55230000D03*
%TO.P,Q3,3,C*%
%TO.N,Net-(D2-K)*%
X234000000Y-53960000D03*
%TD*%
D11*
%TO.P,R3,1*%
%TO.N,Net-(D3-A)*%
X229190000Y-72500000D03*
D12*
%TO.P,R3,2*%
%TO.N,A-VBUS*%
X236810000Y-72500000D03*
%TD*%
D24*
%TO.P,J5,1,Pin_1*%
%TO.N,B-VBUS*%
X217500000Y-87860000D03*
D25*
%TO.P,J5,2,Pin_2*%
%TO.N,VSYS*%
X217500000Y-90400000D03*
%TO.P,J5,3,Pin_3*%
%TO.N,GND*%
X217500000Y-92940000D03*
%TO.P,J5,4,Pin_4*%
%TO.N,B_3V3_EN*%
X217500000Y-95480000D03*
%TO.P,J5,5,Pin_5*%
%TO.N,B_3V3(OUT)*%
X217500000Y-98020000D03*
%TO.P,J5,6,Pin_6*%
%TO.N,B_ADC_VREF*%
X217500000Y-100560000D03*
%TO.P,J5,7,Pin_7*%
%TO.N,B_GPIO28*%
X217500000Y-103100000D03*
%TO.P,J5,8,Pin_8*%
%TO.N,GND*%
X217500000Y-105640000D03*
%TO.P,J5,9,Pin_9*%
%TO.N,B_GPIO27*%
X217500000Y-108180000D03*
%TO.P,J5,10,Pin_10*%
%TO.N,B_GPIO26*%
X217500000Y-110720000D03*
%TO.P,J5,11,Pin_11*%
%TO.N,B_RUN*%
X217500000Y-113260000D03*
%TO.P,J5,12,Pin_12*%
%TO.N,B_GPIO22*%
X217500000Y-115800000D03*
%TO.P,J5,13,Pin_13*%
%TO.N,GND*%
X217500000Y-118340000D03*
%TO.P,J5,14,Pin_14*%
%TO.N,B_GPIO21*%
X217500000Y-120880000D03*
%TO.P,J5,15,Pin_15*%
%TO.N,B_GPIO20*%
X217500000Y-123420000D03*
%TO.P,J5,16,Pin_16*%
%TO.N,RX-TX*%
X217500000Y-125960000D03*
%TO.P,J5,17,Pin_17*%
%TO.N,SCK*%
X217500000Y-128500000D03*
%TO.P,J5,18,Pin_18*%
%TO.N,GND*%
X217500000Y-131040000D03*
%TO.P,J5,19,Pin_19*%
%TO.N,CS*%
X217500000Y-133580000D03*
%TO.P,J5,20,Pin_20*%
%TO.N,TX-RX*%
X217500000Y-136120000D03*
%TD*%
D30*
%TO.P,U1,1,TEMP*%
%TO.N,GND*%
X225595000Y-88475000D03*
%TO.P,U1,2,PROG*%
%TO.N,Net-(U1-PROG)*%
X226865000Y-88475000D03*
%TO.P,U1,3,GND*%
%TO.N,GND*%
X228135000Y-88475000D03*
%TO.P,U1,4,VCC*%
%TO.N,A-VBUS*%
X229405000Y-88475000D03*
%TO.P,U1,5,BAT*%
%TO.N,VBAT(+)*%
X229405000Y-83525000D03*
%TO.P,U1,6,~{STDBY}*%
%TO.N,~{STDBY}*%
X228135000Y-83525000D03*
%TO.P,U1,7,~{CHRG}*%
%TO.N,~{CHRG}*%
X226865000Y-83525000D03*
%TO.P,U1,8,CE*%
%TO.N,A-VBUS*%
X225595000Y-83525000D03*
D31*
%TO.P,U1,9,EP*%
%TO.N,GND*%
X227500000Y-86000000D03*
%TD*%
D15*
%TO.P,A2,1,GPIO0*%
%TO.N,B_GPIO0*%
X199720000Y-32600000D03*
D11*
%TO.P,A2,2,GPIO1*%
%TO.N,B_GPIO1*%
X199720000Y-35140000D03*
D16*
%TO.P,A2,3,GND*%
%TO.N,GND*%
X199720000Y-37680000D03*
D11*
%TO.P,A2,4,GPIO2*%
%TO.N,B_GPIO2*%
X199720000Y-40220000D03*
%TO.P,A2,5,GPIO3*%
%TO.N,B_GPIO3*%
X199720000Y-42760000D03*
%TO.P,A2,6,GPIO4*%
%TO.N,B_GPIO4*%
X199720000Y-45300000D03*
%TO.P,A2,7,GPIO5*%
%TO.N,B_GPIO5*%
X199720000Y-47840000D03*
D16*
%TO.P,A2,8,GND*%
%TO.N,GND*%
X199720000Y-50380000D03*
D11*
%TO.P,A2,9,GPIO6*%
%TO.N,B_GPIO6*%
X199720000Y-52920000D03*
%TO.P,A2,10,GPIO7*%
%TO.N,B_GPIO7*%
X199720000Y-55460000D03*
%TO.P,A2,11,GPIO8*%
%TO.N,B_GPIO8*%
X199720000Y-58000000D03*
%TO.P,A2,12,GPIO9*%
%TO.N,B_GPIO9*%
X199720000Y-60540000D03*
D16*
%TO.P,A2,13,GND*%
%TO.N,GND*%
X199720000Y-63080000D03*
D11*
%TO.P,A2,14,GPIO10*%
%TO.N,B_GPIO10*%
X199720000Y-65620000D03*
%TO.P,A2,15,GPIO11*%
%TO.N,UART_RX*%
X199720000Y-68160000D03*
%TO.P,A2,16,GPIO12*%
%TO.N,UART_TX*%
X199720000Y-70700000D03*
%TO.P,A2,17,GPIO13*%
%TO.N,B_GPIO13*%
X199720000Y-73240000D03*
D16*
%TO.P,A2,18,GND*%
%TO.N,GND*%
X199720000Y-75780000D03*
D11*
%TO.P,A2,19,GPIO14*%
%TO.N,B_GPIO14*%
X199720000Y-78320000D03*
%TO.P,A2,20,GPIO15*%
%TO.N,B_GPIO15*%
X199720000Y-80860000D03*
%TO.P,A2,21,GPIO16*%
%TO.N,TX-RX*%
X217500000Y-80860000D03*
%TO.P,A2,22,GPIO17*%
%TO.N,CS*%
X217500000Y-78320000D03*
D17*
%TO.P,A2,23,GND*%
%TO.N,GND*%
X217500000Y-75780000D03*
D11*
%TO.P,A2,24,GPIO18*%
%TO.N,SCK*%
X217500000Y-73240000D03*
%TO.P,A2,25,GPIO19*%
%TO.N,RX-TX*%
X217500000Y-70700000D03*
%TO.P,A2,26,GPIO20*%
%TO.N,B_GPIO20*%
X217500000Y-68160000D03*
%TO.P,A2,27,GPIO21*%
%TO.N,B_GPIO21*%
X217500000Y-65620000D03*
D17*
%TO.P,A2,28,GND*%
%TO.N,GND*%
X217500000Y-63080000D03*
D11*
%TO.P,A2,29,GPIO22*%
%TO.N,B_GPIO22*%
X217500000Y-60540000D03*
%TO.P,A2,30,RUN*%
%TO.N,B_RUN*%
X217500000Y-58000000D03*
%TO.P,A2,31,GPIO26_ADC0*%
%TO.N,B_GPIO26*%
X217500000Y-55460000D03*
%TO.P,A2,32,GPIO27_ADC1*%
%TO.N,B_GPIO27*%
X217500000Y-52920000D03*
D17*
%TO.P,A2,33,AGND*%
%TO.N,GND*%
X217500000Y-50380000D03*
D11*
%TO.P,A2,34,GPIO28_ADC2*%
%TO.N,B_GPIO28*%
X217500000Y-47840000D03*
%TO.P,A2,35,ADC_VREF*%
%TO.N,B_ADC_VREF*%
X217500000Y-45300000D03*
%TO.P,A2,36,3V3*%
%TO.N,B_3V3(OUT)*%
X217500000Y-42760000D03*
%TO.P,A2,37,3V3_EN*%
%TO.N,B_3V3_EN*%
X217500000Y-40220000D03*
D17*
%TO.P,A2,38,GND*%
%TO.N,GND*%
X217500000Y-37680000D03*
D11*
%TO.P,A2,39,VSYS*%
%TO.N,Net-(A2-VSYS)*%
X217500000Y-35140000D03*
%TO.P,A2,40,VBUS*%
%TO.N,B-VBUS*%
X217500000Y-32600000D03*
%TD*%
D28*
%TO.P,Q4,1,E*%
%TO.N,GND*%
X234000000Y-63000000D03*
D29*
%TO.P,Q4,2,B*%
%TO.N,Net-(Q4-B)*%
X234000000Y-61730000D03*
%TO.P,Q4,3,C*%
%TO.N,Net-(Q3-E)*%
X234000000Y-60460000D03*
%TD*%
D11*
%TO.P,R4,1*%
%TO.N,B_3V3(OUT)*%
X232000000Y-103310000D03*
D12*
%TO.P,R4,2*%
%TO.N,Net-(Q3-B)*%
X232000000Y-95690000D03*
%TD*%
D32*
%TO.N,GND*%
X210500000Y-63000000D03*
X210500000Y-73000000D03*
X223000000Y-93000000D03*
X227500000Y-93000000D03*
%TO.N,SCK*%
X194078800Y-73711700D03*
X198299600Y-124692300D03*
X194078800Y-70592300D03*
%TO.N,A_3V3(OUT)*%
X191749300Y-97211300D03*
%TO.N,A_GPIO2*%
X166411300Y-94258400D03*
%TO.N,Net-(A1-VSYS)*%
X191083500Y-38969300D03*
%TO.N,A_GPIO7*%
X164463800Y-56421200D03*
%TO.N,UART_RX*%
X163485400Y-73783300D03*
%TO.N,A_3V3_EN*%
X188486600Y-43590500D03*
X191727000Y-94393900D03*
%TO.N,A_GPIO6*%
X171417300Y-106536500D03*
%TO.N,TX-RX*%
X186256000Y-82365300D03*
%TO.N,CS*%
X183845900Y-131610700D03*
%TO.N,A_GPIO8*%
X163867400Y-59142200D03*
%TO.N,A-VBUS*%
X235330100Y-75926600D03*
X225544150Y-79544150D03*
%TO.N,RX-TX*%
X184841800Y-82569800D03*
X184731100Y-122162500D03*
%TO.N,A_GPIO4*%
X166837600Y-99602100D03*
%TO.N,A_ADC_VREF*%
X191749300Y-100139600D03*
%TO.N,A_GPIO1*%
X165467300Y-88267800D03*
%TO.N,A_GPIO9*%
X163558500Y-60025500D03*
X161796600Y-108924500D03*
%TO.N,A_GPIO21*%
X190515900Y-67928300D03*
%TO.N,UART_TX*%
X171215500Y-79306700D03*
X171487100Y-126494300D03*
%TO.N,A_GPIO11*%
X163722400Y-67928300D03*
%TO.N,A_GPIO28*%
X191286000Y-47518500D03*
X191501400Y-99212300D03*
%TO.N,A_GPIO15*%
X173946300Y-82361800D03*
%TO.N,B_GPIO7*%
X196260700Y-108325800D03*
%TO.N,B_GPIO6*%
X197014600Y-109698400D03*
%TO.N,B_GPIO27*%
X219730900Y-108066100D03*
%TO.N,B_GPIO5*%
X194834300Y-103814800D03*
%TO.N,B_RUN*%
X219476400Y-106194700D03*
%TO.N,B_ADC_VREF*%
X221694800Y-100138300D03*
%TO.N,B_GPIO4*%
X195139100Y-46371800D03*
X193373000Y-97211300D03*
%TO.N,B_GPIO26*%
X227064700Y-58672900D03*
%TO.N,B_3V3(OUT)*%
X222413700Y-97539500D03*
X226000000Y-107000000D03*
%TO.N,B_GPIO1*%
X193655200Y-90553800D03*
%TO.N,B_GPIO28*%
X219275600Y-104653000D03*
%TO.N,B_GPIO2*%
X194752900Y-94511400D03*
%TO.N,B_GPIO3*%
X197842100Y-102277000D03*
%TO.N,B_GPIO22*%
X221291600Y-62383500D03*
%TO.N,B_3V3_EN*%
X218883400Y-94359700D03*
%TO.N,VSYS*%
X222946100Y-87259900D03*
%TO.N,VBAT(+)*%
X231499500Y-83000500D03*
%TO.N,~{CHRG}*%
X226865000Y-74018200D03*
%TO.N,~{STDBY}*%
X228000000Y-80000000D03*
%TD*%
D10*
%TO.N,GND*%
X223356200Y-60476200D02*
X223356200Y-49893800D01*
X224500000Y-61620000D02*
X223356200Y-60476200D01*
X218658100Y-120381300D02*
X217768500Y-119491700D01*
X225921100Y-86728600D02*
X225595000Y-87054700D01*
X186780000Y-92940000D02*
X186780000Y-94091700D01*
X169000000Y-105580000D02*
X169000000Y-106731700D01*
X228135000Y-88475000D02*
X228135000Y-92365000D01*
X167882500Y-61962500D02*
X169000000Y-63080000D01*
X169000000Y-118280000D02*
X169000000Y-117128300D01*
X186472000Y-69430000D02*
X187088100Y-69430000D01*
X217500000Y-75782100D02*
X218670800Y-76952900D01*
X228135000Y-92365000D02*
X227500000Y-93000000D01*
X217500000Y-129888300D02*
X217787900Y-129888300D01*
X187931700Y-106130200D02*
X187270200Y-106791700D01*
X185647200Y-64212800D02*
X185647200Y-68605200D01*
X217500000Y-131040000D02*
X217500000Y-129888300D01*
X185629000Y-45867900D02*
X185629000Y-49229000D01*
X167882500Y-51497500D02*
X167882500Y-61962500D01*
X187270200Y-106791700D02*
X186780000Y-106791700D01*
X199720000Y-50380000D02*
X201288500Y-51948500D01*
X217500000Y-92940000D02*
X217500000Y-91788300D01*
X210500000Y-73000000D02*
X210500000Y-63000000D01*
X201288500Y-51948500D02*
X201288500Y-61511500D01*
X218670800Y-90886000D02*
X217768500Y-91788300D01*
X217768500Y-91788300D02*
X217500000Y-91788300D01*
X217500000Y-75780000D02*
X217500000Y-75782100D01*
X169268500Y-106731700D02*
X169000000Y-106731700D01*
X225595000Y-87054700D02*
X225595000Y-88475000D01*
X217768500Y-119491700D02*
X217500000Y-119491700D01*
X225595000Y-88475000D02*
X225595000Y-90405000D01*
X237500000Y-87500000D02*
X237500000Y-92000000D01*
X169000000Y-117128300D02*
X169254900Y-117128300D01*
X217500000Y-118340000D02*
X217500000Y-119491700D01*
X169000000Y-50380000D02*
X167882500Y-51497500D01*
X185629000Y-49229000D02*
X186780000Y-50380000D01*
X170151700Y-116231500D02*
X170151700Y-107614900D01*
X185227300Y-39232700D02*
X185227300Y-45466200D01*
X186780000Y-94091700D02*
X187079900Y-94091700D01*
X187088100Y-69430000D02*
X187882000Y-70223900D01*
X185227300Y-45466200D02*
X185629000Y-45867900D01*
X201288500Y-61511500D02*
X199720000Y-63080000D01*
X218670800Y-76952900D02*
X218670800Y-90886000D01*
X217787900Y-129888300D02*
X218658100Y-129018100D01*
X170151700Y-107614900D02*
X169268500Y-106731700D01*
X187882000Y-70223900D02*
X187882000Y-74678000D01*
X187882000Y-74678000D02*
X186780000Y-75780000D01*
X186780000Y-37680000D02*
X185227300Y-39232700D01*
X226000000Y-86728600D02*
X225921100Y-86728600D01*
X187079900Y-94091700D02*
X187931700Y-94943500D01*
X225595000Y-90405000D02*
X223000000Y-93000000D01*
X185647200Y-68605200D02*
X186472000Y-69430000D01*
X169254900Y-117128300D02*
X170151700Y-116231500D01*
X186780000Y-63080000D02*
X185647200Y-64212800D01*
X226000000Y-86500000D02*
X226000000Y-86728600D01*
X187931700Y-94943500D02*
X187931700Y-106130200D01*
X218658100Y-129018100D02*
X218658100Y-120381300D01*
X186780000Y-105640000D02*
X186780000Y-106791700D01*
X223356200Y-49893800D02*
X224500000Y-48750000D01*
X236500000Y-86500000D02*
X237500000Y-87500000D01*
%TO.N,A_GPIO27*%
X189914200Y-67679200D02*
X189914200Y-68177400D01*
X190308100Y-108821400D02*
X187254200Y-111875300D01*
X190114200Y-68377400D02*
X190114200Y-68610400D01*
X190308100Y-68804300D02*
X190308100Y-108821400D01*
X189920200Y-56060200D02*
X189920200Y-65890200D01*
X190266900Y-67326600D02*
X190266800Y-67326600D01*
X190308100Y-67285400D02*
X190266900Y-67326600D01*
X185628300Y-109331700D02*
X186780000Y-108180000D01*
X189914200Y-68177400D02*
X190114200Y-68377400D01*
X185628300Y-111284500D02*
X185628300Y-109331700D01*
X190155600Y-66125600D02*
X190308100Y-66278100D01*
X190308100Y-66278100D02*
X190308100Y-67285400D01*
X190114200Y-68610400D02*
X190308100Y-68804300D01*
X189920200Y-65890200D02*
X190155600Y-66125600D01*
X190155600Y-66125600D02*
X190308100Y-66278100D01*
X186780000Y-52920000D02*
X189920200Y-56060200D01*
X186219100Y-111875300D02*
X185628300Y-111284500D01*
X187254200Y-111875300D02*
X186219100Y-111875300D01*
X190266800Y-67326600D02*
X189914200Y-67679200D01*
%TO.N,SCK*%
X187046900Y-127348300D02*
X194078800Y-120316400D01*
X194256900Y-90803000D02*
X194256900Y-73889800D01*
X194078800Y-90981100D02*
X194256900Y-90803000D01*
X194078800Y-120316400D02*
X194078800Y-120471500D01*
X194078800Y-70592300D02*
X194078800Y-73711700D01*
X186780000Y-127348300D02*
X187046900Y-127348300D01*
X186780000Y-128500000D02*
X186780000Y-127348300D01*
X194078800Y-120316400D02*
X194078800Y-90981100D01*
X194078800Y-120471500D02*
X198299600Y-124692300D01*
X194256900Y-73889800D02*
X194078800Y-73711700D01*
%TO.N,A_GPIO5*%
X166677600Y-79053300D02*
X166677600Y-79884100D01*
X167308300Y-82328200D02*
X167452500Y-82472400D01*
X167452500Y-82472400D02*
X167452500Y-100628700D01*
X167050800Y-82070700D02*
X167308300Y-82328200D01*
X168712100Y-101888300D02*
X169000000Y-101888300D01*
X169000000Y-103040000D02*
X169000000Y-101888300D01*
X169000000Y-47840000D02*
X167050800Y-49789200D01*
X167452500Y-100628700D02*
X168712100Y-101888300D01*
X166677600Y-79884100D02*
X167050800Y-80257300D01*
X167050800Y-80257300D02*
X167050800Y-82070700D01*
X167050800Y-78680100D02*
X166677600Y-79053300D01*
X167308300Y-82328200D02*
X167452500Y-82472400D01*
X167050800Y-49789200D02*
X167050800Y-78680100D01*
%TO.N,A_3V3(OUT)*%
X190321900Y-47973200D02*
X190321900Y-65723800D01*
X191125300Y-67686800D02*
X191125300Y-96587300D01*
X190723700Y-66125600D02*
X190723700Y-67285200D01*
X190723700Y-67285200D02*
X191125300Y-67686800D01*
X190282600Y-47933900D02*
X190321900Y-47973200D01*
X186780000Y-42760000D02*
X190282600Y-46262600D01*
X191125300Y-96587300D02*
X191749300Y-97211300D01*
X190282600Y-46262600D02*
X190282600Y-47933900D01*
X190321900Y-65723800D02*
X190723700Y-66125600D01*
%TO.N,A_GPIO2*%
X170125100Y-43227800D02*
X169322900Y-44030000D01*
X166070600Y-74890600D02*
X166070600Y-78524300D01*
X166095600Y-74865600D02*
X166070600Y-74890600D01*
X166095600Y-46633300D02*
X166095600Y-74865600D01*
X166070600Y-78524300D02*
X165874200Y-78720700D01*
X166470700Y-87852300D02*
X166470700Y-94199000D01*
X168698900Y-44030000D02*
X166095600Y-46633300D01*
X169000000Y-40934900D02*
X170125100Y-42060000D01*
X165874200Y-78720700D02*
X165874200Y-80216700D01*
X165874200Y-80216700D02*
X166070600Y-80413100D01*
X166470700Y-94199000D02*
X166411300Y-94258400D01*
X166070600Y-87452200D02*
X166470700Y-87852300D01*
X170125100Y-42060000D02*
X170125100Y-43227800D01*
X169000000Y-40220000D02*
X169000000Y-40934900D01*
X169322900Y-44030000D02*
X168698900Y-44030000D01*
X166070600Y-80413100D02*
X166070600Y-87452200D01*
%TO.N,Net-(A1-VSYS)*%
X185678300Y-34038300D02*
X186780000Y-35140000D01*
X191083500Y-35345400D02*
X187236400Y-31498300D01*
X185678300Y-32143700D02*
X185678300Y-34038300D01*
X187236400Y-31498300D02*
X186323700Y-31498300D01*
X186323700Y-31498300D02*
X185678300Y-32143700D01*
X191083500Y-38969300D02*
X191083500Y-35345400D01*
%TO.N,A_GPIO7*%
X164890500Y-67361800D02*
X164890500Y-74366700D01*
X164561900Y-56519300D02*
X164463800Y-56421200D01*
X164655100Y-67126400D02*
X164488800Y-66960100D01*
X164669100Y-105465300D02*
X168712100Y-109508300D01*
X164488800Y-66960100D02*
X164561900Y-66887000D01*
X164655100Y-67126400D02*
X164890500Y-67361800D01*
X164890500Y-74366700D02*
X164865500Y-74391700D01*
X164865500Y-74391700D02*
X164865500Y-78025400D01*
X164561900Y-66887000D02*
X164561900Y-56519300D01*
X164655100Y-67126400D02*
X164488800Y-66960100D01*
X168712100Y-109508300D02*
X169000000Y-109508300D01*
X164865500Y-78025400D02*
X164669100Y-78221800D01*
X164669100Y-78221800D02*
X164669100Y-105465300D01*
X169000000Y-110660000D02*
X169000000Y-109508300D01*
%TO.N,UART_RX*%
X163464000Y-73804700D02*
X163464000Y-122040200D01*
X168712100Y-127288300D02*
X169000000Y-127288300D01*
X163485400Y-73783300D02*
X163464000Y-73804700D01*
X169000000Y-128440000D02*
X169000000Y-127288300D01*
X163464000Y-122040200D02*
X168712100Y-127288300D01*
%TO.N,A_GPIO14*%
X169000000Y-133520000D02*
X169000000Y-132368300D01*
X169000000Y-78887900D02*
X170564200Y-80452100D01*
X170719700Y-106601800D02*
X170564200Y-106446300D01*
X170719700Y-106601800D02*
X170815600Y-106697700D01*
X169268500Y-132368300D02*
X169000000Y-132368300D01*
X170955100Y-126175500D02*
X170885400Y-126245200D01*
X170955100Y-104440900D02*
X170955100Y-99217200D01*
X170719700Y-106601800D02*
X170564200Y-106446300D01*
X170564200Y-104831800D02*
X170955100Y-104440900D01*
X170815600Y-106697700D02*
X170815600Y-106785600D01*
X170885400Y-130751400D02*
X169268500Y-132368300D01*
X169000000Y-78320000D02*
X169000000Y-78887900D01*
X170955100Y-106925100D02*
X170955100Y-126175500D01*
X170564200Y-106446300D02*
X170564200Y-104831800D01*
X170955100Y-99217200D02*
X170719700Y-98981800D01*
X170564200Y-80452100D02*
X170564200Y-98826300D01*
X170885400Y-126245200D02*
X170885400Y-130751400D01*
X170719700Y-98981800D02*
X170564200Y-98826300D01*
X170719700Y-98981800D02*
X170564200Y-98826300D01*
X170815600Y-106785600D02*
X170955100Y-106925100D01*
%TO.N,A_GPIO10*%
X170413900Y-106864000D02*
X170413900Y-106951900D01*
X167887400Y-66732600D02*
X169000000Y-65620000D01*
X170318000Y-106768100D02*
X170151700Y-106601800D01*
X170318000Y-106768100D02*
X170151700Y-106601800D01*
X170318000Y-106768100D02*
X170413900Y-106864000D01*
X169288000Y-119668300D02*
X169000000Y-119668300D01*
X170151700Y-106601800D02*
X170151700Y-104519000D01*
X170553400Y-104117300D02*
X170553400Y-99383500D01*
X170553400Y-99383500D02*
X170318000Y-99148100D01*
X170553400Y-107091400D02*
X170553400Y-118402900D01*
X170318000Y-99148100D02*
X170151700Y-98981800D01*
X170151700Y-98981800D02*
X170151700Y-83835400D01*
X170318000Y-99148100D02*
X170151700Y-98981800D01*
X170413900Y-106951900D02*
X170553400Y-107091400D01*
X170553400Y-118402900D02*
X169288000Y-119668300D01*
X169000000Y-120820000D02*
X169000000Y-119668300D01*
X167887400Y-81571100D02*
X167887400Y-66732600D01*
X170151700Y-104519000D02*
X170553400Y-104117300D01*
X170151700Y-83835400D02*
X167887400Y-81571100D01*
%TO.N,A_3V3_EN*%
X190723600Y-65276500D02*
X190723600Y-47806900D01*
X191848300Y-93446700D02*
X191848300Y-67156900D01*
X190723600Y-47806900D02*
X190684300Y-47767600D01*
X191286000Y-66594600D02*
X191286000Y-65838900D01*
X191727000Y-93568000D02*
X191848300Y-93446700D01*
X191727000Y-94393900D02*
X191727000Y-93568000D01*
X190684300Y-45788200D02*
X188486600Y-43590500D01*
X190684300Y-47767600D02*
X190684300Y-45788200D01*
X191286000Y-65838900D02*
X190723600Y-65276500D01*
X191848300Y-67156900D02*
X191286000Y-66594600D01*
%TO.N,A_GPIO0*%
X168697600Y-49112700D02*
X167474600Y-50335700D01*
X170526800Y-41693500D02*
X170526800Y-47937600D01*
X169000000Y-87800000D02*
X169000000Y-86648300D01*
X167474600Y-50335700D02*
X167474600Y-81926500D01*
X167874800Y-82326700D02*
X167874800Y-85523100D01*
X170125100Y-41291800D02*
X170125100Y-33725100D01*
X167710000Y-82161900D02*
X167874800Y-82326700D01*
X170291400Y-41458100D02*
X170125100Y-41291800D01*
X169351700Y-49112700D02*
X168697600Y-49112700D01*
X170125100Y-33725100D02*
X169000000Y-32600000D01*
X167710000Y-82161900D02*
X167874800Y-82326700D01*
X170526800Y-47937600D02*
X169351700Y-49112700D01*
X167474600Y-81926500D02*
X167710000Y-82161900D01*
X167874800Y-85523100D02*
X169000000Y-86648300D01*
X170291400Y-41458100D02*
X170125100Y-41291800D01*
X170291400Y-41458100D02*
X170526800Y-41693500D01*
%TO.N,A_GPIO6*%
X169000000Y-52920000D02*
X170134700Y-54054700D01*
X170134700Y-79384000D02*
X171417300Y-80666600D01*
X170134700Y-54054700D02*
X170134700Y-79384000D01*
X171417300Y-80666600D02*
X171417300Y-106536500D01*
%TO.N,TX-RX*%
X185394400Y-121804100D02*
X185394400Y-123691200D01*
X187881700Y-77845400D02*
X187166900Y-77130600D01*
X185664500Y-76613400D02*
X185664500Y-71815500D01*
X184788300Y-112969500D02*
X184788300Y-121198000D01*
X187881700Y-81322300D02*
X187881700Y-77845400D01*
X186256000Y-82365300D02*
X186838700Y-82365300D01*
X185664500Y-71815500D02*
X186780000Y-70700000D01*
X186256000Y-82365300D02*
X184021500Y-84599800D01*
X186511500Y-124808300D02*
X186780000Y-124808300D01*
X186780000Y-125960000D02*
X186780000Y-124808300D01*
X187166900Y-77130600D02*
X186181700Y-77130600D01*
X184021500Y-112202700D02*
X184788300Y-112969500D01*
X186181700Y-77130600D02*
X185664500Y-76613400D01*
X184021500Y-84599800D02*
X184021500Y-112202700D01*
X185394400Y-123691200D02*
X186511500Y-124808300D01*
X184788300Y-121198000D02*
X185394400Y-121804100D01*
X186838700Y-82365300D02*
X187881700Y-81322300D01*
%TO.N,A_GPIO26*%
X189906400Y-68970600D02*
X189906400Y-106708500D01*
X189518500Y-65837700D02*
X189504700Y-65823900D01*
X189906400Y-67119000D02*
X189512500Y-67512900D01*
X189518500Y-66056500D02*
X189753900Y-66291900D01*
X186780000Y-55460000D02*
X189103000Y-57783000D01*
X189103000Y-57783000D02*
X189103000Y-61487400D01*
X189269300Y-61653700D02*
X189103000Y-61487400D01*
X187046600Y-109568300D02*
X186780000Y-109568300D01*
X189906400Y-66444400D02*
X189906400Y-67119000D01*
X189504700Y-65823900D02*
X189504700Y-61889100D01*
X186780000Y-110720000D02*
X186780000Y-109568300D01*
X189753900Y-66291900D02*
X189906400Y-66444400D01*
X189906400Y-106708500D02*
X187046600Y-109568300D01*
X189512500Y-67512900D02*
X189512500Y-68343700D01*
X189518500Y-65837700D02*
X189518500Y-66056500D01*
X189518500Y-65837700D02*
X189504700Y-65823900D01*
X189504700Y-61889100D02*
X189269300Y-61653700D01*
X189712500Y-68543700D02*
X189712500Y-68776700D01*
X189712500Y-68776700D02*
X189906400Y-68970600D01*
X189512500Y-68343700D02*
X189712500Y-68543700D01*
X189753900Y-66291900D02*
X189906400Y-66444400D01*
X189269300Y-61653700D02*
X189103000Y-61487400D01*
%TO.N,A_RUN*%
X189310800Y-68710000D02*
X189310800Y-68943000D01*
X189504700Y-66952700D02*
X189110800Y-67346600D01*
X188219800Y-59439800D02*
X186780000Y-58000000D01*
X189310800Y-68943000D02*
X189504700Y-69136900D01*
X189352200Y-66458200D02*
X189504700Y-66610700D01*
X187175700Y-91670000D02*
X186420100Y-91670000D01*
X185226600Y-92863500D02*
X185226600Y-111504400D01*
X189103000Y-65990200D02*
X189103000Y-62255600D01*
X189116800Y-66004000D02*
X189116800Y-66222800D01*
X188219800Y-61372400D02*
X188219800Y-59439800D01*
X189504700Y-89341000D02*
X187175700Y-91670000D01*
X189504700Y-69136900D02*
X189504700Y-89341000D01*
X189116800Y-66004000D02*
X189103000Y-65990200D01*
X189110800Y-67346600D02*
X189110800Y-68510000D01*
X189504700Y-66610700D02*
X189504700Y-66952700D01*
X185226600Y-111504400D02*
X186780000Y-113057800D01*
X186420100Y-91670000D02*
X185226600Y-92863500D01*
X189116800Y-66004000D02*
X189103000Y-65990200D01*
X186780000Y-113057800D02*
X186780000Y-113260000D01*
X189103000Y-62255600D02*
X188219800Y-61372400D01*
X189352200Y-66458200D02*
X189504700Y-66610700D01*
X189110800Y-68510000D02*
X189310800Y-68710000D01*
X189116800Y-66222800D02*
X189352200Y-66458200D01*
%TO.N,CS*%
X183619800Y-131384600D02*
X183845900Y-131610700D01*
X183453500Y-112772900D02*
X183619800Y-112939200D01*
X183218100Y-112537500D02*
X183453500Y-112772900D01*
X183218100Y-81881900D02*
X183218100Y-112537500D01*
X186780000Y-78320000D02*
X183218100Y-81881900D01*
X183453500Y-112772900D02*
X183619800Y-112939200D01*
X183619800Y-112939200D02*
X183619800Y-131384600D01*
%TO.N,A_GPIO20*%
X186780000Y-123420000D02*
X186780000Y-122268300D01*
X184423200Y-111890600D02*
X185060300Y-112527700D01*
X184423200Y-86775900D02*
X184423200Y-111890600D01*
X188289200Y-82909900D02*
X184423200Y-86775900D01*
X185060300Y-112527700D02*
X185192200Y-112659600D01*
X186780000Y-68160000D02*
X188289200Y-69669200D01*
X185192200Y-112659600D02*
X185192200Y-120966300D01*
X185192200Y-120966300D02*
X186494200Y-122268300D01*
X188289200Y-69669200D02*
X188289200Y-82909900D01*
X185060300Y-112527700D02*
X185192200Y-112659600D01*
X186494200Y-122268300D02*
X186780000Y-122268300D01*
%TO.N,A_GPIO8*%
X164463800Y-74225400D02*
X164463800Y-77859100D01*
X163868600Y-60566300D02*
X163868600Y-67108100D01*
X164160200Y-60274700D02*
X163868600Y-60566300D01*
X164488800Y-67728300D02*
X164488800Y-74200400D01*
X164160200Y-59435000D02*
X164160200Y-60274700D01*
X164488800Y-74200400D02*
X164463800Y-74225400D01*
X164267400Y-78055500D02*
X164267400Y-107603600D01*
X164463800Y-77859100D02*
X164267400Y-78055500D01*
X163868600Y-67108100D02*
X164488800Y-67728300D01*
X168712100Y-112048300D02*
X169000000Y-112048300D01*
X164267400Y-107603600D02*
X168712100Y-112048300D01*
X169000000Y-113200000D02*
X169000000Y-112048300D01*
X163867400Y-59142200D02*
X164160200Y-59435000D01*
%TO.N,A-VBUS*%
X229190000Y-77000000D02*
X229190000Y-77550800D01*
X236810000Y-72500000D02*
X236810000Y-73601700D01*
X188701300Y-84787000D02*
X186780000Y-86708300D01*
X187881700Y-68649900D02*
X188701300Y-69469500D01*
X232099000Y-88401000D02*
X232000000Y-88500000D01*
X187935800Y-33755800D02*
X187935800Y-35550500D01*
X187144000Y-36342300D02*
X186151000Y-36342300D01*
X187935800Y-35550500D02*
X187144000Y-36342300D01*
X184825600Y-37667700D02*
X184825600Y-45632600D01*
X186938800Y-61668400D02*
X187881700Y-62611300D01*
X186350400Y-61668400D02*
X186938800Y-61668400D01*
X186151000Y-36342300D02*
X184825600Y-37667700D01*
X235330100Y-75081600D02*
X235330100Y-75926600D01*
X231975000Y-88475000D02*
X229405000Y-88475000D01*
X185183900Y-45990900D02*
X185183900Y-60501900D01*
X185183900Y-60501900D02*
X186350400Y-61668400D01*
X185061000Y-45868000D02*
X185183900Y-45990900D01*
X185061000Y-45868000D02*
X185183900Y-45990900D01*
X188701300Y-69469500D02*
X188701300Y-84787000D01*
X187881700Y-62611300D02*
X187881700Y-68649900D01*
X229190000Y-77000000D02*
X232099000Y-79909000D01*
X235330100Y-91830100D02*
X235500000Y-92000000D01*
X186780000Y-87860000D02*
X186780000Y-86708300D01*
X184825600Y-45632600D02*
X185061000Y-45868000D01*
X235330100Y-75926600D02*
X235330100Y-91830100D01*
X186780000Y-32600000D02*
X187935800Y-33755800D01*
X232099000Y-79909000D02*
X232099000Y-88401000D01*
X232000000Y-88500000D02*
X231975000Y-88475000D01*
X236810000Y-73601700D02*
X235330100Y-75081600D01*
%TO.N,A_GPIO3*%
X165668800Y-101339600D02*
X168549800Y-104220600D01*
X170151700Y-99994900D02*
X169268500Y-99111700D01*
X165716400Y-87666100D02*
X165716500Y-87666100D01*
X169000000Y-42760000D02*
X165693900Y-46066100D01*
X165668900Y-78358000D02*
X165472500Y-78554400D01*
X166069000Y-88517000D02*
X165668800Y-88917200D01*
X165668900Y-74724300D02*
X165668900Y-78358000D01*
X165716500Y-87666100D02*
X166069000Y-88018600D01*
X169469800Y-104220600D02*
X170151700Y-103538700D01*
X169268500Y-99111700D02*
X169000000Y-99111700D01*
X166069000Y-88018600D02*
X166069000Y-88517000D01*
X165693900Y-74699300D02*
X165668900Y-74724300D01*
X170151700Y-103538700D02*
X170151700Y-99994900D01*
X168549800Y-104220600D02*
X169469800Y-104220600D01*
X165668800Y-88917200D02*
X165668800Y-101339600D01*
X165472500Y-87422200D02*
X165716400Y-87666100D01*
X169000000Y-97960000D02*
X169000000Y-99111700D01*
X165472500Y-78554400D02*
X165472500Y-87422200D01*
X165693900Y-46066100D02*
X165693900Y-74699300D01*
%TO.N,RX-TX*%
X184326000Y-113077400D02*
X184343800Y-113095200D01*
X184343800Y-113095200D02*
X184343800Y-121775200D01*
X184841800Y-82569800D02*
X183619800Y-83791800D01*
X186492100Y-134968300D02*
X184731100Y-133207300D01*
X184343800Y-121775200D02*
X184731100Y-122162500D01*
X186780000Y-134968300D02*
X186492100Y-134968300D01*
X184731100Y-133207300D02*
X184731100Y-122162500D01*
X186780000Y-136120000D02*
X186780000Y-134968300D01*
X183619800Y-112371200D02*
X184326000Y-113077400D01*
X184326000Y-113077400D02*
X184343800Y-113095200D01*
X183619800Y-83791800D02*
X183619800Y-112371200D01*
%TO.N,A_GPIO4*%
X166275900Y-80050400D02*
X166511300Y-80285800D01*
X166482800Y-75612100D02*
X166649100Y-75778400D01*
X167037600Y-99402100D02*
X166837600Y-99602100D01*
X166649100Y-78513800D02*
X166275900Y-78887000D01*
X166649100Y-75778400D02*
X166649100Y-78513800D01*
X166482800Y-75612100D02*
X166497300Y-75597600D01*
X166649100Y-87462700D02*
X167037600Y-87851200D01*
X166511300Y-80285800D02*
X166649100Y-80423600D01*
X166497300Y-75597600D02*
X166497300Y-47802700D01*
X166497300Y-47802700D02*
X169000000Y-45300000D01*
X167037600Y-87851200D02*
X167037600Y-99402100D01*
X166649100Y-80423600D02*
X166649100Y-87462700D01*
X166275900Y-78887000D02*
X166275900Y-80050400D01*
X166482800Y-75612100D02*
X166649100Y-75778400D01*
X166511300Y-80285800D02*
X166649100Y-80423600D01*
%TO.N,A_ADC_VREF*%
X192651700Y-66824300D02*
X192089400Y-66262000D01*
X192089400Y-66262000D02*
X192089400Y-46342400D01*
X185629000Y-44149000D02*
X186780000Y-45300000D01*
X187388900Y-41641900D02*
X186336200Y-41641900D01*
X192771200Y-94019000D02*
X192651600Y-93899400D01*
X192651700Y-93879300D02*
X192651700Y-66824300D01*
X192651600Y-93899400D02*
X192651600Y-93879400D01*
X186336200Y-41641900D02*
X185629000Y-42349100D01*
X191749300Y-100139600D02*
X192771200Y-99117700D01*
X185629000Y-42349100D02*
X185629000Y-44149000D01*
X192651600Y-93879400D02*
X192651700Y-93879300D01*
X192771200Y-99117700D02*
X192771200Y-94019000D01*
X192089400Y-46342400D02*
X187388900Y-41641900D01*
%TO.N,A_GPIO1*%
X165070800Y-78388100D02*
X165070800Y-87871300D01*
X165292200Y-38847800D02*
X165292200Y-74533000D01*
X165267200Y-74558000D02*
X165267200Y-78191700D01*
X169000000Y-35140000D02*
X165292200Y-38847800D01*
X165267200Y-78191700D02*
X165070800Y-78388100D01*
X165292200Y-74533000D02*
X165267200Y-74558000D01*
X165070800Y-87871300D02*
X165467300Y-88267800D01*
%TO.N,A_GPIO9*%
X161796600Y-61787400D02*
X163558500Y-60025500D01*
X161796600Y-108924500D02*
X161796600Y-61787400D01*
%TO.N,A_GPIO21*%
X187048500Y-119728300D02*
X186780000Y-119728300D01*
X190723600Y-68136000D02*
X190723600Y-116053200D01*
X190723600Y-116053200D02*
X187048500Y-119728300D01*
X190515900Y-67928300D02*
X190723600Y-68136000D01*
X186780000Y-120880000D02*
X186780000Y-119728300D01*
%TO.N,UART_TX*%
X171487100Y-126494300D02*
X172019000Y-125962400D01*
X172019000Y-80110200D02*
X171215500Y-79306700D01*
X172019000Y-125962400D02*
X172019000Y-80110200D01*
%TO.N,A_GPIO11*%
X163722400Y-73169500D02*
X163722500Y-73169500D01*
X163722400Y-67928300D02*
X163722400Y-73169500D01*
X163865700Y-117361900D02*
X168712100Y-122208300D01*
X163722500Y-73169500D02*
X164087100Y-73534100D01*
X164087100Y-74034100D02*
X163865700Y-74255500D01*
X168712100Y-122208300D02*
X169000000Y-122208300D01*
X164087100Y-73534100D02*
X164087100Y-74034100D01*
X163865700Y-74255500D02*
X163865700Y-117361900D01*
X169000000Y-123360000D02*
X169000000Y-122208300D01*
%TO.N,A_GPIO22*%
X189103000Y-87664500D02*
X187530100Y-89237400D01*
X184824900Y-111706000D02*
X185628300Y-112509400D01*
X185628300Y-113765100D02*
X186511500Y-114648300D01*
X188909100Y-68876300D02*
X188909100Y-69109300D01*
X185628300Y-112509400D02*
X185628300Y-113765100D01*
X188701300Y-62461300D02*
X188701300Y-68668500D01*
X186780000Y-115800000D02*
X186780000Y-114648300D01*
X189103000Y-69303200D02*
X189103000Y-87664500D01*
X188909100Y-69109300D02*
X189103000Y-69303200D01*
X186281900Y-89237400D02*
X184824900Y-90694400D01*
X184824900Y-90694400D02*
X184824900Y-111706000D01*
X187530100Y-89237400D02*
X186281900Y-89237400D01*
X186780000Y-60540000D02*
X188701300Y-62461300D01*
X186511500Y-114648300D02*
X186780000Y-114648300D01*
X188701300Y-68668500D02*
X188909100Y-68876300D01*
%TO.N,A_GPIO28*%
X192369500Y-98344200D02*
X192369500Y-94185300D01*
X192369500Y-94185300D02*
X192249900Y-94065700D01*
X192249900Y-94065700D02*
X192249900Y-93713100D01*
X192250000Y-93713000D02*
X192250000Y-66990600D01*
X191501400Y-99212300D02*
X192369500Y-98344200D01*
X191452300Y-65355900D02*
X191286000Y-65189600D01*
X191687700Y-66428300D02*
X191687700Y-65591300D01*
X191687700Y-65591300D02*
X191452300Y-65355900D01*
X191286000Y-65189600D02*
X191286000Y-47518500D01*
X192250000Y-66990600D02*
X191687700Y-66428300D01*
X192249900Y-93713100D02*
X192250000Y-93713000D01*
X191452300Y-65355900D02*
X191286000Y-65189600D01*
%TO.N,A_GPIO15*%
X173946300Y-130249900D02*
X169287900Y-134908300D01*
X169287900Y-134908300D02*
X169000000Y-134908300D01*
X173946300Y-82361800D02*
X173946300Y-130249900D01*
X169000000Y-136060000D02*
X169000000Y-134908300D01*
%TO.N,B_GPIO7*%
X196099400Y-70255500D02*
X196099400Y-69466600D01*
X196299400Y-70455500D02*
X196099400Y-70255500D01*
X196499600Y-69066400D02*
X196499600Y-59248400D01*
X195756400Y-71331100D02*
X196299400Y-70788100D01*
X195751200Y-107816300D02*
X196260700Y-108325800D01*
X195354700Y-95479600D02*
X195756400Y-95077900D01*
X195756400Y-95077900D02*
X195756400Y-71331100D01*
X195751200Y-103335100D02*
X195751200Y-107816300D01*
X195590100Y-103174000D02*
X195614600Y-103198500D01*
X195354700Y-102938600D02*
X195354700Y-95479600D01*
X196299400Y-70788100D02*
X196299400Y-70455500D01*
X195590100Y-103174000D02*
X195354700Y-102938600D01*
X195614600Y-103198500D02*
X195751200Y-103335100D01*
X199720000Y-56028000D02*
X199720000Y-55460000D01*
X196499600Y-59248400D02*
X199720000Y-56028000D01*
X196099400Y-69466600D02*
X196499600Y-69066400D01*
X195590100Y-103174000D02*
X195614600Y-103198500D01*
%TO.N,B_GPIO6*%
X197303000Y-69399000D02*
X197303000Y-61363300D01*
X196559800Y-71663700D02*
X197102800Y-71120700D01*
X196761300Y-103240900D02*
X196958400Y-103438000D01*
X197264100Y-107910300D02*
X197264100Y-109448900D01*
X196418000Y-102865900D02*
X196653400Y-103101300D01*
X196559800Y-95410500D02*
X196559800Y-71663700D01*
X196761300Y-103209200D02*
X196761300Y-103240900D01*
X200046000Y-59270000D02*
X200838300Y-58477700D01*
X196954800Y-69747200D02*
X197303000Y-69399000D01*
X196158100Y-102606000D02*
X196158100Y-95812200D01*
X196653400Y-103101300D02*
X196761300Y-103209200D01*
X196954800Y-69974900D02*
X196954800Y-69747200D01*
X200838300Y-54038300D02*
X199720000Y-52920000D01*
X196653400Y-103101300D02*
X196761300Y-103209200D01*
X197102800Y-71120700D02*
X197102800Y-70122900D01*
X197303000Y-61363300D02*
X199396300Y-59270000D01*
X197264100Y-109448900D02*
X197014600Y-109698400D01*
X196158100Y-95812200D02*
X196559800Y-95410500D01*
X196958400Y-103438000D02*
X196958400Y-106921900D01*
X196393500Y-102841400D02*
X196418000Y-102865900D01*
X197102800Y-70122900D02*
X196954800Y-69974900D01*
X197064100Y-107710300D02*
X197264100Y-107910300D01*
X197064100Y-107027600D02*
X197064100Y-107710300D01*
X200838300Y-58477700D02*
X200838300Y-54038300D01*
X196393500Y-102841400D02*
X196158100Y-102606000D01*
X196958400Y-106921900D02*
X197064100Y-107027600D01*
X199396300Y-59270000D02*
X200046000Y-59270000D01*
X196393500Y-102841400D02*
X196418000Y-102865900D01*
%TO.N,B_GPIO27*%
X220276400Y-66090500D02*
X221113400Y-66927500D01*
X220289600Y-96556100D02*
X220289600Y-107509000D01*
X220744100Y-94312700D02*
X220744100Y-96101600D01*
X221113400Y-66927500D02*
X221113400Y-93943400D01*
X220058500Y-65872600D02*
X220058500Y-55478500D01*
X220744100Y-96101600D02*
X220289600Y-96556100D01*
X220058500Y-55478500D02*
X217500000Y-52920000D01*
X221113400Y-93943400D02*
X220744100Y-94312700D01*
X220276400Y-66090500D02*
X220058500Y-65872600D01*
X219732500Y-108066100D02*
X219730900Y-108066100D01*
X220289600Y-107509000D02*
X219732500Y-108066100D01*
X220276400Y-66090500D02*
X220058500Y-65872600D01*
%TO.N,B_GPIO5*%
X199720000Y-47840000D02*
X197290300Y-50269700D01*
X195697700Y-69264300D02*
X195697700Y-70421800D01*
X197290300Y-50269700D02*
X197290300Y-57889700D01*
X196097900Y-59082100D02*
X196097900Y-68900100D01*
X195354700Y-71164800D02*
X195354700Y-94811400D01*
X195856400Y-70663100D02*
X195354700Y-71164800D01*
X196097900Y-68900100D02*
X195897900Y-69100100D01*
X195354700Y-94811400D02*
X194834300Y-95331800D01*
X195897900Y-69100100D02*
X195861900Y-69100100D01*
X197290300Y-57889700D02*
X196097900Y-59082100D01*
X195697700Y-70421800D02*
X195856400Y-70580500D01*
X195861900Y-69100100D02*
X195697700Y-69264300D01*
X194834300Y-95331800D02*
X194834300Y-103814800D01*
X195856400Y-70580500D02*
X195856400Y-70663100D01*
%TO.N,B_RUN*%
X220311000Y-94177800D02*
X220711700Y-93777100D01*
X219255100Y-66205200D02*
X219255100Y-59755100D01*
X219878100Y-105793000D02*
X219878100Y-95831500D01*
X219255100Y-59755100D02*
X217500000Y-58000000D01*
X220711700Y-93777100D02*
X220711700Y-67661800D01*
X220311000Y-95398600D02*
X220311000Y-94177800D01*
X220711700Y-67661800D02*
X219255100Y-66205200D01*
X219878100Y-95831500D02*
X220311000Y-95398600D01*
X219476400Y-106194700D02*
X219878100Y-105793000D01*
%TO.N,B_GPIO14*%
X201280100Y-113855500D02*
X201278600Y-113854000D01*
X200007900Y-132368300D02*
X201680300Y-130695900D01*
X199330300Y-109390000D02*
X198568300Y-108628000D01*
X201278600Y-113854000D02*
X201278600Y-112083500D01*
X201043200Y-111848100D02*
X200876900Y-111681800D01*
X198568300Y-102069700D02*
X198166600Y-101668000D01*
X200876900Y-111681800D02*
X200876900Y-110176100D01*
X200090800Y-109390000D02*
X199330300Y-109390000D01*
X201043200Y-111848100D02*
X200876900Y-111681800D01*
X201444900Y-114457300D02*
X201280100Y-114292500D01*
X199720000Y-133520000D02*
X199720000Y-132368300D01*
X198166600Y-101668000D02*
X198166600Y-79873400D01*
X201278600Y-112083500D02*
X201043200Y-111848100D01*
X201444900Y-114457300D02*
X201280100Y-114292500D01*
X198568300Y-108628000D02*
X198568300Y-102069700D01*
X198166600Y-79873400D02*
X199720000Y-78320000D01*
X201680300Y-114692700D02*
X201444900Y-114457300D01*
X201680300Y-130695900D02*
X201680300Y-114692700D01*
X200876900Y-110176100D02*
X200090800Y-109390000D01*
X199720000Y-132368300D02*
X200007900Y-132368300D01*
X201280100Y-114292500D02*
X201280100Y-113855500D01*
%TO.N,B_ADC_VREF*%
X221916900Y-49716900D02*
X217500000Y-45300000D01*
X221694800Y-100138300D02*
X221694800Y-96286900D01*
X221916900Y-96064800D02*
X221916900Y-49716900D01*
X221694800Y-96286900D02*
X221916900Y-96064800D01*
%TO.N,B_GPIO4*%
X192818000Y-66422600D02*
X192651700Y-66256300D01*
X195139100Y-55005600D02*
X195139100Y-46371800D01*
X193334200Y-97211300D02*
X193373000Y-97211300D01*
X192651700Y-57493000D02*
X195139100Y-55005600D01*
X192818000Y-66422600D02*
X192651700Y-66256300D01*
X193334200Y-92681700D02*
X193053400Y-92400900D01*
X193053400Y-66658000D02*
X192818000Y-66422600D01*
X193053400Y-92400900D02*
X193053400Y-66658000D01*
X192651700Y-66256300D02*
X192651700Y-57493000D01*
X193334200Y-97211300D02*
X193334200Y-92681700D01*
%TO.N,B_GPIO26*%
X217212100Y-111871700D02*
X216336900Y-112746900D01*
X216336900Y-112746900D02*
X216336900Y-116310900D01*
X232500000Y-89073547D02*
X232500000Y-77384700D01*
X227576000Y-107421400D02*
X227576000Y-93997547D01*
X217500000Y-110720000D02*
X217500000Y-111871700D01*
X217992000Y-117005400D02*
X227576000Y-107421400D01*
X217500000Y-111871700D02*
X217212100Y-111871700D01*
X227576000Y-93997547D02*
X232500000Y-89073547D01*
X232500000Y-77384700D02*
X227064700Y-71949400D01*
X217031400Y-117005400D02*
X217992000Y-117005400D01*
X227064700Y-71949400D02*
X227064700Y-58672900D01*
X216336900Y-116310900D02*
X217031400Y-117005400D01*
%TO.N,B-VBUS*%
X215801500Y-59468200D02*
X215961200Y-59627900D01*
X216348300Y-85556600D02*
X217500000Y-86708300D01*
X215164400Y-34935600D02*
X215164400Y-54319100D01*
X215961200Y-69526600D02*
X216348300Y-69913700D01*
X215961200Y-59627900D02*
X215961200Y-69526600D01*
X215399800Y-54554500D02*
X215566100Y-54720800D01*
X217500000Y-32600000D02*
X215164400Y-34935600D01*
X215566100Y-54720800D02*
X215566100Y-59232800D01*
X215399800Y-54554500D02*
X215566100Y-54720800D01*
X215801500Y-59468200D02*
X215961200Y-59627900D01*
X215164400Y-54319100D02*
X215399800Y-54554500D01*
X215566100Y-59232800D02*
X215801500Y-59468200D01*
X217500000Y-87860000D02*
X217500000Y-86708300D01*
X216348300Y-69913700D02*
X216348300Y-85556600D01*
%TO.N,B_3V3(OUT)*%
X217500000Y-42760000D02*
X222346100Y-47606100D01*
X222500000Y-107000000D02*
X226000000Y-107000000D01*
X222413700Y-106913700D02*
X222500000Y-107000000D01*
X222346100Y-47606100D02*
X222346100Y-97471900D01*
X222346100Y-97471900D02*
X222413700Y-97539500D01*
X222413700Y-97539500D02*
X222413700Y-106913700D01*
%TO.N,B_GPIO1*%
X193069100Y-66105700D02*
X193069100Y-58525300D01*
X193455100Y-90353700D02*
X193455100Y-66491700D01*
X193219700Y-66256300D02*
X193069100Y-66105700D01*
X195740800Y-39119200D02*
X199720000Y-35140000D01*
X193455100Y-66491700D02*
X193219700Y-66256300D01*
X193219700Y-66256300D02*
X193069100Y-66105700D01*
X193069100Y-58525300D02*
X195740800Y-55853600D01*
X193655200Y-90553800D02*
X193455100Y-90353700D01*
X195740800Y-55853600D02*
X195740800Y-39119200D01*
%TO.N,B_GPIO28*%
X219270700Y-66824800D02*
X219306700Y-66824800D01*
X219571400Y-69065500D02*
X219506700Y-69000800D01*
X215967800Y-53986500D02*
X216203200Y-54221900D01*
X219476400Y-104452200D02*
X219476400Y-95463700D01*
X217500000Y-47840000D02*
X215967800Y-49372200D01*
X219476400Y-95463700D02*
X219908400Y-95031700D01*
X219908400Y-94012400D02*
X220310000Y-93610800D01*
X217318000Y-59438300D02*
X217965100Y-59438300D01*
X220310000Y-93610800D02*
X220310000Y-69804100D01*
X219506700Y-67024800D02*
X219506700Y-69000800D01*
X219571400Y-69065500D02*
X219506700Y-69000800D01*
X216203200Y-54221900D02*
X216369500Y-54388200D01*
X220310000Y-69804100D02*
X219571400Y-69065500D01*
X219306700Y-66824800D02*
X219506700Y-67024800D01*
X216203200Y-54221900D02*
X216369500Y-54388200D01*
X216369500Y-58489800D02*
X217318000Y-59438300D01*
X219908400Y-95031700D02*
X219908400Y-94012400D01*
X218853400Y-66407500D02*
X219270700Y-66824800D01*
X219275600Y-104653000D02*
X219476400Y-104452200D01*
X215967800Y-49372200D02*
X215967800Y-53986500D01*
X217965100Y-59438300D02*
X218853400Y-60326600D01*
X218853400Y-60326600D02*
X218853400Y-66407500D01*
X216369500Y-54388200D02*
X216369500Y-58489800D01*
%TO.N,B_GPIO2*%
X195296000Y-69098000D02*
X195296000Y-69100100D01*
X195296000Y-69100100D02*
X194752900Y-69643200D01*
X195587200Y-68590900D02*
X195587200Y-56770000D01*
X194752900Y-69643200D02*
X194752900Y-94511400D01*
X196142500Y-56214700D02*
X196142500Y-43797500D01*
X195587200Y-56770000D02*
X196142500Y-56214700D01*
X195695200Y-68698800D02*
X195296000Y-69098000D01*
X195587200Y-68590900D02*
X195695200Y-68698800D01*
X195587200Y-68590900D02*
X195695200Y-68698800D01*
X196142500Y-43797500D02*
X199720000Y-40220000D01*
%TO.N,B_GPIO10*%
X199720000Y-119668300D02*
X200007900Y-119668300D01*
X197363200Y-71996300D02*
X197906200Y-71453300D01*
X197894300Y-103592200D02*
X197764100Y-103462000D01*
X197363200Y-95743100D02*
X197363200Y-71996300D01*
X200878400Y-114021800D02*
X200876900Y-114020300D01*
X197483000Y-102768700D02*
X197456800Y-102768700D01*
X200878400Y-114458800D02*
X200878400Y-114021800D01*
X197906200Y-71453300D02*
X197906200Y-69931800D01*
X200876900Y-112679300D02*
X200245900Y-112048300D01*
X201043200Y-114623600D02*
X200878400Y-114458800D01*
X200876900Y-114020300D02*
X200876900Y-112679300D01*
X197894300Y-103592200D02*
X197764100Y-103462000D01*
X199451400Y-112048300D02*
X198166500Y-110763400D01*
X199720000Y-120820000D02*
X199720000Y-119668300D01*
X201278600Y-114859000D02*
X201043200Y-114623600D01*
X198166500Y-110763400D02*
X198166500Y-103864400D01*
X201278600Y-118397600D02*
X201278600Y-114859000D01*
X200007900Y-119668300D02*
X201278600Y-118397600D01*
X197456800Y-102768700D02*
X196961500Y-102273400D01*
X198166500Y-103864400D02*
X197894300Y-103592200D01*
X197906200Y-69931800D02*
X198106400Y-69731600D01*
X197764100Y-103462000D02*
X197764100Y-103049800D01*
X196961500Y-96144800D02*
X197363200Y-95743100D01*
X198106400Y-69731600D02*
X198106400Y-67233600D01*
X198106400Y-67233600D02*
X199720000Y-65620000D01*
X197764100Y-103049800D02*
X197483000Y-102768700D01*
X196961500Y-102273400D02*
X196961500Y-96144800D01*
X200245900Y-112048300D02*
X199451400Y-112048300D01*
X201043200Y-114623600D02*
X200878400Y-114458800D01*
%TO.N,B_GPIO0*%
X200871700Y-85496600D02*
X199720000Y-86648300D01*
X202272100Y-53671500D02*
X202107300Y-53506700D01*
X201705500Y-48508800D02*
X201705600Y-48508800D01*
X202107300Y-50650700D02*
X201858100Y-50401500D01*
X202272100Y-53671500D02*
X202272100Y-70661800D01*
X199720000Y-87800000D02*
X199720000Y-86648300D01*
X201858100Y-50401500D02*
X201705600Y-50249000D01*
X201307600Y-48110900D02*
X201705500Y-48508800D01*
X202107300Y-53506700D02*
X202107300Y-50650700D01*
X200871700Y-72062200D02*
X200871700Y-85496600D01*
X201705600Y-48508800D02*
X201705600Y-50249000D01*
X202272100Y-70661800D02*
X200871700Y-72062200D01*
X202272100Y-53671500D02*
X202107300Y-53506700D01*
X201858100Y-50401500D02*
X201705600Y-50249000D01*
X199720000Y-32600000D02*
X201307600Y-34187600D01*
X201307600Y-34187600D02*
X201307600Y-48110900D01*
%TO.N,B_GPIO3*%
X197842100Y-102277000D02*
X197764900Y-102199800D01*
X199373700Y-69430000D02*
X200096900Y-69430000D01*
X200905900Y-50707800D02*
X200905900Y-43945900D01*
X201690200Y-67836700D02*
X201690200Y-51492100D01*
X200905900Y-43945900D02*
X199720000Y-42760000D01*
X198329700Y-70474000D02*
X199373700Y-69430000D01*
X201690200Y-51492100D02*
X200905900Y-50707800D01*
X198329700Y-77619800D02*
X198329700Y-70474000D01*
X200096900Y-69430000D02*
X201690200Y-67836700D01*
X197764900Y-78184600D02*
X198329700Y-77619800D01*
X197764900Y-102199800D02*
X197764900Y-78184600D01*
%TO.N,B_GPIO21*%
X218673900Y-103776000D02*
X218673900Y-108661800D01*
X219908300Y-76418000D02*
X219908300Y-93444500D01*
X219656700Y-76166400D02*
X219708100Y-76115000D01*
X219708100Y-75449800D02*
X219405100Y-75146800D01*
X217500000Y-65622100D02*
X217500000Y-65620000D01*
X215935200Y-116916500D02*
X216170600Y-117151900D01*
X219073300Y-103376600D02*
X218673900Y-103776000D01*
X219908300Y-93444500D02*
X219506700Y-93846100D01*
X219672900Y-76182600D02*
X219656700Y-76166400D01*
X219708100Y-76115000D02*
X219708100Y-75449800D01*
X219105000Y-69167100D02*
X219105000Y-67227100D01*
X216170600Y-117151900D02*
X216336900Y-117318200D01*
X217117800Y-109450000D02*
X215935200Y-110632600D01*
X219073300Y-95298700D02*
X219073300Y-103376600D01*
X219169700Y-69231800D02*
X219105000Y-69167100D01*
X219169700Y-69231800D02*
X219105000Y-69167100D01*
X219405100Y-69467200D02*
X219169700Y-69231800D01*
X219506700Y-94865300D02*
X219073300Y-95298700D01*
X219405100Y-75146800D02*
X219405100Y-69467200D01*
X219672900Y-76182600D02*
X219656700Y-76166400D01*
X216170600Y-117151900D02*
X216336900Y-117318200D01*
X217885700Y-109450000D02*
X217117800Y-109450000D01*
X219672900Y-76182600D02*
X219908300Y-76418000D01*
X216336900Y-119716900D02*
X217500000Y-120880000D01*
X215935200Y-110632600D02*
X215935200Y-116916500D01*
X216336900Y-117318200D02*
X216336900Y-119716900D01*
X219105000Y-67227100D02*
X217500000Y-65622100D01*
X218673900Y-108661800D02*
X217885700Y-109450000D01*
X219506700Y-93846100D02*
X219506700Y-94865300D01*
%TO.N,B_GPIO8*%
X196662400Y-107193900D02*
X196556700Y-107088200D01*
X196662400Y-107876600D02*
X196662400Y-107193900D01*
X195991800Y-103007700D02*
X196016300Y-103032200D01*
X200876900Y-115179300D02*
X200876900Y-116251500D01*
X200476700Y-114779100D02*
X200876900Y-115179300D01*
X195991800Y-103007700D02*
X195756400Y-102772300D01*
X196393500Y-103441100D02*
X196556700Y-103604300D01*
X196901300Y-69232700D02*
X196901300Y-60818700D01*
X199265000Y-116915200D02*
X196399600Y-114049800D01*
X195991800Y-103007700D02*
X196016300Y-103032200D01*
X196901300Y-60818700D02*
X199720000Y-58000000D01*
X196158100Y-71497400D02*
X196701100Y-70954400D01*
X196701100Y-70954400D02*
X196701100Y-70289200D01*
X200876900Y-116251500D02*
X200213200Y-116915200D01*
X196862400Y-108903700D02*
X196862400Y-108076600D01*
X196399600Y-109366500D02*
X196862400Y-108903700D01*
X200476700Y-114188100D02*
X200476700Y-114779100D01*
X196393500Y-103441100D02*
X196556700Y-103604300D01*
X199720000Y-113431400D02*
X200476700Y-114188100D01*
X200213200Y-116915200D02*
X199265000Y-116915200D01*
X196399600Y-114049800D02*
X196399600Y-109366500D01*
X196862400Y-108076600D02*
X196662400Y-107876600D01*
X195756400Y-95645900D02*
X196158100Y-95244200D01*
X196501100Y-69632900D02*
X196901300Y-69232700D01*
X199720000Y-113200000D02*
X199720000Y-113431400D01*
X196156600Y-103172500D02*
X196156600Y-103204200D01*
X196156600Y-103204200D02*
X196393500Y-103441100D01*
X196701100Y-70289200D02*
X196501100Y-70089200D01*
X196556700Y-107088200D02*
X196556700Y-103604300D01*
X196158100Y-95244200D02*
X196158100Y-71497400D01*
X195756400Y-102772300D02*
X195756400Y-95645900D01*
X196016300Y-103032200D02*
X196156600Y-103172500D01*
X196501100Y-70089200D02*
X196501100Y-69632900D01*
%TO.N,B_GPIO20*%
X218601700Y-75479400D02*
X218863400Y-75741100D01*
X215881000Y-120937200D02*
X217212100Y-122268300D01*
X218660700Y-94988200D02*
X218660700Y-101041300D01*
X218601700Y-70000000D02*
X218601700Y-75479400D01*
X215533500Y-103437700D02*
X215533500Y-117082800D01*
X215533500Y-117082800D02*
X215768900Y-117318200D01*
X218836500Y-76550600D02*
X218904900Y-76550600D01*
X219104900Y-92877900D02*
X218660900Y-93321900D01*
X215768900Y-117318200D02*
X215881000Y-117430300D01*
X217212100Y-122268300D02*
X217500000Y-122268300D01*
X215881000Y-117430300D02*
X215881000Y-120937200D01*
X218281300Y-94110600D02*
X218281300Y-94608800D01*
X217500000Y-123420000D02*
X217500000Y-122268300D01*
X218863400Y-75823700D02*
X218704700Y-75982400D01*
X218704700Y-76418800D02*
X218836500Y-76550600D01*
X218660900Y-93731000D02*
X218281300Y-94110600D01*
X218704700Y-75982400D02*
X218704700Y-76418800D01*
X217753700Y-101948300D02*
X217022900Y-101948300D01*
X217500000Y-68898300D02*
X218601700Y-70000000D01*
X219104900Y-76750600D02*
X219104900Y-92877900D01*
X218904900Y-76550600D02*
X219104900Y-76750600D01*
X215768900Y-117318200D02*
X215881000Y-117430300D01*
X218281300Y-94608800D02*
X218660700Y-94988200D01*
X217500000Y-68160000D02*
X217500000Y-68898300D01*
X218660700Y-101041300D02*
X217753700Y-101948300D01*
X218660900Y-93321900D02*
X218660900Y-93731000D01*
X218863400Y-75741100D02*
X218863400Y-75823700D01*
X217022900Y-101948300D02*
X215533500Y-103437700D01*
%TO.N,B_GPIO15*%
X201444900Y-111681800D02*
X201285000Y-111521900D01*
X201681800Y-111918700D02*
X201444900Y-111681800D01*
X199720000Y-136060000D02*
X199720000Y-134908300D01*
X201444900Y-111681800D02*
X201285000Y-111521900D01*
X201846600Y-114291000D02*
X201681800Y-114126200D01*
X200097400Y-101770000D02*
X199324600Y-101770000D01*
X200007900Y-134908300D02*
X202082000Y-132834200D01*
X198568300Y-82011700D02*
X199720000Y-80860000D01*
X199720000Y-134908300D02*
X200007900Y-134908300D01*
X201285000Y-102957600D02*
X200097400Y-101770000D01*
X202082000Y-114526400D02*
X201846600Y-114291000D01*
X198568300Y-101013700D02*
X198568300Y-82011700D01*
X201681800Y-114126200D02*
X201681800Y-111918700D01*
X199324600Y-101770000D02*
X198568300Y-101013700D01*
X201285000Y-111521900D02*
X201285000Y-102957600D01*
X201846600Y-114291000D02*
X201681800Y-114126200D01*
X202082000Y-132834200D02*
X202082000Y-114526400D01*
%TO.N,B_GPIO22*%
X221289900Y-96533100D02*
X220867300Y-96955700D01*
X217500000Y-115800000D02*
X217500000Y-114648300D01*
X221291600Y-62383500D02*
X221515100Y-62607000D01*
X217768500Y-114648300D02*
X217500000Y-114648300D01*
X220867300Y-96955700D02*
X220867300Y-111549500D01*
X221515100Y-94109700D02*
X221289900Y-94334900D01*
X221289900Y-94334900D02*
X221289900Y-96533100D01*
X221515100Y-62607000D02*
X221515100Y-94109700D01*
X220867300Y-111549500D02*
X217768500Y-114648300D01*
%TO.N,B_3V3_EN*%
X218601700Y-69231800D02*
X218601700Y-67668500D01*
X215566100Y-54152800D02*
X215801500Y-54388200D01*
X219306400Y-75948700D02*
X219306400Y-75616100D01*
X219506600Y-76584300D02*
X219271200Y-76348900D01*
X219003400Y-69633500D02*
X218768000Y-69398100D01*
X215967800Y-54554500D02*
X215967800Y-59066500D01*
X219106400Y-76148700D02*
X219306400Y-75948700D01*
X215801500Y-54388200D02*
X215967800Y-54554500D01*
X219104900Y-94138200D02*
X219104900Y-93604900D01*
X219003400Y-75313100D02*
X219003400Y-69633500D01*
X219271200Y-76348900D02*
X219106400Y-76184100D01*
X217500000Y-40220000D02*
X215566100Y-42153900D01*
X217373300Y-67058300D02*
X216369500Y-66054500D01*
X219106400Y-76184100D02*
X219106400Y-76148700D01*
X219306400Y-75616100D02*
X219003400Y-75313100D01*
X219104900Y-93604900D02*
X219506600Y-93203200D01*
X217991500Y-67058300D02*
X217373300Y-67058300D01*
X216203200Y-59301900D02*
X216369500Y-59468200D01*
X216369500Y-66054500D02*
X216369500Y-59468200D01*
X218601700Y-67668500D02*
X217991500Y-67058300D01*
X218883400Y-94359700D02*
X219104900Y-94138200D01*
X215566100Y-42153900D02*
X215566100Y-54152800D01*
X216203200Y-59301900D02*
X216369500Y-59468200D01*
X219271200Y-76348900D02*
X219106400Y-76184100D01*
X218768000Y-69398100D02*
X218601700Y-69231800D01*
X215801500Y-54388200D02*
X215967800Y-54554500D01*
X219506600Y-93203200D02*
X219506600Y-76584300D01*
X215967800Y-59066500D02*
X216203200Y-59301900D01*
X218768000Y-69398100D02*
X218601700Y-69231800D01*
%TO.N,B_GPIO9*%
X197055100Y-102935000D02*
X197163000Y-103042900D01*
X197704700Y-69565300D02*
X197704700Y-62555300D01*
X197409000Y-69861000D02*
X197704700Y-69565300D01*
X197362400Y-106757900D02*
X197362400Y-103274000D01*
X197704700Y-62555300D02*
X199720000Y-60540000D01*
X199432100Y-114588300D02*
X197665800Y-112822000D01*
X197665800Y-107061300D02*
X197362400Y-106757900D01*
X197504500Y-69956600D02*
X197409000Y-69861100D01*
X197409000Y-69861100D02*
X197409000Y-69861000D01*
X197055100Y-102935000D02*
X197163000Y-103042900D01*
X197055100Y-102935000D02*
X196559800Y-102439700D01*
X197163000Y-103042900D02*
X197163000Y-103074600D01*
X199720000Y-114588300D02*
X199432100Y-114588300D01*
X197665800Y-112822000D02*
X197665800Y-107061300D01*
X196559800Y-95978500D02*
X196961500Y-95576800D01*
X197196900Y-103108500D02*
X197362400Y-103274000D01*
X196961500Y-71830000D02*
X197504500Y-71287000D01*
X197196900Y-103108500D02*
X197362400Y-103274000D01*
X199720000Y-115740000D02*
X199720000Y-114588300D01*
X196961500Y-95576800D02*
X196961500Y-71830000D01*
X197163000Y-103074600D02*
X197196900Y-103108500D01*
X197504500Y-71287000D02*
X197504500Y-69956600D01*
X196559800Y-102439700D02*
X196559800Y-95978500D01*
%TO.N,VSYS*%
X222916600Y-87230400D02*
X222916600Y-47833400D01*
X222946100Y-87259900D02*
X222916600Y-87230400D01*
X193500000Y-45908300D02*
X192098300Y-44506600D01*
X192098300Y-44506600D02*
X192098300Y-36151700D01*
X193500000Y-47310000D02*
X193500000Y-45908300D01*
X222916600Y-47833400D02*
X224500000Y-46250000D01*
X192098300Y-36151700D02*
X194750000Y-33500000D01*
X225000000Y-45750000D02*
X224500000Y-46250000D01*
X225000000Y-40810000D02*
X225000000Y-45750000D01*
%TO.N,VBAT(+)*%
X236897100Y-45102900D02*
X241500000Y-40500000D01*
X237959000Y-59231300D02*
X236897100Y-58169400D01*
X237959000Y-83041000D02*
X237959000Y-59231300D01*
X229929500Y-83000500D02*
X229405000Y-83525000D01*
X231499500Y-83000500D02*
X229929500Y-83000500D01*
X236897100Y-58169400D02*
X236897100Y-45102900D01*
X237600000Y-36600000D02*
X241500000Y-40500000D01*
X236500000Y-84500000D02*
X237959000Y-83041000D01*
X237600000Y-32000000D02*
X237600000Y-36600000D01*
%TO.N,Net-(D2-A)*%
X245000000Y-65500000D02*
X238000000Y-58500000D01*
X238000000Y-58500000D02*
X238000000Y-49500000D01*
%TO.N,~{CHRG}*%
X226865000Y-74018200D02*
X226865000Y-83525000D01*
%TO.N,~{STDBY}*%
X227979400Y-83950600D02*
X227905000Y-84025000D01*
%TO.N,Net-(SW1-B)*%
X233300000Y-35851700D02*
X233300000Y-37950000D01*
X235600000Y-32000000D02*
X235600000Y-33551700D01*
X235600000Y-33551700D02*
X233300000Y-35851700D01*
%TO.N,Net-(Q3-E)*%
X232948300Y-60460000D02*
X232948300Y-64051700D01*
X232948300Y-64051700D02*
X229000000Y-68000000D01*
X234000000Y-60460000D02*
X232948300Y-60460000D01*
X234000000Y-56500000D02*
X234000000Y-60460000D01*
%TO.N,Net-(Q3-B)*%
X232000000Y-91088300D02*
X232000000Y-95690000D01*
X236620000Y-66898300D02*
X235051700Y-65330000D01*
X236620000Y-68000000D02*
X236620000Y-69101700D01*
X233435700Y-72286000D02*
X233435700Y-89652600D01*
X236620000Y-69101700D02*
X233435700Y-72286000D01*
X235051700Y-65330000D02*
X235051700Y-55230000D01*
X234000000Y-55230000D02*
X235051700Y-55230000D01*
X236620000Y-68000000D02*
X236620000Y-66898300D01*
X233435700Y-89652600D02*
X232000000Y-91088300D01*
%TO.N,Net-(U1-PROG)*%
X226865000Y-91135000D02*
X224500000Y-93500000D01*
X226635000Y-88643200D02*
X226635000Y-88975000D01*
X226865000Y-91135000D02*
X226865000Y-88475000D01*
X224500000Y-93500000D02*
X224500000Y-95690000D01*
%TD*%
M02*
