%TF.GenerationSoftware,KiCad,Pcbnew,9.0.0*%
%TF.CreationDate,2025-09-26T14:07:43-04:00*%
%TF.ProjectId,Design V2.0,44657369-676e-4205-9632-2e302e6b6963,rev?*%
%TF.SameCoordinates,Original*%
%TF.FileFunction,Copper,L2,Bot*%
%TF.FilePolarity,Positive*%
%FSLAX46Y46*%
G04 Gerber Fmt 4.6, Leading zero omitted, Abs format (unit mm)*
G04 Created by KiCad (PCBNEW 9.0.0) date 2025-09-26 14:07:43*
%MOMM*%
%LPD*%
G01*
G04 APERTURE LIST*
G04 Aperture macros list*
%AMRoundRect*
0 Rectangle with rounded corners*
0 $1 Rounding radius*
0 $2 $3 $4 $5 $6 $7 $8 $9 X,Y pos of 4 corners*
0 Add a 4 corners polygon primitive as box body*
4,1,4,$2,$3,$4,$5,$6,$7,$8,$9,$2,$3,0*
0 Add four circle primitives for the rounded corners*
1,1,$1+$1,$2,$3*
1,1,$1+$1,$4,$5*
1,1,$1+$1,$6,$7*
1,1,$1+$1,$8,$9*
0 Add four rect primitives between the rounded corners*
20,1,$1+$1,$2,$3,$4,$5,0*
20,1,$1+$1,$4,$5,$6,$7,0*
20,1,$1+$1,$6,$7,$8,$9,0*
20,1,$1+$1,$8,$9,$2,$3,0*%
%AMFreePoly0*
4,1,37,0.603843,0.796157,0.639018,0.796157,0.711114,0.766294,0.766294,0.711114,0.796157,0.639018,0.796157,0.603843,0.800000,0.600000,0.800000,-0.600000,0.796157,-0.603843,0.796157,-0.639018,0.766294,-0.711114,0.711114,-0.766294,0.639018,-0.796157,0.603843,-0.796157,0.600000,-0.800000,0.000000,-0.800000,0.000000,-0.796148,-0.078414,-0.796148,-0.232228,-0.765552,-0.377117,-0.705537,
-0.507515,-0.618408,-0.618408,-0.507515,-0.705537,-0.377117,-0.765552,-0.232228,-0.796148,-0.078414,-0.796148,0.078414,-0.765552,0.232228,-0.705537,0.377117,-0.618408,0.507515,-0.507515,0.618408,-0.377117,0.705537,-0.232228,0.765552,-0.078414,0.796148,0.000000,0.796148,0.000000,0.800000,0.600000,0.800000,0.603843,0.796157,0.603843,0.796157,$1*%
%AMFreePoly1*
4,1,37,0.000000,0.796148,0.078414,0.796148,0.232228,0.765552,0.377117,0.705537,0.507515,0.618408,0.618408,0.507515,0.705537,0.377117,0.765552,0.232228,0.796148,0.078414,0.796148,-0.078414,0.765552,-0.232228,0.705537,-0.377117,0.618408,-0.507515,0.507515,-0.618408,0.377117,-0.705537,0.232228,-0.765552,0.078414,-0.796148,0.000000,-0.796148,0.000000,-0.800000,-0.600000,-0.800000,
-0.603843,-0.796157,-0.639018,-0.796157,-0.711114,-0.766294,-0.766294,-0.711114,-0.796157,-0.639018,-0.796157,-0.603843,-0.800000,-0.600000,-0.800000,0.600000,-0.796157,0.603843,-0.796157,0.639018,-0.766294,0.711114,-0.711114,0.766294,-0.639018,0.796157,-0.603843,0.796157,-0.600000,0.800000,0.000000,0.800000,0.000000,0.796148,0.000000,0.796148,$1*%
G04 Aperture macros list end*
%TA.AperFunction,Conductor*%
%ADD10C,0.200000*%
%TD*%
%TA.AperFunction,ComponentPad*%
%ADD11C,1.600000*%
%TD*%
%TA.AperFunction,ComponentPad*%
%ADD12O,1.600000X1.600000*%
%TD*%
%TA.AperFunction,ComponentPad*%
%ADD13R,1.800000X1.800000*%
%TD*%
%TA.AperFunction,ComponentPad*%
%ADD14C,1.800000*%
%TD*%
%TA.AperFunction,ComponentPad*%
%ADD15RoundRect,0.200000X-0.600000X-0.600000X0.600000X-0.600000X0.600000X0.600000X-0.600000X0.600000X0*%
%TD*%
%TA.AperFunction,ComponentPad*%
%ADD16FreePoly0,0.000000*%
%TD*%
%TA.AperFunction,ComponentPad*%
%ADD17FreePoly1,0.000000*%
%TD*%
%TA.AperFunction,ComponentPad*%
%ADD18C,1.270000*%
%TD*%
%TA.AperFunction,ComponentPad*%
%ADD19R,2.200000X2.200000*%
%TD*%
%TA.AperFunction,ComponentPad*%
%ADD20O,2.200000X2.200000*%
%TD*%
%TA.AperFunction,ComponentPad*%
%ADD21O,2.200000X3.500000*%
%TD*%
%TA.AperFunction,ComponentPad*%
%ADD22R,1.500000X2.500000*%
%TD*%
%TA.AperFunction,ComponentPad*%
%ADD23O,1.500000X2.500000*%
%TD*%
%TA.AperFunction,ComponentPad*%
%ADD24R,1.700000X1.700000*%
%TD*%
%TA.AperFunction,ComponentPad*%
%ADD25O,1.700000X1.700000*%
%TD*%
%TA.AperFunction,ComponentPad*%
%ADD26RoundRect,0.250000X-0.350000X-0.625000X0.350000X-0.625000X0.350000X0.625000X-0.350000X0.625000X0*%
%TD*%
%TA.AperFunction,ComponentPad*%
%ADD27O,1.200000X1.750000*%
%TD*%
%TA.AperFunction,ComponentPad*%
%ADD28R,1.500000X1.050000*%
%TD*%
%TA.AperFunction,ComponentPad*%
%ADD29O,1.500000X1.050000*%
%TD*%
%TA.AperFunction,ViaPad*%
%ADD30C,0.600000*%
%TD*%
G04 APERTURE END LIST*
D10*
%TO.N,B_3V3(OUT)*%
X226000000Y-107000000D02*
X228500000Y-107000000D01*
X228500000Y-103500000D02*
X232000000Y-103500000D01*
X228500000Y-107000000D02*
X228500000Y-103500000D01*
%TD*%
D11*
%TO.P,R6,1*%
%TO.N,GND*%
X224500000Y-61620000D03*
D12*
%TO.P,R6,2*%
%TO.N,Net-(Q4-B)*%
X224500000Y-54000000D03*
%TD*%
D11*
%TO.P,R5,1*%
%TO.N,A_3V3(OUT)*%
X244500000Y-51690000D03*
D12*
%TO.P,R5,2*%
%TO.N,Net-(Q4-B)*%
X244500000Y-59310000D03*
%TD*%
D13*
%TO.P,D4,1,K*%
%TO.N,~{STDBY}*%
X242460000Y-82500000D03*
D14*
%TO.P,D4,2,A*%
%TO.N,Net-(D4-A)*%
X245000000Y-82500000D03*
%TD*%
D11*
%TO.P,R8,1*%
%TO.N,Net-(D4-A)*%
X236810000Y-77000000D03*
D12*
%TO.P,R8,2*%
%TO.N,A-VBUS*%
X229190000Y-77000000D03*
%TD*%
D15*
%TO.P,A1,1,GPIO0*%
%TO.N,A_GPIO0*%
X169000000Y-32600000D03*
D11*
%TO.P,A1,2,GPIO1*%
%TO.N,A_GPIO1*%
X169000000Y-35140000D03*
D16*
%TO.P,A1,3,GND*%
%TO.N,GND*%
X169000000Y-37680000D03*
D11*
%TO.P,A1,4,GPIO2*%
%TO.N,A_GPIO2*%
X169000000Y-40220000D03*
%TO.P,A1,5,GPIO3*%
%TO.N,A_GPIO3*%
X169000000Y-42760000D03*
%TO.P,A1,6,GPIO4*%
%TO.N,A_GPIO4*%
X169000000Y-45300000D03*
%TO.P,A1,7,GPIO5*%
%TO.N,A_GPIO5*%
X169000000Y-47840000D03*
D16*
%TO.P,A1,8,GND*%
%TO.N,GND*%
X169000000Y-50380000D03*
D11*
%TO.P,A1,9,GPIO6*%
%TO.N,A_GPIO6*%
X169000000Y-52920000D03*
%TO.P,A1,10,GPIO7*%
%TO.N,A_GPIO7*%
X169000000Y-55460000D03*
%TO.P,A1,11,GPIO8*%
%TO.N,A_GPIO8*%
X169000000Y-58000000D03*
%TO.P,A1,12,GPIO9*%
%TO.N,A_GPIO9*%
X169000000Y-60540000D03*
D16*
%TO.P,A1,13,GND*%
%TO.N,GND*%
X169000000Y-63080000D03*
D11*
%TO.P,A1,14,GPIO10*%
%TO.N,A_GPIO10*%
X169000000Y-65620000D03*
%TO.P,A1,15,GPIO11*%
%TO.N,A_GPIO11*%
X169000000Y-68160000D03*
%TO.P,A1,16,GPIO12*%
%TO.N,UART_TX*%
X169000000Y-70700000D03*
%TO.P,A1,17,GPIO13*%
%TO.N,UART_RX*%
X169000000Y-73240000D03*
D16*
%TO.P,A1,18,GND*%
%TO.N,GND*%
X169000000Y-75780000D03*
D11*
%TO.P,A1,19,GPIO14*%
%TO.N,A_GPIO14*%
X169000000Y-78320000D03*
%TO.P,A1,20,GPIO15*%
%TO.N,A_GPIO15*%
X169000000Y-80860000D03*
%TO.P,A1,21,GPIO16*%
%TO.N,RX-TX*%
X186780000Y-80860000D03*
%TO.P,A1,22,GPIO17*%
%TO.N,CS*%
X186780000Y-78320000D03*
D17*
%TO.P,A1,23,GND*%
%TO.N,GND*%
X186780000Y-75780000D03*
D11*
%TO.P,A1,24,GPIO18*%
%TO.N,SCK*%
X186780000Y-73240000D03*
%TO.P,A1,25,GPIO19*%
%TO.N,TX-RX*%
X186780000Y-70700000D03*
%TO.P,A1,26,GPIO20*%
%TO.N,A_GPIO20*%
X186780000Y-68160000D03*
%TO.P,A1,27,GPIO21*%
%TO.N,A_GPIO21*%
X186780000Y-65620000D03*
D17*
%TO.P,A1,28,GND*%
%TO.N,GND*%
X186780000Y-63080000D03*
D11*
%TO.P,A1,29,GPIO22*%
%TO.N,A_GPIO22*%
X186780000Y-60540000D03*
%TO.P,A1,30,RUN*%
%TO.N,A_RUN*%
X186780000Y-58000000D03*
%TO.P,A1,31,GPIO26_ADC0*%
%TO.N,A_GPIO26*%
X186780000Y-55460000D03*
%TO.P,A1,32,GPIO27_ADC1*%
%TO.N,A_GPIO27*%
X186780000Y-52920000D03*
D17*
%TO.P,A1,33,AGND*%
%TO.N,GND*%
X186780000Y-50380000D03*
D11*
%TO.P,A1,34,GPIO28_ADC2*%
%TO.N,A_GPIO28*%
X186780000Y-47840000D03*
%TO.P,A1,35,ADC_VREF*%
%TO.N,A_ADC_VREF*%
X186780000Y-45300000D03*
%TO.P,A1,36,3V3*%
%TO.N,A_3V3(OUT)*%
X186780000Y-42760000D03*
%TO.P,A1,37,3V3_EN*%
%TO.N,A_3V3_EN*%
X186780000Y-40220000D03*
D17*
%TO.P,A1,38,GND*%
%TO.N,GND*%
X186780000Y-37680000D03*
D11*
%TO.P,A1,39,VSYS*%
%TO.N,Net-(A1-VSYS)*%
X186780000Y-35140000D03*
%TO.P,A1,40,VBUS*%
%TO.N,A-VBUS*%
X186780000Y-32600000D03*
%TD*%
D18*
%TO.P,F1,1*%
%TO.N,VSYS*%
X231700000Y-43050000D03*
%TO.P,F1,2*%
%TO.N,Net-(SW1-B)*%
X233300000Y-37950000D03*
%TD*%
D11*
%TO.P,R2,1*%
%TO.N,A_3V3(OUT)*%
X230380000Y-49500000D03*
D12*
%TO.P,R2,2*%
%TO.N,Net-(D2-A)*%
X238000000Y-49500000D03*
%TD*%
D19*
%TO.P,D5,1,K*%
%TO.N,Net-(A1-VSYS)*%
X193500000Y-39690000D03*
D20*
%TO.P,D5,2,A*%
%TO.N,VSYS*%
X193500000Y-47310000D03*
%TD*%
D21*
%TO.P,SW1,*%
%TO.N,*%
X239700000Y-32000000D03*
X231500000Y-32000000D03*
D22*
%TO.P,SW1,1,A*%
%TO.N,VBAT(+)*%
X237600000Y-32000000D03*
D23*
%TO.P,SW1,2,B*%
%TO.N,Net-(SW1-B)*%
X235600000Y-32000000D03*
%TO.P,SW1,3*%
%TO.N,N/C*%
X233600000Y-32000000D03*
%TD*%
D11*
%TO.P,C4,1*%
%TO.N,GND*%
X236500000Y-86500000D03*
%TO.P,C4,2*%
%TO.N,VBAT(+)*%
X236500000Y-84500000D03*
%TD*%
%TO.P,C2,1*%
%TO.N,GND*%
X224500000Y-48750000D03*
%TO.P,C2,2*%
%TO.N,VSYS*%
X224500000Y-46250000D03*
%TD*%
D24*
%TO.P,J4,1,Pin_1*%
%TO.N,B_GPIO15*%
X199720000Y-136060000D03*
D25*
%TO.P,J4,2,Pin_2*%
%TO.N,B_GPIO14*%
X199720000Y-133520000D03*
%TO.P,J4,3,Pin_3*%
%TO.N,GND*%
X199720000Y-130980000D03*
%TO.P,J4,4,Pin_4*%
%TO.N,UART_TX*%
X199720000Y-128440000D03*
%TO.P,J4,5,Pin_5*%
%TO.N,UART_RX*%
X199720000Y-125900000D03*
%TO.P,J4,6,Pin_6*%
%TO.N,B_GPIO11*%
X199720000Y-123360000D03*
%TO.P,J4,7,Pin_7*%
%TO.N,B_GPIO10*%
X199720000Y-120820000D03*
%TO.P,J4,8,Pin_8*%
%TO.N,GND*%
X199720000Y-118280000D03*
%TO.P,J4,9,Pin_9*%
%TO.N,B_GPIO9*%
X199720000Y-115740000D03*
%TO.P,J4,10,Pin_10*%
%TO.N,B_GPIO8*%
X199720000Y-113200000D03*
%TO.P,J4,11,Pin_11*%
%TO.N,B_GPIO7*%
X199720000Y-110660000D03*
%TO.P,J4,12,Pin_12*%
%TO.N,B_GPIO6*%
X199720000Y-108120000D03*
%TO.P,J4,13,Pin_13*%
%TO.N,GND*%
X199720000Y-105580000D03*
%TO.P,J4,14,Pin_14*%
%TO.N,B_GPIO5*%
X199720000Y-103040000D03*
%TO.P,J4,15,Pin_15*%
%TO.N,B_GPIO4*%
X199720000Y-100500000D03*
%TO.P,J4,16,Pin_16*%
%TO.N,B_GPIO3*%
X199720000Y-97960000D03*
%TO.P,J4,17,Pin_17*%
%TO.N,B_GPIO2*%
X199720000Y-95420000D03*
%TO.P,J4,18,Pin_18*%
%TO.N,GND*%
X199720000Y-92880000D03*
%TO.P,J4,19,Pin_19*%
%TO.N,B_GPIO1*%
X199720000Y-90340000D03*
%TO.P,J4,20,Pin_20*%
%TO.N,B_GPIO0*%
X199720000Y-87800000D03*
%TD*%
D24*
%TO.P,J3,1,Pin_1*%
%TO.N,A-VBUS*%
X186780000Y-87860000D03*
D25*
%TO.P,J3,2,Pin_2*%
%TO.N,VSYS*%
X186780000Y-90400000D03*
%TO.P,J3,3,Pin_3*%
%TO.N,GND*%
X186780000Y-92940000D03*
%TO.P,J3,4,Pin_4*%
%TO.N,A_3V3_EN*%
X186780000Y-95480000D03*
%TO.P,J3,5,Pin_5*%
%TO.N,A_3V3(OUT)*%
X186780000Y-98020000D03*
%TO.P,J3,6,Pin_6*%
%TO.N,A_ADC_VREF*%
X186780000Y-100560000D03*
%TO.P,J3,7,Pin_7*%
%TO.N,A_GPIO28*%
X186780000Y-103100000D03*
%TO.P,J3,8,Pin_8*%
%TO.N,GND*%
X186780000Y-105640000D03*
%TO.P,J3,9,Pin_9*%
%TO.N,A_GPIO27*%
X186780000Y-108180000D03*
%TO.P,J3,10,Pin_10*%
%TO.N,A_GPIO26*%
X186780000Y-110720000D03*
%TO.P,J3,11,Pin_11*%
%TO.N,A_RUN*%
X186780000Y-113260000D03*
%TO.P,J3,12,Pin_12*%
%TO.N,A_GPIO22*%
X186780000Y-115800000D03*
%TO.P,J3,13,Pin_13*%
%TO.N,GND*%
X186780000Y-118340000D03*
%TO.P,J3,14,Pin_14*%
%TO.N,A_GPIO21*%
X186780000Y-120880000D03*
%TO.P,J3,15,Pin_15*%
%TO.N,A_GPIO20*%
X186780000Y-123420000D03*
%TO.P,J3,16,Pin_16*%
%TO.N,TX-RX*%
X186780000Y-125960000D03*
%TO.P,J3,17,Pin_17*%
%TO.N,SCK*%
X186780000Y-128500000D03*
%TO.P,J3,18,Pin_18*%
%TO.N,GND*%
X186780000Y-131040000D03*
%TO.P,J3,19,Pin_19*%
%TO.N,CS*%
X186780000Y-133580000D03*
%TO.P,J3,20,Pin_20*%
%TO.N,RX-TX*%
X186780000Y-136120000D03*
%TD*%
D26*
%TO.P,J1,1,Pin_1*%
%TO.N,VBAT(+)*%
X241500000Y-40500000D03*
D27*
%TO.P,J1,2,Pin_2*%
%TO.N,GND*%
X243500000Y-40500000D03*
%TD*%
D11*
%TO.P,C1,1*%
%TO.N,VSYS*%
X194750000Y-33500000D03*
%TO.P,C1,2*%
%TO.N,GND*%
X192250000Y-33500000D03*
%TD*%
D24*
%TO.P,J2,1,Pin_1*%
%TO.N,A_GPIO15*%
X169000000Y-136060000D03*
D25*
%TO.P,J2,2,Pin_2*%
%TO.N,A_GPIO14*%
X169000000Y-133520000D03*
%TO.P,J2,3,Pin_3*%
%TO.N,GND*%
X169000000Y-130980000D03*
%TO.P,J2,4,Pin_4*%
%TO.N,UART_RX*%
X169000000Y-128440000D03*
%TO.P,J2,5,Pin_5*%
%TO.N,UART_TX*%
X169000000Y-125900000D03*
%TO.P,J2,6,Pin_6*%
%TO.N,A_GPIO11*%
X169000000Y-123360000D03*
%TO.P,J2,7,Pin_7*%
%TO.N,A_GPIO10*%
X169000000Y-120820000D03*
%TO.P,J2,8,Pin_8*%
%TO.N,GND*%
X169000000Y-118280000D03*
%TO.P,J2,9,Pin_9*%
%TO.N,A_GPIO9*%
X169000000Y-115740000D03*
%TO.P,J2,10,Pin_10*%
%TO.N,A_GPIO8*%
X169000000Y-113200000D03*
%TO.P,J2,11,Pin_11*%
%TO.N,A_GPIO7*%
X169000000Y-110660000D03*
%TO.P,J2,12,Pin_12*%
%TO.N,A_GPIO6*%
X169000000Y-108120000D03*
%TO.P,J2,13,Pin_13*%
%TO.N,GND*%
X169000000Y-105580000D03*
%TO.P,J2,14,Pin_14*%
%TO.N,A_GPIO5*%
X169000000Y-103040000D03*
%TO.P,J2,15,Pin_15*%
%TO.N,A_GPIO4*%
X169000000Y-100500000D03*
%TO.P,J2,16,Pin_16*%
%TO.N,A_GPIO3*%
X169000000Y-97960000D03*
%TO.P,J2,17,Pin_17*%
%TO.N,A_GPIO2*%
X169000000Y-95420000D03*
%TO.P,J2,18,Pin_18*%
%TO.N,GND*%
X169000000Y-92880000D03*
%TO.P,J2,19,Pin_19*%
%TO.N,A_GPIO1*%
X169000000Y-90340000D03*
%TO.P,J2,20,Pin_20*%
%TO.N,A_GPIO0*%
X169000000Y-87800000D03*
%TD*%
D11*
%TO.P,R1,1*%
%TO.N,GND*%
X224500000Y-103310000D03*
D12*
%TO.P,R1,2*%
%TO.N,Net-(U1-PROG)*%
X224500000Y-95690000D03*
%TD*%
D11*
%TO.P,R7,1*%
%TO.N,Net-(Q3-E)*%
X229000000Y-68000000D03*
D12*
%TO.P,R7,2*%
%TO.N,Net-(Q3-B)*%
X236620000Y-68000000D03*
%TD*%
D13*
%TO.P,D2,1,K*%
%TO.N,Net-(D2-K)*%
X242460000Y-65500000D03*
D14*
%TO.P,D2,2,A*%
%TO.N,Net-(D2-A)*%
X245000000Y-65500000D03*
%TD*%
D13*
%TO.P,D3,1,K*%
%TO.N,~{CHRG}*%
X242460000Y-74000000D03*
D14*
%TO.P,D3,2,A*%
%TO.N,Net-(D3-A)*%
X245000000Y-74000000D03*
%TD*%
D11*
%TO.P,C3,1*%
%TO.N,GND*%
X237500000Y-92000000D03*
%TO.P,C3,2*%
%TO.N,A-VBUS*%
X235500000Y-92000000D03*
%TD*%
D19*
%TO.P,D6,1,K*%
%TO.N,Net-(A2-VSYS)*%
X225000000Y-33190000D03*
D20*
%TO.P,D6,2,A*%
%TO.N,VSYS*%
X225000000Y-40810000D03*
%TD*%
D28*
%TO.P,Q3,1,E*%
%TO.N,Net-(Q3-E)*%
X234000000Y-56500000D03*
D29*
%TO.P,Q3,2,B*%
%TO.N,Net-(Q3-B)*%
X234000000Y-55230000D03*
%TO.P,Q3,3,C*%
%TO.N,Net-(D2-K)*%
X234000000Y-53960000D03*
%TD*%
D11*
%TO.P,R3,1*%
%TO.N,Net-(D3-A)*%
X229190000Y-72500000D03*
D12*
%TO.P,R3,2*%
%TO.N,A-VBUS*%
X236810000Y-72500000D03*
%TD*%
D24*
%TO.P,J5,1,Pin_1*%
%TO.N,B-VBUS*%
X217500000Y-87860000D03*
D25*
%TO.P,J5,2,Pin_2*%
%TO.N,VSYS*%
X217500000Y-90400000D03*
%TO.P,J5,3,Pin_3*%
%TO.N,GND*%
X217500000Y-92940000D03*
%TO.P,J5,4,Pin_4*%
%TO.N,B_3V3_EN*%
X217500000Y-95480000D03*
%TO.P,J5,5,Pin_5*%
%TO.N,B_3V3(OUT)*%
X217500000Y-98020000D03*
%TO.P,J5,6,Pin_6*%
%TO.N,B_ADC_VREF*%
X217500000Y-100560000D03*
%TO.P,J5,7,Pin_7*%
%TO.N,B_GPIO28*%
X217500000Y-103100000D03*
%TO.P,J5,8,Pin_8*%
%TO.N,GND*%
X217500000Y-105640000D03*
%TO.P,J5,9,Pin_9*%
%TO.N,B_GPIO27*%
X217500000Y-108180000D03*
%TO.P,J5,10,Pin_10*%
%TO.N,B_GPIO26*%
X217500000Y-110720000D03*
%TO.P,J5,11,Pin_11*%
%TO.N,B_RUN*%
X217500000Y-113260000D03*
%TO.P,J5,12,Pin_12*%
%TO.N,B_GPIO22*%
X217500000Y-115800000D03*
%TO.P,J5,13,Pin_13*%
%TO.N,GND*%
X217500000Y-118340000D03*
%TO.P,J5,14,Pin_14*%
%TO.N,B_GPIO21*%
X217500000Y-120880000D03*
%TO.P,J5,15,Pin_15*%
%TO.N,B_GPIO20*%
X217500000Y-123420000D03*
%TO.P,J5,16,Pin_16*%
%TO.N,RX-TX*%
X217500000Y-125960000D03*
%TO.P,J5,17,Pin_17*%
%TO.N,SCK*%
X217500000Y-128500000D03*
%TO.P,J5,18,Pin_18*%
%TO.N,GND*%
X217500000Y-131040000D03*
%TO.P,J5,19,Pin_19*%
%TO.N,CS*%
X217500000Y-133580000D03*
%TO.P,J5,20,Pin_20*%
%TO.N,TX-RX*%
X217500000Y-136120000D03*
%TD*%
D15*
%TO.P,A2,1,GPIO0*%
%TO.N,B_GPIO0*%
X199720000Y-32600000D03*
D11*
%TO.P,A2,2,GPIO1*%
%TO.N,B_GPIO1*%
X199720000Y-35140000D03*
D16*
%TO.P,A2,3,GND*%
%TO.N,GND*%
X199720000Y-37680000D03*
D11*
%TO.P,A2,4,GPIO2*%
%TO.N,B_GPIO2*%
X199720000Y-40220000D03*
%TO.P,A2,5,GPIO3*%
%TO.N,B_GPIO3*%
X199720000Y-42760000D03*
%TO.P,A2,6,GPIO4*%
%TO.N,B_GPIO4*%
X199720000Y-45300000D03*
%TO.P,A2,7,GPIO5*%
%TO.N,B_GPIO5*%
X199720000Y-47840000D03*
D16*
%TO.P,A2,8,GND*%
%TO.N,GND*%
X199720000Y-50380000D03*
D11*
%TO.P,A2,9,GPIO6*%
%TO.N,B_GPIO6*%
X199720000Y-52920000D03*
%TO.P,A2,10,GPIO7*%
%TO.N,B_GPIO7*%
X199720000Y-55460000D03*
%TO.P,A2,11,GPIO8*%
%TO.N,B_GPIO8*%
X199720000Y-58000000D03*
%TO.P,A2,12,GPIO9*%
%TO.N,B_GPIO9*%
X199720000Y-60540000D03*
D16*
%TO.P,A2,13,GND*%
%TO.N,GND*%
X199720000Y-63080000D03*
D11*
%TO.P,A2,14,GPIO10*%
%TO.N,B_GPIO10*%
X199720000Y-65620000D03*
%TO.P,A2,15,GPIO11*%
%TO.N,UART_RX*%
X199720000Y-68160000D03*
%TO.P,A2,16,GPIO12*%
%TO.N,UART_TX*%
X199720000Y-70700000D03*
%TO.P,A2,17,GPIO13*%
%TO.N,B_GPIO13*%
X199720000Y-73240000D03*
D16*
%TO.P,A2,18,GND*%
%TO.N,GND*%
X199720000Y-75780000D03*
D11*
%TO.P,A2,19,GPIO14*%
%TO.N,B_GPIO14*%
X199720000Y-78320000D03*
%TO.P,A2,20,GPIO15*%
%TO.N,B_GPIO15*%
X199720000Y-80860000D03*
%TO.P,A2,21,GPIO16*%
%TO.N,TX-RX*%
X217500000Y-80860000D03*
%TO.P,A2,22,GPIO17*%
%TO.N,CS*%
X217500000Y-78320000D03*
D17*
%TO.P,A2,23,GND*%
%TO.N,GND*%
X217500000Y-75780000D03*
D11*
%TO.P,A2,24,GPIO18*%
%TO.N,SCK*%
X217500000Y-73240000D03*
%TO.P,A2,25,GPIO19*%
%TO.N,RX-TX*%
X217500000Y-70700000D03*
%TO.P,A2,26,GPIO20*%
%TO.N,B_GPIO20*%
X217500000Y-68160000D03*
%TO.P,A2,27,GPIO21*%
%TO.N,B_GPIO21*%
X217500000Y-65620000D03*
D17*
%TO.P,A2,28,GND*%
%TO.N,GND*%
X217500000Y-63080000D03*
D11*
%TO.P,A2,29,GPIO22*%
%TO.N,B_GPIO22*%
X217500000Y-60540000D03*
%TO.P,A2,30,RUN*%
%TO.N,B_RUN*%
X217500000Y-58000000D03*
%TO.P,A2,31,GPIO26_ADC0*%
%TO.N,B_GPIO26*%
X217500000Y-55460000D03*
%TO.P,A2,32,GPIO27_ADC1*%
%TO.N,B_GPIO27*%
X217500000Y-52920000D03*
D17*
%TO.P,A2,33,AGND*%
%TO.N,GND*%
X217500000Y-50380000D03*
D11*
%TO.P,A2,34,GPIO28_ADC2*%
%TO.N,B_GPIO28*%
X217500000Y-47840000D03*
%TO.P,A2,35,ADC_VREF*%
%TO.N,B_ADC_VREF*%
X217500000Y-45300000D03*
%TO.P,A2,36,3V3*%
%TO.N,B_3V3(OUT)*%
X217500000Y-42760000D03*
%TO.P,A2,37,3V3_EN*%
%TO.N,B_3V3_EN*%
X217500000Y-40220000D03*
D17*
%TO.P,A2,38,GND*%
%TO.N,GND*%
X217500000Y-37680000D03*
D11*
%TO.P,A2,39,VSYS*%
%TO.N,Net-(A2-VSYS)*%
X217500000Y-35140000D03*
%TO.P,A2,40,VBUS*%
%TO.N,B-VBUS*%
X217500000Y-32600000D03*
%TD*%
D28*
%TO.P,Q4,1,E*%
%TO.N,GND*%
X234000000Y-63000000D03*
D29*
%TO.P,Q4,2,B*%
%TO.N,Net-(Q4-B)*%
X234000000Y-61730000D03*
%TO.P,Q4,3,C*%
%TO.N,Net-(Q3-E)*%
X234000000Y-60460000D03*
%TD*%
D11*
%TO.P,R4,1*%
%TO.N,B_3V3(OUT)*%
X232000000Y-103310000D03*
D12*
%TO.P,R4,2*%
%TO.N,Net-(Q3-B)*%
X232000000Y-95690000D03*
%TD*%
D30*
%TO.N,GND*%
X210500000Y-63000000D03*
X210500000Y-73000000D03*
X223000000Y-93000000D03*
X227500000Y-93000000D03*
%TO.N,SCK*%
X194078800Y-73711700D03*
X198299600Y-124692300D03*
X194078800Y-70592300D03*
%TO.N,A_3V3(OUT)*%
X191749300Y-97211300D03*
%TO.N,A_GPIO2*%
X166411300Y-94258400D03*
%TO.N,Net-(A1-VSYS)*%
X191083500Y-38969300D03*
%TO.N,A_GPIO7*%
X164463800Y-56421200D03*
%TO.N,UART_RX*%
X163485400Y-73783300D03*
%TO.N,A_3V3_EN*%
X188486600Y-43590500D03*
X191727000Y-94393900D03*
%TO.N,A_GPIO6*%
X171417300Y-106536500D03*
%TO.N,TX-RX*%
X186256000Y-82365300D03*
%TO.N,CS*%
X183845900Y-131610700D03*
%TO.N,A_GPIO8*%
X163867400Y-59142200D03*
%TO.N,A-VBUS*%
X235330100Y-75926600D03*
X225544150Y-79544150D03*
%TO.N,RX-TX*%
X184841800Y-82569800D03*
X184731100Y-122162500D03*
%TO.N,A_GPIO4*%
X166837600Y-99602100D03*
%TO.N,A_ADC_VREF*%
X191749300Y-100139600D03*
%TO.N,A_GPIO1*%
X165467300Y-88267800D03*
%TO.N,A_GPIO9*%
X163558500Y-60025500D03*
X161796600Y-108924500D03*
%TO.N,A_GPIO21*%
X190515900Y-67928300D03*
%TO.N,UART_TX*%
X171215500Y-79306700D03*
X171487100Y-126494300D03*
%TO.N,A_GPIO11*%
X163722400Y-67928300D03*
%TO.N,A_GPIO28*%
X191286000Y-47518500D03*
X191501400Y-99212300D03*
%TO.N,A_GPIO15*%
X173946300Y-82361800D03*
%TO.N,B_GPIO7*%
X196260700Y-108325800D03*
%TO.N,B_GPIO6*%
X197014600Y-109698400D03*
%TO.N,B_GPIO27*%
X219730900Y-108066100D03*
%TO.N,B_GPIO5*%
X194834300Y-103814800D03*
%TO.N,B_RUN*%
X219476400Y-106194700D03*
%TO.N,B_ADC_VREF*%
X221694800Y-100138300D03*
%TO.N,B_GPIO4*%
X195139100Y-46371800D03*
X193373000Y-97211300D03*
%TO.N,B_GPIO26*%
X227064700Y-58672900D03*
%TO.N,B_3V3(OUT)*%
X222413700Y-97539500D03*
X226000000Y-107000000D03*
%TO.N,B_GPIO1*%
X193655200Y-90553800D03*
%TO.N,B_GPIO28*%
X219275600Y-104653000D03*
%TO.N,B_GPIO2*%
X194752900Y-94511400D03*
%TO.N,B_GPIO3*%
X197842100Y-102277000D03*
%TO.N,B_GPIO22*%
X221291600Y-62383500D03*
%TO.N,B_3V3_EN*%
X218883400Y-94359700D03*
%TO.N,VSYS*%
X222946100Y-87259900D03*
%TO.N,VBAT(+)*%
X231499500Y-83000500D03*
%TO.N,~{CHRG}*%
X226865000Y-74018200D03*
%TO.N,~{STDBY}*%
X228000000Y-80000000D03*
%TD*%
D10*
%TO.N,GND*%
X199720000Y-37680000D02*
X192250000Y-37680000D01*
X200931700Y-105640000D02*
X200871700Y-105580000D01*
X169000000Y-50380000D02*
X186780000Y-50380000D01*
X186204200Y-131040000D02*
X185628300Y-131040000D01*
X198568300Y-92880000D02*
X198508300Y-92940000D01*
X185568300Y-118280000D02*
X185628300Y-118340000D01*
X217500000Y-131040000D02*
X216348300Y-131040000D01*
X192250000Y-37680000D02*
X186780000Y-37680000D01*
X162410600Y-68327400D02*
X167658000Y-63080000D01*
X169000000Y-92880000D02*
X170151700Y-92880000D01*
X199720000Y-92880000D02*
X200871700Y-92880000D01*
X243500000Y-40500000D02*
X242598300Y-40500000D01*
X222500000Y-103310000D02*
X224500000Y-103310000D01*
X192250000Y-33500000D02*
X192250000Y-37680000D01*
X200931700Y-92940000D02*
X200871700Y-92880000D01*
X198508300Y-131040000D02*
X198568300Y-130980000D01*
X186780000Y-105640000D02*
X187931700Y-105640000D01*
X198508300Y-118340000D02*
X186780000Y-118340000D01*
X162410600Y-74205800D02*
X162410600Y-68327400D01*
X217500000Y-92940000D02*
X200931700Y-92940000D01*
X217500000Y-105640000D02*
X219139500Y-105640000D01*
X199720000Y-92880000D02*
X198568300Y-92880000D01*
X198508300Y-92940000D02*
X186780000Y-92940000D01*
X199720000Y-50380000D02*
X186780000Y-50380000D01*
X187991700Y-105580000D02*
X187931700Y-105640000D01*
X167658000Y-63080000D02*
X169000000Y-63080000D01*
X186780000Y-131040000D02*
X198508300Y-131040000D01*
X216288300Y-118280000D02*
X216348300Y-118340000D01*
X242598300Y-39823700D02*
X241894400Y-39119800D01*
X199144200Y-130980000D02*
X198568300Y-130980000D01*
X199144200Y-130980000D02*
X199720000Y-130980000D01*
X219139500Y-105640000D02*
X221279500Y-103500000D01*
X186204200Y-131040000D02*
X186780000Y-131040000D01*
X222870000Y-50380000D02*
X224500000Y-48750000D01*
X186780000Y-37680000D02*
X169000000Y-37680000D01*
X169000000Y-118280000D02*
X185568300Y-118280000D01*
X186780000Y-63080000D02*
X199720000Y-63080000D01*
X221279500Y-103500000D02*
X222310000Y-103500000D01*
X224500000Y-63000000D02*
X217580000Y-63000000D01*
X217500000Y-37680000D02*
X199720000Y-37680000D01*
X185568300Y-130980000D02*
X185628300Y-131040000D01*
X199720000Y-105580000D02*
X200871700Y-105580000D01*
X218651700Y-92940000D02*
X230060000Y-92940000D01*
X186780000Y-118340000D02*
X185628300Y-118340000D01*
X234000000Y-63000000D02*
X224500000Y-63000000D01*
X199720000Y-130980000D02*
X216288300Y-130980000D01*
X169000000Y-130980000D02*
X185568300Y-130980000D01*
X199720000Y-118280000D02*
X198568300Y-118280000D01*
X163984800Y-75780000D02*
X162410600Y-74205800D01*
X169000000Y-75780000D02*
X163984800Y-75780000D01*
X230060000Y-92940000D02*
X236500000Y-86500000D01*
X199720000Y-118280000D02*
X216288300Y-118280000D01*
X218939800Y-39119800D02*
X217500000Y-37680000D01*
X242598300Y-40500000D02*
X242598300Y-39823700D01*
X217500000Y-118340000D02*
X216348300Y-118340000D01*
X198568300Y-118280000D02*
X198508300Y-118340000D01*
X217500000Y-92940000D02*
X218651700Y-92940000D01*
X186780000Y-92940000D02*
X170211700Y-92940000D01*
X170211700Y-105640000D02*
X170151700Y-105580000D01*
X215122836Y-73000000D02*
X210500000Y-73000000D01*
X170211700Y-92940000D02*
X170151700Y-92880000D01*
X169000000Y-105580000D02*
X170151700Y-105580000D01*
X186780000Y-105640000D02*
X170211700Y-105640000D01*
X224500000Y-63000000D02*
X224500000Y-61620000D01*
X217500000Y-75377164D02*
X215122836Y-73000000D01*
X217500000Y-75780000D02*
X217500000Y-75377164D01*
X222310000Y-103500000D02*
X222500000Y-103310000D01*
X217580000Y-63000000D02*
X217500000Y-63080000D01*
X199720000Y-75780000D02*
X186780000Y-75780000D01*
X216288300Y-130980000D02*
X216348300Y-131040000D01*
X199720000Y-105580000D02*
X187991700Y-105580000D01*
X241894400Y-39119800D02*
X218939800Y-39119800D01*
X217500000Y-63080000D02*
X199720000Y-63080000D01*
X217500000Y-50380000D02*
X222870000Y-50380000D01*
X217500000Y-105640000D02*
X200931700Y-105640000D01*
%TO.N,SCK*%
X217500000Y-73240000D02*
X218651800Y-72088200D01*
X212540600Y-124692300D02*
X216348300Y-128500000D01*
X186780000Y-73240000D02*
X187251700Y-73711700D01*
X218651800Y-70251100D02*
X217995900Y-69595200D01*
X187251700Y-73711700D02*
X194078800Y-73711700D01*
X217500000Y-128500000D02*
X216348300Y-128500000D01*
X198299600Y-124692300D02*
X212540600Y-124692300D01*
X217995900Y-69595200D02*
X198426200Y-69595200D01*
X194665100Y-70006000D02*
X194078800Y-70592300D01*
X198426200Y-69595200D02*
X198015400Y-70006000D01*
X218651800Y-72088200D02*
X218651800Y-70251100D01*
X198015400Y-70006000D02*
X194665100Y-70006000D01*
%TO.N,A_3V3(OUT)*%
X186780000Y-98020000D02*
X187931700Y-98020000D01*
X244500000Y-51690000D02*
X232570000Y-51690000D01*
X186780000Y-42760000D02*
X188212200Y-44192200D01*
X188740400Y-97211300D02*
X187931700Y-98020000D01*
X191749300Y-97211300D02*
X188740400Y-97211300D01*
X232570000Y-51690000D02*
X230380000Y-49500000D01*
X188212200Y-44192200D02*
X225072200Y-44192200D01*
X225072200Y-44192200D02*
X230380000Y-49500000D01*
%TO.N,A_GPIO2*%
X169000000Y-95420000D02*
X167572900Y-95420000D01*
X167572900Y-95420000D02*
X166411300Y-94258400D01*
%TO.N,Net-(A1-VSYS)*%
X192098300Y-39690000D02*
X191353000Y-38944700D01*
X191353000Y-38944700D02*
X191057300Y-38944700D01*
X193500000Y-39690000D02*
X192098300Y-39690000D01*
X191057300Y-38944700D02*
X191058900Y-38944700D01*
X191058900Y-38944700D02*
X191083500Y-38969300D01*
%TO.N,A_GPIO7*%
X164463800Y-56421200D02*
X165425000Y-55460000D01*
X165425000Y-55460000D02*
X169000000Y-55460000D01*
%TO.N,UART_RX*%
X168501600Y-124737300D02*
X197405600Y-124737300D01*
X199152100Y-68160000D02*
X197716900Y-69595200D01*
X167839500Y-126415700D02*
X167839500Y-125399400D01*
X167839500Y-125399400D02*
X168501600Y-124737300D01*
X199720000Y-125900000D02*
X198568300Y-125900000D01*
X197405600Y-124737300D02*
X198568300Y-125900000D01*
X169000000Y-128440000D02*
X169000000Y-127288300D01*
X163485400Y-73783300D02*
X168456700Y-73783300D01*
X199720000Y-68160000D02*
X199152100Y-68160000D01*
X168456700Y-73783300D02*
X169000000Y-73240000D01*
X197716900Y-69595200D02*
X172644800Y-69595200D01*
X168712100Y-127288300D02*
X167839500Y-126415700D01*
X172644800Y-69595200D02*
X169000000Y-73240000D01*
X169000000Y-127288300D02*
X168712100Y-127288300D01*
%TO.N,A_3V3_EN*%
X186780000Y-40220000D02*
X188486600Y-41926600D01*
X188486600Y-41926600D02*
X188486600Y-43590500D01*
X186780000Y-95480000D02*
X187931700Y-95480000D01*
X187931700Y-95480000D02*
X189017800Y-94393900D01*
X189017800Y-94393900D02*
X191727000Y-94393900D01*
%TO.N,A_GPIO6*%
X170151700Y-108120000D02*
X170151700Y-107802100D01*
X169000000Y-108120000D02*
X170151700Y-108120000D01*
X170151700Y-107802100D02*
X171417300Y-106536500D01*
%TO.N,TX-RX*%
X186780000Y-125960000D02*
X187931700Y-125960000D01*
X186256000Y-82365300D02*
X187325700Y-83435000D01*
X189024800Y-127053100D02*
X187931700Y-125960000D01*
X203727100Y-129815500D02*
X200964700Y-127053100D01*
X217787900Y-134968300D02*
X218699900Y-134056300D01*
X218699900Y-130582000D02*
X217933400Y-129815500D01*
X217500000Y-134968300D02*
X217787900Y-134968300D01*
X200964700Y-127053100D02*
X189024800Y-127053100D01*
X217500000Y-136120000D02*
X217500000Y-134968300D01*
X187325700Y-83435000D02*
X214925000Y-83435000D01*
X217933400Y-129815500D02*
X203727100Y-129815500D01*
X218699900Y-134056300D02*
X218699900Y-130582000D01*
X214925000Y-83435000D02*
X217500000Y-80860000D01*
%TO.N,CS*%
X186780000Y-78320000D02*
X191493300Y-83033300D01*
X187332800Y-133580000D02*
X187931700Y-133580000D01*
X185628300Y-133580000D02*
X185628300Y-133393100D01*
X187332800Y-133580000D02*
X186780000Y-133580000D01*
X191493300Y-83033300D02*
X212786700Y-83033300D01*
X186780000Y-133580000D02*
X185628300Y-133580000D01*
X212786700Y-83033300D02*
X217500000Y-78320000D01*
X217500000Y-133580000D02*
X216348300Y-133580000D01*
X215132200Y-132363900D02*
X189147800Y-132363900D01*
X185628300Y-133393100D02*
X183845900Y-131610700D01*
X216348300Y-133580000D02*
X215132200Y-132363900D01*
X189147800Y-132363900D02*
X187931700Y-133580000D01*
%TO.N,A_GPIO8*%
X167857800Y-59142200D02*
X163867400Y-59142200D01*
X169000000Y-58000000D02*
X167857800Y-59142200D01*
%TO.N,A-VBUS*%
X221251600Y-83836700D02*
X225544150Y-79544150D01*
X231365100Y-75926600D02*
X230291700Y-77000000D01*
X229190000Y-77000000D02*
X228088300Y-77000000D01*
X187931700Y-87860000D02*
X191955000Y-83836700D01*
X225544150Y-79544150D02*
X228088300Y-77000000D01*
X191955000Y-83836700D02*
X221251600Y-83836700D01*
X235330100Y-75926600D02*
X231365100Y-75926600D01*
X229190000Y-77000000D02*
X230291700Y-77000000D01*
X186780000Y-87860000D02*
X187931700Y-87860000D01*
%TO.N,RX-TX*%
X185644200Y-80860000D02*
X185644200Y-74943600D01*
X212550800Y-122162500D02*
X216348300Y-125960000D01*
X217500000Y-125960000D02*
X216348300Y-125960000D01*
X185644200Y-74943600D02*
X185909500Y-74678300D01*
X185644100Y-80860000D02*
X185644200Y-80860000D01*
X184731100Y-122162500D02*
X212550800Y-122162500D01*
X195268000Y-74678300D02*
X197871300Y-72075000D01*
X186780000Y-80860000D02*
X185644200Y-80860000D01*
X197871300Y-72075000D02*
X216125000Y-72075000D01*
X185909500Y-74678300D02*
X195268000Y-74678300D01*
X185644100Y-81767500D02*
X185644100Y-80860000D01*
X216125000Y-72075000D02*
X217500000Y-70700000D01*
X184841800Y-82569800D02*
X185644100Y-81767500D01*
%TO.N,A_GPIO4*%
X169000000Y-100500000D02*
X167735500Y-100500000D01*
X167735500Y-100500000D02*
X166837600Y-99602100D01*
%TO.N,A_ADC_VREF*%
X186780000Y-100560000D02*
X187931700Y-100560000D01*
X192142600Y-98946200D02*
X192142600Y-99746300D01*
X191790800Y-98594400D02*
X192142600Y-98946200D01*
X187931700Y-100560000D02*
X189897300Y-98594400D01*
X189897300Y-98594400D02*
X191790800Y-98594400D01*
X192142600Y-99746300D02*
X191749300Y-100139600D01*
%TO.N,A_GPIO1*%
X169000000Y-90340000D02*
X167848300Y-90340000D01*
X167848300Y-90340000D02*
X165776100Y-88267800D01*
X165776100Y-88267800D02*
X165467300Y-88267800D01*
%TO.N,A_GPIO9*%
X169000000Y-115740000D02*
X167848300Y-115740000D01*
X167848300Y-114976200D02*
X161796600Y-108924500D01*
X168485500Y-60025500D02*
X169000000Y-60540000D01*
X163558500Y-60025500D02*
X168485500Y-60025500D01*
X167848300Y-115740000D02*
X167848300Y-114976200D01*
%TO.N,A_GPIO21*%
X186780000Y-65620000D02*
X188207600Y-65620000D01*
X188207600Y-65620000D02*
X190515900Y-67928300D01*
%TO.N,UART_TX*%
X170892800Y-125900000D02*
X171487100Y-126494300D01*
X169000000Y-70700000D02*
X165716800Y-70700000D01*
X197308900Y-129699400D02*
X174692200Y-129699400D01*
X162871100Y-74051200D02*
X163237900Y-74418000D01*
X170050900Y-125900000D02*
X170892800Y-125900000D01*
X163237900Y-74418000D02*
X169628300Y-74418000D01*
X194692800Y-71988200D02*
X195981000Y-70700000D01*
X169000000Y-125900000D02*
X170050900Y-125900000D01*
X170111300Y-74901000D02*
X169628300Y-74418000D01*
X165716800Y-70700000D02*
X162871100Y-73545700D01*
X174692200Y-129699400D02*
X171487100Y-126494300D01*
X162871100Y-73545700D02*
X162871100Y-74051200D01*
X199720000Y-128440000D02*
X198568300Y-128440000D01*
X169628300Y-74418000D02*
X172058100Y-71988200D01*
X195981000Y-70700000D02*
X199720000Y-70700000D01*
X172058100Y-71988200D02*
X194692800Y-71988200D01*
X171215500Y-79306700D02*
X170111300Y-78202500D01*
X198568300Y-128440000D02*
X197308900Y-129699400D01*
X170111300Y-78202500D02*
X170111300Y-74901000D01*
%TO.N,A_GPIO11*%
X168768300Y-67928300D02*
X169000000Y-68160000D01*
X163722400Y-67928300D02*
X168768300Y-67928300D01*
%TO.N,A_GPIO28*%
X187101500Y-47518500D02*
X186780000Y-47840000D01*
X187931700Y-103100000D02*
X187931700Y-102782000D01*
X186780000Y-103100000D02*
X187931700Y-103100000D01*
X191286000Y-47518500D02*
X187101500Y-47518500D01*
X187931700Y-102782000D02*
X191501400Y-99212300D01*
%TO.N,A_GPIO15*%
X169000000Y-80860000D02*
X170501800Y-82361800D01*
X170501800Y-82361800D02*
X173946300Y-82361800D01*
%TO.N,B_GPIO7*%
X198568300Y-110352100D02*
X196542000Y-108325800D01*
X199720000Y-110660000D02*
X198568300Y-110660000D01*
X198568300Y-110660000D02*
X198568300Y-110352100D01*
X196542000Y-108325800D02*
X196260700Y-108325800D01*
%TO.N,B_GPIO6*%
X198568300Y-108120000D02*
X198172400Y-107724100D01*
X195613400Y-108542300D02*
X196769500Y-109698400D01*
X196011600Y-107724100D02*
X195613400Y-108122300D01*
X196769500Y-109698400D02*
X197014600Y-109698400D01*
X195613400Y-108122300D02*
X195613400Y-108542300D01*
X198172400Y-107724100D02*
X196011600Y-107724100D01*
X199720000Y-108120000D02*
X198568300Y-108120000D01*
%TO.N,B_GPIO27*%
X219732500Y-108066100D02*
X218765600Y-108066100D01*
X219732500Y-108066100D02*
X219730900Y-108066100D01*
X218765600Y-108066100D02*
X218651700Y-108180000D01*
X217500000Y-108180000D02*
X218651700Y-108180000D01*
%TO.N,B_GPIO5*%
X194834300Y-103814800D02*
X197793500Y-103814800D01*
X197793500Y-103814800D02*
X198568300Y-103040000D01*
X199720000Y-103040000D02*
X198568300Y-103040000D01*
%TO.N,B_RUN*%
X220337100Y-109559100D02*
X220337100Y-107055400D01*
X217500000Y-113260000D02*
X217500000Y-112108300D01*
X217787900Y-112108300D02*
X220337100Y-109559100D01*
X217500000Y-112108300D02*
X217787900Y-112108300D01*
X220337100Y-107055400D02*
X219476400Y-106194700D01*
%TO.N,B_ADC_VREF*%
X218651700Y-100560000D02*
X219073400Y-100138300D01*
X219073400Y-100138300D02*
X221694800Y-100138300D01*
X217500000Y-100560000D02*
X218651700Y-100560000D01*
%TO.N,B_GPIO4*%
X196210900Y-45300000D02*
X195139100Y-46371800D01*
X193334200Y-97211300D02*
X193373000Y-97211300D01*
X195279600Y-97211300D02*
X198568300Y-100500000D01*
X193334200Y-97211300D02*
X195279600Y-97211300D01*
X199720000Y-100500000D02*
X198568300Y-100500000D01*
X199720000Y-45300000D02*
X196210900Y-45300000D01*
%TO.N,B_GPIO26*%
X217500000Y-55460000D02*
X220712900Y-58672900D01*
X220712900Y-58672900D02*
X227064700Y-58672900D01*
%TO.N,B_3V3(OUT)*%
X221933200Y-98020000D02*
X222413700Y-97539500D01*
X217500000Y-98020000D02*
X221933200Y-98020000D01*
%TO.N,B_GPIO1*%
X199720000Y-90340000D02*
X198568300Y-90340000D01*
X198568300Y-90340000D02*
X198354500Y-90553800D01*
X198354500Y-90553800D02*
X193655200Y-90553800D01*
%TO.N,B_GPIO28*%
X217500000Y-103100000D02*
X218651700Y-103100000D01*
X218651700Y-103100000D02*
X218651700Y-104029100D01*
X218651700Y-104029100D02*
X219275600Y-104653000D01*
%TO.N,B_GPIO2*%
X198568300Y-95420000D02*
X197659700Y-94511400D01*
X199720000Y-95420000D02*
X198568300Y-95420000D01*
X197659700Y-94511400D02*
X194752900Y-94511400D01*
%TO.N,Net-(A2-VSYS)*%
X221648300Y-35140000D02*
X217500000Y-35140000D01*
X223598300Y-33190000D02*
X221648300Y-35140000D01*
X225000000Y-33190000D02*
X223598300Y-33190000D01*
%TO.N,B_GPIO3*%
X199720000Y-99111700D02*
X200007900Y-99111700D01*
X200914200Y-100953000D02*
X200051700Y-101815500D01*
X199720000Y-97960000D02*
X199720000Y-99111700D01*
X200914200Y-100018000D02*
X200914200Y-100953000D01*
X198303600Y-101815500D02*
X197842100Y-102277000D01*
X200007900Y-99111700D02*
X200914200Y-100018000D01*
X200051700Y-101815500D02*
X198303600Y-101815500D01*
%TO.N,B_GPIO22*%
X217500000Y-60540000D02*
X219343500Y-62383500D01*
X219343500Y-62383500D02*
X221291600Y-62383500D01*
%TO.N,B_3V3_EN*%
X218651700Y-95480000D02*
X218651700Y-94591400D01*
X217500000Y-95480000D02*
X218651700Y-95480000D01*
X218651700Y-94591400D02*
X218883400Y-94359700D01*
%TO.N,VSYS*%
X228641700Y-43050000D02*
X226401700Y-40810000D01*
X221341700Y-87710000D02*
X218651700Y-90400000D01*
X222946100Y-87259900D02*
X222496000Y-87710000D01*
X231700000Y-43050000D02*
X228641700Y-43050000D01*
X193500000Y-47310000D02*
X194901700Y-47310000D01*
X225000000Y-40810000D02*
X226401700Y-40810000D01*
X217500000Y-90400000D02*
X218075900Y-90400000D01*
X186780000Y-90400000D02*
X187931700Y-90400000D01*
X224020700Y-46729300D02*
X224500000Y-46250000D01*
X195632500Y-46729300D02*
X224020700Y-46729300D01*
X195051800Y-47310000D02*
X195632500Y-46729300D01*
X222496000Y-87710000D02*
X221341700Y-87710000D01*
X218651700Y-90400000D02*
X218075900Y-90400000D01*
X189165000Y-89166700D02*
X187931700Y-90400000D01*
X194901700Y-47310000D02*
X195051800Y-47310000D01*
X216842600Y-89166700D02*
X189165000Y-89166700D01*
X218075900Y-90400000D02*
X216842600Y-89166700D01*
%TO.N,VBAT(+)*%
X231499500Y-83000500D02*
X232999000Y-84500000D01*
X231499000Y-83000000D02*
X231499500Y-83000500D01*
X232999000Y-84500000D02*
X236500000Y-84500000D01*
%TO.N,Net-(D2-K)*%
X242460000Y-64298300D02*
X245612500Y-61145800D01*
X245612500Y-58855800D02*
X240716700Y-53960000D01*
X245612500Y-61145800D02*
X245612500Y-58855800D01*
X240716700Y-53960000D02*
X234000000Y-53960000D01*
X242460000Y-65500000D02*
X242460000Y-64298300D01*
%TO.N,~{CHRG}*%
X226865000Y-74018200D02*
X227295200Y-74018200D01*
X227295200Y-74018200D02*
X227313400Y-74000000D01*
X227313400Y-74000000D02*
X242460000Y-74000000D01*
%TO.N,Net-(D3-A)*%
X230315600Y-71374400D02*
X229190000Y-72500000D01*
X245000000Y-74000000D02*
X242374400Y-71374400D01*
X242374400Y-71374400D02*
X230315600Y-71374400D01*
%TO.N,Net-(D4-A)*%
X245000000Y-82500000D02*
X239500000Y-77000000D01*
X239500000Y-77000000D02*
X236810000Y-77000000D01*
%TO.N,~{STDBY}*%
X241258300Y-82500000D02*
X242460000Y-82500000D01*
X228000000Y-80000000D02*
X238758300Y-80000000D01*
X238758300Y-80000000D02*
X241258300Y-82500000D01*
%TO.N,Net-(Q4-B)*%
X225601700Y-54000000D02*
X230911700Y-59310000D01*
X224500000Y-54000000D02*
X225601700Y-54000000D01*
X244500000Y-59310000D02*
X243398300Y-59310000D01*
X240978300Y-61730000D02*
X243398300Y-59310000D01*
X230911700Y-59310000D02*
X243398300Y-59310000D01*
X234000000Y-61730000D02*
X240978300Y-61730000D01*
%TD*%
M02*
