%TF.GenerationSoftware,KiCad,Pcbnew,9.0.1*%
%TF.CreationDate,2025-09-26T21:18:28-04:00*%
%TF.ProjectId,Design V3.0,44657369-676e-4205-9633-2e302e6b6963,rev?*%
%TF.SameCoordinates,Original*%
%TF.FileFunction,Copper,L1,Top*%
%TF.FilePolarity,Positive*%
%FSLAX46Y46*%
G04 Gerber Fmt 4.6, Leading zero omitted, Abs format (unit mm)*
G04 Created by KiCad (PCBNEW 9.0.1) date 2025-09-26 21:18:28*
%MOMM*%
%LPD*%
G01*
G04 APERTURE LIST*
G04 Aperture macros list*
%AMRoundRect*
0 Rectangle with rounded corners*
0 $1 Rounding radius*
0 $2 $3 $4 $5 $6 $7 $8 $9 X,Y pos of 4 corners*
0 Add a 4 corners polygon primitive as box body*
4,1,4,$2,$3,$4,$5,$6,$7,$8,$9,$2,$3,0*
0 Add four circle primitives for the rounded corners*
1,1,$1+$1,$2,$3*
1,1,$1+$1,$4,$5*
1,1,$1+$1,$6,$7*
1,1,$1+$1,$8,$9*
0 Add four rect primitives between the rounded corners*
20,1,$1+$1,$2,$3,$4,$5,0*
20,1,$1+$1,$4,$5,$6,$7,0*
20,1,$1+$1,$6,$7,$8,$9,0*
20,1,$1+$1,$8,$9,$2,$3,0*%
%AMFreePoly0*
4,1,37,0.603843,0.796157,0.639018,0.796157,0.711114,0.766294,0.766294,0.711114,0.796157,0.639018,0.796157,0.603843,0.800000,0.600000,0.800000,-0.600000,0.796157,-0.603843,0.796157,-0.639018,0.766294,-0.711114,0.711114,-0.766294,0.639018,-0.796157,0.603843,-0.796157,0.600000,-0.800000,0.000000,-0.800000,0.000000,-0.796148,-0.078414,-0.796148,-0.232228,-0.765552,-0.377117,-0.705537,
-0.507515,-0.618408,-0.618408,-0.507515,-0.705537,-0.377117,-0.765552,-0.232228,-0.796148,-0.078414,-0.796148,0.078414,-0.765552,0.232228,-0.705537,0.377117,-0.618408,0.507515,-0.507515,0.618408,-0.377117,0.705537,-0.232228,0.765552,-0.078414,0.796148,0.000000,0.796148,0.000000,0.800000,0.600000,0.800000,0.603843,0.796157,0.603843,0.796157,$1*%
%AMFreePoly1*
4,1,37,0.000000,0.796148,0.078414,0.796148,0.232228,0.765552,0.377117,0.705537,0.507515,0.618408,0.618408,0.507515,0.705537,0.377117,0.765552,0.232228,0.796148,0.078414,0.796148,-0.078414,0.765552,-0.232228,0.705537,-0.377117,0.618408,-0.507515,0.507515,-0.618408,0.377117,-0.705537,0.232228,-0.765552,0.078414,-0.796148,0.000000,-0.796148,0.000000,-0.800000,-0.600000,-0.800000,
-0.603843,-0.796157,-0.639018,-0.796157,-0.711114,-0.766294,-0.766294,-0.711114,-0.796157,-0.639018,-0.796157,-0.603843,-0.800000,-0.600000,-0.800000,0.600000,-0.796157,0.603843,-0.796157,0.639018,-0.766294,0.711114,-0.711114,0.766294,-0.639018,0.796157,-0.603843,0.796157,-0.600000,0.800000,0.000000,0.800000,0.000000,0.796148,0.000000,0.796148,$1*%
G04 Aperture macros list end*
%TA.AperFunction,ComponentPad*%
%ADD10C,1.600000*%
%TD*%
%TA.AperFunction,ComponentPad*%
%ADD11O,1.600000X1.600000*%
%TD*%
%TA.AperFunction,ComponentPad*%
%ADD12RoundRect,0.250000X-0.600000X-0.725000X0.600000X-0.725000X0.600000X0.725000X-0.600000X0.725000X0*%
%TD*%
%TA.AperFunction,ComponentPad*%
%ADD13O,1.700000X1.950000*%
%TD*%
%TA.AperFunction,ComponentPad*%
%ADD14R,1.800000X1.800000*%
%TD*%
%TA.AperFunction,ComponentPad*%
%ADD15C,1.800000*%
%TD*%
%TA.AperFunction,ComponentPad*%
%ADD16RoundRect,0.200000X-0.600000X-0.600000X0.600000X-0.600000X0.600000X0.600000X-0.600000X0.600000X0*%
%TD*%
%TA.AperFunction,ComponentPad*%
%ADD17FreePoly0,0.000000*%
%TD*%
%TA.AperFunction,ComponentPad*%
%ADD18FreePoly1,0.000000*%
%TD*%
%TA.AperFunction,ComponentPad*%
%ADD19C,1.270000*%
%TD*%
%TA.AperFunction,ComponentPad*%
%ADD20R,2.200000X2.200000*%
%TD*%
%TA.AperFunction,ComponentPad*%
%ADD21O,2.200000X2.200000*%
%TD*%
%TA.AperFunction,ComponentPad*%
%ADD22O,2.200000X3.500000*%
%TD*%
%TA.AperFunction,ComponentPad*%
%ADD23R,1.500000X2.500000*%
%TD*%
%TA.AperFunction,ComponentPad*%
%ADD24O,1.500000X2.500000*%
%TD*%
%TA.AperFunction,ComponentPad*%
%ADD25R,1.700000X1.700000*%
%TD*%
%TA.AperFunction,ComponentPad*%
%ADD26O,1.700000X1.700000*%
%TD*%
%TA.AperFunction,ComponentPad*%
%ADD27RoundRect,0.250000X0.625000X-0.350000X0.625000X0.350000X-0.625000X0.350000X-0.625000X-0.350000X0*%
%TD*%
%TA.AperFunction,ComponentPad*%
%ADD28O,1.750000X1.200000*%
%TD*%
%TA.AperFunction,ComponentPad*%
%ADD29R,1.500000X1.050000*%
%TD*%
%TA.AperFunction,ComponentPad*%
%ADD30O,1.500000X1.050000*%
%TD*%
%TA.AperFunction,SMDPad,CuDef*%
%ADD31RoundRect,0.075000X0.225000X-0.910000X0.225000X0.910000X-0.225000X0.910000X-0.225000X-0.910000X0*%
%TD*%
%TA.AperFunction,SMDPad,CuDef*%
%ADD32R,3.302000X2.413000*%
%TD*%
%TA.AperFunction,ViaPad*%
%ADD33C,0.600000*%
%TD*%
%TA.AperFunction,Conductor*%
%ADD34C,0.200000*%
%TD*%
G04 APERTURE END LIST*
D10*
%TO.P,R6,1*%
%TO.N,GND*%
X224500000Y-61620000D03*
D11*
%TO.P,R6,2*%
%TO.N,Net-(Q4-B)*%
X224500000Y-54000000D03*
%TD*%
D12*
%TO.P,J7,1,Pin_1*%
%TO.N,A_3V3(OUT)*%
X227000000Y-130555000D03*
D13*
%TO.P,J7,2,Pin_2*%
%TO.N,SENSOR_DATA*%
X229500000Y-130555000D03*
%TO.P,J7,3,Pin_3*%
%TO.N,GND*%
X232000000Y-130555000D03*
%TD*%
D10*
%TO.P,R5,1*%
%TO.N,A_3V3(OUT)*%
X244500000Y-51690000D03*
D11*
%TO.P,R5,2*%
%TO.N,Net-(Q4-B)*%
X244500000Y-59310000D03*
%TD*%
D14*
%TO.P,D4,1,K*%
%TO.N,~{STDBY}*%
X242460000Y-82500000D03*
D15*
%TO.P,D4,2,A*%
%TO.N,Net-(D4-A)*%
X245000000Y-82500000D03*
%TD*%
D10*
%TO.P,R8,1*%
%TO.N,Net-(D4-A)*%
X236810000Y-77000000D03*
D11*
%TO.P,R8,2*%
%TO.N,A-VBUS*%
X229190000Y-77000000D03*
%TD*%
D16*
%TO.P,A1,1,GPIO0*%
%TO.N,A_GPIO0*%
X169000000Y-32600000D03*
D10*
%TO.P,A1,2,GPIO1*%
%TO.N,A_GPIO1*%
X169000000Y-35140000D03*
D17*
%TO.P,A1,3,GND*%
%TO.N,GND*%
X169000000Y-37680000D03*
D10*
%TO.P,A1,4,GPIO2*%
%TO.N,A_GPIO2*%
X169000000Y-40220000D03*
%TO.P,A1,5,GPIO3*%
%TO.N,A_GPIO3*%
X169000000Y-42760000D03*
%TO.P,A1,6,GPIO4*%
%TO.N,A_GPIO4*%
X169000000Y-45300000D03*
%TO.P,A1,7,GPIO5*%
%TO.N,A_GPIO5*%
X169000000Y-47840000D03*
D17*
%TO.P,A1,8,GND*%
%TO.N,GND*%
X169000000Y-50380000D03*
D10*
%TO.P,A1,9,GPIO6*%
%TO.N,A_GPIO6*%
X169000000Y-52920000D03*
%TO.P,A1,10,GPIO7*%
%TO.N,A_GPIO7*%
X169000000Y-55460000D03*
%TO.P,A1,11,GPIO8*%
%TO.N,A_GPIO8*%
X169000000Y-58000000D03*
%TO.P,A1,12,GPIO9*%
%TO.N,A_GPIO9*%
X169000000Y-60540000D03*
D17*
%TO.P,A1,13,GND*%
%TO.N,GND*%
X169000000Y-63080000D03*
D10*
%TO.P,A1,14,GPIO10*%
%TO.N,A_GPIO10*%
X169000000Y-65620000D03*
%TO.P,A1,15,GPIO11*%
%TO.N,A_GPIO11*%
X169000000Y-68160000D03*
%TO.P,A1,16,GPIO12*%
%TO.N,UART_TX*%
X169000000Y-70700000D03*
%TO.P,A1,17,GPIO13*%
%TO.N,UART_RX*%
X169000000Y-73240000D03*
D17*
%TO.P,A1,18,GND*%
%TO.N,GND*%
X169000000Y-75780000D03*
D10*
%TO.P,A1,19,GPIO14*%
%TO.N,A_GPIO14*%
X169000000Y-78320000D03*
%TO.P,A1,20,GPIO15*%
%TO.N,A_GPIO15*%
X169000000Y-80860000D03*
%TO.P,A1,21,GPIO16*%
%TO.N,RX-TX*%
X186780000Y-80860000D03*
%TO.P,A1,22,GPIO17*%
%TO.N,CS*%
X186780000Y-78320000D03*
D18*
%TO.P,A1,23,GND*%
%TO.N,GND*%
X186780000Y-75780000D03*
D10*
%TO.P,A1,24,GPIO18*%
%TO.N,SCK*%
X186780000Y-73240000D03*
%TO.P,A1,25,GPIO19*%
%TO.N,TX-RX*%
X186780000Y-70700000D03*
%TO.P,A1,26,GPIO20*%
%TO.N,A_GPIO20*%
X186780000Y-68160000D03*
%TO.P,A1,27,GPIO21*%
%TO.N,A_GPIO21*%
X186780000Y-65620000D03*
D18*
%TO.P,A1,28,GND*%
%TO.N,GND*%
X186780000Y-63080000D03*
D10*
%TO.P,A1,29,GPIO22*%
%TO.N,SENSOR_DATA*%
X186780000Y-60540000D03*
%TO.P,A1,30,RUN*%
%TO.N,A_RUN*%
X186780000Y-58000000D03*
%TO.P,A1,31,GPIO26_ADC0*%
%TO.N,A_GPIO26*%
X186780000Y-55460000D03*
%TO.P,A1,32,GPIO27_ADC1*%
%TO.N,A_GPIO27*%
X186780000Y-52920000D03*
D18*
%TO.P,A1,33,AGND*%
%TO.N,GND*%
X186780000Y-50380000D03*
D10*
%TO.P,A1,34,GPIO28_ADC2*%
%TO.N,A_GPIO28*%
X186780000Y-47840000D03*
%TO.P,A1,35,ADC_VREF*%
%TO.N,A_ADC_VREF*%
X186780000Y-45300000D03*
%TO.P,A1,36,3V3*%
%TO.N,A_3V3(OUT)*%
X186780000Y-42760000D03*
%TO.P,A1,37,3V3_EN*%
%TO.N,A_3V3_EN*%
X186780000Y-40220000D03*
D18*
%TO.P,A1,38,GND*%
%TO.N,GND*%
X186780000Y-37680000D03*
D10*
%TO.P,A1,39,VSYS*%
%TO.N,Net-(A1-VSYS)*%
X186780000Y-35140000D03*
%TO.P,A1,40,VBUS*%
%TO.N,A-VBUS*%
X186780000Y-32600000D03*
%TD*%
D19*
%TO.P,F1,1*%
%TO.N,VSYS*%
X231700000Y-43050000D03*
%TO.P,F1,2*%
%TO.N,Net-(SW1-B)*%
X233300000Y-37950000D03*
%TD*%
D10*
%TO.P,R2,1*%
%TO.N,A_3V3(OUT)*%
X230380000Y-49500000D03*
D11*
%TO.P,R2,2*%
%TO.N,Net-(D2-A)*%
X238000000Y-49500000D03*
%TD*%
D20*
%TO.P,D5,1,K*%
%TO.N,Net-(A1-VSYS)*%
X193500000Y-39690000D03*
D21*
%TO.P,D5,2,A*%
%TO.N,VSYS*%
X193500000Y-47310000D03*
%TD*%
D22*
%TO.P,SW1,*%
%TO.N,*%
X239700000Y-32000000D03*
X231500000Y-32000000D03*
D23*
%TO.P,SW1,1,A*%
%TO.N,VBAT(+)*%
X237600000Y-32000000D03*
D24*
%TO.P,SW1,2,B*%
%TO.N,Net-(SW1-B)*%
X235600000Y-32000000D03*
%TO.P,SW1,3*%
%TO.N,N/C*%
X233600000Y-32000000D03*
%TD*%
D10*
%TO.P,C4,1*%
%TO.N,GND*%
X236500000Y-86500000D03*
%TO.P,C4,2*%
%TO.N,VBAT(+)*%
X236500000Y-84500000D03*
%TD*%
%TO.P,C2,1*%
%TO.N,GND*%
X224500000Y-48750000D03*
%TO.P,C2,2*%
%TO.N,VSYS*%
X224500000Y-46250000D03*
%TD*%
D25*
%TO.P,J4,1,Pin_1*%
%TO.N,B_GPIO15*%
X199720000Y-136060000D03*
D26*
%TO.P,J4,2,Pin_2*%
%TO.N,B_GPIO14*%
X199720000Y-133520000D03*
%TO.P,J4,3,Pin_3*%
%TO.N,GND*%
X199720000Y-130980000D03*
%TO.P,J4,4,Pin_4*%
%TO.N,UART_TX*%
X199720000Y-128440000D03*
%TO.P,J4,5,Pin_5*%
%TO.N,UART_RX*%
X199720000Y-125900000D03*
%TO.P,J4,6,Pin_6*%
%TO.N,B_GPIO11*%
X199720000Y-123360000D03*
%TO.P,J4,7,Pin_7*%
%TO.N,B_GPIO10*%
X199720000Y-120820000D03*
%TO.P,J4,8,Pin_8*%
%TO.N,GND*%
X199720000Y-118280000D03*
%TO.P,J4,9,Pin_9*%
%TO.N,B_GPIO9*%
X199720000Y-115740000D03*
%TO.P,J4,10,Pin_10*%
%TO.N,B_GPIO8*%
X199720000Y-113200000D03*
%TO.P,J4,11,Pin_11*%
%TO.N,B_GPIO7*%
X199720000Y-110660000D03*
%TO.P,J4,12,Pin_12*%
%TO.N,B_GPIO6*%
X199720000Y-108120000D03*
%TO.P,J4,13,Pin_13*%
%TO.N,GND*%
X199720000Y-105580000D03*
%TO.P,J4,14,Pin_14*%
%TO.N,B_GPIO5*%
X199720000Y-103040000D03*
%TO.P,J4,15,Pin_15*%
%TO.N,B_GPIO4*%
X199720000Y-100500000D03*
%TO.P,J4,16,Pin_16*%
%TO.N,B_GPIO3*%
X199720000Y-97960000D03*
%TO.P,J4,17,Pin_17*%
%TO.N,B_GPIO2*%
X199720000Y-95420000D03*
%TO.P,J4,18,Pin_18*%
%TO.N,GND*%
X199720000Y-92880000D03*
%TO.P,J4,19,Pin_19*%
%TO.N,B_GPIO1*%
X199720000Y-90340000D03*
%TO.P,J4,20,Pin_20*%
%TO.N,B_GPIO0*%
X199720000Y-87800000D03*
%TD*%
D25*
%TO.P,J3,1,Pin_1*%
%TO.N,A-VBUS*%
X186780000Y-87860000D03*
D26*
%TO.P,J3,2,Pin_2*%
%TO.N,VSYS*%
X186780000Y-90400000D03*
%TO.P,J3,3,Pin_3*%
%TO.N,GND*%
X186780000Y-92940000D03*
%TO.P,J3,4,Pin_4*%
%TO.N,A_3V3_EN*%
X186780000Y-95480000D03*
%TO.P,J3,5,Pin_5*%
%TO.N,A_3V3(OUT)*%
X186780000Y-98020000D03*
%TO.P,J3,6,Pin_6*%
%TO.N,A_ADC_VREF*%
X186780000Y-100560000D03*
%TO.P,J3,7,Pin_7*%
%TO.N,A_GPIO28*%
X186780000Y-103100000D03*
%TO.P,J3,8,Pin_8*%
%TO.N,GND*%
X186780000Y-105640000D03*
%TO.P,J3,9,Pin_9*%
%TO.N,A_GPIO27*%
X186780000Y-108180000D03*
%TO.P,J3,10,Pin_10*%
%TO.N,A_GPIO26*%
X186780000Y-110720000D03*
%TO.P,J3,11,Pin_11*%
%TO.N,A_RUN*%
X186780000Y-113260000D03*
%TO.P,J3,12,Pin_12*%
%TO.N,SENSOR_DATA*%
X186780000Y-115800000D03*
%TO.P,J3,13,Pin_13*%
%TO.N,GND*%
X186780000Y-118340000D03*
%TO.P,J3,14,Pin_14*%
%TO.N,A_GPIO21*%
X186780000Y-120880000D03*
%TO.P,J3,15,Pin_15*%
%TO.N,A_GPIO20*%
X186780000Y-123420000D03*
%TO.P,J3,16,Pin_16*%
%TO.N,TX-RX*%
X186780000Y-125960000D03*
%TO.P,J3,17,Pin_17*%
%TO.N,SCK*%
X186780000Y-128500000D03*
%TO.P,J3,18,Pin_18*%
%TO.N,GND*%
X186780000Y-131040000D03*
%TO.P,J3,19,Pin_19*%
%TO.N,CS*%
X186780000Y-133580000D03*
%TO.P,J3,20,Pin_20*%
%TO.N,RX-TX*%
X186780000Y-136120000D03*
%TD*%
D27*
%TO.P,J1,1,Pin_1*%
%TO.N,VBAT(+)*%
X241550000Y-44000000D03*
D28*
%TO.P,J1,2,Pin_2*%
%TO.N,GND*%
X241550000Y-42000000D03*
%TD*%
D10*
%TO.P,C1,1*%
%TO.N,VSYS*%
X194750000Y-33500000D03*
%TO.P,C1,2*%
%TO.N,GND*%
X192250000Y-33500000D03*
%TD*%
D25*
%TO.P,J2,1,Pin_1*%
%TO.N,A_GPIO15*%
X169000000Y-136060000D03*
D26*
%TO.P,J2,2,Pin_2*%
%TO.N,A_GPIO14*%
X169000000Y-133520000D03*
%TO.P,J2,3,Pin_3*%
%TO.N,GND*%
X169000000Y-130980000D03*
%TO.P,J2,4,Pin_4*%
%TO.N,UART_RX*%
X169000000Y-128440000D03*
%TO.P,J2,5,Pin_5*%
%TO.N,UART_TX*%
X169000000Y-125900000D03*
%TO.P,J2,6,Pin_6*%
%TO.N,A_GPIO11*%
X169000000Y-123360000D03*
%TO.P,J2,7,Pin_7*%
%TO.N,A_GPIO10*%
X169000000Y-120820000D03*
%TO.P,J2,8,Pin_8*%
%TO.N,GND*%
X169000000Y-118280000D03*
%TO.P,J2,9,Pin_9*%
%TO.N,A_GPIO9*%
X169000000Y-115740000D03*
%TO.P,J2,10,Pin_10*%
%TO.N,A_GPIO8*%
X169000000Y-113200000D03*
%TO.P,J2,11,Pin_11*%
%TO.N,A_GPIO7*%
X169000000Y-110660000D03*
%TO.P,J2,12,Pin_12*%
%TO.N,A_GPIO6*%
X169000000Y-108120000D03*
%TO.P,J2,13,Pin_13*%
%TO.N,GND*%
X169000000Y-105580000D03*
%TO.P,J2,14,Pin_14*%
%TO.N,A_GPIO5*%
X169000000Y-103040000D03*
%TO.P,J2,15,Pin_15*%
%TO.N,A_GPIO4*%
X169000000Y-100500000D03*
%TO.P,J2,16,Pin_16*%
%TO.N,A_GPIO3*%
X169000000Y-97960000D03*
%TO.P,J2,17,Pin_17*%
%TO.N,A_GPIO2*%
X169000000Y-95420000D03*
%TO.P,J2,18,Pin_18*%
%TO.N,GND*%
X169000000Y-92880000D03*
%TO.P,J2,19,Pin_19*%
%TO.N,A_GPIO1*%
X169000000Y-90340000D03*
%TO.P,J2,20,Pin_20*%
%TO.N,A_GPIO0*%
X169000000Y-87800000D03*
%TD*%
D10*
%TO.P,R1,1*%
%TO.N,GND*%
X224500000Y-103310000D03*
D11*
%TO.P,R1,2*%
%TO.N,Net-(U1-PROG)*%
X224500000Y-95690000D03*
%TD*%
D10*
%TO.P,R7,1*%
%TO.N,Net-(Q3-E)*%
X229000000Y-68000000D03*
D11*
%TO.P,R7,2*%
%TO.N,Net-(Q3-B)*%
X236620000Y-68000000D03*
%TD*%
D14*
%TO.P,D2,1,K*%
%TO.N,Net-(D2-K)*%
X242460000Y-65500000D03*
D15*
%TO.P,D2,2,A*%
%TO.N,Net-(D2-A)*%
X245000000Y-65500000D03*
%TD*%
D14*
%TO.P,D3,1,K*%
%TO.N,~{CHRG}*%
X242460000Y-74000000D03*
D15*
%TO.P,D3,2,A*%
%TO.N,Net-(D3-A)*%
X245000000Y-74000000D03*
%TD*%
D10*
%TO.P,C3,1*%
%TO.N,GND*%
X237500000Y-92000000D03*
%TO.P,C3,2*%
%TO.N,A-VBUS*%
X235500000Y-92000000D03*
%TD*%
D20*
%TO.P,D6,1,K*%
%TO.N,Net-(A2-VSYS)*%
X225000000Y-31190000D03*
D21*
%TO.P,D6,2,A*%
%TO.N,VSYS*%
X225000000Y-38810000D03*
%TD*%
D29*
%TO.P,Q3,1,E*%
%TO.N,Net-(Q3-E)*%
X234000000Y-56500000D03*
D30*
%TO.P,Q3,2,B*%
%TO.N,Net-(Q3-B)*%
X234000000Y-55230000D03*
%TO.P,Q3,3,C*%
%TO.N,Net-(D2-K)*%
X234000000Y-53960000D03*
%TD*%
D10*
%TO.P,R3,1*%
%TO.N,Net-(D3-A)*%
X229190000Y-72500000D03*
D11*
%TO.P,R3,2*%
%TO.N,A-VBUS*%
X236810000Y-72500000D03*
%TD*%
D25*
%TO.P,J5,1,Pin_1*%
%TO.N,B-VBUS*%
X217500000Y-87860000D03*
D26*
%TO.P,J5,2,Pin_2*%
%TO.N,VSYS*%
X217500000Y-90400000D03*
%TO.P,J5,3,Pin_3*%
%TO.N,GND*%
X217500000Y-92940000D03*
%TO.P,J5,4,Pin_4*%
%TO.N,B_3V3_EN*%
X217500000Y-95480000D03*
%TO.P,J5,5,Pin_5*%
%TO.N,B_3V3(OUT)*%
X217500000Y-98020000D03*
%TO.P,J5,6,Pin_6*%
%TO.N,B_ADC_VREF*%
X217500000Y-100560000D03*
%TO.P,J5,7,Pin_7*%
%TO.N,B_GPIO28*%
X217500000Y-103100000D03*
%TO.P,J5,8,Pin_8*%
%TO.N,GND*%
X217500000Y-105640000D03*
%TO.P,J5,9,Pin_9*%
%TO.N,B_GPIO27*%
X217500000Y-108180000D03*
%TO.P,J5,10,Pin_10*%
%TO.N,B_GPIO26*%
X217500000Y-110720000D03*
%TO.P,J5,11,Pin_11*%
%TO.N,B_RUN*%
X217500000Y-113260000D03*
%TO.P,J5,12,Pin_12*%
%TO.N,B_GPIO22*%
X217500000Y-115800000D03*
%TO.P,J5,13,Pin_13*%
%TO.N,GND*%
X217500000Y-118340000D03*
%TO.P,J5,14,Pin_14*%
%TO.N,B_GPIO21*%
X217500000Y-120880000D03*
%TO.P,J5,15,Pin_15*%
%TO.N,B_GPIO20*%
X217500000Y-123420000D03*
%TO.P,J5,16,Pin_16*%
%TO.N,RX-TX*%
X217500000Y-125960000D03*
%TO.P,J5,17,Pin_17*%
%TO.N,SCK*%
X217500000Y-128500000D03*
%TO.P,J5,18,Pin_18*%
%TO.N,GND*%
X217500000Y-131040000D03*
%TO.P,J5,19,Pin_19*%
%TO.N,CS*%
X217500000Y-133580000D03*
%TO.P,J5,20,Pin_20*%
%TO.N,TX-RX*%
X217500000Y-136120000D03*
%TD*%
D31*
%TO.P,U1,1,TEMP*%
%TO.N,GND*%
X225595000Y-88475000D03*
%TO.P,U1,2,PROG*%
%TO.N,Net-(U1-PROG)*%
X226865000Y-88475000D03*
%TO.P,U1,3,GND*%
%TO.N,GND*%
X228135000Y-88475000D03*
%TO.P,U1,4,VCC*%
%TO.N,A-VBUS*%
X229405000Y-88475000D03*
%TO.P,U1,5,BAT*%
%TO.N,VBAT(+)*%
X229405000Y-83525000D03*
%TO.P,U1,6,~{STDBY}*%
%TO.N,~{STDBY}*%
X228135000Y-83525000D03*
%TO.P,U1,7,~{CHRG}*%
%TO.N,~{CHRG}*%
X226865000Y-83525000D03*
%TO.P,U1,8,CE*%
%TO.N,A-VBUS*%
X225595000Y-83525000D03*
D32*
%TO.P,U1,9,EP*%
%TO.N,GND*%
X227500000Y-86000000D03*
%TD*%
D16*
%TO.P,A2,1,GPIO0*%
%TO.N,B_GPIO0*%
X199720000Y-32600000D03*
D10*
%TO.P,A2,2,GPIO1*%
%TO.N,B_GPIO1*%
X199720000Y-35140000D03*
D17*
%TO.P,A2,3,GND*%
%TO.N,GND*%
X199720000Y-37680000D03*
D10*
%TO.P,A2,4,GPIO2*%
%TO.N,B_GPIO2*%
X199720000Y-40220000D03*
%TO.P,A2,5,GPIO3*%
%TO.N,B_GPIO3*%
X199720000Y-42760000D03*
%TO.P,A2,6,GPIO4*%
%TO.N,B_GPIO4*%
X199720000Y-45300000D03*
%TO.P,A2,7,GPIO5*%
%TO.N,B_GPIO5*%
X199720000Y-47840000D03*
D17*
%TO.P,A2,8,GND*%
%TO.N,GND*%
X199720000Y-50380000D03*
D10*
%TO.P,A2,9,GPIO6*%
%TO.N,B_GPIO6*%
X199720000Y-52920000D03*
%TO.P,A2,10,GPIO7*%
%TO.N,B_GPIO7*%
X199720000Y-55460000D03*
%TO.P,A2,11,GPIO8*%
%TO.N,B_GPIO8*%
X199720000Y-58000000D03*
%TO.P,A2,12,GPIO9*%
%TO.N,B_GPIO9*%
X199720000Y-60540000D03*
D17*
%TO.P,A2,13,GND*%
%TO.N,GND*%
X199720000Y-63080000D03*
D10*
%TO.P,A2,14,GPIO10*%
%TO.N,B_GPIO10*%
X199720000Y-65620000D03*
%TO.P,A2,15,GPIO11*%
%TO.N,UART_RX*%
X199720000Y-68160000D03*
%TO.P,A2,16,GPIO12*%
%TO.N,UART_TX*%
X199720000Y-70700000D03*
%TO.P,A2,17,GPIO13*%
%TO.N,B_GPIO13*%
X199720000Y-73240000D03*
D17*
%TO.P,A2,18,GND*%
%TO.N,GND*%
X199720000Y-75780000D03*
D10*
%TO.P,A2,19,GPIO14*%
%TO.N,B_GPIO14*%
X199720000Y-78320000D03*
%TO.P,A2,20,GPIO15*%
%TO.N,B_GPIO15*%
X199720000Y-80860000D03*
%TO.P,A2,21,GPIO16*%
%TO.N,TX-RX*%
X217500000Y-80860000D03*
%TO.P,A2,22,GPIO17*%
%TO.N,CS*%
X217500000Y-78320000D03*
D18*
%TO.P,A2,23,GND*%
%TO.N,GND*%
X217500000Y-75780000D03*
D10*
%TO.P,A2,24,GPIO18*%
%TO.N,SCK*%
X217500000Y-73240000D03*
%TO.P,A2,25,GPIO19*%
%TO.N,RX-TX*%
X217500000Y-70700000D03*
%TO.P,A2,26,GPIO20*%
%TO.N,B_GPIO20*%
X217500000Y-68160000D03*
%TO.P,A2,27,GPIO21*%
%TO.N,B_GPIO21*%
X217500000Y-65620000D03*
D18*
%TO.P,A2,28,GND*%
%TO.N,GND*%
X217500000Y-63080000D03*
D10*
%TO.P,A2,29,GPIO22*%
%TO.N,B_GPIO22*%
X217500000Y-60540000D03*
%TO.P,A2,30,RUN*%
%TO.N,B_RUN*%
X217500000Y-58000000D03*
%TO.P,A2,31,GPIO26_ADC0*%
%TO.N,B_GPIO26*%
X217500000Y-55460000D03*
%TO.P,A2,32,GPIO27_ADC1*%
%TO.N,B_GPIO27*%
X217500000Y-52920000D03*
D18*
%TO.P,A2,33,AGND*%
%TO.N,GND*%
X217500000Y-50380000D03*
D10*
%TO.P,A2,34,GPIO28_ADC2*%
%TO.N,B_GPIO28*%
X217500000Y-47840000D03*
%TO.P,A2,35,ADC_VREF*%
%TO.N,B_ADC_VREF*%
X217500000Y-45300000D03*
%TO.P,A2,36,3V3*%
%TO.N,B_3V3(OUT)*%
X217500000Y-42760000D03*
%TO.P,A2,37,3V3_EN*%
%TO.N,B_3V3_EN*%
X217500000Y-40220000D03*
D18*
%TO.P,A2,38,GND*%
%TO.N,GND*%
X217500000Y-37680000D03*
D10*
%TO.P,A2,39,VSYS*%
%TO.N,Net-(A2-VSYS)*%
X217500000Y-35140000D03*
%TO.P,A2,40,VBUS*%
%TO.N,B-VBUS*%
X217500000Y-32600000D03*
%TD*%
D29*
%TO.P,Q4,1,E*%
%TO.N,GND*%
X234000000Y-63000000D03*
D30*
%TO.P,Q4,2,B*%
%TO.N,Net-(Q4-B)*%
X234000000Y-61730000D03*
%TO.P,Q4,3,C*%
%TO.N,Net-(Q3-E)*%
X234000000Y-60460000D03*
%TD*%
D10*
%TO.P,R4,1*%
%TO.N,B_3V3(OUT)*%
X232000000Y-103310000D03*
D11*
%TO.P,R4,2*%
%TO.N,Net-(Q3-B)*%
X232000000Y-95690000D03*
%TD*%
D33*
%TO.N,GND*%
X235500000Y-45500000D03*
%TO.N,SCK*%
X193741500Y-70904700D03*
%TO.N,A_GPIO5*%
X166038800Y-96308400D03*
%TO.N,A_3V3(OUT)*%
X223701706Y-92600000D03*
X222500000Y-95500000D03*
%TO.N,A_GPIO2*%
X165112900Y-90472600D03*
%TO.N,UART_RX*%
X171431600Y-129419200D03*
%TO.N,A_GPIO14*%
X171868900Y-131904700D03*
%TO.N,A_GPIO10*%
X161843600Y-67910600D03*
%TO.N,TX-RX*%
X189406400Y-136411000D03*
%TO.N,A_RUN*%
X193566100Y-59920100D03*
%TO.N,CS*%
X182994200Y-80687900D03*
%TO.N,A_GPIO8*%
X166080800Y-59532900D03*
%TO.N,A-VBUS*%
X229727600Y-91500000D03*
%TO.N,A_GPIO3*%
X165537600Y-97211300D03*
%TO.N,RX-TX*%
X214996000Y-135682800D03*
X182043900Y-82843600D03*
%TO.N,A_GPIO4*%
X170559600Y-86036400D03*
X171597900Y-100139600D03*
X165058400Y-86398200D03*
%TO.N,A_GPIO1*%
X164835500Y-91354700D03*
%TO.N,A_GPIO9*%
X165561600Y-62071500D03*
%TO.N,A_GPIO21*%
X193363400Y-86981200D03*
X188369200Y-63957200D03*
X185916600Y-84280900D03*
%TO.N,UART_TX*%
X170265100Y-77481900D03*
X173973300Y-124721500D03*
%TO.N,SENSOR_DATA*%
X191082050Y-108082050D03*
X192071700Y-61793800D03*
X229500000Y-123500000D03*
%TO.N,B_GPIO7*%
X202547200Y-86200900D03*
X197588700Y-85653400D03*
%TO.N,B_GPIO6*%
X194341300Y-53286800D03*
X192728400Y-106600200D03*
%TO.N,B_GPIO27*%
X220877000Y-53286800D03*
%TO.N,B_RUN*%
X224500000Y-76500000D03*
X227594800Y-111852800D03*
X227000000Y-64000000D03*
X228000000Y-90500000D03*
%TO.N,B_GPIO14*%
X195485200Y-82034700D03*
%TO.N,B_GPIO4*%
X194758200Y-45432500D03*
X195012900Y-97782800D03*
%TO.N,B_3V3(OUT)*%
X221256799Y-97835299D03*
%TO.N,B_GPIO1*%
X195855900Y-90653800D03*
%TO.N,B_GPIO28*%
X220000000Y-47840000D03*
%TO.N,B_GPIO2*%
X198295500Y-58728300D03*
X197604700Y-56020100D03*
%TO.N,B_GPIO10*%
X198721800Y-79954600D03*
X203550700Y-81441800D03*
%TO.N,B_GPIO3*%
X196323900Y-97528100D03*
%TO.N,B_GPIO20*%
X221345300Y-123566000D03*
X222058700Y-68000000D03*
%TO.N,B_3V3_EN*%
X223000000Y-92984200D03*
%TO.N,B_GPIO9*%
X194874100Y-114781100D03*
X193984000Y-61793800D03*
%TO.N,VBAT(+)*%
X239500000Y-51000000D03*
X230000000Y-81600000D03*
X238000000Y-46500000D03*
%TO.N,~{CHRG}*%
X240000000Y-79500000D03*
X229704300Y-80043000D03*
%TO.N,~{STDBY}*%
X228402300Y-81738700D03*
%TD*%
D34*
%TO.N,GND*%
X170171700Y-94919300D02*
X169117800Y-93865400D01*
X170573400Y-108747200D02*
X170573400Y-104385500D01*
X169000000Y-118280000D02*
X169000000Y-117128300D01*
X170523400Y-43905100D02*
X170121700Y-43503400D01*
X169000000Y-75780000D02*
X170123200Y-74656800D01*
X227266000Y-89742824D02*
X227266000Y-92389400D01*
X186780000Y-75049500D02*
X186780000Y-75780000D01*
X237500000Y-87500000D02*
X236500000Y-86500000D01*
X215721400Y-84500000D02*
X218601700Y-84500000D01*
X227421100Y-86228600D02*
X225595000Y-88054700D01*
X199720000Y-118280000D02*
X199720000Y-117128300D01*
X237500000Y-92000000D02*
X237500000Y-87500000D01*
X230000000Y-45500000D02*
X226750000Y-48750000D01*
X198529100Y-107675500D02*
X198529100Y-116191300D01*
X199472900Y-106731700D02*
X198529100Y-107675500D01*
X170173200Y-109147400D02*
X170573400Y-108747200D01*
X218605900Y-64979900D02*
X218605900Y-74674100D01*
X198529100Y-116191300D02*
X199466100Y-117128300D01*
X218605900Y-74674100D02*
X217500000Y-75780000D01*
X170123200Y-64203200D02*
X169000000Y-63080000D01*
X219500000Y-131000000D02*
X217500000Y-131000000D01*
X170173200Y-116223600D02*
X170173200Y-109147400D01*
X217500000Y-63874000D02*
X218605900Y-64979900D01*
X186780000Y-63786800D02*
X187889500Y-64896300D01*
X187889500Y-73940000D02*
X186780000Y-75049500D01*
X235500000Y-45500000D02*
X230000000Y-45500000D01*
X227500000Y-86228600D02*
X227500000Y-87508200D01*
X217500000Y-93000000D02*
X215721400Y-93000000D01*
X169000000Y-50380000D02*
X170523400Y-48856600D01*
X219500000Y-118000000D02*
X219500000Y-131000000D01*
X169000000Y-92880000D02*
X169000000Y-93865400D01*
X185678300Y-61978300D02*
X186780000Y-63080000D01*
X170573400Y-104385500D02*
X170171700Y-103983800D01*
X227466000Y-89144000D02*
X227466000Y-89542824D01*
X187889500Y-64896300D02*
X187889500Y-73940000D01*
X228135000Y-88475000D02*
X227466000Y-89144000D01*
X227000000Y-103310000D02*
X224500000Y-103310000D01*
X215721400Y-93000000D02*
X215721400Y-84500000D01*
X217500000Y-118000000D02*
X219500000Y-118000000D01*
X227500000Y-87508200D02*
X228135000Y-88143200D01*
X185678300Y-50380000D02*
X186780000Y-50380000D01*
X218601700Y-84500000D02*
X218601700Y-76881700D01*
X170121700Y-38801700D02*
X169000000Y-37680000D01*
X227000000Y-92655400D02*
X227266000Y-92389400D01*
X185678300Y-50380000D02*
X185678300Y-61978300D01*
X199466100Y-117128300D02*
X199720000Y-117128300D01*
X169268500Y-117128300D02*
X170173200Y-116223600D01*
X170123200Y-74656800D02*
X170123200Y-64203200D01*
X169117800Y-93865400D02*
X169000000Y-93865400D01*
X226750000Y-48750000D02*
X224500000Y-48750000D01*
X170171700Y-103983800D02*
X170171700Y-94919300D01*
X199720000Y-106731700D02*
X199472900Y-106731700D01*
X227000000Y-92655400D02*
X227000000Y-103310000D01*
X218601700Y-76881700D02*
X217500000Y-75780000D01*
X186780000Y-37680000D02*
X185678300Y-38781700D01*
X169000000Y-117128300D02*
X169268500Y-117128300D01*
X170121700Y-43503400D02*
X170121700Y-38801700D01*
X199720000Y-105580000D02*
X199720000Y-106731700D01*
X217500000Y-63080000D02*
X217500000Y-63874000D01*
X186780000Y-63080000D02*
X186780000Y-63786800D01*
X170523400Y-48856600D02*
X170523400Y-43905100D01*
X227466000Y-89542824D02*
X227266000Y-89742824D01*
X185678300Y-38781700D02*
X185678300Y-50380000D01*
%TO.N,A_GPIO27*%
X184824900Y-101579300D02*
X185617500Y-102371900D01*
X188291200Y-82212300D02*
X188291200Y-80528200D01*
X188692900Y-80126500D02*
X188692900Y-75040800D01*
X185757100Y-84882600D02*
X186165800Y-84882600D01*
X186518300Y-83985200D02*
X188291200Y-82212300D01*
X189094600Y-74639100D02*
X189094600Y-63748300D01*
X185617500Y-106153700D02*
X186492100Y-107028300D01*
X189094600Y-63748300D02*
X188692900Y-63346600D01*
X184824900Y-94790800D02*
X184824900Y-101579300D01*
X187888800Y-56531700D02*
X187888800Y-54028800D01*
X188291200Y-59805700D02*
X188291200Y-56934100D01*
X186780000Y-108180000D02*
X186780000Y-107028300D01*
X188291200Y-59805700D02*
X188692900Y-60207400D01*
X186165800Y-84882600D02*
X186518300Y-84530100D01*
X185617500Y-102371900D02*
X185617500Y-106153700D01*
X184423200Y-94389100D02*
X184423200Y-86216500D01*
X186492100Y-107028300D02*
X186780000Y-107028300D01*
X188291200Y-80528200D02*
X188692900Y-80126500D01*
X184423200Y-86216500D02*
X185757100Y-84882600D01*
X188692900Y-63346600D02*
X188692900Y-60207400D01*
X184423200Y-94389100D02*
X184824900Y-94790800D01*
X188291200Y-56934100D02*
X187888800Y-56531700D01*
X188692900Y-75040800D02*
X189094600Y-74639100D01*
X186518300Y-84530100D02*
X186518300Y-83985200D01*
X187888800Y-54028800D02*
X186780000Y-52920000D01*
%TO.N,SCK*%
X194133600Y-120263200D02*
X187048500Y-127348300D01*
X186780000Y-128500000D02*
X186780000Y-127348300D01*
X193731900Y-98763800D02*
X194133600Y-99165500D01*
X193965100Y-96289400D02*
X193965100Y-71128300D01*
X193731900Y-98763800D02*
X193731900Y-96522600D01*
X187048500Y-127348300D02*
X186780000Y-127348300D01*
X193731900Y-96522600D02*
X193965100Y-96289400D01*
X194133600Y-99165500D02*
X194133600Y-120263200D01*
X193965100Y-71128300D02*
X193741500Y-70904700D01*
%TO.N,A_GPIO5*%
X166061800Y-85982700D02*
X165862000Y-85782900D01*
X165159700Y-62520800D02*
X164959700Y-62320800D01*
X165862000Y-85235500D02*
X165861800Y-85235300D01*
X166238100Y-86862300D02*
X166061800Y-86686000D01*
X166061800Y-86686000D02*
X166061800Y-85982700D01*
X165861800Y-85235300D02*
X165861800Y-85033700D01*
X166038100Y-94024200D02*
X166238100Y-93824200D01*
X165159700Y-70579400D02*
X165159700Y-62520800D01*
X165837900Y-94106200D02*
X165919900Y-94024200D01*
X165058400Y-70680700D02*
X165159700Y-70579400D01*
X165460100Y-84632000D02*
X165460100Y-81155800D01*
X166238100Y-93824200D02*
X166238100Y-86862300D01*
X165919900Y-94024200D02*
X166038100Y-94024200D01*
X165862000Y-85782900D02*
X165862000Y-85235500D01*
X165058400Y-80754100D02*
X165058400Y-73715700D01*
X165460100Y-81155800D02*
X165058400Y-80754100D01*
X165058400Y-73715700D02*
X165460100Y-73314000D01*
X166038800Y-96308400D02*
X165837900Y-96107500D01*
X165460100Y-72143900D02*
X165058400Y-71742200D01*
X165837900Y-96107500D02*
X165837900Y-94106200D01*
X165861800Y-85033700D02*
X165460100Y-84632000D01*
X164959700Y-62320800D02*
X164959700Y-51880300D01*
X164959700Y-51880300D02*
X169000000Y-47840000D01*
X165460100Y-73314000D02*
X165460100Y-72143900D01*
X165058400Y-71742200D02*
X165058400Y-70680700D01*
%TO.N,A_3V3(OUT)*%
X223060500Y-91958794D02*
X223060500Y-83223900D01*
X228873900Y-60059000D02*
X229441000Y-60059000D01*
X228599000Y-60901000D02*
X228599000Y-60333900D01*
X223701706Y-92600000D02*
X223060500Y-91958794D01*
X230380000Y-59120000D02*
X230380000Y-49500000D01*
X223000000Y-66500000D02*
X228599000Y-60901000D01*
X223060700Y-68415043D02*
X223060700Y-67584957D01*
X222500000Y-126055000D02*
X222500000Y-95500000D01*
X223000000Y-68475743D02*
X223060700Y-68415043D01*
X227000000Y-130555000D02*
X222500000Y-126055000D01*
X223060700Y-67584957D02*
X223000000Y-67524257D01*
X228599000Y-60333900D02*
X228873900Y-60059000D01*
X223000000Y-67524257D02*
X223000000Y-66500000D01*
X229441000Y-60059000D02*
X230380000Y-59120000D01*
X223060500Y-83223900D02*
X223000000Y-83163400D01*
X223000000Y-83163400D02*
X223000000Y-68475743D01*
%TO.N,A_GPIO2*%
X164456700Y-86149100D02*
X164456700Y-86647300D01*
X164656700Y-85949100D02*
X164456700Y-86149100D01*
X163954600Y-63019700D02*
X163954600Y-69353800D01*
X164656700Y-90016400D02*
X165112900Y-90472600D01*
X163954600Y-69353800D02*
X163853300Y-69455100D01*
X164456700Y-86647300D02*
X164656700Y-86847300D01*
X164656700Y-86847300D02*
X164656700Y-90016400D01*
X164656700Y-85734200D02*
X164656700Y-85949100D01*
X163853300Y-73216800D02*
X163853300Y-81253000D01*
X163754600Y-45465400D02*
X163754600Y-62819700D01*
X163754600Y-62819700D02*
X163954600Y-63019700D01*
X164255000Y-72642800D02*
X164255000Y-72815100D01*
X164255000Y-72815100D02*
X163853300Y-73216800D01*
X164255000Y-81654700D02*
X164255000Y-85332500D01*
X164255000Y-85332500D02*
X164656700Y-85734200D01*
X163853300Y-72241100D02*
X164255000Y-72642800D01*
X163853300Y-81253000D02*
X164255000Y-81654700D01*
X163853300Y-69455100D02*
X163853300Y-72241100D01*
X169000000Y-40220000D02*
X163754600Y-45465400D01*
%TO.N,A_GPIO7*%
X167066900Y-80490600D02*
X167066900Y-83966700D01*
X169457100Y-104310000D02*
X168639500Y-104310000D01*
X167066900Y-73979200D02*
X167066900Y-71277100D01*
X167168200Y-63019800D02*
X167368200Y-62819800D01*
X166966700Y-58007000D02*
X166966700Y-57493300D01*
X167368200Y-62819800D02*
X167368200Y-61323600D01*
X166665200Y-74380900D02*
X167066900Y-73979200D01*
X170171700Y-108580900D02*
X170171700Y-105024600D01*
X167050000Y-61005400D02*
X167368200Y-61323600D01*
X168639500Y-104310000D02*
X167845600Y-103516100D01*
X167468600Y-84570100D02*
X167468600Y-84368400D01*
X167845600Y-103516100D02*
X167845600Y-84947100D01*
X169000000Y-110660000D02*
X169000000Y-109508300D01*
X166966700Y-57493300D02*
X169000000Y-55460000D01*
X167050000Y-67929700D02*
X167091200Y-67888500D01*
X167226400Y-67751200D02*
X167226400Y-66894800D01*
X166962400Y-71172600D02*
X166962400Y-71090000D01*
X167066900Y-83966700D02*
X167468600Y-84368400D01*
X167437500Y-59641400D02*
X167437500Y-58477800D01*
X167226400Y-66894800D02*
X167168200Y-66836600D01*
X166962400Y-71090000D02*
X167050000Y-71002400D01*
X170171700Y-105024600D02*
X169457100Y-104310000D01*
X169244300Y-109508300D02*
X170171700Y-108580900D01*
X167091200Y-67888500D02*
X167091200Y-67886400D01*
X166665200Y-80088900D02*
X166665200Y-74380900D01*
X166966700Y-58007000D02*
X167437500Y-58477800D01*
X166665200Y-80088900D02*
X167066900Y-80490600D01*
X167050000Y-60028900D02*
X167437500Y-59641400D01*
X167050000Y-71002400D02*
X167050000Y-67929700D01*
X169000000Y-109508300D02*
X169244300Y-109508300D01*
X167050000Y-61005400D02*
X167050000Y-60028900D01*
X167845600Y-84947100D02*
X167468600Y-84570100D01*
X167066900Y-71277100D02*
X166962400Y-71172600D01*
X167168200Y-66836600D02*
X167168200Y-63019800D01*
X167091200Y-67886400D02*
X167226400Y-67751200D01*
%TO.N,UART_RX*%
X171820400Y-87137600D02*
X171820400Y-86729200D01*
X168629200Y-79590000D02*
X167870300Y-78831100D01*
X171161300Y-86070100D02*
X171161300Y-81458000D01*
X171161300Y-81458000D02*
X169293300Y-79590000D01*
X171431600Y-129419200D02*
X172199600Y-128651200D01*
X172199600Y-128651200D02*
X172199600Y-99890400D01*
X172199600Y-99890400D02*
X171999600Y-99690400D01*
X171820400Y-87137600D02*
X172220600Y-87537800D01*
X169000000Y-73950300D02*
X169000000Y-73240000D01*
X172220600Y-99037800D02*
X172220600Y-87537800D01*
X171999600Y-99258800D02*
X172220600Y-99037800D01*
X171820400Y-86729200D02*
X171161300Y-86070100D01*
X167870300Y-75080000D02*
X169000000Y-73950300D01*
X171999600Y-99690400D02*
X171999600Y-99258800D01*
X167870300Y-78831100D02*
X167870300Y-75080000D01*
X169293300Y-79590000D02*
X168629200Y-79590000D01*
%TO.N,A_GPIO14*%
X171868900Y-86209700D02*
X172270600Y-86611400D01*
X172401300Y-99524100D02*
X172401300Y-99425100D01*
X172401300Y-99425100D02*
X172622300Y-99204100D01*
X171868900Y-81188900D02*
X171868900Y-86209700D01*
X172270600Y-87019800D02*
X172622300Y-87371500D01*
X172601300Y-99724100D02*
X172401300Y-99524100D01*
X171868900Y-131904700D02*
X172601300Y-131172300D01*
X169000000Y-78320000D02*
X171868900Y-81188900D01*
X172622300Y-99204100D02*
X172622300Y-87371500D01*
X172601300Y-131172300D02*
X172601300Y-99724100D01*
X172270600Y-87019800D02*
X172270600Y-86611400D01*
%TO.N,A_GPIO10*%
X161843600Y-112799800D02*
X168712100Y-119668300D01*
X169000000Y-120820000D02*
X169000000Y-119668300D01*
X168712100Y-119668300D02*
X169000000Y-119668300D01*
X161843600Y-67910600D02*
X161843600Y-112799800D01*
%TO.N,A_3V3_EN*%
X188445100Y-84057200D02*
X188545200Y-84157300D01*
X189496300Y-83457700D02*
X189496300Y-82626900D01*
X187723400Y-84696300D02*
X188362500Y-84057200D01*
X189898000Y-62675800D02*
X189898000Y-59708500D01*
X186415200Y-86087700D02*
X186664700Y-86087700D01*
X190299700Y-81823500D02*
X190299700Y-63077500D01*
X186511500Y-94328300D02*
X185628300Y-93445100D01*
X188796700Y-84157300D02*
X189496300Y-83457700D01*
X189496300Y-82626900D02*
X190299700Y-81823500D01*
X190299700Y-63077500D02*
X189898000Y-62675800D01*
X187723400Y-85029000D02*
X187723400Y-84696300D01*
X188362500Y-84057200D02*
X188445100Y-84057200D01*
X188545200Y-84157300D02*
X188796700Y-84157300D01*
X185628300Y-93445100D02*
X185628300Y-86874600D01*
X186780000Y-94328300D02*
X186511500Y-94328300D01*
X189496300Y-42936300D02*
X186780000Y-40220000D01*
X189496300Y-59306800D02*
X189898000Y-59708500D01*
X189496300Y-59306800D02*
X189496300Y-42936300D01*
X186664700Y-86087700D02*
X187723400Y-85029000D01*
X186780000Y-95480000D02*
X186780000Y-94328300D01*
X185628300Y-86874600D02*
X186415200Y-86087700D01*
%TO.N,A_GPIO0*%
X167839200Y-59807700D02*
X167839200Y-57550300D01*
X167468600Y-83800400D02*
X169000000Y-85331800D01*
X169000000Y-87800000D02*
X169000000Y-85331800D01*
X167839200Y-57550300D02*
X168491200Y-56898300D01*
X167451700Y-60839100D02*
X167451700Y-60195200D01*
X167569900Y-63186100D02*
X167769900Y-62986100D01*
X170523400Y-40671700D02*
X170523400Y-34123400D01*
X167066900Y-79922600D02*
X167468600Y-80324300D01*
X167569900Y-66670300D02*
X167569900Y-63186100D01*
X167628100Y-67919600D02*
X167628100Y-66728500D01*
X167451700Y-60839100D02*
X167769900Y-61157300D01*
X167628100Y-66728500D02*
X167569900Y-66670300D01*
X167451700Y-68096000D02*
X167628100Y-67919600D01*
X170523400Y-40671700D02*
X170925100Y-41073400D01*
X167066900Y-79922600D02*
X167066900Y-74547200D01*
X167769900Y-62986100D02*
X167769900Y-61157300D01*
X167468600Y-74145500D02*
X167468600Y-71110800D01*
X167451700Y-71093900D02*
X167451700Y-68096000D01*
X167451700Y-60195200D02*
X167839200Y-59807700D01*
X170925100Y-55149700D02*
X170925100Y-41073400D01*
X167468600Y-80324300D02*
X167468600Y-83800400D01*
X167468600Y-71110800D02*
X167451700Y-71093900D01*
X168491200Y-56898300D02*
X169176500Y-56898300D01*
X170523400Y-34123400D02*
X169000000Y-32600000D01*
X167066900Y-74547200D02*
X167468600Y-74145500D01*
X169176500Y-56898300D02*
X170925100Y-55149700D01*
%TO.N,A_GPIO6*%
X166263500Y-80255200D02*
X166665200Y-80656900D01*
X167035800Y-58644100D02*
X166565000Y-58173300D01*
X166665200Y-80656900D02*
X166665200Y-84133000D01*
X166263500Y-80255200D02*
X166263500Y-74214600D01*
X167250100Y-105198200D02*
X167250100Y-105506400D01*
X166263500Y-74214600D02*
X166665200Y-73812900D01*
X167443900Y-104671800D02*
X167443900Y-85660800D01*
X166824700Y-67061100D02*
X166766500Y-67002900D01*
X166665200Y-71443400D02*
X166492300Y-71270500D01*
X167066900Y-84736400D02*
X167066900Y-84534700D01*
X166648300Y-61171700D02*
X166648300Y-59862600D01*
X169000000Y-108120000D02*
X169000000Y-106968300D01*
X167035800Y-59475100D02*
X167035800Y-58644100D01*
X168712000Y-106968300D02*
X169000000Y-106968300D01*
X166966500Y-62653500D02*
X166966500Y-61489900D01*
X166824700Y-67584900D02*
X166824700Y-67061100D01*
X166648300Y-67761300D02*
X166824700Y-67584900D01*
X166492300Y-70992100D02*
X166648300Y-70836100D01*
X166766500Y-67002900D02*
X166766500Y-62853500D01*
X167067100Y-84736600D02*
X167066900Y-84736400D01*
X166665200Y-73812900D02*
X166665200Y-71443400D01*
X166648300Y-70836100D02*
X166648300Y-67761300D01*
X167250100Y-105506400D02*
X168712000Y-106968300D01*
X166565000Y-58173300D02*
X166565000Y-55355000D01*
X166492300Y-71270500D02*
X166492300Y-70992100D01*
X166565000Y-55355000D02*
X169000000Y-52920000D01*
X166665200Y-84133000D02*
X167066900Y-84534700D01*
X167083800Y-105031900D02*
X167250100Y-105198200D01*
X167083800Y-105031900D02*
X167443900Y-104671800D01*
X166648300Y-59862600D02*
X167035800Y-59475100D01*
X166766500Y-62853500D02*
X166966500Y-62653500D01*
X166648300Y-61171700D02*
X166966500Y-61489900D01*
X167443900Y-85660800D02*
X167067100Y-85284000D01*
X167067100Y-85284000D02*
X167067100Y-84736600D01*
%TO.N,TX-RX*%
X220000000Y-136000000D02*
X217500000Y-136000000D01*
X186341100Y-129770000D02*
X187235000Y-129770000D01*
X215570000Y-117070000D02*
X220000000Y-117070000D01*
X215278400Y-116778400D02*
X215570000Y-117070000D01*
X185588800Y-127151200D02*
X185588800Y-129017700D01*
X217500000Y-82067100D02*
X215277700Y-84289400D01*
X220000000Y-117070000D02*
X220000000Y-136000000D01*
X186780000Y-125960000D02*
X185588800Y-127151200D01*
X215278400Y-85221600D02*
X215278400Y-116778400D01*
X185588800Y-129017700D02*
X186341100Y-129770000D01*
X215277700Y-85220900D02*
X215278400Y-85221600D01*
X189406400Y-131941400D02*
X189406400Y-136411000D01*
X215277700Y-84289400D02*
X215277700Y-85220900D01*
X217500000Y-80860000D02*
X217500000Y-82067100D01*
X187235000Y-129770000D02*
X189406400Y-131941400D01*
%TO.N,A_GPIO26*%
X187889500Y-78799200D02*
X187098700Y-79590000D01*
X187889300Y-63586300D02*
X187767500Y-63708100D01*
X188120200Y-64558900D02*
X188291200Y-64729900D01*
X187889500Y-74708200D02*
X187889500Y-78799200D01*
X187767500Y-63708100D02*
X187767500Y-64206300D01*
X186780000Y-109568300D02*
X186492000Y-109568300D01*
X184021500Y-94555400D02*
X184423200Y-94957100D01*
X186492000Y-109568300D02*
X185214300Y-108290600D01*
X186780000Y-55460000D02*
X186780000Y-56189000D01*
X188291200Y-64729900D02*
X188291200Y-74306500D01*
X186780000Y-56189000D02*
X187889300Y-57298300D01*
X184423200Y-101745700D02*
X185214300Y-102536800D01*
X184423200Y-94957100D02*
X184423200Y-101745700D01*
X188120100Y-64558900D02*
X188120200Y-64558900D01*
X186482400Y-79590000D02*
X184021500Y-82050900D01*
X187098700Y-79590000D02*
X186482400Y-79590000D01*
X188291200Y-74306500D02*
X187889500Y-74708200D01*
X184021500Y-82050900D02*
X184021500Y-94555400D01*
X186780000Y-110720000D02*
X186780000Y-109568300D01*
X187767500Y-64206300D02*
X188120100Y-64558900D01*
X185214300Y-108290600D02*
X185214300Y-102536800D01*
X187889300Y-57298300D02*
X187889300Y-63586300D01*
%TO.N,A_RUN*%
X193075100Y-60411100D02*
X193075100Y-69772700D01*
X193075100Y-69772700D02*
X192804400Y-70043400D01*
X193566100Y-59920100D02*
X193075100Y-60411100D01*
X192761700Y-86732100D02*
X192761700Y-98929600D01*
X192804400Y-86689400D02*
X192761700Y-86732100D01*
X193330200Y-99498100D02*
X193330200Y-107861500D01*
X186780000Y-113260000D02*
X187931700Y-113260000D01*
X193330200Y-107861500D02*
X187931700Y-113260000D01*
X192804400Y-70043400D02*
X192804400Y-86689400D01*
X192761700Y-98929600D02*
X193330200Y-99498100D01*
%TO.N,CS*%
X182827900Y-95905000D02*
X182994200Y-96071300D01*
X182994200Y-96071300D02*
X182994200Y-128930400D01*
X182994200Y-80687900D02*
X182994200Y-95738700D01*
X182994200Y-128930400D02*
X186492100Y-132428300D01*
X186492100Y-132428300D02*
X186780000Y-132428300D01*
X182994200Y-95738700D02*
X182827900Y-95905000D01*
X186780000Y-133580000D02*
X186780000Y-132428300D01*
%TO.N,A_GPIO20*%
X186780000Y-68160000D02*
X185416000Y-69524000D01*
X185416000Y-79538100D02*
X183588400Y-81365700D01*
X186780000Y-123420000D02*
X186780000Y-122268300D01*
X183588400Y-81365700D02*
X183588400Y-119345200D01*
X185416000Y-69524000D02*
X185416000Y-79538100D01*
X186511500Y-122268300D02*
X186780000Y-122268300D01*
X183588400Y-119345200D02*
X186511500Y-122268300D01*
%TO.N,A_GPIO8*%
X166263500Y-84299300D02*
X166263500Y-80823200D01*
X166090600Y-71436800D02*
X166090600Y-67753100D01*
X166210600Y-59662700D02*
X166080800Y-59532900D01*
X169000000Y-113200000D02*
X169000000Y-112048300D01*
X166090600Y-67753100D02*
X166210600Y-67633100D01*
X167041500Y-85961600D02*
X166865200Y-85785300D01*
X166665200Y-84701000D02*
X166263500Y-84299300D01*
X166641300Y-94557000D02*
X167041500Y-94156800D01*
X166641300Y-95492000D02*
X166641300Y-94557000D01*
X166665400Y-84902900D02*
X166665200Y-84902700D01*
X169000000Y-112048300D02*
X168734300Y-112048300D01*
X167042200Y-95892900D02*
X166641300Y-95492000D01*
X166665400Y-85450300D02*
X166665400Y-84902900D01*
X166641300Y-109955300D02*
X166641300Y-97124800D01*
X167041500Y-94156800D02*
X167041500Y-85961600D01*
X167042200Y-96723900D02*
X167042200Y-95892900D01*
X165861800Y-74048300D02*
X166263500Y-73646600D01*
X166641300Y-97124800D02*
X167042200Y-96723900D01*
X168734300Y-112048300D02*
X166641300Y-109955300D01*
X166263500Y-73646600D02*
X166263500Y-71609700D01*
X166865200Y-85785300D02*
X166865200Y-85650100D01*
X166210600Y-67633100D02*
X166210600Y-59662700D01*
X165861800Y-80421500D02*
X165861800Y-74048300D01*
X166665200Y-84902700D02*
X166665200Y-84701000D01*
X166263500Y-71609700D02*
X166090600Y-71436800D01*
X166263500Y-80823200D02*
X165861800Y-80421500D01*
X166865200Y-85650100D02*
X166665400Y-85450300D01*
%TO.N,A-VBUS*%
X189898000Y-59140500D02*
X190701400Y-59943900D01*
X229190000Y-78101700D02*
X225595000Y-81696700D01*
X229405000Y-88475000D02*
X230975000Y-88475000D01*
X186780000Y-86708300D02*
X186813700Y-86708300D01*
X229727600Y-91500000D02*
X231000000Y-90227600D01*
X186780000Y-87860000D02*
X186780000Y-86708300D01*
X189898000Y-35718000D02*
X186780000Y-32600000D01*
X225595000Y-81696700D02*
X225595000Y-83525000D01*
X231055700Y-79922800D02*
X229190000Y-78057100D01*
X229190000Y-77670200D02*
X229190000Y-78057100D01*
X186813700Y-86708300D02*
X190701400Y-82820600D01*
X231000000Y-88500000D02*
X231000000Y-79922800D01*
X189898000Y-59140500D02*
X189898000Y-35718000D01*
X230975000Y-88475000D02*
X231000000Y-88500000D01*
X190701400Y-82820600D02*
X190701400Y-59943900D01*
X231000000Y-90227600D02*
X231000000Y-88500000D01*
X229190000Y-78057100D02*
X229190000Y-78101700D01*
%TO.N,A_GPIO3*%
X165660100Y-86149000D02*
X165460300Y-85949200D01*
X165460300Y-85401800D02*
X165460100Y-85401600D01*
X165436200Y-97109900D02*
X165436200Y-93939900D01*
X164656700Y-80920400D02*
X165058400Y-81322100D01*
X164656700Y-70355700D02*
X164656700Y-71908500D01*
X165436200Y-93939900D02*
X165836300Y-93539800D01*
X165460100Y-85401500D02*
X165058400Y-84999800D01*
X165058400Y-72310200D02*
X165058400Y-73147700D01*
X164758000Y-62687100D02*
X164758000Y-70254400D01*
X165460300Y-85949200D02*
X165460300Y-85401800D01*
X165836400Y-87028600D02*
X165660100Y-86852300D01*
X170121700Y-45792000D02*
X169175400Y-46738300D01*
X165058400Y-73147700D02*
X164656700Y-73549400D01*
X165660100Y-86852300D02*
X165660100Y-86149000D01*
X164758000Y-70254400D02*
X164656700Y-70355700D01*
X164558000Y-50706400D02*
X164558000Y-62487100D01*
X169175400Y-46738300D02*
X168526100Y-46738300D01*
X165058400Y-84999800D02*
X165058400Y-81322100D01*
X165836300Y-93539800D02*
X165836400Y-93539800D01*
X164656700Y-71908500D02*
X165058400Y-72310200D01*
X165836400Y-93539800D02*
X165836400Y-87028600D01*
X165460100Y-85401600D02*
X165460100Y-85401500D01*
X164656700Y-73549400D02*
X164656700Y-80920400D01*
X165537600Y-97211300D02*
X165436200Y-97109900D01*
X164558000Y-62487100D02*
X164758000Y-62687100D01*
X170121700Y-44292900D02*
X170121700Y-45792000D01*
X168526100Y-46738300D02*
X164558000Y-50706400D01*
X169000000Y-43171200D02*
X170121700Y-44292900D01*
%TO.N,RX-TX*%
X182043900Y-82843600D02*
X182043900Y-130500700D01*
X182043900Y-130500700D02*
X186511500Y-134968300D01*
X186780000Y-136120000D02*
X186780000Y-134968300D01*
X186511500Y-134968300D02*
X186780000Y-134968300D01*
X214996000Y-125960000D02*
X214996000Y-135682800D01*
X217500000Y-125960000D02*
X214996000Y-125960000D01*
%TO.N,A_GPIO4*%
X171597900Y-100139600D02*
X171597900Y-98992600D01*
X164356300Y-62853400D02*
X164156300Y-62653400D01*
X164156300Y-62653400D02*
X164156300Y-50143700D01*
X171818900Y-98771600D02*
X171818900Y-87842400D01*
X165058400Y-86398200D02*
X165058400Y-85567900D01*
X164656700Y-72981400D02*
X164656700Y-72476500D01*
X164255000Y-69621400D02*
X164356300Y-69520100D01*
X164656700Y-72476500D02*
X164255000Y-72074800D01*
X171597900Y-98992600D02*
X171818900Y-98771600D01*
X171418700Y-86895500D02*
X170559600Y-86036400D01*
X164356300Y-69520100D02*
X164356300Y-62853400D01*
X164255000Y-72074800D02*
X164255000Y-69621400D01*
X171818900Y-87842400D02*
X171418700Y-87442200D01*
X164656700Y-85166200D02*
X164656700Y-81488400D01*
X164156300Y-50143700D02*
X169000000Y-45300000D01*
X164255000Y-81086700D02*
X164255000Y-73383100D01*
X165058400Y-85567900D02*
X164656700Y-85166200D01*
X164255000Y-73383100D02*
X164656700Y-72981400D01*
X171418700Y-87442200D02*
X171418700Y-86895500D01*
X164656700Y-81488400D02*
X164255000Y-81086700D01*
%TO.N,A_ADC_VREF*%
X188693700Y-47213700D02*
X188693700Y-56164600D01*
X189096100Y-82459100D02*
X189096100Y-80859300D01*
X186165700Y-85686000D02*
X186498400Y-85686000D01*
X186780000Y-100560000D02*
X186780000Y-99408300D01*
X189096100Y-80859300D02*
X189898000Y-80057400D01*
X189094600Y-83291400D02*
X189094600Y-82460600D01*
X186780000Y-45300000D02*
X188693700Y-47213700D01*
X189094600Y-59473100D02*
X189496300Y-59874800D01*
X186539500Y-99408300D02*
X186780000Y-99408300D01*
X188693700Y-56164600D02*
X189094600Y-56565500D01*
X188670900Y-83715000D02*
X188671000Y-83715000D01*
X188237500Y-83614200D02*
X188570100Y-83614200D01*
X187321700Y-84862700D02*
X187321700Y-84530000D01*
X189094600Y-59473100D02*
X189094600Y-56565500D01*
X189696300Y-63214000D02*
X189696300Y-63042100D01*
X185226600Y-94056500D02*
X185226600Y-86625100D01*
X189496300Y-62842100D02*
X189496300Y-59874800D01*
X185628300Y-98497100D02*
X186539500Y-99408300D01*
X188570100Y-83614200D02*
X188670900Y-83715000D01*
X189898000Y-80057400D02*
X189898000Y-63415700D01*
X185226600Y-86625100D02*
X186165700Y-85686000D01*
X185226600Y-94056500D02*
X185628300Y-94458200D01*
X189094600Y-82460600D02*
X189096100Y-82459100D01*
X187321700Y-84530000D02*
X188237500Y-83614200D01*
X188671000Y-83715000D02*
X189094600Y-83291400D01*
X189696300Y-63042100D02*
X189496300Y-62842100D01*
X186498400Y-85686000D02*
X187321700Y-84862700D01*
X189898000Y-63415700D02*
X189696300Y-63214000D01*
X185628300Y-94458200D02*
X185628300Y-98497100D01*
%TO.N,A_GPIO1*%
X163853300Y-85498800D02*
X164088700Y-85734200D01*
X163451600Y-72174700D02*
X163451600Y-72407400D01*
X164055000Y-86813600D02*
X164255000Y-87013600D01*
X163352900Y-72076000D02*
X163451600Y-72174700D01*
X164196200Y-85841600D02*
X164055000Y-85982800D01*
X163451600Y-72407400D02*
X163687000Y-72642800D01*
X163451600Y-81419300D02*
X163853300Y-81821000D01*
X163451600Y-73050500D02*
X163451600Y-81419300D01*
X163853300Y-81821000D02*
X163853300Y-85498800D01*
X163352900Y-40787100D02*
X163352900Y-72076000D01*
X169000000Y-35140000D02*
X163352900Y-40787100D01*
X163773200Y-72728900D02*
X163451600Y-73050500D01*
X163687000Y-72642800D02*
X163773200Y-72728900D01*
X164055000Y-85982800D02*
X164055000Y-86813600D01*
X164088700Y-85734200D02*
X164196200Y-85841600D01*
X164255000Y-87013600D02*
X164255000Y-90774200D01*
X164255000Y-90774200D02*
X164835500Y-91354700D01*
%TO.N,A_GPIO9*%
X166239600Y-95658400D02*
X166239600Y-94390700D01*
X166239600Y-94390700D02*
X166639800Y-93990500D01*
X165861800Y-71776100D02*
X165561600Y-71475900D01*
X165861800Y-84465600D02*
X165861800Y-80989500D01*
X166263700Y-85616600D02*
X166263700Y-85069200D01*
X166239600Y-96958400D02*
X166287900Y-96910100D01*
X166640500Y-96557600D02*
X166640500Y-96059200D01*
X166640500Y-96059200D02*
X166288000Y-95706700D01*
X165561600Y-71475900D02*
X165561600Y-62071500D01*
X165460100Y-80587800D02*
X165460100Y-73882000D01*
X166639800Y-93990500D02*
X166639800Y-86128000D01*
X165861800Y-73480300D02*
X165861800Y-71776100D01*
X165460100Y-73882000D02*
X165861800Y-73480300D01*
X169000000Y-114588300D02*
X168734300Y-114588300D01*
X166239600Y-112093600D02*
X166239600Y-96958400D01*
X166263700Y-85069200D02*
X166263500Y-85069000D01*
X168734300Y-114588300D02*
X166239600Y-112093600D01*
X169000000Y-115740000D02*
X169000000Y-114588300D01*
X166288000Y-95706700D02*
X166287900Y-95706700D01*
X165861800Y-80989500D02*
X165460100Y-80587800D01*
X166463500Y-85951700D02*
X166463500Y-85816400D01*
X166287900Y-95706700D02*
X166239600Y-95658400D01*
X166287900Y-96910100D02*
X166288000Y-96910100D01*
X166288000Y-96910100D02*
X166640500Y-96557600D01*
X166263500Y-84867300D02*
X165861800Y-84465600D01*
X166639800Y-86128000D02*
X166463500Y-85951700D01*
X166263500Y-85069000D02*
X166263500Y-84867300D01*
X166463500Y-85816400D02*
X166263700Y-85616600D01*
%TO.N,A_GPIO21*%
X188369200Y-63957200D02*
X188692900Y-64280900D01*
X186780000Y-120880000D02*
X186780000Y-119728300D01*
X187885600Y-80165600D02*
X187885600Y-81965600D01*
X193731900Y-99331800D02*
X193330200Y-98930100D01*
X187885600Y-81965600D02*
X185916600Y-83934600D01*
X185916600Y-83934600D02*
X185916600Y-84280900D01*
X188291200Y-74874500D02*
X188291200Y-79760000D01*
X186780000Y-119728300D02*
X187048500Y-119728300D01*
X188692900Y-64280900D02*
X188692900Y-74472800D01*
X193330200Y-98930100D02*
X193330200Y-87014400D01*
X193731900Y-113044900D02*
X193731900Y-99331800D01*
X193330200Y-87014400D02*
X193363400Y-86981200D01*
X187048500Y-119728300D02*
X193731900Y-113044900D01*
X188692900Y-74472800D02*
X188291200Y-74874500D01*
X188291200Y-79760000D02*
X187885600Y-80165600D01*
%TO.N,UART_TX*%
X170265100Y-78143900D02*
X173973300Y-81852100D01*
X173973300Y-81852100D02*
X173973300Y-124721500D01*
X170265100Y-77481900D02*
X170265100Y-78143900D01*
%TO.N,A_GPIO11*%
X170955100Y-115154000D02*
X170663800Y-115445300D01*
X169401700Y-83955700D02*
X169401700Y-86559200D01*
X169000000Y-123360000D02*
X169000000Y-122208300D01*
X167468600Y-74713500D02*
X167468600Y-79756200D01*
X170955100Y-98399300D02*
X170594500Y-98759900D01*
X169245900Y-122208300D02*
X169000000Y-122208300D01*
X167468600Y-79756200D02*
X167870300Y-80157900D01*
X167870300Y-82424300D02*
X169401700Y-83955700D01*
X167870300Y-69289700D02*
X167870300Y-74311800D01*
X170573400Y-96768600D02*
X170955100Y-97150300D01*
X170955100Y-117078300D02*
X170663800Y-117369600D01*
X170975100Y-108913500D02*
X170955100Y-108933500D01*
X170955100Y-108933500D02*
X170955100Y-115154000D01*
X170663800Y-116443100D02*
X170955100Y-116734400D01*
X170663800Y-115445300D02*
X170663800Y-116443100D01*
X170975100Y-104219200D02*
X170975100Y-108913500D01*
X170663800Y-117369600D02*
X170663800Y-118367400D01*
X170955100Y-120499100D02*
X169245900Y-122208300D01*
X170594500Y-100555000D02*
X170955100Y-100915600D01*
X167870300Y-74311800D02*
X167468600Y-74713500D01*
X170955100Y-116734400D02*
X170955100Y-117078300D01*
X170663800Y-118367400D02*
X170955100Y-118658700D01*
X169401700Y-86559200D02*
X170573400Y-87730900D01*
X170573400Y-87730900D02*
X170573400Y-96768600D01*
X170955100Y-104199200D02*
X170975100Y-104219200D01*
X170955100Y-97150300D02*
X170955100Y-98399300D01*
X169000000Y-68160000D02*
X167870300Y-69289700D01*
X170955100Y-118658700D02*
X170955100Y-120499100D01*
X167870300Y-80157900D02*
X167870300Y-82424300D01*
X170955100Y-100915600D02*
X170955100Y-104199200D01*
X170594500Y-98759900D02*
X170594500Y-100555000D01*
%TO.N,SENSOR_DATA*%
X186401900Y-111990000D02*
X185579900Y-112812000D01*
X187174100Y-111990000D02*
X186401900Y-111990000D01*
X191958300Y-107205800D02*
X191082050Y-108082050D01*
X229500000Y-123500000D02*
X229500000Y-130555000D01*
X186511500Y-114648300D02*
X186780000Y-114648300D01*
X185579900Y-113716700D02*
X186511500Y-114648300D01*
X192071700Y-61793800D02*
X191958300Y-61907200D01*
X186780000Y-115800000D02*
X186780000Y-114648300D01*
X191082050Y-108082050D02*
X187174100Y-111990000D01*
X185579900Y-112812000D02*
X185579900Y-113716700D01*
X191958300Y-61907200D02*
X191958300Y-107205800D01*
%TO.N,A_GPIO28*%
X186780000Y-103100000D02*
X186780000Y-101948300D01*
X188692900Y-56731800D02*
X188492900Y-56531800D01*
X188292000Y-49352000D02*
X186780000Y-47840000D01*
X185999400Y-85284300D02*
X186332100Y-85284300D01*
X188456900Y-56531800D02*
X188292000Y-56366900D01*
X188692900Y-59639400D02*
X188692900Y-56731800D01*
X188692900Y-59639400D02*
X189094600Y-60041100D01*
X185226600Y-94624500D02*
X185226600Y-100696500D01*
X188492900Y-56531800D02*
X188456900Y-56531800D01*
X184824900Y-94222800D02*
X185226600Y-94624500D01*
X189496300Y-74805400D02*
X189496300Y-63582000D01*
X186478400Y-101948300D02*
X186780000Y-101948300D01*
X188692900Y-80694500D02*
X189094600Y-80292800D01*
X189294600Y-63380300D02*
X189294600Y-63208400D01*
X186920000Y-84363700D02*
X188692900Y-82590800D01*
X184824900Y-86458800D02*
X185999400Y-85284300D01*
X186920000Y-84696400D02*
X186920000Y-84363700D01*
X189496300Y-63582000D02*
X189294600Y-63380300D01*
X186332100Y-85284300D02*
X186920000Y-84696400D01*
X189094600Y-63008400D02*
X189094600Y-60041100D01*
X184824900Y-94222800D02*
X184824900Y-86458800D01*
X189094600Y-75207100D02*
X189496300Y-74805400D01*
X188692900Y-82590800D02*
X188692900Y-80694500D01*
X188292000Y-56366900D02*
X188292000Y-49352000D01*
X189294600Y-63208400D02*
X189094600Y-63008400D01*
X185226600Y-100696500D02*
X186478400Y-101948300D01*
X189094600Y-80292800D02*
X189094600Y-75207100D01*
%TO.N,A_GPIO15*%
X169287900Y-134908300D02*
X169000000Y-134908300D01*
X171065500Y-118201100D02*
X171366800Y-118502400D01*
X170829900Y-124224800D02*
X170829900Y-133366300D01*
X170829900Y-133366300D02*
X169287900Y-134908300D01*
X171065500Y-116276800D02*
X171366800Y-116578100D01*
X171348900Y-100741300D02*
X171376800Y-100769200D01*
X171366800Y-118502400D02*
X171366800Y-123687900D01*
X171376800Y-98545600D02*
X171196200Y-98726200D01*
X170996200Y-100388700D02*
X171348800Y-100741300D01*
X170996200Y-99890500D02*
X170996200Y-100388700D01*
X171062800Y-96690000D02*
X171376800Y-97004000D01*
X169957900Y-86547300D02*
X171017000Y-87606400D01*
X171348800Y-100741300D02*
X171348900Y-100741300D01*
X171366800Y-123687900D02*
X170829900Y-124224800D01*
X171376800Y-115300300D02*
X171065500Y-115611600D01*
X171196200Y-99690500D02*
X170996200Y-99890500D01*
X171017000Y-96644000D02*
X171062800Y-96689800D01*
X171376800Y-97004000D02*
X171376800Y-98545600D01*
X169000000Y-80860000D02*
X169957900Y-81817900D01*
X171017000Y-87606400D02*
X171017000Y-96644000D01*
X171065500Y-115611600D02*
X171065500Y-116276800D01*
X171366800Y-116578100D02*
X171366800Y-117234600D01*
X169957900Y-81817900D02*
X169957900Y-86547300D01*
X171366800Y-117234600D02*
X171065500Y-117535900D01*
X171065500Y-117535900D02*
X171065500Y-118201100D01*
X169000000Y-136060000D02*
X169000000Y-134908300D01*
X171062800Y-96689800D02*
X171062800Y-96690000D01*
X171376800Y-100769200D02*
X171376800Y-115300300D01*
X171196200Y-98726200D02*
X171196200Y-99690500D01*
%TO.N,B_GPIO7*%
X196981200Y-84477500D02*
X196981200Y-83093600D01*
X197292000Y-57888000D02*
X199720000Y-55460000D01*
X197588700Y-85653400D02*
X197216600Y-85281300D01*
X197292000Y-82782800D02*
X197292000Y-57888000D01*
X199988500Y-109508300D02*
X202547200Y-106949600D01*
X199720000Y-109508300D02*
X199988500Y-109508300D01*
X196981200Y-83093600D02*
X197292000Y-82782800D01*
X202547200Y-106949600D02*
X202547200Y-86200900D01*
X199720000Y-110660000D02*
X199720000Y-109508300D01*
X197216600Y-84712900D02*
X196981200Y-84477500D01*
X197216600Y-85281300D02*
X197216600Y-84712900D01*
%TO.N,B_GPIO6*%
X192673400Y-54954700D02*
X192673400Y-62043000D01*
X192360000Y-69919800D02*
X192360000Y-106231800D01*
X192473400Y-62243000D02*
X192473400Y-69806400D01*
X192673400Y-62043000D02*
X192473400Y-62243000D01*
X192360000Y-106231800D02*
X192728400Y-106600200D01*
X192473400Y-69806400D02*
X192360000Y-69919800D01*
X194341300Y-53286800D02*
X192673400Y-54954700D01*
%TO.N,B_GPIO27*%
X221057000Y-64023000D02*
X221057000Y-83418800D01*
X220807300Y-53356500D02*
X220807300Y-63773300D01*
X220656800Y-108180000D02*
X217500000Y-108180000D01*
X220877000Y-53286800D02*
X220807300Y-53356500D01*
X221056300Y-83419500D02*
X221056300Y-83488100D01*
X221456500Y-92485900D02*
X220856100Y-93086300D01*
X221057000Y-83418800D02*
X221056300Y-83419500D01*
X221456500Y-83888300D02*
X221456500Y-92485900D01*
X220807300Y-63773300D02*
X221057000Y-64023000D01*
X220856100Y-97182400D02*
X220656350Y-97382150D01*
X220656800Y-97382600D02*
X220656800Y-108180000D01*
X221056300Y-83488100D02*
X221456500Y-83888300D01*
X220656350Y-97382150D02*
X220656800Y-97382600D01*
X220856100Y-93086300D02*
X220856100Y-97182400D01*
%TO.N,B_GPIO5*%
X196900500Y-91028100D02*
X196900500Y-88851100D01*
X196579500Y-91349100D02*
X196900500Y-91028100D01*
X196814900Y-88765500D02*
X196814900Y-84879200D01*
X196814900Y-84879200D02*
X196579500Y-84643800D01*
X199720000Y-102464100D02*
X196925600Y-99669700D01*
X196579500Y-96932800D02*
X196579500Y-91349100D01*
X196890300Y-50669700D02*
X199720000Y-47840000D01*
X196579500Y-82927300D02*
X196890300Y-82616500D01*
X196579500Y-84643800D02*
X196579500Y-82927300D01*
X196925600Y-99669700D02*
X196925600Y-97278900D01*
X196925600Y-97278900D02*
X196579500Y-96932800D01*
X196890300Y-82616500D02*
X196890300Y-50669700D01*
X196900500Y-88851100D02*
X196814900Y-88765500D01*
%TO.N,B_RUN*%
X227000000Y-64000000D02*
X223500000Y-67500000D01*
X223500000Y-67500000D02*
X223500000Y-75500000D01*
X228000000Y-111447600D02*
X227594800Y-111852800D01*
X228000000Y-90500000D02*
X228000000Y-111447600D01*
X224500000Y-76500000D02*
X223500000Y-75500000D01*
%TO.N,B_GPIO14*%
X199720000Y-133520000D02*
X199720000Y-132368300D01*
X195614600Y-128531400D02*
X199451500Y-132368300D01*
X195485200Y-82034700D02*
X195254200Y-82265700D01*
X199451500Y-132368300D02*
X199720000Y-132368300D01*
X195614500Y-91263200D02*
X195614600Y-91263200D01*
X195254200Y-82265700D02*
X195254200Y-90902900D01*
X195254200Y-90902900D02*
X195614500Y-91263200D01*
X195614600Y-91263200D02*
X195614600Y-128531400D01*
%TO.N,B_ADC_VREF*%
X220253600Y-64355600D02*
X220253600Y-83820500D01*
X219000000Y-46800000D02*
X219000000Y-56392900D01*
X219853400Y-97050000D02*
X219853400Y-100560000D01*
X220653800Y-84220700D02*
X220653800Y-91339200D01*
X217500000Y-45300000D02*
X219000000Y-46800000D01*
X220053400Y-96850000D02*
X219853400Y-97050000D01*
X219449500Y-61259100D02*
X219931700Y-61741300D01*
X219931700Y-61741300D02*
X219931700Y-62358700D01*
X219931700Y-62358700D02*
X220003900Y-62430900D01*
X219000000Y-56392900D02*
X219449500Y-56842400D01*
X220253600Y-83820500D02*
X220653800Y-84220700D01*
X219449500Y-56842400D02*
X219449500Y-61259100D01*
X220255100Y-92552200D02*
X220053400Y-92753900D01*
X220053400Y-92753900D02*
X220053400Y-96850000D01*
X219853400Y-100560000D02*
X217500000Y-100560000D01*
X220255100Y-91737900D02*
X220255100Y-92552200D01*
X220003900Y-64105900D02*
X220253600Y-64355600D01*
X220003900Y-62430900D02*
X220003900Y-64105900D01*
X220653800Y-91339200D02*
X220255100Y-91737900D01*
%TO.N,B_GPIO4*%
X194852500Y-71361900D02*
X194852500Y-97622400D01*
X194758200Y-45432500D02*
X194951400Y-45625700D01*
X194852500Y-97622400D02*
X195012900Y-97782800D01*
X194951400Y-45625700D02*
X194951400Y-71263000D01*
X194951400Y-71263000D02*
X194852500Y-71361900D01*
%TO.N,B_GPIO26*%
X219530000Y-62525000D02*
X219602200Y-62597200D01*
X216323500Y-108660300D02*
X217231500Y-109568300D01*
X219602200Y-62597200D02*
X219602200Y-64272200D01*
X219048500Y-61592400D02*
X219530000Y-62073900D01*
X217231500Y-109568300D02*
X217500000Y-109568300D01*
X219853400Y-92385900D02*
X219651700Y-92587600D01*
X219851900Y-64521900D02*
X219851900Y-83986800D01*
X220252100Y-91172900D02*
X219853400Y-91571600D01*
X220252100Y-84387000D02*
X220252100Y-91172900D01*
X219853400Y-91571600D02*
X219853400Y-92385900D01*
X219530000Y-62073900D02*
X219530000Y-62525000D01*
X217500000Y-55460000D02*
X219048500Y-57008500D01*
X219048500Y-57008500D02*
X219048500Y-61592400D01*
X219851900Y-83986800D02*
X220252100Y-84387000D01*
X219451700Y-96883700D02*
X219451700Y-99290000D01*
X219451700Y-99290000D02*
X216323500Y-99290000D01*
X219651700Y-92587600D02*
X219651700Y-96683700D01*
X217500000Y-109568300D02*
X217500000Y-110720000D01*
X219602200Y-64272200D02*
X219851900Y-64521900D01*
X216323500Y-99290000D02*
X216323500Y-108660300D01*
X219651700Y-96683700D02*
X219451700Y-96883700D01*
%TO.N,B-VBUS*%
X217500000Y-32600000D02*
X215000000Y-35100000D01*
X218726600Y-62857600D02*
X218798800Y-62929800D01*
X219048500Y-64854500D02*
X219048500Y-85305650D01*
X218726600Y-62728900D02*
X218726600Y-62857600D01*
X215242300Y-61742300D02*
X217740000Y-61742300D01*
X219048500Y-85305650D02*
X217500000Y-86854150D01*
X218798800Y-64604800D02*
X219048500Y-64854500D01*
X217500000Y-86854150D02*
X217500000Y-87860000D01*
X215000000Y-61500000D02*
X215242300Y-61742300D01*
X217740000Y-61742300D02*
X218726600Y-62728900D01*
X215000000Y-35100000D02*
X215000000Y-61500000D01*
X218798800Y-62929800D02*
X218798800Y-64604800D01*
%TO.N,B_3V3(OUT)*%
X221857500Y-92652000D02*
X221857500Y-83722200D01*
X221458000Y-83053000D02*
X221458700Y-83052300D01*
X221257100Y-93252400D02*
X221857500Y-92652000D01*
X221480300Y-46740300D02*
X217500000Y-42760000D01*
X221480300Y-61018100D02*
X221480300Y-46740300D01*
X221209000Y-63607000D02*
X221209000Y-61289400D01*
X221458700Y-63856700D02*
X221209000Y-63607000D01*
X221256799Y-97835299D02*
X221339701Y-97835299D01*
X221057800Y-97547800D02*
X221257100Y-97348500D01*
X221057800Y-97553398D02*
X221057800Y-97547800D01*
X221339701Y-97835299D02*
X221057800Y-97553398D01*
X221209000Y-61289400D02*
X221480300Y-61018100D01*
X221458000Y-83322700D02*
X221857500Y-83722200D01*
X221458000Y-83322700D02*
X221458000Y-83053000D01*
X221458700Y-83052300D02*
X221458700Y-63856700D01*
X221257100Y-97348500D02*
X221257100Y-93252400D01*
%TO.N,B_GPIO1*%
X196086900Y-38773100D02*
X199720000Y-35140000D01*
X195855900Y-90653800D02*
X195776100Y-90574000D01*
X196086900Y-82283900D02*
X196086900Y-38773100D01*
X195776100Y-90574000D02*
X195776100Y-82594700D01*
X195776100Y-82594700D02*
X196086900Y-82283900D01*
%TO.N,B_GPIO28*%
X220000000Y-61241600D02*
X220405600Y-61647200D01*
X221055500Y-84054400D02*
X221055500Y-92319800D01*
X220455100Y-92920200D02*
X220455100Y-97016300D01*
X221055500Y-92319800D02*
X220455100Y-92920200D01*
X220655300Y-83654200D02*
X221055500Y-84054400D01*
X220255100Y-97216300D02*
X220255100Y-101744900D01*
X220405600Y-61647200D02*
X220405600Y-63939600D01*
X220405600Y-63939600D02*
X220655300Y-64189300D01*
X220655300Y-64189300D02*
X220655300Y-83654200D01*
X219000000Y-103000000D02*
X217500000Y-103000000D01*
X220455100Y-97016300D02*
X220255100Y-97216300D01*
X220000000Y-47840000D02*
X220000000Y-61241600D01*
X220255100Y-101744900D02*
X219000000Y-103000000D01*
%TO.N,B_GPIO2*%
X197604700Y-55945000D02*
X199359700Y-54190000D01*
X198095400Y-81452400D02*
X198095400Y-58928400D01*
X200822800Y-42010000D02*
X199720000Y-40907200D01*
X199720000Y-94268300D02*
X200007900Y-94268300D01*
X200923400Y-93352800D02*
X200923400Y-84280400D01*
X200822800Y-53415100D02*
X200822800Y-42010000D01*
X199359700Y-54190000D02*
X200047900Y-54190000D01*
X197604700Y-56020100D02*
X197604700Y-55945000D01*
X200007900Y-94268300D02*
X200923400Y-93352800D01*
X198095400Y-58928400D02*
X198295500Y-58728300D01*
X200047900Y-54190000D02*
X200822800Y-53415100D01*
X199720000Y-95420000D02*
X199720000Y-94268300D01*
X200923400Y-84280400D02*
X198095400Y-81452400D01*
%TO.N,B_GPIO10*%
X199720000Y-120820000D02*
X199720000Y-119668300D01*
X198611400Y-66728600D02*
X199720000Y-65620000D01*
X198611400Y-79844200D02*
X198611400Y-66728600D01*
X200007900Y-119668300D02*
X203550700Y-116125500D01*
X198721800Y-79954600D02*
X198611400Y-79844200D01*
X199720000Y-119668300D02*
X200007900Y-119668300D01*
X203550700Y-116125500D02*
X203550700Y-81441800D01*
%TO.N,B_GPIO0*%
X199218300Y-56898300D02*
X199910900Y-56898300D01*
X200872800Y-33752800D02*
X199720000Y-32600000D01*
X197693700Y-58422900D02*
X199218300Y-56898300D01*
X197693700Y-84622000D02*
X197693700Y-58422900D01*
X201274500Y-55534700D02*
X201274500Y-41693500D01*
X200872800Y-41291800D02*
X201274500Y-41693500D01*
X200872800Y-41291800D02*
X200872800Y-33752800D01*
X199720000Y-86648300D02*
X197693700Y-84622000D01*
X199910900Y-56898300D02*
X201274500Y-55534700D01*
X199720000Y-87800000D02*
X199720000Y-86648300D01*
%TO.N,Net-(A2-VSYS)*%
X217500000Y-35140000D02*
X221640000Y-31000000D01*
X221640000Y-31000000D02*
X224810000Y-31000000D01*
%TO.N,B_GPIO3*%
X196488600Y-45991400D02*
X199720000Y-42760000D01*
X196457600Y-90903000D02*
X196457600Y-90861300D01*
X196105100Y-91255500D02*
X196457600Y-90903000D01*
X196457600Y-90861300D02*
X196498800Y-90820100D01*
X196177800Y-82761000D02*
X196488600Y-82450200D01*
X196498800Y-89017400D02*
X196177800Y-88696400D01*
X196323900Y-97528100D02*
X196105100Y-97309300D01*
X196498800Y-90820100D02*
X196498800Y-89017400D01*
X196177800Y-88696400D02*
X196177800Y-82761000D01*
X196488600Y-82450200D02*
X196488600Y-45991400D01*
X196105100Y-97309300D02*
X196105100Y-91255500D01*
%TO.N,B_GPIO21*%
X214880000Y-120880000D02*
X217500000Y-120880000D01*
X217500000Y-65620000D02*
X216234300Y-66885700D01*
X216234300Y-66885700D02*
X216234300Y-82765700D01*
X214876700Y-84123300D02*
X214876700Y-120876700D01*
X214876700Y-120876700D02*
X214880000Y-120880000D01*
X216234300Y-82765700D02*
X214876700Y-84123300D01*
%TO.N,B_GPIO8*%
X200934800Y-81363300D02*
X203149000Y-83577500D01*
X199720000Y-113200000D02*
X199720000Y-112048300D01*
X200934800Y-59214800D02*
X200934800Y-81363300D01*
X203149000Y-83577500D02*
X203149000Y-108887800D01*
X203149000Y-108887800D02*
X199988500Y-112048300D01*
X199988500Y-112048300D02*
X199720000Y-112048300D01*
X199720000Y-58000000D02*
X200934800Y-59214800D01*
%TO.N,B_GPIO20*%
X221500000Y-98436299D02*
X221500000Y-123411300D01*
X222058700Y-68000000D02*
X222058700Y-83085200D01*
X221857799Y-97613499D02*
X221993200Y-97748900D01*
X221558241Y-98383800D02*
X221505742Y-98436299D01*
X222258500Y-83556100D02*
X222258500Y-92818100D01*
X221923150Y-83220750D02*
X222258500Y-83556100D01*
X221857799Y-97586356D02*
X221857799Y-97613499D01*
X221500000Y-123411300D02*
X221345300Y-123566000D01*
X221658100Y-97386657D02*
X221857799Y-97586356D01*
X221658100Y-93418500D02*
X222258500Y-92818100D01*
X221658100Y-93418500D02*
X221658100Y-97386657D01*
X221993200Y-98031743D02*
X221641143Y-98383800D01*
X221505742Y-98436299D02*
X221500000Y-98436299D01*
X221641143Y-98383800D02*
X221558241Y-98383800D01*
X222058700Y-83085200D02*
X221923150Y-83220750D01*
X221993200Y-97748900D02*
X221993200Y-98031743D01*
%TO.N,B_GPIO15*%
X197966600Y-114681600D02*
X197966600Y-116196800D01*
X199354100Y-104310000D02*
X197961100Y-105703000D01*
X198527600Y-121272900D02*
X198527600Y-116757800D01*
X199720000Y-136060000D02*
X199720000Y-134908300D01*
X201905400Y-102516700D02*
X200112100Y-104310000D01*
X199720000Y-134908300D02*
X200007900Y-134908300D01*
X201905400Y-85104200D02*
X201739100Y-84937900D01*
X199344700Y-122090000D02*
X198527600Y-121272900D01*
X201905400Y-85104200D02*
X201905400Y-102516700D01*
X197961100Y-114676100D02*
X197966600Y-114681600D01*
X200007900Y-134908300D02*
X200885700Y-134030500D01*
X200119700Y-122090000D02*
X199344700Y-122090000D01*
X200112100Y-104310000D02*
X199354100Y-104310000D01*
X200885700Y-134030500D02*
X200885700Y-122856000D01*
X199720000Y-80860000D02*
X201739100Y-82879100D01*
X197966600Y-116196800D02*
X198527600Y-116757800D01*
X197961100Y-105703000D02*
X197961100Y-114676100D01*
X201739100Y-82879100D02*
X201739100Y-84937900D01*
X200885700Y-122856000D02*
X200119700Y-122090000D01*
%TO.N,B_GPIO22*%
X215884800Y-115800000D02*
X217500000Y-115800000D01*
X219850400Y-84553300D02*
X219850400Y-91006600D01*
X219450200Y-64688200D02*
X219450200Y-84153100D01*
X219050700Y-96750000D02*
X215884800Y-96750000D01*
X219450200Y-84153100D02*
X219850400Y-84553300D01*
X219128300Y-62275500D02*
X219128300Y-62691300D01*
X219250000Y-91607000D02*
X219250000Y-96518300D01*
X219850400Y-91006600D02*
X219250000Y-91607000D01*
X219128300Y-62691300D02*
X219200500Y-62763500D01*
X219050700Y-96717600D02*
X219050700Y-96750000D01*
X219200500Y-62763500D02*
X219200500Y-64438500D01*
X219250000Y-96518300D02*
X219050700Y-96717600D01*
X219200500Y-64438500D02*
X219450200Y-64688200D01*
X217500000Y-60647200D02*
X219128300Y-62275500D01*
X215884800Y-96750000D02*
X215884800Y-115800000D01*
%TO.N,B_3V3_EN*%
X222459700Y-68448943D02*
X222659700Y-68248943D01*
X222659500Y-83390000D02*
X222459700Y-83190200D01*
X222000000Y-44720000D02*
X217500000Y-40220000D01*
X222659700Y-68248943D02*
X222659700Y-67751057D01*
X223000000Y-92984200D02*
X222659500Y-92643700D01*
X222307643Y-67399000D02*
X222000000Y-67399000D01*
X222459700Y-83190200D02*
X222459700Y-68448943D01*
X222659500Y-92643700D02*
X222659500Y-83390000D01*
X222659700Y-67751057D02*
X222307643Y-67399000D01*
X222000000Y-67399000D02*
X222000000Y-44720000D01*
%TO.N,B_GPIO9*%
X194391500Y-62201300D02*
X194391500Y-98655200D01*
X194391500Y-98655200D02*
X194874100Y-99137800D01*
X193984000Y-61793800D02*
X194391500Y-62201300D01*
X194874100Y-99137800D02*
X194874100Y-114781100D01*
%TO.N,VSYS*%
X194901700Y-33651700D02*
X194901700Y-44437800D01*
X224500000Y-46250000D02*
X224500000Y-39310000D01*
X193500000Y-47310000D02*
X193500000Y-45839500D01*
X225000000Y-38810000D02*
X229190000Y-43000000D01*
X193500000Y-47310000D02*
X193500000Y-48711700D01*
X194901700Y-44437800D02*
X193500000Y-45839500D01*
X193500000Y-48711700D02*
X191363900Y-50847800D01*
X187594500Y-89248300D02*
X186780000Y-89248300D01*
X191363900Y-85478900D02*
X187594500Y-89248300D01*
X186780000Y-90400000D02*
X186780000Y-89248300D01*
X229190000Y-43000000D02*
X231650000Y-43000000D01*
X191363900Y-50847800D02*
X191363900Y-85478900D01*
%TO.N,VBAT(+)*%
X239500000Y-59067100D02*
X239500000Y-51000000D01*
X230000000Y-81600000D02*
X230000000Y-82453000D01*
X230000000Y-82453000D02*
X229405000Y-83048000D01*
X237600000Y-36600000D02*
X237600000Y-32000000D01*
X239000000Y-82000000D02*
X239000000Y-59567100D01*
X239000000Y-59567100D02*
X239500000Y-59067100D01*
X238000000Y-37000000D02*
X237600000Y-36600000D01*
X241550000Y-44000000D02*
X238000000Y-44000000D01*
X236500000Y-84500000D02*
X239000000Y-82000000D01*
X238000000Y-46500000D02*
X238000000Y-37000000D01*
%TO.N,Net-(D2-A)*%
X241500000Y-49500000D02*
X238000000Y-49500000D01*
X241500000Y-62000000D02*
X241500000Y-49500000D01*
X245000000Y-65500000D02*
X241500000Y-62000000D01*
%TO.N,~{CHRG}*%
X240000000Y-74000000D02*
X242460000Y-74000000D01*
X240000000Y-79500000D02*
X240000000Y-74000000D01*
X228610300Y-81137000D02*
X229704300Y-80043000D01*
X228153200Y-81137000D02*
X227733300Y-81556900D01*
X226865000Y-82882300D02*
X227733300Y-82014000D01*
X227733300Y-81556900D02*
X227733300Y-82014000D01*
X228610300Y-81137000D02*
X228153200Y-81137000D01*
%TO.N,~{STDBY}*%
X228402300Y-81738700D02*
X228402300Y-83257700D01*
X228402300Y-83257700D02*
X228135000Y-83525000D01*
%TO.N,Net-(Q3-E)*%
X229000000Y-60500000D02*
X229000000Y-68000000D01*
X234000000Y-60460000D02*
X229040000Y-60460000D01*
X229040000Y-60460000D02*
X229000000Y-60500000D01*
X234000000Y-56500000D02*
X234000000Y-60460000D01*
%TO.N,Net-(Q3-B)*%
X238500000Y-55230000D02*
X234000000Y-55230000D01*
X238599000Y-66695722D02*
X238500000Y-66596722D01*
X238599000Y-77901000D02*
X238599000Y-66695722D01*
X232000000Y-84500000D02*
X238599000Y-77901000D01*
X238023278Y-66596722D02*
X238500000Y-66596722D01*
X238500000Y-66596722D02*
X238500000Y-55230000D01*
X232000000Y-95690000D02*
X232000000Y-84500000D01*
X236620000Y-68000000D02*
X238023278Y-66596722D01*
%TO.N,Net-(U1-PROG)*%
X226865000Y-88475000D02*
X226865000Y-92223300D01*
X226865000Y-92223300D02*
X224500000Y-94588300D01*
X224500000Y-95690000D02*
X224500000Y-94588300D01*
%TD*%
M02*
