%TF.GenerationSoftware,KiCad,Pcbnew,9.0.0*%
%TF.CreationDate,2025-09-26T14:06:38-04:00*%
%TF.ProjectId,Design V3.0,44657369-676e-4205-9633-2e302e6b6963,rev?*%
%TF.SameCoordinates,Original*%
%TF.FileFunction,Plated,1,2,PTH,Drill*%
%TF.FilePolarity,Positive*%
%FSLAX46Y46*%
G04 Gerber Fmt 4.6, Leading zero omitted, Abs format (unit mm)*
G04 Created by KiCad (PCBNEW 9.0.0) date 2025-09-26 14:06:38*
%MOMM*%
%LPD*%
G01*
G04 APERTURE LIST*
%TA.AperFunction,ViaDrill*%
%ADD10C,0.300000*%
%TD*%
%TA.AperFunction,ComponentDrill*%
%ADD11C,0.710000*%
%TD*%
%TA.AperFunction,ComponentDrill*%
%ADD12C,0.750000*%
%TD*%
%TA.AperFunction,ComponentDrill*%
%ADD13C,0.800000*%
%TD*%
%TA.AperFunction,ComponentDrill*%
%ADD14C,0.900000*%
%TD*%
%TA.AperFunction,ComponentDrill*%
%ADD15C,1.000000*%
%TD*%
%TA.AperFunction,ComponentDrill*%
%ADD16C,1.100000*%
%TD*%
%TA.AperFunction,ComponentDrill*%
%ADD17C,1.500000*%
%TD*%
G04 APERTURE END LIST*
D10*
X161843600Y-67910600D03*
X164835500Y-91354700D03*
X165058400Y-86398200D03*
X165112900Y-90472600D03*
X165537600Y-97211300D03*
X165561600Y-62071500D03*
X166038800Y-96308400D03*
X166080800Y-59532900D03*
X170265100Y-77481900D03*
X170559600Y-86036400D03*
X171431600Y-129419200D03*
X171597900Y-100139600D03*
X171868900Y-131904700D03*
X173973300Y-124721500D03*
X182043900Y-82843600D03*
X182994200Y-80687900D03*
X185916600Y-84280900D03*
X188369200Y-63957200D03*
X189406400Y-136411000D03*
X192071700Y-61793800D03*
X192728400Y-106600200D03*
X193363400Y-86981200D03*
X193566100Y-59920100D03*
X193741500Y-70904700D03*
X193984000Y-61793800D03*
X194341300Y-53286800D03*
X194758200Y-45432500D03*
X194874100Y-114781100D03*
X195012900Y-97782800D03*
X195485200Y-82034700D03*
X195855900Y-90653800D03*
X196323900Y-97528100D03*
X197588700Y-85653400D03*
X197604700Y-56020100D03*
X198295500Y-58728300D03*
X198721800Y-79954600D03*
X202547200Y-86200900D03*
X203550700Y-81441800D03*
X214996000Y-135682800D03*
X220000000Y-47840000D03*
X220877000Y-53286800D03*
X221256799Y-97835299D03*
X221345300Y-123566000D03*
X222058700Y-68000000D03*
X222500000Y-96000000D03*
X223000000Y-92984200D03*
X223000000Y-117010000D03*
X223701706Y-92600000D03*
X224500000Y-76500000D03*
X227000000Y-64000000D03*
X227594800Y-111852800D03*
X228000000Y-90500000D03*
X228402300Y-81738700D03*
X229704300Y-80043000D03*
X229727600Y-91500000D03*
X230000000Y-81600000D03*
X235500000Y-45500000D03*
X238000000Y-46500000D03*
X239500000Y-51000000D03*
X240000000Y-79500000D03*
D11*
%TO.C,F1*%
X231700000Y-43050000D03*
X233300000Y-37950000D03*
D12*
%TO.C,Q3*%
X234000000Y-53960000D03*
X234000000Y-55230000D03*
X234000000Y-56500000D03*
%TO.C,Q4*%
X234000000Y-60460000D03*
X234000000Y-61730000D03*
X234000000Y-63000000D03*
%TO.C,J1*%
X241550000Y-42000000D03*
X241550000Y-44000000D03*
D13*
%TO.C,C1*%
X192250000Y-33500000D03*
X194750000Y-33500000D03*
%TO.C,C2*%
X224500000Y-46250000D03*
X224500000Y-48750000D03*
%TO.C,R6*%
X224500000Y-54000000D03*
X224500000Y-61620000D03*
%TO.C,R1*%
X224500000Y-95690000D03*
X224500000Y-103310000D03*
%TO.C,R7*%
X229000000Y-68000000D03*
%TO.C,R3*%
X229190000Y-72500000D03*
%TO.C,R8*%
X229190000Y-77000000D03*
%TO.C,R2*%
X230380000Y-49500000D03*
%TO.C,R4*%
X232000000Y-95690000D03*
X232000000Y-103310000D03*
%TO.C,C3*%
X235500000Y-92000000D03*
%TO.C,C4*%
X236500000Y-84500000D03*
X236500000Y-86500000D03*
%TO.C,R7*%
X236620000Y-68000000D03*
%TO.C,R3*%
X236810000Y-72500000D03*
%TO.C,R8*%
X236810000Y-77000000D03*
%TO.C,C3*%
X237500000Y-92000000D03*
%TO.C,R2*%
X238000000Y-49500000D03*
%TO.C,R5*%
X244500000Y-51690000D03*
X244500000Y-59310000D03*
D14*
%TO.C,SW1*%
X233600000Y-32000000D03*
X235600000Y-32000000D03*
X237600000Y-32000000D03*
%TO.C,D2*%
X242460000Y-65500000D03*
%TO.C,D3*%
X242460000Y-74000000D03*
%TO.C,D4*%
X242460000Y-82500000D03*
%TO.C,D2*%
X245000000Y-65500000D03*
%TO.C,D3*%
X245000000Y-74000000D03*
%TO.C,D4*%
X245000000Y-82500000D03*
D15*
%TO.C,A1*%
X169000000Y-32600000D03*
X169000000Y-35140000D03*
X169000000Y-37680000D03*
X169000000Y-40220000D03*
X169000000Y-42760000D03*
X169000000Y-45300000D03*
X169000000Y-47840000D03*
X169000000Y-50380000D03*
X169000000Y-52920000D03*
X169000000Y-55460000D03*
X169000000Y-58000000D03*
X169000000Y-60540000D03*
X169000000Y-63080000D03*
X169000000Y-65620000D03*
X169000000Y-68160000D03*
X169000000Y-70700000D03*
X169000000Y-73240000D03*
X169000000Y-75780000D03*
X169000000Y-78320000D03*
X169000000Y-80860000D03*
%TO.C,J2*%
X169000000Y-87800000D03*
X169000000Y-90340000D03*
X169000000Y-92880000D03*
X169000000Y-95420000D03*
X169000000Y-97960000D03*
X169000000Y-100500000D03*
X169000000Y-103040000D03*
X169000000Y-105580000D03*
X169000000Y-108120000D03*
X169000000Y-110660000D03*
X169000000Y-113200000D03*
X169000000Y-115740000D03*
X169000000Y-118280000D03*
X169000000Y-120820000D03*
X169000000Y-123360000D03*
X169000000Y-125900000D03*
X169000000Y-128440000D03*
X169000000Y-130980000D03*
X169000000Y-133520000D03*
X169000000Y-136060000D03*
%TO.C,A1*%
X186780000Y-32600000D03*
X186780000Y-35140000D03*
X186780000Y-37680000D03*
X186780000Y-40220000D03*
X186780000Y-42760000D03*
X186780000Y-45300000D03*
X186780000Y-47840000D03*
X186780000Y-50380000D03*
X186780000Y-52920000D03*
X186780000Y-55460000D03*
X186780000Y-58000000D03*
X186780000Y-60540000D03*
X186780000Y-63080000D03*
X186780000Y-65620000D03*
X186780000Y-68160000D03*
X186780000Y-70700000D03*
X186780000Y-73240000D03*
X186780000Y-75780000D03*
X186780000Y-78320000D03*
X186780000Y-80860000D03*
%TO.C,J3*%
X186780000Y-87860000D03*
X186780000Y-90400000D03*
X186780000Y-92940000D03*
X186780000Y-95480000D03*
X186780000Y-98020000D03*
X186780000Y-100560000D03*
X186780000Y-103100000D03*
X186780000Y-105640000D03*
X186780000Y-108180000D03*
X186780000Y-110720000D03*
X186780000Y-113260000D03*
X186780000Y-115800000D03*
X186780000Y-118340000D03*
X186780000Y-120880000D03*
X186780000Y-123420000D03*
X186780000Y-125960000D03*
X186780000Y-128500000D03*
X186780000Y-131040000D03*
X186780000Y-133580000D03*
X186780000Y-136120000D03*
%TO.C,A2*%
X199720000Y-32600000D03*
X199720000Y-35140000D03*
X199720000Y-37680000D03*
X199720000Y-40220000D03*
X199720000Y-42760000D03*
X199720000Y-45300000D03*
X199720000Y-47840000D03*
X199720000Y-50380000D03*
X199720000Y-52920000D03*
X199720000Y-55460000D03*
X199720000Y-58000000D03*
X199720000Y-60540000D03*
X199720000Y-63080000D03*
X199720000Y-65620000D03*
X199720000Y-68160000D03*
X199720000Y-70700000D03*
X199720000Y-73240000D03*
X199720000Y-75780000D03*
X199720000Y-78320000D03*
X199720000Y-80860000D03*
%TO.C,J4*%
X199720000Y-87800000D03*
X199720000Y-90340000D03*
X199720000Y-92880000D03*
X199720000Y-95420000D03*
X199720000Y-97960000D03*
X199720000Y-100500000D03*
X199720000Y-103040000D03*
X199720000Y-105580000D03*
X199720000Y-108120000D03*
X199720000Y-110660000D03*
X199720000Y-113200000D03*
X199720000Y-115740000D03*
X199720000Y-118280000D03*
X199720000Y-120820000D03*
X199720000Y-123360000D03*
X199720000Y-125900000D03*
X199720000Y-128440000D03*
X199720000Y-130980000D03*
X199720000Y-133520000D03*
X199720000Y-136060000D03*
%TO.C,A2*%
X217500000Y-32600000D03*
X217500000Y-35140000D03*
X217500000Y-37680000D03*
X217500000Y-40220000D03*
X217500000Y-42760000D03*
X217500000Y-45300000D03*
X217500000Y-47840000D03*
X217500000Y-50380000D03*
X217500000Y-52920000D03*
X217500000Y-55460000D03*
X217500000Y-58000000D03*
X217500000Y-60540000D03*
X217500000Y-63080000D03*
X217500000Y-65620000D03*
X217500000Y-68160000D03*
X217500000Y-70700000D03*
X217500000Y-73240000D03*
X217500000Y-75780000D03*
X217500000Y-78320000D03*
X217500000Y-80860000D03*
%TO.C,J5*%
X217500000Y-87860000D03*
X217500000Y-90400000D03*
X217500000Y-92940000D03*
X217500000Y-95480000D03*
X217500000Y-98020000D03*
X217500000Y-100560000D03*
X217500000Y-103100000D03*
X217500000Y-105640000D03*
X217500000Y-108180000D03*
X217500000Y-110720000D03*
X217500000Y-113260000D03*
X217500000Y-115800000D03*
X217500000Y-118340000D03*
X217500000Y-120880000D03*
X217500000Y-123420000D03*
X217500000Y-125960000D03*
X217500000Y-128500000D03*
X217500000Y-131040000D03*
X217500000Y-133580000D03*
X217500000Y-136120000D03*
%TO.C,J7*%
X225960000Y-139500000D03*
X228500000Y-139500000D03*
X231040000Y-139500000D03*
D16*
%TO.C,D5*%
X193500000Y-39690000D03*
X193500000Y-47310000D03*
%TO.C,D6*%
X225000000Y-31190000D03*
X225000000Y-38810000D03*
D17*
%TO.C,SW1*%
X231500000Y-32000000D03*
X239700000Y-32000000D03*
M02*
