M48
; DRILL file {KiCad 9.0.1} date 2025-09-26T21:18:27-0400
; FORMAT={-:-/ absolute / metric / decimal}
; #@! TF.CreationDate,2025-09-26T21:18:27-04:00
; #@! TF.GenerationSoftware,Kicad,Pcbnew,9.0.1
; #@! TF.FileFunction,Plated,1,2,PTH
FMAT,2
METRIC
; #@! TA.AperFunction,Plated,PTH,ViaDrill
T1C0.300
; #@! TA.AperFunction,Plated,PTH,ComponentDrill
T2C0.710
; #@! TA.AperFunction,Plated,PTH,ComponentDrill
T3C0.750
; #@! TA.AperFunction,Plated,PTH,ComponentDrill
T4C0.800
; #@! TA.AperFunction,Plated,PTH,ComponentDrill
T5C0.900
; #@! TA.AperFunction,Plated,PTH,ComponentDrill
T6C0.950
; #@! TA.AperFunction,Plated,PTH,ComponentDrill
T7C1.000
; #@! TA.AperFunction,Plated,PTH,ComponentDrill
T8C1.100
; #@! TA.AperFunction,Plated,PTH,ComponentDrill
T9C1.500
%
G90
G05
T1
X161.844Y-67.911
X164.835Y-91.355
X165.058Y-86.398
X165.113Y-90.473
X165.538Y-97.211
X165.562Y-62.072
X166.039Y-96.308
X166.081Y-59.533
X170.265Y-77.482
X170.56Y-86.036
X171.432Y-129.419
X171.598Y-100.14
X171.869Y-131.905
X173.973Y-124.721
X182.044Y-82.844
X182.994Y-80.688
X185.917Y-84.281
X188.369Y-63.957
X189.406Y-136.411
X191.082Y-108.082
X192.072Y-61.794
X192.728Y-106.6
X193.363Y-86.981
X193.566Y-59.92
X193.742Y-70.905
X193.984Y-61.794
X194.341Y-53.287
X194.758Y-45.432
X194.874Y-114.781
X195.013Y-97.783
X195.485Y-82.035
X195.856Y-90.654
X196.324Y-97.528
X197.589Y-85.653
X197.605Y-56.02
X198.296Y-58.728
X198.722Y-79.955
X202.547Y-86.201
X203.551Y-81.442
X214.996Y-135.683
X220.0Y-47.84
X220.877Y-53.287
X221.257Y-97.835
X221.345Y-123.566
X222.059Y-68.0
X222.5Y-95.5
X223.0Y-92.984
X223.702Y-92.6
X224.5Y-76.5
X227.0Y-64.0
X227.595Y-111.853
X228.0Y-90.5
X228.402Y-81.739
X229.5Y-123.5
X229.704Y-80.043
X229.728Y-91.5
X230.0Y-81.6
X235.5Y-45.5
X238.0Y-46.5
X239.5Y-51.0
X240.0Y-79.5
T2
X231.7Y-43.05
X233.3Y-37.95
T3
X234.0Y-53.96
X234.0Y-55.23
X234.0Y-56.5
X234.0Y-60.46
X234.0Y-61.73
X234.0Y-63.0
X241.55Y-42.0
X241.55Y-44.0
T4
X192.25Y-33.5
X194.75Y-33.5
X224.5Y-46.25
X224.5Y-48.75
X224.5Y-54.0
X224.5Y-61.62
X224.5Y-95.69
X224.5Y-103.31
X229.0Y-68.0
X229.19Y-72.5
X229.19Y-77.0
X230.38Y-49.5
X232.0Y-95.69
X232.0Y-103.31
X235.5Y-92.0
X236.5Y-84.5
X236.5Y-86.5
X236.62Y-68.0
X236.81Y-72.5
X236.81Y-77.0
X237.5Y-92.0
X238.0Y-49.5
X244.5Y-51.69
X244.5Y-59.31
T5
X233.6Y-32.0
X235.6Y-32.0
X237.6Y-32.0
X242.46Y-65.5
X242.46Y-74.0
X242.46Y-82.5
X245.0Y-65.5
X245.0Y-74.0
X245.0Y-82.5
T6
X227.0Y-130.555
X229.5Y-130.555
X232.0Y-130.555
T7
X169.0Y-32.6
X169.0Y-35.14
X169.0Y-37.68
X169.0Y-40.22
X169.0Y-42.76
X169.0Y-45.3
X169.0Y-47.84
X169.0Y-50.38
X169.0Y-52.92
X169.0Y-55.46
X169.0Y-58.0
X169.0Y-60.54
X169.0Y-63.08
X169.0Y-65.62
X169.0Y-68.16
X169.0Y-70.7
X169.0Y-73.24
X169.0Y-75.78
X169.0Y-78.32
X169.0Y-80.86
X169.0Y-87.8
X169.0Y-90.34
X169.0Y-92.88
X169.0Y-95.42
X169.0Y-97.96
X169.0Y-100.5
X169.0Y-103.04
X169.0Y-105.58
X169.0Y-108.12
X169.0Y-110.66
X169.0Y-113.2
X169.0Y-115.74
X169.0Y-118.28
X169.0Y-120.82
X169.0Y-123.36
X169.0Y-125.9
X169.0Y-128.44
X169.0Y-130.98
X169.0Y-133.52
X169.0Y-136.06
X186.78Y-32.6
X186.78Y-35.14
X186.78Y-37.68
X186.78Y-40.22
X186.78Y-42.76
X186.78Y-45.3
X186.78Y-47.84
X186.78Y-50.38
X186.78Y-52.92
X186.78Y-55.46
X186.78Y-58.0
X186.78Y-60.54
X186.78Y-63.08
X186.78Y-65.62
X186.78Y-68.16
X186.78Y-70.7
X186.78Y-73.24
X186.78Y-75.78
X186.78Y-78.32
X186.78Y-80.86
X186.78Y-87.86
X186.78Y-90.4
X186.78Y-92.94
X186.78Y-95.48
X186.78Y-98.02
X186.78Y-100.56
X186.78Y-103.1
X186.78Y-105.64
X186.78Y-108.18
X186.78Y-110.72
X186.78Y-113.26
X186.78Y-115.8
X186.78Y-118.34
X186.78Y-120.88
X186.78Y-123.42
X186.78Y-125.96
X186.78Y-128.5
X186.78Y-131.04
X186.78Y-133.58
X186.78Y-136.12
X199.72Y-32.6
X199.72Y-35.14
X199.72Y-37.68
X199.72Y-40.22
X199.72Y-42.76
X199.72Y-45.3
X199.72Y-47.84
X199.72Y-50.38
X199.72Y-52.92
X199.72Y-55.46
X199.72Y-58.0
X199.72Y-60.54
X199.72Y-63.08
X199.72Y-65.62
X199.72Y-68.16
X199.72Y-70.7
X199.72Y-73.24
X199.72Y-75.78
X199.72Y-78.32
X199.72Y-80.86
X199.72Y-87.8
X199.72Y-90.34
X199.72Y-92.88
X199.72Y-95.42
X199.72Y-97.96
X199.72Y-100.5
X199.72Y-103.04
X199.72Y-105.58
X199.72Y-108.12
X199.72Y-110.66
X199.72Y-113.2
X199.72Y-115.74
X199.72Y-118.28
X199.72Y-120.82
X199.72Y-123.36
X199.72Y-125.9
X199.72Y-128.44
X199.72Y-130.98
X199.72Y-133.52
X199.72Y-136.06
X217.5Y-32.6
X217.5Y-35.14
X217.5Y-37.68
X217.5Y-40.22
X217.5Y-42.76
X217.5Y-45.3
X217.5Y-47.84
X217.5Y-50.38
X217.5Y-52.92
X217.5Y-55.46
X217.5Y-58.0
X217.5Y-60.54
X217.5Y-63.08
X217.5Y-65.62
X217.5Y-68.16
X217.5Y-70.7
X217.5Y-73.24
X217.5Y-75.78
X217.5Y-78.32
X217.5Y-80.86
X217.5Y-87.86
X217.5Y-90.4
X217.5Y-92.94
X217.5Y-95.48
X217.5Y-98.02
X217.5Y-100.56
X217.5Y-103.1
X217.5Y-105.64
X217.5Y-108.18
X217.5Y-110.72
X217.5Y-113.26
X217.5Y-115.8
X217.5Y-118.34
X217.5Y-120.88
X217.5Y-123.42
X217.5Y-125.96
X217.5Y-128.5
X217.5Y-131.04
X217.5Y-133.58
X217.5Y-136.12
T8
X193.5Y-39.69
X193.5Y-47.31
X225.0Y-31.19
X225.0Y-38.81
T9
X231.5Y-32.0
X239.7Y-32.0
M30
